<svg width="50" height="101" viewBox="0 0 50 101" fill="none" xmlns="http://www.w3.org/2000/svg">
<path fill-rule="evenodd" clip-rule="evenodd" d="M45.1982 9.9967C43.6376 22.9967 43.1127 36.0998 43.6283 49.1826C43.8302 61.8603 45.4374 74.4767 48.4206 86.8012C48.4206 87.9561 48.999 89.1936 49.3295 90.431C49.6223 91.6267 49.8431 92.8388 49.9905 94.0609C50.0506 95.0367 49.8248 96.0088 49.3406 96.8585C48.8563 97.7083 48.1347 98.3988 47.2638 98.8457C45.3253 99.7804 43.2174 100.314 41.067 100.413C38.6836 100.511 36.2972 100.318 33.9612 99.8356C32.2176 99.61 30.5342 99.0497 29.0037 98.1857C27.1724 96.9073 25.7861 95.0905 25.0377 92.9884C24.1585 90.7884 23.4405 88.5275 22.8894 86.2237C21.6873 80.7928 20.9137 75.2761 20.5759 69.7243C19.9975 63.2071 19.667 56.4424 19.5844 49.5126C19.333 45.2815 19.333 41.0392 19.5844 36.8081C14.2652 37.2044 8.92116 36.5024 3.88563 34.7457C-4.37689 30.7034 2.48101 23.2787 6.61227 19.7313C13.8833 13.4616 27.1859 2.3245 27.6817 2.07701C29.3097 1.29042 31.0804 0.841405 32.887 0.757066C34.7009 0.588465 36.5265 0.588465 38.3403 0.757066C40.3366 0.891362 42.242 1.64079 43.7936 2.90198C44.552 3.90039 45.0727 5.05817 45.316 6.28747C45.5594 7.51677 45.5191 8.78527 45.1982 9.9967Z" fill="#7872B9"/>
</svg>
