<svg width="89" height="100" viewBox="0 0 89 100" fill="none" xmlns="http://www.w3.org/2000/svg">
<path d="M88.815 82.5376C88.5405 79.7986 88.0553 77.5187 87.3595 75.6979C87.1826 75.3373 87.0206 75.0582 86.8733 74.8606C86.783 74.6315 86.6346 74.4346 86.428 74.2701C86.3985 74.2466 86.3678 74.2237 86.3359 74.2015L85.8428 73.7872C85.6614 73.7084 85.4309 73.6669 85.1515 73.6626C85.1301 73.6595 85.1075 73.6572 85.0836 73.6554C84.9169 73.6434 84.692 73.6636 84.409 73.7162C84.3921 73.7193 84.3754 73.7225 84.3588 73.7258C84.1098 73.7754 83.8889 73.8444 83.696 73.9329C83.4384 74.03 83.1822 74.1258 82.9272 74.2203C79.103 75.6388 75.5715 76.7806 72.3326 77.6457C68.9219 78.5041 65.0746 79.1062 60.7908 79.4521C53.7925 80.8082 48.7813 81.5984 45.7571 81.8228C42.7329 82.0472 39.716 82.1578 36.7063 82.1546C33.5349 82.1815 31.1501 82.0904 29.5519 81.8812C26.2575 81.5374 24.7416 80.2449 25.0039 78.0037C25.3202 75.7525 26.1509 73.2652 27.496 70.5419C27.5584 70.4249 27.6222 70.3079 27.6874 70.1911C28.6659 68.4381 29.9653 66.6997 31.5856 64.9757C33.0695 63.632 34.9086 62.2504 37.1032 60.8309C38.8079 59.7834 40.89 58.6659 43.3494 57.4783C44.8339 56.7528 49.0895 55.1754 56.1161 52.7459C59.1389 51.285 61.3778 50.1102 62.8327 49.2216C65.1988 47.8265 67.2388 46.3232 68.9528 44.7119C69.216 44.4733 69.4737 44.233 69.7259 43.9912C71.4912 42.2983 72.9862 40.5265 74.211 38.6757C76.0952 35.8522 77.3372 32.8669 77.9368 29.7198C79.3017 22.4954 78.3085 17.1706 74.957 13.7455C71.6495 10.256 66.9993 7.04395 61.0063 4.10944C57.0486 2.25854 52.9249 1.02874 48.6352 0.420065C44.4632 -0.154254 40.1472 -0.13966 35.6872 0.463848C35.4125 0.50434 35.1377 0.546803 34.863 0.591237C30.7425 1.25774 26.6289 2.36765 22.5222 3.92096C22.3118 4.00922 22.1039 4.09824 21.8983 4.18802C18.8154 5.53472 16.2776 7.05192 14.2849 8.73961C13.4671 9.45368 12.7399 10.2071 12.1035 10.9999C12.0496 11.0099 12.0325 11.0693 12.0522 11.1781C12.0455 11.1794 12.0388 11.181 12.0323 11.1831C11.9862 11.1978 11.9438 11.2334 11.9053 11.2897L11.8244 11.3047L11.6775 11.4164C11.6433 11.5351 11.6312 11.6217 11.641 11.6761C11.641 11.6761 11.641 11.6761 11.641 11.6761C10.334 13.3805 9.35605 15.6703 8.70712 18.5454C8.04833 21.3662 8.62419 23.6204 10.4347 25.3079C10.4446 25.3623 10.4814 25.4117 10.5451 25.456C10.5451 25.456 10.5451 25.456 10.5451 25.456L10.5599 25.5376L10.6408 25.5226L10.6704 25.6858L10.7513 25.6707C11.4527 26.1588 12.0976 26.4888 12.686 26.6606C14.2257 27.1617 17.7275 26.6518 23.1914 25.131C28.6454 23.5558 32.1443 22.5687 33.6879 22.1695C35.4472 21.7303 37.1624 21.3555 38.8336 21.0451C38.9494 21.0307 39.0644 21.0171 39.1785 21.0045C40.891 20.8149 42.4206 20.8322 43.7673 21.0564C43.9153 21.0851 44.0599 21.117 44.2012 21.152C46.3208 21.6773 47.6872 22.9108 48.3005 24.8523C48.9447 26.8689 48.5643 28.7666 47.1594 30.5454C46.5695 31.2874 45.8278 32.0277 44.9343 32.7664C42.2538 34.9824 38.2071 37.1834 32.7941 39.3693C25.567 42.2295 20.3197 44.6376 17.0523 46.5937C14.554 48.182 12.2129 50.0223 10.0289 52.1145C7.8988 54.1966 6.24204 56.5844 5.05862 59.2777C2.93636 64.1692 1.34033 70.7339 0.270546 78.9716C-0.755193 87.1449 1.13578 93.1181 5.94346 96.8912C8.17078 98.7262 13.1202 99.7464 20.7917 99.9518C28.4533 100.103 36.6636 99.899 45.4225 99.3403C45.9727 99.3014 46.521 99.2617 47.0674 99.2212C55.2638 98.6146 63.0379 97.8393 70.3896 96.8955C78.2314 95.8887 83.4951 95.1078 86.1807 94.5528L86.2615 94.5378C86.2418 94.429 86.2859 94.3646 86.3937 94.3446L86.5258 94.1514C86.516 94.097 86.538 94.0648 86.5919 94.0548L86.7388 93.9432C86.7416 93.9392 86.7443 93.9352 86.7471 93.9314C86.789 93.8742 86.8352 93.841 86.8858 93.8316L86.8562 93.6684L87.0031 93.5568C87.7618 92.5164 88.2559 91.5533 88.4853 90.6674C89.0028 88.6037 89.13 86.0784 88.8671 83.0915C88.8507 82.9048 88.8333 82.7202 88.815 82.5376Z" fill="#7872B9"/>
</svg>
