<svg width="89" height="100" viewBox="0 0 89 100" fill="none" xmlns="http://www.w3.org/2000/svg">
<path d="M5.88419 12.0362C2.2857 15.2706 0.648383 20.0982 0.162433 24.1165C-0.279814 27.7734 1.14656 31.5298 4.22772 33.5485C6.29551 34.9033 8.9756 35.7636 11.9958 34.6971C19.1261 32.1792 18.1075 27.1434 19.6354 25.6326C24.1729 21.146 30.5868 18.6397 36.9434 18.0818C42.7009 17.5764 49.6601 18.3445 53.7587 22.1075C59.4628 27.3448 58.1726 32.347 56.8145 34.1935C55.2866 36.8793 50.7028 42.4523 44.5912 43.258C38.4796 44.0638 35.9331 45.2724 35.4238 45.7759C34.5749 46.2795 33.3865 48.0924 35.4238 51.3154C37.461 54.5383 42.0447 54.3369 44.0819 53.8333C51.4159 53.4304 56.6447 57.3584 58.3424 59.3727C60.3796 61.387 63.4354 66.6243 59.361 71.4587C55.2866 76.2931 46.4586 79.1803 42.554 80.0196C33.9977 82.4368 30.161 80.3553 29.3121 79.0125C26.8675 74.1781 23.8796 72.6337 22.6912 72.4659C21.5028 72.1301 18.0056 72.1637 13.5237 74.9838C9.04187 77.8039 7.9214 81.5304 7.9214 83.0411C7.75163 85.2233 9.24559 90.7963 16.5795 95.6307C23.9135 100.465 38.9889 100.331 45.6098 99.6594C57.0182 98.4508 67.34 91.7699 71.0749 88.5805C74.3005 86.3983 81.1591 79.6168 82.7889 69.948C84.4187 60.2791 79.7331 53.4976 77.1866 51.3154C79.0783 49.9125 80.7012 48.5889 82.0728 47.3837C86.3094 43.6613 89.2583 38.5309 88.9624 32.899C88.7843 29.5077 87.9439 25.4403 85.8447 21.1003C81.3629 11.8344 69.3773 5.48946 63.9447 3.47523C47.647 -2.56777 30.3307 0.621591 23.7098 2.97165C20.4842 3.81095 12.0996 6.44957 5.88419 12.0362Z" fill="#7872B9"/>
</svg>
