<svg width="82" height="100" viewBox="0 0 82 100" fill="none" xmlns="http://www.w3.org/2000/svg">
<path d="M55.3349 99.9953C53.724 99.8879 52.2205 95.5942 50.8244 87.1141C45.7231 87.4898 40.4608 87.5972 35.0374 87.4361C29.6677 87.2215 24.8618 86.7384 20.6197 85.987C20.2975 85.9333 19.9485 85.8797 19.5726 85.826C19.1967 85.7187 18.8746 85.6382 18.6061 85.5845C17.0489 85.5308 15.599 85.2893 14.2566 84.8599C12.6994 84.4305 11.357 83.4108 10.2293 81.8006C8.72579 79.8148 7.38336 77.1044 6.20202 73.6694C4.8059 69.8587 3.57086 64.8405 2.49692 58.6146C1.42298 52.335 0.75176 47.9876 0.483275 45.5724C0.214789 43.1572 0.0536972 38.7025 0 32.2082C0 25.714 0.402729 20.32 1.20819 16.0263C1.53037 13.8258 2.09419 11.5447 2.89965 9.18318C3.7588 6.76797 5.18178 4.86263 7.16857 3.46718C8.24252 2.71578 10.1219 1.96437 12.8068 1.21297C15.5453 0.461574 17.5053 0.0590386 18.6866 0.00536714C19.9217 -0.0483043 21.64 0.30056 23.8415 1.05196C26.0431 1.74969 27.2245 3.17198 27.3856 5.31884C27.4393 6.49961 27.3319 7.73406 27.0634 9.02217C26.7949 10.2566 26.5533 11.4374 26.3385 12.5645C24.4591 21.8496 23.5462 30.0077 23.5999 37.0387C23.7073 44.0696 24.8081 53.8915 26.9023 66.5043C32.7553 66.558 39.4674 66.2359 47.0387 65.5382C46.0185 48.095 45.5084 38.783 45.5084 37.6022C45.401 34.4893 47.4952 32.8255 51.7909 32.6108C56.1404 32.3961 59.1206 32.8523 60.7315 33.9794C62.235 34.8918 64.1681 44.7673 66.5308 63.606C67.8195 63.1767 69.1083 62.6936 70.397 62.1569C71.3098 61.8349 72.2764 61.486 73.2966 61.1103C74.3706 60.6809 75.4177 60.4126 76.4379 60.3052C80.2504 59.8759 82.103 61.9959 81.9956 66.6653C81.9419 71.281 81.4318 74.6355 80.4652 76.7287C79.5524 78.6072 78.1294 80.0832 76.1963 81.1566C74.2632 82.23 72.3838 83.0888 70.5581 83.7328C70.2896 83.8402 70.048 83.9475 69.8332 84.0548C69.6184 84.1085 69.3767 84.1622 69.1083 84.2159C69.1083 88.4559 68.8935 91.1126 68.4639 92.1861C68.0343 93.2058 67.5779 94.1988 67.0946 95.1648C66.8261 95.7552 65.8864 96.4261 64.2755 97.1775C62.7183 97.9289 61.6712 98.4656 61.1342 98.7877C58.879 99.6464 56.9459 100.049 55.3349 99.9953Z" fill="#7872B9"/>
</svg>
