<svg width="288" height="211" viewBox="0 0 288 211" fill="none" xmlns="http://www.w3.org/2000/svg">
<path fill-rule="evenodd" clip-rule="evenodd" d="M65.5001 173.491C64.744 173.319 64.0321 172.992 63.4097 172.529C62.7873 172.067 62.268 171.48 61.8849 170.806C61.5018 170.132 61.2632 169.385 61.1845 168.614C61.1058 167.842 61.1885 167.063 61.4275 166.325C61.6665 165.588 62.0565 164.908 62.5727 164.329C63.0889 163.751 63.7199 163.286 64.4255 162.965C65.1312 162.643 65.896 162.473 66.6713 162.463C67.4466 162.454 68.2153 162.606 68.9286 162.91C70.3214 163.407 71.4696 164.421 72.1355 165.741C72.8014 167.062 72.9339 168.588 72.5056 170.003C72.0095 171.373 71.0051 172.5 69.7008 173.149C68.3965 173.799 66.8923 173.921 65.5001 173.491ZM110.888 102.458C99.0943 96.0053 88.8908 100.883 81.0141 110.578C81.0141 110.578 80.1451 111.817 79.9715 112.082C73.0672 122.385 75.3092 132.122 87.5028 139.099C98.724 145.469 111.288 138.9 117.89 129.26L118.757 127.846C124.994 116.581 122.213 110.717 110.888 102.458ZM87.5437 196.347C86.5834 196.02 85.5671 195.889 84.5552 195.963C83.5434 196.036 82.5567 196.313 81.654 196.776C80.7513 197.239 79.9509 197.878 79.3006 198.657C78.6502 199.436 78.1632 200.337 77.8686 201.308C77.7217 202.318 77.7771 203.347 78.0316 204.335C78.2862 205.324 78.7348 206.251 79.3513 207.065C79.9678 207.878 80.7399 208.56 81.6226 209.072C82.5053 209.584 83.4811 209.915 84.4931 210.047C86.4428 210.526 88.5016 210.255 90.2608 209.288C92.0201 208.32 93.3512 206.726 93.9902 204.823C94.1729 202.859 93.6119 200.899 92.4181 199.329C91.2243 197.759 89.4847 196.695 87.5437 196.347Z" fill="#EBF5FF"/>
<path fill-rule="evenodd" clip-rule="evenodd" d="M266.378 15.2379C265.932 13.8027 265.792 12.2903 265.966 10.7977C266.14 9.30513 266.624 7.86545 267.387 6.57122C268.151 5.27698 269.177 4.1568 270.399 3.2827C271.621 2.40859 273.013 1.7999 274.484 1.49571C275.876 1.05329 277.348 0.925807 278.795 1.12247C280.241 1.31913 281.626 1.83501 282.849 2.6328C284.072 3.43058 285.102 4.49026 285.865 5.73519C286.628 6.98012 287.105 8.37916 287.261 9.83094C287.807 12.4638 287.362 15.2057 286.01 17.53C284.658 19.8543 282.495 21.597 279.936 22.4233C277.188 23.0904 274.292 22.7277 271.793 21.4037C269.295 20.0796 267.368 17.8861 266.378 15.2379ZM215.761 19.2666C215.928 19.8917 215.97 20.5435 215.885 21.1849C215.8 21.8263 215.59 22.4447 215.266 23.0047C214.942 23.5647 214.511 24.0555 213.997 24.4489C213.483 24.8423 212.897 25.1306 212.272 25.2975C211.647 25.4644 210.995 25.5066 210.354 25.4216C209.713 25.3366 209.094 25.1261 208.534 24.8021C207.974 24.4781 207.483 24.047 207.09 23.5334C206.697 23.0197 206.408 22.4336 206.241 21.8085C205.851 20.5162 205.959 19.1247 206.542 17.9076C207.126 16.6904 208.144 15.7356 209.396 15.2307C210.723 15.0928 212.057 15.42 213.17 16.1565C214.283 16.893 215.369 17.9909 215.761 19.2666Z" fill="#EBF5FF"/>
<path fill-rule="evenodd" clip-rule="evenodd" d="M124.526 44.8303C122.948 43.9448 121.561 42.7548 120.446 41.3295C119.331 39.9041 118.51 38.2718 118.031 36.5269C117.551 34.782 117.423 32.9594 117.653 31.1647C117.883 29.3699 118.467 27.6388 119.371 26.0715C120.21 24.5055 121.357 23.1251 122.743 22.0134C124.129 20.9017 125.725 20.0815 127.436 19.602C129.147 19.1225 130.937 18.9936 132.699 19.223C134.461 19.4525 136.158 20.0356 137.689 20.9374C140.667 22.7089 142.856 25.5513 143.808 28.8832C144.76 32.215 144.403 35.7845 142.81 38.8614C141.114 42.0152 138.268 44.3947 134.863 45.506C131.459 46.6174 127.757 46.3754 124.526 44.8303Z" fill="#EBF5FF"/>
<path fill-rule="evenodd" clip-rule="evenodd" d="M7.37609 149.945C5.84235 149.084 4.49463 147.928 3.41104 146.542C2.32744 145.157 1.52953 143.571 1.06355 141.875V141.875C0.137995 138.506 1.20756 134.964 2.6133 131.767C2.86953 131.184 3.12365 130.669 3.41104 130.17C4.2266 128.648 5.34129 127.307 6.6882 126.226C8.03512 125.146 9.58649 124.349 11.2492 123.883C12.9119 123.417 14.6517 123.291 16.3642 123.514C18.0766 123.737 19.7264 124.304 21.2145 125.181C24.109 126.902 26.2364 129.665 27.1616 132.903C28.0868 136.141 26.6951 141.153 25.1469 144.144C23.4978 147.209 20.732 149.522 17.4232 150.602C14.1144 151.682 10.5166 151.447 7.37609 149.945Z" fill="#EBF5FF"/>
</svg>
