<svg width="150" height="150" viewBox="0 0 150 150" fill="none" xmlns="http://www.w3.org/2000/svg">
<path fill-rule="evenodd" clip-rule="evenodd" d="M66.0122 8.36172C75.4535 6.56319 85.161 5.43138 94.7644 5.81478C134.86 7.41551 145 53.8211 145 85.5084C145 120.69 107 146 67.0378 143C28.5 137 5 109.555 5 74.3728C5 43.447 32.0438 14.8325 66.0122 8.36172Z" fill="#FFCF70"/>
<path fill-rule="evenodd" clip-rule="evenodd" d="M37.1088 30.3156C32.3513 30.3156 1.9368 30.4859 1.15095 33.4025C0.747408 34.9353 1.15095 117.218 1.74565 125.797C1.91556 128.842 3.72089 127.522 9.28555 127.522C16.6555 127.522 64.8047 123.541 65.2719 127.096C65.8454 131.524 70.964 131.354 75.8915 130.843C80.9252 131.269 86.5111 131.758 87.0845 127.16C87.5518 123.605 133.811 127.522 141.181 127.522C146.724 127.522 148.551 128.842 148.721 125.797C149.209 117.282 149.167 33.8921 148.721 32.338C147.935 29.4214 119.963 30.3581 115.184 30.3581C114.759 33.4238 95.4315 34.2115 94.2209 34.3392C80.0331 35.7017 76.9747 35.7443 76.1676 37.1068C75.4243 35.6805 72.472 35.6804 58.0931 34.2753C56.8612 34.1689 37.5336 33.3812 37.1088 30.3156Z" fill="#6B66A6"/>
<path fill-rule="evenodd" clip-rule="evenodd" d="M12.0876 34.6165C19.9886 32.296 45.603 29.5923 55.458 29.5923C67.3944 29.5923 74.021 30.6142 77.5467 33.6372C81.0724 30.6142 87.699 29.5923 99.6354 29.5923C109.49 29.5923 135.126 32.296 143.006 34.6165C143.006 56.3102 144.705 77.5567 144.386 98.7608C144.386 101.997 143.282 125.032 143.197 124.946C134.51 116.793 85.2141 119.624 77.6741 125.159C77.6741 125.159 77.6741 125.266 77.6741 125.33C77.6668 125.273 77.6668 125.216 77.6741 125.159C70.1555 119.624 20.8382 116.793 12.1514 124.946C12.1514 124.946 11.0257 101.997 10.962 98.7608C10.3885 77.5355 12.0876 56.2463 12.0876 34.6165Z" fill="#95B1DB"/>
<path fill-rule="evenodd" clip-rule="evenodd" d="M7.43582 29.6346C15.3155 27.314 40.93 24.6104 50.8062 24.6104C62.7426 24.6104 69.3479 25.6322 72.8736 28.6553C76.3993 25.6322 83.026 24.6104 94.9624 24.6104C104.817 24.6104 130.453 27.314 138.333 29.6346C138.333 51.3282 140.032 72.5748 139.713 93.7788C139.713 97.0148 138.609 120.05 138.524 119.964C129.837 111.811 80.541 114.642 73.0011 120.177C73.0011 120.177 73.0011 120.284 73.0011 120.348C73.0011 120.348 73.0011 120.22 73.0011 120.177C65.4824 114.642 16.1864 111.811 7.4783 119.964C7.4783 119.964 6.35262 97.0148 6.28891 93.7788C5.71545 72.5748 7.43582 51.3282 7.43582 29.6346Z" fill="white"/>
<path fill-rule="evenodd" clip-rule="evenodd" d="M102.926 24.9298C114.777 25.7388 132.087 27.8038 138.331 29.6347C138.331 51.3284 140.031 72.5749 139.712 93.779C139.712 97.0149 138.608 120.05 138.523 119.965C133.935 115.707 118.027 114.408 102.926 115.025V24.9298Z" fill="#CDE1FF"/>
<path fill-rule="evenodd" clip-rule="evenodd" d="M31.2891 25.9303C38.9352 25.1426 46.4113 24.6104 50.8078 24.6104C62.7442 24.6104 69.3496 25.6322 72.8753 28.6553C73.0428 28.5018 73.2202 28.3595 73.4063 28.2295V119.901L73.0028 120.177C73.0028 120.177 73.0028 120.284 73.0028 120.348C73.0028 120.348 73.0028 120.22 73.0028 120.177C68.4363 116.814 48.4715 114.451 31.5439 114.94L31.2891 25.9303Z" fill="#CDE1FF"/>
<path fill-rule="evenodd" clip-rule="evenodd" d="M14.3812 68.5298C32.4133 64.7829 45.7302 63.5269 63.3587 69.4666C63.7171 69.6063 64.0445 69.8155 64.3223 70.0821C64.6001 70.3488 64.8227 70.6676 64.9775 71.0205C65.1323 71.3734 65.2163 71.7533 65.2246 72.1387C65.2329 72.5241 65.1654 72.9074 65.026 73.2667C64.8865 73.6259 64.6778 73.9542 64.4118 74.2326C64.1458 74.511 63.8277 74.7341 63.4757 74.8893C63.1236 75.0445 62.7445 75.1287 62.3601 75.137C61.9756 75.1454 61.5932 75.0777 61.2348 74.9379C44.7957 69.4027 32.2221 70.68 15.4432 74.2566C15.068 74.3307 14.682 74.33 14.3071 74.2545C13.9323 74.1791 13.5759 74.0304 13.2584 73.8169C12.9408 73.6034 12.6684 73.3293 12.4565 73.0102C12.2447 72.6912 12.0976 72.3334 12.0237 71.9574C11.9498 71.5814 11.9505 71.1945 12.0257 70.8187C12.101 70.4429 12.2494 70.0857 12.4624 69.7674C12.6754 69.4492 12.9488 69.176 13.2671 68.9637C13.5854 68.7513 13.9424 68.6039 14.3175 68.5298H14.3812Z" fill="#9690D4"/>
<path fill-rule="evenodd" clip-rule="evenodd" d="M14.383 81.9635C32.415 78.1953 45.732 76.9393 63.3605 82.879C64.0843 83.1613 64.6666 83.7202 64.9793 84.4329C65.2919 85.1456 65.3094 85.9536 65.0277 86.6791C64.7461 87.4046 64.1884 87.9883 63.4774 88.3017C62.7664 88.6151 61.9604 88.6325 61.2365 88.3502C44.7974 82.8151 32.2239 84.1989 15.4449 87.6903C14.6848 87.834 13.8988 87.6708 13.2583 87.2361C12.6177 86.8015 12.1746 86.1306 12.0254 85.3698C11.9521 84.9905 11.9552 84.6003 12.0346 84.2223C12.1141 83.8442 12.2682 83.486 12.4879 83.1685C12.7076 82.8511 12.9884 82.5809 13.3139 82.374C13.6394 82.167 14.0029 82.0274 14.383 81.9635Z" fill="#9690D4"/>
<path fill-rule="evenodd" clip-rule="evenodd" d="M14.38 95.205C32.412 91.4581 45.729 90.2021 63.3575 96.1417C64.0813 96.424 64.6636 96.983 64.9763 97.6957C65.289 98.4083 65.3064 99.2163 65.0248 99.9419C64.7431 100.667 64.1855 101.251 63.4745 101.564C62.7635 101.878 61.9574 101.895 61.2336 101.613C44.9644 96.0566 32.2209 97.4404 15.5057 100.953C15.1305 101.027 14.7445 101.026 14.3696 100.951C13.9948 100.876 13.6384 100.727 13.3209 100.513C13.0033 100.3 12.7309 100.026 12.519 99.7067C12.3072 99.3877 12.1601 99.0299 12.0862 98.6539C12.0123 98.2779 12.013 97.8909 12.0882 97.5152C12.1635 97.1394 12.3119 96.7822 12.5249 96.4639C12.7379 96.1456 13.0113 95.8725 13.3296 95.6602C13.6479 95.4478 14.0049 95.3004 14.38 95.2263V95.205Z" fill="#9690D4"/>
<path fill-rule="evenodd" clip-rule="evenodd" d="M86.3405 68.5298C104.373 64.7829 117.69 63.5269 135.318 69.4666C135.676 69.6063 136.004 69.8155 136.282 70.0821C136.559 70.3488 136.782 70.6676 136.937 71.0205C137.092 71.3734 137.176 71.7533 137.184 72.1387C137.192 72.5241 137.125 72.9074 136.985 73.2667C136.846 73.6259 136.637 73.9542 136.371 74.2326C136.105 74.511 135.787 74.7341 135.435 74.8893C135.083 75.0445 134.704 75.1287 134.319 75.137C133.935 75.1454 133.552 75.0777 133.194 74.9379C116.776 69.4027 104.181 70.68 87.4025 74.2566C87.0273 74.331 86.6412 74.3305 86.2663 74.2551C85.8913 74.1798 85.5348 74.031 85.2172 73.8175C84.8997 73.6039 84.6272 73.3298 84.4154 73.0106C84.2036 72.6915 84.0567 72.3336 83.983 71.9574C83.9124 71.5771 83.9175 71.1866 83.9979 70.8083C84.0783 70.43 84.2325 70.0713 84.4515 69.7528C84.6706 69.4344 84.9502 69.1624 85.2744 68.9525C85.5985 68.7427 85.9608 68.599 86.3405 68.5298Z" fill="#9690D4"/>
<path fill-rule="evenodd" clip-rule="evenodd" d="M86.3402 81.9635C104.372 78.1953 117.689 76.9393 135.318 82.879C136.042 83.1613 136.624 83.7202 136.937 84.4329C137.249 85.1456 137.267 85.9536 136.985 86.6791C136.703 87.4046 136.146 87.9883 135.435 88.3017C134.724 88.6151 133.918 88.6325 133.194 88.3502C116.776 82.8151 104.181 84.1989 87.4022 87.6903C86.6421 87.834 85.8561 87.6708 85.2155 87.2361C84.575 86.8015 84.1318 86.1306 83.9827 85.3698C83.9123 84.9908 83.9176 84.6016 83.9983 84.2246C84.0789 83.8477 84.2334 83.4904 84.4526 83.1737C84.6718 82.8569 84.9515 82.5869 85.2755 82.3792C85.5996 82.1714 85.9614 82.0301 86.3402 81.9635Z" fill="#9690D4"/>
<path fill-rule="evenodd" clip-rule="evenodd" d="M86.3409 95.205C104.373 91.4581 117.69 90.2021 135.318 96.1417C135.677 96.2765 136.006 96.4811 136.286 96.7437C136.566 97.0063 136.791 97.3217 136.949 97.6718C137.107 98.022 137.195 98.4 137.206 98.7841C137.218 99.1682 137.154 99.5508 137.018 99.91C136.737 100.63 136.186 101.211 135.484 101.529C134.781 101.847 133.983 101.877 133.258 101.613C116.84 96.0566 104.246 97.3552 87.4666 100.932C87.0915 101.006 86.7054 101.005 86.3306 100.93C85.9557 100.854 85.5993 100.706 85.2818 100.492C84.9643 100.279 84.6918 100.004 84.4799 99.6854C84.2681 99.3664 84.121 99.0086 84.0471 98.6326C83.9732 98.2566 83.9739 97.8696 84.0492 97.4939C84.1244 97.1181 84.2728 96.7609 84.4858 96.4426C84.6988 96.1243 84.9723 95.8512 85.2906 95.6389C85.6089 95.4265 85.9658 95.2791 86.3409 95.205Z" fill="#9690D4"/>
<path fill-rule="evenodd" clip-rule="evenodd" d="M24.4506 38.3205C25.0277 38.664 25.5097 39.1471 25.8524 39.7256C29.3569 46.1123 15.5514 45.942 19.9479 38.8102C20.1715 38.4741 20.4604 38.1866 20.7974 37.9651C21.1344 37.7436 21.5125 37.5926 21.9091 37.521C22.3058 37.4494 22.7127 37.4588 23.1056 37.5487C23.4985 37.6385 23.8693 37.8069 24.1957 38.0438L24.4506 38.3205Z" fill="#9690D4"/>
<path fill-rule="evenodd" clip-rule="evenodd" d="M32.2215 38.0227C32.6143 37.5238 33.1559 37.1638 33.7672 36.9952C34.3786 36.8267 35.0277 36.8585 35.6197 37.0859C36.5132 37.3945 37.2668 38.0138 37.7437 38.8317C41.1632 45.2184 27.5064 46.4318 31.5843 38.7252C31.7518 38.4537 31.9678 38.2156 32.2215 38.0227Z" fill="#9690D4"/>
<path fill-rule="evenodd" clip-rule="evenodd" d="M21.6011 47.347C24.4896 50.2423 25.6153 51.7964 29.5445 51.4132C30.4748 50.549 31.3475 49.6244 32.157 48.6456C32.7203 48.081 33.4842 47.7637 34.2809 47.7637C35.0775 47.7637 35.8415 48.081 36.4048 48.6456C36.9681 49.2102 37.2845 49.976 37.2845 50.7745C37.2845 51.573 36.9681 52.3388 36.4048 52.9034L35.7676 53.6272C29.3959 60.8017 23.3639 57.5444 17.2046 51.4983C16.6554 50.9139 16.3603 50.1348 16.3842 49.3323C16.4081 48.5298 16.749 47.7697 17.332 47.2192C17.915 46.6687 18.6924 46.3729 19.493 46.3969C20.2936 46.4208 21.0519 46.7626 21.6011 47.347Z" fill="#9690D4"/>
</svg>
