<svg width="100" height="100" viewBox="0 0 100 100" fill="none" xmlns="http://www.w3.org/2000/svg">
<path fill-rule="evenodd" clip-rule="evenodd" d="M51.5518 21.0293C65.5996 21.0293 77.2592 29.7928 84.7326 41.4495V73.0629C84.7326 93.3146 83.5526 90.7866 63.0569 91.6433C51.9452 92.1068 37.195 92.5843 26.5328 91.6433C19.3965 90.9692 14.9293 89.7473 12.8784 87.2615C10.2655 84.0594 11.5579 54.4263 11.5579 48.4294C11.5579 48.2624 11.5571 48.0837 11.5556 47.8944C11.518 43.1101 12.9748 38.3375 16.4972 35.0997C20.3216 31.5845 24.6487 28.6371 29.3476 26.3606C36.2777 23.0031 43.8524 21.1844 51.5518 21.0293Z" fill="#B0C8EB"/>
<path fill-rule="evenodd" clip-rule="evenodd" d="M24.6843 15.4263C36.8075 15.2437 67.5018 14.1483 81.971 16.283C86.3539 16.929 87.3513 20.2996 87.3513 23.4033V68.5413C87.3513 88.793 86.1712 86.265 65.6756 87.1217C54.5638 87.5852 39.8137 88.0627 29.0812 87.1217C21.959 86.4476 17.4919 85.2257 15.4409 82.7399C12.828 79.5378 14.1204 49.9047 14.1204 43.9078C14.1204 39.0766 13.3899 24.6533 14.4575 20.8754C15.6937 16.4234 20.1609 15.4824 24.6843 15.4263Z" fill="white"/>
<path fill-rule="evenodd" clip-rule="evenodd" d="M24.6833 15.4263C36.8065 15.2437 67.5009 14.1483 81.97 16.283C86.3529 16.929 87.3503 20.2996 87.3503 23.4033V37.293C62.8885 36.4691 38.4361 36.4691 13.993 37.293C13.8385 31.1838 13.7121 23.4033 14.4566 20.7771C15.6928 16.4234 20.16 15.4824 24.6833 15.4263Z" fill="#FAA8B7"/>
<path fill-rule="evenodd" clip-rule="evenodd" d="M31.623 28.5289C32.8788 28.5289 34.1065 28.1566 35.1506 27.4591C36.1948 26.7616 37.0087 25.7702 37.4893 24.6102C37.9698 23.4503 38.0956 22.1739 37.8506 20.9425C37.6056 19.7112 37.0009 18.5801 36.1128 17.6923C35.2248 16.8045 34.0935 16.1999 32.8618 15.955C31.6301 15.7101 30.3534 15.8357 29.1931 16.3162C28.0329 16.7967 27.0412 17.6103 26.3435 18.6542C25.6458 19.6981 25.2734 20.9254 25.2734 22.181C25.2771 23.8634 25.9473 25.4759 27.1373 26.6655C28.3273 27.8552 29.9401 28.5252 31.623 28.5289Z" fill="#DB8897"/>
<path fill-rule="evenodd" clip-rule="evenodd" d="M27.2569 10.8755C26.1472 12.9541 27.1305 21.8862 27.2569 22.5041C27.5073 23.2622 27.9471 23.9438 28.5346 24.4845C29.1221 25.0252 29.838 25.407 30.6143 25.5938C31.6127 25.8674 32.6775 25.7547 33.5966 25.2784C34.5156 24.8021 35.2214 23.997 35.5732 23.0237C36.3599 19.9761 36.978 12.308 34.8708 9.85029C32.3843 6.91506 28.9988 7.63133 27.2569 10.8755Z" fill="#6B66A6"/>
<path fill-rule="evenodd" clip-rule="evenodd" d="M69.5683 28.5289C70.8242 28.5289 72.0518 28.1566 73.096 27.4591C74.1402 26.7616 74.954 25.7702 75.4346 24.6102C75.9152 23.4503 76.0409 22.1739 75.7959 20.9425C75.5509 19.7112 74.9462 18.5801 74.0582 17.6923C73.1702 16.8045 72.0388 16.1999 70.8071 15.955C69.5754 15.7101 68.2987 15.8357 67.1385 16.3162C65.9782 16.7967 64.9866 17.6103 64.2889 18.6542C63.5912 19.6981 63.2188 20.9254 63.2188 22.181C63.2225 23.8634 63.8926 25.4759 65.0826 26.6655C66.2726 27.8552 67.8855 28.5252 69.5683 28.5289Z" fill="#DB8897"/>
<path fill-rule="evenodd" clip-rule="evenodd" d="M65.4366 10.8755C64.3268 12.9541 65.3102 21.8862 65.4366 22.5041C65.6917 23.2596 66.1329 23.9386 66.7197 24.4786C67.3065 25.0186 68.0199 25.4022 68.794 25.5938C69.7924 25.8708 70.8587 25.7597 71.7786 25.2829C72.6985 24.8062 73.4038 23.9991 73.7529 23.0237C74.5395 19.9761 75.1577 12.308 73.0645 9.85029C70.564 6.91506 67.1926 7.63133 65.4366 10.8755Z" fill="#6B66A6"/>
<path d="M32.2699 44.7783H22.8579C22.4855 44.7783 22.1836 45.0801 22.1836 45.4525V54.8621C22.1836 55.2344 22.4855 55.5362 22.8579 55.5362H32.2699C32.6423 55.5362 32.9442 55.2344 32.9442 54.8621V45.4525C32.9442 45.0801 32.6423 44.7783 32.2699 44.7783Z" fill="#CDE1FF"/>
<path d="M47.6957 44.7783H38.2837C37.9113 44.7783 37.6094 45.0801 37.6094 45.4525V54.8621C37.6094 55.2344 37.9113 55.5362 38.2837 55.5362H47.6957C48.0681 55.5362 48.3699 55.2344 48.3699 54.8621V45.4525C48.3699 45.0801 48.0681 44.7783 47.6957 44.7783Z" fill="#CDE1FF"/>
<path d="M62.0355 44.7783H52.6235C52.2511 44.7783 51.9492 45.0801 51.9492 45.4525V54.8621C51.9492 55.2344 52.2511 55.5362 52.6235 55.5362H62.0355C62.4079 55.5362 62.7098 55.2344 62.7098 54.8621V45.4525C62.7098 45.0801 62.4079 44.7783 62.0355 44.7783Z" fill="#CDE1FF"/>
<path d="M77.4613 44.7783H68.0493C67.6769 44.7783 67.375 45.0801 67.375 45.4525V54.8621C67.375 55.2344 67.6769 55.5362 68.0493 55.5362H77.4613C77.8337 55.5362 78.1356 55.2344 78.1356 54.8621V45.4525C78.1356 45.0801 77.8337 44.7783 77.4613 44.7783Z" fill="#CDE1FF"/>
<path d="M32.2699 59.1172H22.8579C22.4855 59.1172 22.1836 59.419 22.1836 59.7913V69.2009C22.1836 69.5732 22.4855 69.875 22.8579 69.875H32.2699C32.6423 69.875 32.9442 69.5732 32.9442 69.2009V59.7913C32.9442 59.419 32.6423 59.1172 32.2699 59.1172Z" fill="#CDE1FF"/>
<path d="M47.6957 59.1172H38.2837C37.9113 59.1172 37.6094 59.419 37.6094 59.7913V69.2009C37.6094 69.5732 37.9113 69.875 38.2837 69.875H47.6957C48.0681 69.875 48.3699 69.5732 48.3699 69.2009V59.7913C48.3699 59.419 48.0681 59.1172 47.6957 59.1172Z" fill="#CDE1FF"/>
<path d="M62.0355 59.1172H52.6235C52.2511 59.1172 51.9492 59.419 51.9492 59.7913V69.2009C51.9492 69.5732 52.2511 69.875 52.6235 69.875H62.0355C62.4079 69.875 62.7098 69.5732 62.7098 69.2009V59.7913C62.7098 59.419 62.4079 59.1172 62.0355 59.1172Z" fill="#CDE1FF"/>
<path d="M77.4613 59.1172H68.0493C67.6769 59.1172 67.375 59.419 67.375 59.7913V69.2009C67.375 69.5732 67.6769 69.875 68.0493 69.875H77.4613C77.8337 69.875 78.1356 69.5732 78.1356 69.2009V59.7913C78.1356 59.419 77.8337 59.1172 77.4613 59.1172Z" fill="#FAA8B7"/>
</svg>
