<svg width="200" height="200" viewBox="0 0 200 200" fill="none" xmlns="http://www.w3.org/2000/svg">
<path fill-rule="evenodd" clip-rule="evenodd" d="M116.858 3C161.968 3 193 52.391 193 92.4825C193 132.574 146.119 158 100.978 158C55.8374 158 28 119.791 28 79.7836C28 39.7764 71.749 3 116.858 3Z" fill="#CDE1FF"/>
<path fill-rule="evenodd" clip-rule="evenodd" d="M52.7441 118.375C48.3751 107.288 46.1298 95.4782 46.125 83.5611C46.125 56.3496 64.075 30.681 88.1953 17.0471C93.8736 17.5066 99.503 18.4451 105.023 19.8524C145.046 30.5126 149.253 78.7641 128.358 102.806C107.463 126.847 56.5584 118.151 54.3427 117.281L52.7441 118.375Z" fill="#B0C8EB"/>
<path fill-rule="evenodd" clip-rule="evenodd" d="M164.82 176.978C166.026 183.486 171.214 196.222 162.828 196.222C156.77 196.222 152.198 191.93 145.019 187.47C142.522 188.452 85.447 197.962 62.2523 171.311C39.0575 144.661 43.545 90.434 88.3358 78.5114C130.238 67.2901 189.304 80.4471 188.547 133.383C188.295 150.804 181.031 165.953 171.158 173.415C169.223 174.895 167.089 176.094 164.82 176.978Z" fill="#7872B9"/>
<path fill-rule="evenodd" clip-rule="evenodd" d="M48.3984 132.598C48.3984 109.398 60.6269 85.8896 88.3371 78.5116C105.25 74.0464 122.977 73.6235 140.084 77.2773C140.802 90.8146 136.396 104.126 127.743 114.56C107.016 138.405 55.9711 129.905 53.7554 129.035C51.736 130.298 50.0532 131.504 48.3984 132.598Z" fill="#645F9E"/>
<path fill-rule="evenodd" clip-rule="evenodd" d="M27.9488 107.715C26.855 113.522 22.3394 124.911 29.7158 124.911C35.1288 124.911 39.2517 121.068 45.6464 117.085C47.8621 117.954 98.9354 126.454 119.662 102.637C140.389 78.8201 136.49 30.3162 96.327 19.6841C58.8564 9.69716 6.01618 21.3953 6.85758 68.8613C7.08196 84.4588 13.5608 97.9805 22.3955 104.657C24.0957 105.929 25.9647 106.959 27.9488 107.715Z" fill="#FFCF70"/>
<path fill-rule="evenodd" clip-rule="evenodd" d="M39.1693 81.7376C41.4603 81.7376 43.6998 81.0581 45.6046 79.785C47.5095 78.5119 48.9942 76.7025 49.8709 74.5854C50.7476 72.4684 50.977 70.1387 50.5301 67.8913C50.0831 65.6438 48.9799 63.5794 47.3599 61.9591C45.74 60.3388 43.676 59.2353 41.4291 58.7883C39.1821 58.3413 36.8531 58.5707 34.7365 59.4476C32.6199 60.3245 30.8109 61.8095 29.5381 63.7148C28.2653 65.6201 27.5859 67.8601 27.5859 70.1516C27.5933 73.2221 28.8161 76.1648 30.9868 78.336C33.1575 80.5071 36.0995 81.7302 39.1693 81.7376Z" fill="white"/>
<path fill-rule="evenodd" clip-rule="evenodd" d="M69.3756 82.2144C71.669 82.2199 73.9124 81.5444 75.8215 80.2735C77.7307 79.0025 79.2197 77.1933 80.0999 75.0751C80.9801 72.9569 81.2118 70.6251 80.7658 68.375C80.3197 66.125 79.216 64.0579 77.5943 62.4359C75.9727 60.8139 73.9061 59.7099 71.6566 59.2637C69.407 58.8176 67.0757 59.0494 64.958 59.9298C62.8402 60.8102 61.0315 62.2995 59.7608 64.2091C58.4901 66.1187 57.8148 68.3626 57.8203 70.6565C57.8351 73.7173 59.0573 76.6485 61.2211 78.8128C63.385 80.9772 66.3155 82.1996 69.3756 82.2144Z" fill="white"/>
<path fill-rule="evenodd" clip-rule="evenodd" d="M99.9193 81.7376C102.21 81.7376 104.45 81.0581 106.355 79.785C108.26 78.5119 109.744 76.7025 110.621 74.5854C111.498 72.4684 111.727 70.1387 111.28 67.8913C110.833 65.6438 109.73 63.5794 108.11 61.9591C106.49 60.3388 104.426 59.2353 102.179 58.7883C99.9321 58.3413 97.6031 58.5707 95.4865 59.4476C93.37 60.3245 91.5609 61.8095 90.2881 63.7148C89.0153 65.6201 88.3359 67.8601 88.3359 70.1516C88.3359 73.2244 89.5563 76.1713 91.7286 78.3441C93.9009 80.5169 96.8472 81.7376 99.9193 81.7376Z" fill="white"/>
<path fill-rule="evenodd" clip-rule="evenodd" d="M97.0003 155.293C98.9751 155.293 100.906 154.707 102.547 153.61C104.189 152.513 105.469 150.953 106.225 149.128C106.981 147.303 107.178 145.295 106.793 143.358C106.408 141.421 105.457 139.641 104.061 138.244C102.664 136.848 100.885 135.897 98.9482 135.511C97.0114 135.126 95.0038 135.324 93.1793 136.08C91.3549 136.835 89.7955 138.115 88.6983 139.758C87.6012 141.4 87.0156 143.331 87.0156 145.306C87.0156 147.955 88.0676 150.495 89.9401 152.368C91.8126 154.241 94.3522 155.293 97.0003 155.293Z" fill="white"/>
<path fill-rule="evenodd" clip-rule="evenodd" d="M123.311 155.826C125.285 155.848 127.222 155.284 128.876 154.205C130.53 153.126 131.827 151.581 132.603 149.764C133.38 147.948 133.6 145.943 133.236 144.001C132.873 142.06 131.942 140.27 130.561 138.857C129.181 137.445 127.412 136.474 125.48 136.067C123.548 135.66 121.538 135.835 119.705 136.57C117.873 137.306 116.299 138.568 115.183 140.198C114.068 141.827 113.46 143.752 113.438 145.727C113.423 147.038 113.667 148.34 114.155 149.557C114.643 150.774 115.366 151.884 116.283 152.821C117.2 153.759 118.292 154.507 119.498 155.023C120.704 155.538 121.999 155.811 123.311 155.826Z" fill="white"/>
<path fill-rule="evenodd" clip-rule="evenodd" d="M149.367 155.293C151.342 155.293 153.273 154.707 154.915 153.61C156.557 152.513 157.836 150.953 158.592 149.128C159.348 147.303 159.546 145.295 159.16 143.358C158.775 141.421 157.824 139.641 156.428 138.244C155.031 136.848 153.252 135.897 151.315 135.511C149.379 135.126 147.371 135.324 145.547 136.08C143.722 136.835 142.163 138.115 141.066 139.758C139.968 141.4 139.383 143.331 139.383 145.306C139.383 147.955 140.435 150.495 142.307 152.368C144.18 154.241 146.719 155.293 149.367 155.293Z" fill="white"/>
</svg>
