<svg width="220" height="220" viewBox="0 0 220 220" fill="none" xmlns="http://www.w3.org/2000/svg">
<path fill-rule="evenodd" clip-rule="evenodd" d="M126.862 19C175.529 19 209 78.6423 209 126.871C209 175.1 158.443 206 109.742 206C61.0402 206 31 159.963 31 111.595C31 63.2272 78.1609 19 126.862 19Z" fill="#CDE1FF"/>
<path fill-rule="evenodd" clip-rule="evenodd" d="M172.684 39C182.362 48.3895 190.258 59.4193 196 71.566C171.457 95.8431 151.963 124.559 131.837 152.374C112.764 178.732 102.982 193.992 73.2142 166.247C59.1896 153.241 45.7609 139.091 31.8765 125.739C31.3075 121.136 31.0148 116.503 31 111.866C31.0875 100.553 33.5469 89.3816 38.2227 79.0572C39.2638 79.591 40.2603 80.2056 41.2029 80.8953C60.4868 97.4038 78.193 116.201 96.7056 133.924C106.628 120.814 118.198 103.334 126.017 92.9299C139.904 73.6037 155.523 55.5542 172.684 39Z" fill="#B0C8EB"/>
<path fill-rule="evenodd" clip-rule="evenodd" d="M35.9156 70.4141C55.1334 86.9847 72.7789 105.853 91.228 123.642C101.116 110.483 112.647 92.9376 120.439 82.4939C140.321 55.9323 156.918 35.7412 182.775 14.5406C186.988 11.6246 192.169 10.4438 197.235 11.245C202.301 12.0462 206.861 14.7674 209.96 18.8399C213.06 22.9123 214.46 28.0207 213.867 33.0973C213.274 38.1739 210.735 42.8258 206.779 46.0804C174.144 72.851 150.663 108.29 126.239 142.266C107.231 168.724 97.4825 184.041 67.8172 156.191C49.0536 138.611 31.1636 118.907 11.9109 101.989C7.70364 98.8311 4.92772 94.1377 4.1938 88.941C3.45989 83.7443 4.82812 78.47 7.99745 74.2783C11.1668 70.0866 15.8776 67.321 21.0936 66.5898C26.3096 65.8586 31.6036 67.2217 35.8108 70.3793L35.9156 70.4141Z" fill="#FFCF70"/>
<path fill-rule="evenodd" clip-rule="evenodd" d="M208.267 15.9998C209.138 16.775 209.924 17.64 210.612 18.5804C212.213 20.6568 213.385 23.0288 214.06 25.5593C214.736 28.0898 215.238 30.1071 214.883 32.7016C214.528 35.296 213.661 37.7946 212.331 40.0529C211.001 42.3112 209.234 44.2843 207.134 45.8582C174.444 72.6763 150.923 108.178 126.458 142.215C107.418 168.719 97.653 184.064 67.9377 156.165C49.1425 138.553 31.2223 118.815 11.9371 101.866C9.25916 99.8534 7.13365 97.2007 5.75718 94.1529C4.3807 91.1051 3.7977 87.7607 4.06206 84.4289C4.55207 84.8823 5.07708 85.3007 5.60209 85.7192C24.8173 102.668 42.7375 122.407 61.6026 140.018C91.3179 167.917 101.048 152.538 120.088 126.069C144.589 92.0314 168.109 56.5645 200.799 29.7115C203.05 28.0143 204.91 25.8575 206.257 23.3855C207.603 20.9135 208.066 18.805 208.267 15.9998Z" fill="#E0BE7B"/>
</svg>
