<svg width="40" height="37" viewBox="0 0 40 37" fill="none" xmlns="http://www.w3.org/2000/svg">
<path d="M9.04027 26.6192C15.19 17.3741 23.5392 10.3282 31.8883 3.2417C33.0286 2.26417 34.1689 1.24599 35.7167 1.00162C37.4678 0.716678 39.0155 1.12378 39.7486 2.99733C40.5225 4.99304 39.1784 5.4817 37.6715 6.17406C34.0875 7.84395 31.4403 10.8576 28.5894 13.4642C23.8243 17.8222 18.8963 22.017 15.353 27.4744C13.9683 29.633 12.5427 31.7509 12.0132 34.3165C11.8095 35.4162 11.5246 36.4343 10.3027 36.6786C8.87707 37.0045 8.06259 35.9863 7.3703 35.0088C5.53765 32.2394 4.11205 29.2661 2.89016 26.2117C2.07569 24.1346 1.42398 21.9762 0.691031 19.8583C0.405802 19.0844 0.365176 18.3106 1.09842 17.8626C2.03507 17.2518 2.89049 17.7404 3.42002 18.5143C4.19391 19.614 4.84562 20.7949 5.45638 21.9762C6.35209 23.687 6.92228 25.6013 9.04017 26.6194L9.04027 26.6192Z" fill="#FACD6E"/>
</svg>
