<svg width="220" height="220" viewBox="0 0 220 220" fill="none" xmlns="http://www.w3.org/2000/svg">
<path fill-rule="evenodd" clip-rule="evenodd" d="M119.344 10.6797C170.76 10.6797 206.117 73.9796 206.117 125.355C206.117 176.731 152.69 209.32 101.3 209.32C49.9096 209.32 18.1562 160.476 18.1562 109.1C18.1562 57.7241 67.9537 10.6797 119.344 10.6797Z" fill="#CDE1FF"/>
<path fill-rule="evenodd" clip-rule="evenodd" d="M184.758 146.374L161.001 139.2H160.661C159.956 142.19 151.237 150.767 148.991 152.873C140.793 160.003 130.983 165.053 120.399 167.589C109.815 170.126 98.7713 170.075 88.2115 167.441C77.6517 164.806 67.8891 159.666 59.7573 152.46C51.6255 145.254 45.3662 136.195 41.5137 126.058C37.6612 115.921 36.3301 105.006 37.6339 94.2453C38.9377 83.4846 42.8378 73.198 49.0011 64.2636C55.1644 55.3293 63.4079 48.0128 73.0276 42.9387C82.6473 37.8646 93.3575 35.1837 104.244 35.125C120.143 35.125 130.351 39.4918 142.83 46.8478C142.23 45.5481 140.768 41.3892 140.219 39.9076C139.645 37.8542 142.647 36.2946 144.057 34.7091C145.467 33.1235 147.112 31.486 148.782 29.7705C150.393 28.224 151.91 26.5836 153.325 24.8578C152.483 24.3003 151.612 23.7884 150.714 23.3242L142.256 18.9055C138.079 17.0439 133.768 15.4973 129.359 14.2787C123.232 12.4971 116.93 11.3816 110.562 10.9517H98.709C84.446 12.0448 70.6014 16.2608 58.1645 23.2983C52.8134 26.5149 47.7631 30.2033 43.0746 34.3192C41.5106 35.604 40.0365 36.9935 38.6625 38.4781C37.9138 39.1636 37.2158 39.9019 36.5739 40.6874C35.7646 41.7271 35.3469 42.039 34.5898 42.9748C33.18 44.7163 31.9791 46.1459 30.6476 47.9654C19.9623 62.3962 13.7627 79.6303 12.8164 97.5338V107.749C13.2249 115.331 14.6562 122.823 17.0718 130.025C20.652 141.296 26.4866 151.73 34.2243 160.696L38.1926 165.297L40.3333 167.429C47.8755 174.745 56.5937 180.755 66.1272 185.208C68.1114 186.195 70.0955 186.871 72.2102 187.807C88.736 194.435 108.238 194.955 125.338 191.368C134.081 189.371 142.476 186.085 150.244 181.621C157.451 177.533 164.064 172.487 169.903 166.623L175.986 159.839C179.374 155.668 182.314 151.155 184.758 146.374Z" fill="#9691D2"/>
<path fill-rule="evenodd" clip-rule="evenodd" d="M161.262 139.673L158.632 124.099L157.08 123.179C156.738 123.047 155.896 122.81 155.423 122.679C152.792 121.89 146.689 119.785 144.743 119.548C141.203 127.859 135.161 134.858 127.456 139.573C119.752 144.288 110.77 146.484 101.759 145.854C59.6704 142.856 46.9648 88.5074 80.2939 66.3578C88.1859 60.9488 97.6537 58.3204 107.205 58.8869C114.215 59.2745 121.029 61.3502 127.065 64.9372C129.249 66.2262 130.722 67.5679 132.695 68.6201C135.063 66.4193 137.311 64.0921 139.429 61.649C140.586 60.4126 141.56 59.3078 142.743 58.1503C143.927 56.9928 145.505 56.1773 146.242 54.4411L143.296 46.3126C130.827 38.868 120.436 34.3433 104.416 34.4486C93.5019 34.5739 82.7792 37.3318 73.1589 42.488C63.5386 47.6442 55.305 55.0465 49.1576 64.0658C43.0102 73.0851 39.1306 83.455 37.8484 94.2946C36.5663 105.134 37.9194 116.123 41.7929 126.328C45.6663 136.532 51.9457 145.651 60.0975 152.91C68.2493 160.168 78.0327 165.352 88.6165 168.02C99.2002 170.689 110.272 170.763 120.89 168.236C131.509 165.71 141.361 160.658 149.609 153.51C151.766 151.379 160.552 142.698 161.262 139.673Z" fill="#FEFEFE"/>
<path fill-rule="evenodd" clip-rule="evenodd" d="M144.462 118.758V118.419L121.283 111.5H120.999C119.287 114.496 116.787 117.057 113.732 118.628C110.01 120.536 105.773 121.168 101.663 120.429C98.0458 119.748 94.7035 118.02 92.0436 115.457C89.3838 112.893 87.5215 109.605 86.6841 105.992C85.8466 102.38 86.0701 98.6 87.3273 95.1135C88.5845 91.627 90.8211 88.5848 93.7642 86.358C99.2546 82.259 109.795 80.823 115.311 85.7836C118.348 83.0266 121.236 80.107 123.961 77.0373C125.438 75.4969 126.551 74.1915 128.105 72.625C129.685 71.2365 131.173 69.7451 132.56 68.1605C130.617 67.2206 129.167 65.7846 127.017 64.5053C121.075 60.9452 114.367 58.8851 107.464 58.5004C98.0614 57.9381 88.7403 60.5468 80.9705 65.9151C48.1576 87.8983 60.5887 141.838 102.103 144.814C110.966 145.47 119.812 143.326 127.41 138.68C135.008 134.033 140.944 126.985 144.462 118.758Z" fill="#9691D2"/>
<path fill-rule="evenodd" clip-rule="evenodd" d="M160.195 64.2092C163.577 68.9764 166.279 74.1787 168.224 79.6703C170.53 86.0876 171.835 92.8123 172.095 99.6151V103.867C175.989 105.378 179.971 106.66 184.02 107.706C187.864 108.866 192.336 110.541 196.128 111.34L196.495 102.81C196.702 89.9712 194.078 77.2407 188.806 65.4977C186.923 61.0397 184.412 57.3806 182.503 53.6699C177.801 57.8024 173.381 62.2356 169.27 66.9407L160.195 64.2092Z" fill="#9691D2"/>
<path fill-rule="evenodd" clip-rule="evenodd" d="M138.836 75.4066C139.564 76.8275 141.435 79.1956 143.15 82.3267C148.581 92.8516 148.009 100.061 147.178 110.823C147.178 112.086 148.997 112.112 150.088 112.454L160.483 115.612L170.02 105.508C170.981 104.455 170.487 104.639 171.943 104.297V99.7717C171.685 92.8253 170.388 85.9587 168.097 79.406C166.164 73.7986 163.48 68.4865 160.119 63.6188L152.323 61.1455C149.542 63.6452 147.749 65.5922 145.333 68.1708C143.035 70.458 140.866 72.8737 138.836 75.4066Z" fill="#FEFEFE"/>
<path fill-rule="evenodd" clip-rule="evenodd" d="M172.349 104.007C172.208 110.753 171.024 117.437 168.838 123.823C167.884 126.624 166.756 129.362 165.459 132.023C164.139 134.651 162.529 136.859 161.262 139.329L185.285 146.583C187.001 145.085 191.805 132.496 192.386 130.814C194.456 124.56 195.837 118.101 196.504 111.55C192.677 110.735 188.162 108.922 184.282 107.844C180.195 106.777 176.175 105.47 172.244 103.929V99.5923L172.349 104.007Z" fill="#7872B9"/>
<path fill-rule="evenodd" clip-rule="evenodd" d="M120.68 112.024C119.475 110.718 112.116 109.104 108.947 108.105L104.939 107.029L104.625 106.85C104.026 106.708 103.462 106.448 102.969 106.087C102.475 105.726 102.061 105.27 101.753 104.748C101.444 104.226 101.247 103.649 101.174 103.05C101.1 102.451 101.152 101.844 101.325 101.266C101.718 99.7542 104.677 97.2695 105.62 96.2961C108.606 93.1966 112.22 89.8922 114.892 86.6646C109.313 81.7977 98.6534 83.2065 93.1009 87.2282C90.1245 89.413 87.8626 92.3978 86.5911 95.8185C85.3197 99.2392 85.0937 102.948 85.9406 106.492C86.7876 110.036 88.6709 113.263 91.3608 115.778C94.0507 118.293 97.431 119.988 101.089 120.657C105.246 121.382 109.531 120.761 113.294 118.889C116.384 117.348 118.95 114.963 120.68 112.024Z" fill="#FEFEFE"/>
<path fill-rule="evenodd" clip-rule="evenodd" d="M152.719 62.0592L160.589 64.5L169.562 67.0966C174.363 61.9034 196.348 42.103 196.505 38.5456C193.932 37.5368 191.304 36.6699 188.634 35.949C187.375 35.5076 185.853 34.9883 184.568 34.6248C183.282 34.2613 181.944 33.716 180.318 33.3784C177.458 35.4557 169.457 44.2063 166.544 47.2443C162.084 52.0221 156.628 57.0218 152.719 62.0592Z" fill="#E0BE7B"/>
<path fill-rule="evenodd" clip-rule="evenodd" d="M138.839 39.1906C139.838 42.7958 144.099 51.0252 145.913 55.806C146.571 55.4925 146.124 55.806 146.834 55.2313L156.406 45.2254C161.903 40.0005 165.979 35.1935 170.476 30.8568C171.896 29.4983 173.395 28.793 174.079 27.0426C172.837 24.2169 171.74 21.3308 170.791 18.3953C170.002 16.1224 169.345 14.1631 168.766 11.8119C168.451 10.5579 168.135 10.5578 165.768 12.5956C158.273 18.9962 138.55 37.8844 138.839 39.1906Z" fill="#E0BE7B"/>
<path fill-rule="evenodd" clip-rule="evenodd" d="M121.746 92.9723C123.489 96.363 124.235 100.212 123.889 104.041L146.625 111.34L146.854 110.756C147.671 99.9 148.232 92.5742 142.899 82.0101C141.292 78.8515 139.378 76.4626 138.664 75.0293C133.79 78.9576 127.309 87.6372 123.864 90.5303C122.976 91.1508 122.248 91.9896 121.746 92.9723Z" fill="#9691D2"/>
<path fill-rule="evenodd" clip-rule="evenodd" d="M147.028 110.262L146.793 110.839C146.274 113.567 145.394 116.212 144.176 118.706V119.047C146.112 119.283 152.236 121.381 154.801 122.167C155.272 122.299 156.11 122.535 156.45 122.666L157.994 123.583L160.611 139.107H160.951C162.207 136.642 163.804 134.492 165.112 131.817C166.398 129.163 167.516 126.43 168.462 123.636C170.629 117.263 171.803 110.595 171.943 103.864C170.477 104.205 170.974 104.022 170.006 105.071L160.375 115.14L149.907 111.993C148.86 111.521 147.159 111.521 147.028 110.262Z" fill="#F1E6F7"/>
<path fill-rule="evenodd" clip-rule="evenodd" d="M120.68 111.877L144.695 118.816C145.944 116.326 146.847 113.684 147.379 110.96L123.363 103.864C122.989 106.675 122.079 109.393 120.68 111.877Z" fill="#7872B9"/>
<path fill-rule="evenodd" clip-rule="evenodd" d="M104.66 106.889L104.979 107.08L109.041 108.228C112.254 109.293 119.226 110.552 120.5 112L121.5 111C122.888 108.4 123.517 106.963 123.883 104.021C120.573 103.191 117.339 102.067 114.219 100.66C112.802 101.853 111.471 103.15 110.236 104.54C108.218 106.179 108.218 107.108 104.66 106.889Z" fill="#F1E6F7"/>
<path fill-rule="evenodd" clip-rule="evenodd" d="M114.273 100.714C117.35 102.033 120.537 103.087 123.801 103.864C124.155 100.17 123.39 96.4562 121.602 93.1846C118.877 95.4159 116.418 97.9419 114.273 100.714Z" fill="#FEFEFE"/>
<path fill-rule="evenodd" clip-rule="evenodd" d="M101.64 101.32C101.467 101.913 101.416 102.534 101.49 103.147C101.563 103.76 101.759 104.352 102.067 104.886C102.375 105.421 102.788 105.887 103.28 106.257C103.773 106.627 104.335 106.892 104.933 107.038C108.46 107.248 108.46 106.356 110.42 104.677C119.043 97.3597 186.981 28.7729 188.81 23.3699C190.274 18.8324 184.107 14.2163 179.56 20.2226C166.103 37.7692 103.469 94.0025 101.64 101.32Z" fill="#FACD6E"/>
</svg>
