<svg width="222" height="88" viewBox="0 0 222 88" fill="none" xmlns="http://www.w3.org/2000/svg">
<path d="M91.8331 87.7556C127.056 85.108 180.145 78.0199 207.392 58.4896C231.173 41.3497 223.8 17.8424 195.786 8.15547C180.218 2.75979 160.103 0.716306 139.542 0.66067C97.6236 0.547227 53.8133 6.16798 18.3634 28.5392C5.97741 36.3555 -1.76041 46.0588 0.881263 58.6518C6.49641 71.6313 23.6518 77.1447 39.4223 80.9329C61.6609 84.576 96.7347 83.8366 119.35 79.1919C123.278 78.5585 122.706 74.8321 119.339 74.7241C89.6622 76.1369 39.0876 82.8775 15.4092 64.8567C3.52787 55.1675 6.48079 46.1392 16.2772 38.1432C50.0701 10.5606 97.4964 6.21392 141.117 6.3305C154.662 6.3667 167.686 7.22358 178.625 9.2167C192.312 11.7059 207.584 16.6078 213.875 26.9693C220.163 37.3297 213.431 48.1411 203.189 55.6802C177.231 74.5908 125.589 83.1019 91.8184 85.6201C89.3737 85.9779 89.027 87.7578 91.8331 87.7556Z" fill="#FFCE70"/>
</svg>
