<svg width="151" height="38" viewBox="0 0 151 38" fill="none" xmlns="http://www.w3.org/2000/svg">
<g clip-path="url(#clip0_1_1125)">
<path d="M91.8119 11.2087C89.4081 11.2087 87.5199 11.7191 85.6308 12.7379C85.6308 7.29923 85.6308 2.37092 85.8034 0.671875L74.2971 2.71053V3.73035L75.499 3.90016C77.043 4.23977 77.5606 5.08881 77.9008 7.12943C78.2469 11.2087 78.0733 32.9645 77.9008 36.5344C80.9918 37.2146 84.2554 37.725 87.5189 37.725C96.6204 37.725 102.115 32.1155 102.115 23.2767C102.115 16.3088 97.6508 11.2087 91.8119 11.2087ZM87.862 35.8542C87.1748 35.8542 86.3151 35.8542 85.8014 35.6854C85.6288 33.3061 85.4583 23.2767 85.6288 14.439C86.6592 14.0984 87.3454 13.9286 88.2052 13.9286C91.9854 13.9286 94.0461 18.3474 94.0461 23.7852C94.0451 30.5863 91.4687 35.8542 87.862 35.8542ZM31.0208 1.3511H0.796875V2.88034L2.51444 3.05015C4.74568 3.38976 5.60546 4.74919 5.94758 7.97846C6.46424 14.0974 6.29169 25.1466 5.94758 30.4135C5.60447 33.6438 4.74668 35.174 2.51444 35.3418L0.796875 35.6834V37.0428H20.2018V35.6834L18.1411 35.3418C15.9089 35.173 15.0501 33.6438 14.707 30.4135C14.5344 28.2031 14.3628 24.6332 14.3628 20.2153L18.4842 20.3851C21.0605 20.3851 22.2615 22.4248 22.7771 25.3134H24.3231V13.2493H22.7771C22.2605 16.139 21.0605 18.1776 18.4842 18.1776L14.3638 18.3484C14.3638 12.5691 14.5354 7.13041 14.7079 3.90114H20.7174C25.3554 3.90114 27.7592 6.78981 29.4758 11.8899L31.1934 11.3795L31.0208 1.3511Z" fill="#CDE1FF"/>
<path d="M40.8085 10.8694C49.3953 10.8694 53.6882 16.6487 53.6882 24.2969C53.6882 31.6054 48.8796 37.7263 40.2928 37.7263C31.707 37.7263 27.4141 31.946 27.4141 24.2969C27.4141 16.9883 32.2217 10.8694 40.8085 10.8694ZM40.2928 12.5694C36.5146 12.5694 35.4842 17.6685 35.4842 24.2969C35.4842 30.7554 37.2018 36.0243 40.6369 36.0243C44.5837 36.0243 45.6161 30.9252 45.6161 24.2969C45.6161 17.8383 43.9005 12.5694 40.2928 12.5694ZM104.345 24.4676C104.345 17.4987 108.81 10.8694 117.568 10.8694C124.779 10.8694 128.215 16.1393 128.215 23.1072H112.244C112.071 29.396 115.162 33.9856 121.346 33.9856C124.093 33.9856 125.467 33.3074 127.185 32.1168L127.871 32.9658C126.153 35.3451 122.376 37.7263 117.568 37.7263C109.84 37.7253 104.345 32.2866 104.345 24.4676ZM112.244 21.2384L120.315 21.0676C120.315 17.6685 119.8 12.5694 116.881 12.5694C113.963 12.5694 112.415 17.3279 112.244 21.2384ZM148.653 12.2298C146.592 11.3788 143.845 10.8694 140.754 10.8694C134.402 10.8694 130.45 14.6081 130.45 19.0279C130.45 23.4478 133.366 25.3167 137.493 26.6771C141.785 28.2053 142.988 29.396 142.988 31.4356C142.988 33.4752 141.442 35.3441 138.694 35.3441C135.432 35.3441 133.026 33.4752 131.138 28.3752L129.935 28.7167L130.108 36.1951C132.169 37.0441 135.946 37.7253 139.209 37.7253C145.907 37.7253 150.201 34.3243 150.201 29.0563C150.201 25.4865 148.311 23.4478 143.846 21.7468C139.037 19.878 137.321 18.6883 137.321 16.4779C137.321 14.2685 138.869 12.7382 140.93 12.7382C144.019 12.7382 146.08 14.6081 147.628 19.1978L148.829 18.8581L148.653 12.2298ZM76.0116 11.5496C73.0931 9.85153 67.9404 10.6996 65.1935 16.8195L65.3641 10.8704L53.8598 13.0798V14.0996L55.0617 14.2694C56.6087 14.4402 57.2939 15.2893 57.4665 17.4997C57.8096 21.579 57.638 28.7187 57.4665 32.2876C57.2939 34.3252 56.6087 35.3451 55.0617 35.5159L53.8598 35.6866V37.0461H69.8295V35.6866L67.7689 35.5159C66.0523 35.3451 65.5366 34.3252 65.3641 32.2876C65.021 29.0573 65.021 22.5988 65.1935 18.5195C66.0513 17.3289 69.8295 16.3101 73.2637 18.5195L76.0116 11.5496Z" fill="#CDE1FF"/>
</g>
<defs>
<clipPath id="clip0_1_1125">
<rect width="151" height="38" fill="white"/>
</clipPath>
</defs>
</svg>
