<svg width="72" height="38" viewBox="0 0 72 38" fill="none" xmlns="http://www.w3.org/2000/svg">
<g clip-path="url(#clip0_1_1135)">
<path d="M66.7748 30.1179C66.7748 30.1179 70.2951 25.5334 70.3073 19.5515C70.3319 7.80825 62.1015 0.183737 50.633 0.171479C43.985 0.159221 38.3428 3.39535 34.9206 8.13922C34.798 7.96761 34.6753 7.80825 34.5526 7.63664C31.6947 3.8489 26.7516 0.0121241 19.0855 -0.000133935C10.0702 -0.012392 3.10324 6.01858 0.80954 13.3857C0.785008 13.4715 0.760477 13.5695 0.735945 13.6554V13.6676C0.257581 15.3224 0 17.0631 0 18.865C0.0122658 20.5812 0.245315 22.236 0.650085 23.7928C2.09744 29.1741 5.86303 33.6115 10.8307 36.0018C10.8675 36.0141 10.9043 36.0386 10.9533 36.0631C10.9779 36.0754 11.0024 36.0876 11.0269 36.0999C13.5291 37.2399 16.338 37.8773 19.3308 37.8895C25.66 37.8405 31.2654 34.7392 34.7244 29.9953C34.798 29.8973 34.8593 29.7992 34.9329 29.7012C38.2692 34.5063 43.8133 37.9999 50.6944 37.9999C55.2572 37.9999 58.4831 36.0508 59.0719 35.7444L60.2862 37.3379H71.9755L66.7748 30.1179ZM19.2204 27.4702C15.1359 27.4702 10.4995 24.2463 10.4136 19.0734C10.3155 13.7166 14.952 10.2108 19.2204 10.3579C22.6917 10.4805 24.0164 11.4734 25.9421 13.3734C25.9421 13.3734 28.7387 13.3734 31.5843 13.3734C31.8051 13.3734 32.0136 13.3734 32.2344 13.3734C32.2344 13.3734 32.2344 13.3734 32.2344 13.3857C31.9646 14.2192 31.756 15.065 31.6089 15.9231H20.5819V24.8347H25.4146C25.4146 25.0676 22.937 27.4702 19.2204 27.4702ZM59.6606 21.5618L58.6671 20.2134H46.8061L51.6266 27.176C46.6099 28.1566 41.863 23.9644 41.9366 19.0857C42.0102 14.0966 46.0334 10.3702 50.8538 10.3947C56.1404 10.4315 61.4024 16.1192 59.6606 21.5618Z" fill="#CDE1FF"/>
</g>
<defs>
<clipPath id="clip0_1_1135">
<rect width="72" height="38" fill="white"/>
</clipPath>
</defs>
</svg>
