<svg width="410" height="350" viewBox="0 0 410 350" fill="none" xmlns="http://www.w3.org/2000/svg">
<g clip-path="url(#clip0_1_1105)">
<path fill-rule="evenodd" clip-rule="evenodd" d="M197.149 350C304.32 350 391.688 340.628 391.688 328.585C391.688 316.542 304.32 307.169 197.149 307.169C89.9775 307.169 2.65625 316.776 2.65625 328.585C2.65625 340.393 90.0241 350 197.149 350Z" fill="#DFEBFF"/>
<path fill-rule="evenodd" clip-rule="evenodd" d="M348.307 202.999C357.346 199.063 363.777 195.033 373.841 195.267C377.437 195.361 381.007 195.912 384.465 196.907C389.498 200.187 390.476 203.186 398.444 205.951C401.659 207.076 404.455 207.263 398.724 209.419C396.509 210.063 394.163 210.103 391.928 209.535C389.693 208.966 387.648 207.811 386.003 206.186C388.885 208.826 390.955 212.24 391.967 216.026C394.037 215.609 396.15 215.452 398.258 215.558C400.494 210.216 398.258 210.872 403.616 209.231C403.771 212.426 403.263 215.617 402.125 218.604L397.466 220.993C400.634 222.493 403.244 220.993 405.387 221.977C407.06 222.614 408.504 223.74 409.534 225.211C410.979 227.46 409.534 227.46 407.717 226.851C406.826 226.512 405.866 226.399 404.921 226.523C406.239 227.459 407.233 228.786 407.763 230.319C409.441 235.005 406.645 232.802 404.641 231.631C393.598 225.305 390.663 228.069 381.996 224.742C377.027 222.176 372.534 218.767 368.716 214.667C364.056 210.497 363.544 212.371 358.325 216.87C351.678 222.956 345.595 229.637 340.152 236.832L348.307 202.999Z" fill="#FFDDDE"/>
<path fill-rule="evenodd" clip-rule="evenodd" d="M208.285 328.022C203.066 334.02 160.058 344.095 150.692 344.095C145.926 344.079 141.285 342.553 137.43 339.736C133.574 336.918 130.698 332.951 129.211 328.397C125.437 314.339 122.454 309.653 137.365 312.558C149.62 315.182 160.663 320.618 179.302 320.431C187.503 320.431 195.61 314.198 199.478 314.058C200.363 313.964 205.023 326.897 207.958 328.022C208.238 328.022 208.378 328.022 208.285 328.022Z" fill="#FCD2D3"/>
<path fill-rule="evenodd" clip-rule="evenodd" d="M206.884 319.119C241.412 319.119 269.556 305.061 269.556 287.723C269.556 270.384 241.598 256.326 206.884 256.326C172.17 256.326 144.445 270.431 144.445 287.723C144.445 305.014 172.403 319.119 206.884 319.119Z" fill="#7872B8" stroke="black" stroke-width="0.22" stroke-miterlimit="22.93"/>
<path fill-rule="evenodd" clip-rule="evenodd" d="M198.823 314.667C192.346 320.993 205.3 337.066 214.153 336.879C234.143 329.194 305.109 308.762 313.077 291.893C317.867 281.445 318.872 269.642 315.92 258.528C310.608 240.487 292.994 245.032 277.804 249.531C264.477 253.467 213.035 302.296 198.823 314.667Z" fill="#4B4680"/>
<path fill-rule="evenodd" clip-rule="evenodd" d="M183.679 328.022C188.897 334.02 231.906 344.095 241.272 344.095C246.038 344.079 250.678 342.553 254.533 339.736C258.389 336.918 261.265 332.951 262.752 328.397C266.527 314.339 269.509 309.653 254.598 312.558C242.343 315.182 231.3 320.618 212.661 320.431C204.414 320.431 196.353 314.198 192.485 314.058C191.414 314.058 186.847 326.757 183.865 327.694C183.725 328.022 183.585 328.022 183.679 328.022Z" fill="#FFDDDE"/>
<path fill-rule="evenodd" clip-rule="evenodd" d="M203.485 313.589C209.962 319.869 197.055 335.942 188.155 335.754C168.165 328.069 97.1992 307.638 89.2778 290.768C84.4528 280.349 83.43 268.553 86.3889 257.451C91.7008 239.363 109.314 243.908 124.505 248.407C137.831 252.343 189.273 301.218 203.485 313.589Z" fill="#958FD3"/>
<path fill-rule="evenodd" clip-rule="evenodd" d="M61.6917 206.935C52.6521 202.999 46.2684 199.016 36.157 199.203C32.5592 199.313 28.9896 199.88 25.5331 200.89C20.5007 204.123 19.5222 207.123 11.5542 209.887C8.29248 211.059 5.5433 211.199 11.2746 213.355C13.4651 213.983 15.7816 214.019 17.9904 213.46C20.1992 212.9 22.2223 211.765 23.8556 210.168C20.9827 212.887 18.9588 216.388 18.0311 220.243C15.9681 219.78 13.8489 219.622 11.7406 219.775C9.50398 214.433 11.7406 215.089 6.42863 213.402C6.24087 216.594 6.73336 219.789 7.87311 222.774L12.5327 225.164C9.36419 226.616 6.7548 225.164 4.61138 226.101C2.95274 226.786 1.51666 227.921 0.464313 229.381C-0.980169 231.631 0.464314 231.584 2.28157 230.974C3.1939 230.658 4.16403 230.546 5.12393 230.646C3.855 231.551 2.89484 232.827 2.37476 234.302C0.743891 238.988 3.49307 236.785 5.5433 235.661C16.5866 229.288 19.5222 232.099 28.1425 228.725C33.1148 226.241 37.6232 222.912 41.469 218.884C46.1286 214.714 46.5946 216.541 51.8599 221.087C58.4362 227.1 64.4706 233.686 69.8927 240.768L61.6917 206.935Z" fill="#FFDDDE"/>
<path fill-rule="evenodd" clip-rule="evenodd" d="M61.3648 206.186C74.3185 211.575 99.6668 213.871 102.183 212.137C109.452 191.097 139.134 121.275 160.055 120.853C185.078 120.384 215.971 121.837 240.993 121.837C262.754 121.837 295.79 193.112 301.568 212.184C301.788 213.779 302.627 215.222 303.902 216.197C305.177 217.171 306.784 217.599 308.371 217.385C315.128 216.87 355.899 197.423 359.627 198.641C367.688 200.656 360.093 227.273 348.304 237.91C342.293 243.299 302.966 248.407 295.464 247.282C282.697 245.642 272.399 235.614 252.782 215.323C252.782 235.661 268.531 262.184 249.613 271.556C239.362 276.757 180.511 282.381 164.669 276.851C139.413 268.088 157.493 252.53 157.493 237.769C157.493 234.583 157.027 208.107 154.744 208.997C148.593 211.246 141.137 243.205 111.828 247.47C106.656 248.219 101.065 248.219 92.3978 249.391C56.6119 254.124 35.4107 195.267 61.3648 206.186Z" fill="#FFCE70"/>
<path fill-rule="evenodd" clip-rule="evenodd" d="M153.487 78.491C153.168 82.3743 151.99 86.1367 150.039 89.5032C144.355 97.7975 152.788 102.202 150.039 112.418C148.362 118.978 154.14 123.946 161.316 121.134C175.294 115.604 181.725 122.68 188.062 115.23C193.327 108.997 201.575 114.199 207.958 117.901C214.342 121.603 222.683 118.791 229.439 119.728C235.45 120.525 239.784 123.946 239.131 137.676C238.525 150.094 225.805 150.797 236.382 159.653C239.131 161.949 242.02 164.339 241.042 167.947C240.212 171.217 238.614 174.238 236.382 176.757C231.722 182.427 241.042 189.784 244.397 186.598C246.074 184.958 248.217 178.866 254.927 180.975C260.379 182.662 258.748 174.18 258.096 168.65C257.444 163.121 259.634 163.683 263.361 159.278C268.766 152.812 259.634 155.483 264.526 138.988C267.881 127.694 254.182 120.947 255.486 115.558C258.049 104.686 252.458 103.046 249.755 97.282C244.257 85.2858 257.397 81.9587 243.185 66.3542C241.228 64.1518 240.11 59.8406 240.11 50.5154C240.11 27.4132 237.081 35.3326 228.414 27.0852C222.823 21.3683 219.561 6.51353 202.693 11.715C190.112 15.5576 198.406 14.3861 183.589 14.7609C170.215 15.089 168.631 28.8191 166.441 29.9437C159.126 34.2549 157.122 37.7225 157.122 40.9559C157.122 44.1892 158.706 48.969 158.66 52.7178C158.66 54.0768 154 58.5285 151.81 62.0899C149.62 65.6513 153.767 70.9465 153.487 78.491Z" fill="#4B4680"/>
<path fill-rule="evenodd" clip-rule="evenodd" d="M187.827 103.093C187.461 107.138 186.648 111.13 185.404 114.995C182.143 121.228 166.16 116.401 166.16 121.556C166.16 130.693 191.369 159.887 203.437 159.044C216.577 158.013 230.603 140.3 234.657 129.006C236.474 123.992 236.381 123.102 234.936 121.79C231.768 118.838 222.681 120.525 219.047 116.401C216.664 112.107 215.443 107.26 215.506 102.343C220.312 98.2836 224.151 93.1911 226.74 87.4409C229.329 81.6907 230.601 75.4294 230.463 69.1189C230.465 67.3344 230.372 65.5511 230.183 63.7768C228.212 63.6977 226.264 63.3185 224.405 62.6521C216.344 59.7468 217.136 57.4506 213.642 50.937C212.057 47.938 210.007 45.6418 207.072 47.2351C205.489 48.1302 203.739 48.6833 201.932 48.8592C200.125 49.035 198.301 48.8297 196.578 48.2563C194.854 47.683 193.268 46.7542 191.922 45.5294C190.576 44.3045 189.499 42.8107 188.759 41.1432C187.175 38.2379 183.68 42.3616 180.092 45.8293C172.87 53.0926 171.659 58.0598 171.659 68.9783C171.47 75.5467 172.838 82.066 175.649 87.9978C178.461 93.9296 182.635 99.1036 187.827 103.093Z" fill="#FCD2D3"/>
<path fill-rule="evenodd" clip-rule="evenodd" d="M219.001 13.5891C252.55 19.9622 236.66 30.084 231.908 36.6444C248.17 44.0952 261.03 35.3323 250.546 56.7944C245.048 68.0409 276.267 87.0662 249.102 101.546C248.636 121.274 256.65 107.357 241.506 125.773C241.161 126.671 240.481 127.399 239.611 127.801C238.741 128.204 237.75 128.249 236.847 127.928C235.945 127.59 235.211 126.91 234.802 126.035C234.392 125.159 234.34 124.156 234.657 123.242C237.965 116.682 244.675 117.525 243.324 110.496C238.385 84.6294 255.206 101.124 252.27 82.0521C249.241 62.0896 234.89 81.4898 247.098 47.8909L239.736 45.4542C207.911 37.4879 231.442 34.3951 232.234 25.5385C230.976 22.9612 219.979 21.2742 217.836 20.8525C216.964 20.6078 216.213 20.0488 215.725 19.2824C215.237 18.516 215.047 17.5958 215.192 16.6975C215.336 15.7991 215.804 14.9856 216.506 14.4123C217.209 13.8389 218.097 13.5459 219.001 13.5891Z" fill="#4B4680"/>
<path fill-rule="evenodd" clip-rule="evenodd" d="M29.3993 145.923C32.4747 145.548 37.1343 147.094 37.5536 151.171C37.973 155.248 33.8259 157.872 30.7506 158.388C29.875 158.625 28.9608 158.68 28.0631 158.552C27.1654 158.423 26.303 158.113 25.5278 157.64C24.7526 157.167 24.0808 156.541 23.5529 155.8C23.025 155.059 22.6521 154.217 22.4565 153.327C22.4304 151.427 23.1405 149.592 24.4364 148.21C25.7323 146.828 27.5123 146.008 29.3993 145.923ZM38.1594 163.683C36.2955 164.105 35.6898 161.949 37.6934 161.527C39.6971 161.106 40.1164 163.214 38.1594 163.683ZM20.9654 130.459C20.6166 130.487 20.2658 130.445 19.933 130.336C19.6003 130.228 19.292 130.054 19.0259 129.826C18.7598 129.597 18.5411 129.318 18.3821 129.005C18.2232 128.691 18.1273 128.35 18.0997 127.999C18.0722 127.648 18.1136 127.295 18.2217 126.961C18.3297 126.626 18.5022 126.316 18.7294 126.048C18.9565 125.781 19.2339 125.561 19.5456 125.401C19.8573 125.241 20.1972 125.145 20.546 125.117C20.8948 125.089 21.2456 125.131 21.5784 125.24C21.9112 125.348 22.2194 125.522 22.4855 125.75C22.7516 125.979 22.9704 126.258 23.1293 126.571C23.2882 126.884 23.3842 127.226 23.4117 127.577C23.4392 127.928 23.3978 128.281 23.2898 128.615C23.1817 128.95 23.0092 129.26 22.782 129.528C22.5549 129.795 22.2775 130.015 21.9658 130.175C21.6541 130.335 21.3142 130.431 20.9654 130.459ZM19.1015 90.6746C18.2069 90.598 17.3361 90.3441 16.5394 89.9275C15.7428 89.5109 15.036 88.9398 14.4599 88.2472C13.8838 87.5545 13.4497 86.7541 13.1827 85.8919C12.9157 85.0297 12.8211 84.1229 12.9043 83.2238C12.9943 82.3457 13.2688 81.4969 13.7095 80.7335C14.1503 79.9701 14.7472 79.3096 15.4609 78.7957C16.1745 78.2818 16.9886 77.9262 17.8492 77.7525C18.7098 77.5787 19.5973 77.5908 20.4528 77.788C22.1803 78.0724 23.7448 78.982 24.8519 80.3457C25.959 81.7093 26.5322 83.4329 26.4637 85.1919C26.1991 86.8953 25.2784 88.4255 23.9006 89.4515C22.5229 90.4775 20.7989 90.9169 19.1015 90.6746ZM65.6978 1.63989C64.1601 0.84326 63.9737 -0.375109 66.0239 0.374656C68.0742 1.12442 67.515 2.53023 65.6978 1.63989ZM31.3563 82.9895C29.3993 82.6614 29.7721 80.0373 31.6825 80.4121C33.593 80.787 33.3134 83.3643 31.3563 82.9895ZM59.7334 24.6952C58.4526 23.739 57.5554 22.3524 57.2048 20.7873C56.8542 19.2223 57.0736 17.5828 57.823 16.1666C58.1433 15.5093 58.604 14.9313 59.1723 14.4739C59.7406 14.0166 60.4024 13.6912 61.1103 13.521C61.8182 13.3509 62.5547 13.3402 63.2673 13.4897C63.9798 13.6392 64.6506 13.9452 65.2318 14.3859C66.5431 15.2362 67.4934 16.5463 67.8981 18.0618C68.3029 19.5772 68.1331 21.1898 67.4218 22.5865C67.0946 23.2656 66.6269 23.8665 66.05 24.349C65.473 24.8315 64.8002 25.1845 64.0766 25.3841C63.353 25.5838 62.5952 25.6256 61.8542 25.5068C61.1132 25.388 60.406 25.1113 59.78 24.6952H59.7334ZM40.862 39.8311C41.7473 40.4871 43.0054 42.1741 42.3065 43.3925C41.6075 44.6108 39.7903 43.7205 38.9981 43.3925C38.206 43.0644 36.7149 41.3306 37.4139 40.1122C38.1128 38.8939 39.9767 39.4093 40.862 40.1122V39.8311ZM25.1125 92.4084C27.7452 92.6849 30.1844 93.9274 31.9637 95.8983C33.7431 97.8693 34.7378 100.431 34.7579 103.093C34.8065 103.576 34.8065 104.062 34.7579 104.545C34.0327 106.807 32.5723 108.757 30.6116 110.083C28.6508 111.409 26.3037 112.033 23.9476 111.855C21.4622 111.915 19.0413 111.056 17.1435 109.441C15.2457 107.826 14.0026 105.567 13.6498 103.093C13.6021 102.547 13.6021 101.998 13.6498 101.452C13.764 100.091 14.1602 98.7683 14.8131 97.5698C15.466 96.3714 16.361 95.3237 17.4406 94.4939C18.5202 93.6642 19.7605 93.0708 21.0818 92.752C22.403 92.4332 23.776 92.396 25.1125 92.6427V92.4084ZM35.55 137.394C36.0643 137.293 36.5935 137.295 37.1071 137.4C37.6206 137.505 38.1082 137.712 38.5416 138.009C38.9751 138.305 39.3457 138.685 39.632 139.127C39.9183 139.568 40.1147 140.062 40.2096 140.581C40.2096 142.877 38.0196 144.283 36.249 144.47C35.7366 144.593 35.2045 144.608 34.6862 144.514C34.1679 144.42 33.6744 144.219 33.2368 143.925C32.7993 143.63 32.4271 143.247 32.1436 142.801C31.86 142.354 31.6713 141.854 31.5893 141.331C31.4029 138.941 33.7328 137.535 35.55 137.394Z" fill="#CCE0FF"/>
<path fill-rule="evenodd" clip-rule="evenodd" d="M369.367 145.923C366.245 145.548 361.632 147.094 361.166 151.171C360.7 155.248 364.94 157.872 367.969 158.388C368.844 158.625 369.759 158.68 370.656 158.552C371.554 158.423 372.416 158.113 373.192 157.64C373.967 157.167 374.639 156.541 375.167 155.8C375.694 155.059 376.067 154.217 376.263 153.327C376.301 151.432 375.602 149.597 374.313 148.213C373.025 146.83 371.25 146.008 369.367 145.923ZM360.56 163.683C362.424 164.105 363.03 161.949 361.026 161.527C359.022 161.106 358.603 163.214 360.56 163.683ZM377.801 130.459C378.541 130.539 379.282 130.323 379.866 129.859C380.45 129.394 380.829 128.718 380.923 127.975C380.935 127.238 380.659 126.524 380.153 125.99C379.648 125.455 378.953 125.141 378.22 125.117C377.871 125.089 377.52 125.131 377.188 125.24C376.855 125.348 376.547 125.522 376.281 125.75C376.014 125.979 375.796 126.258 375.637 126.571C375.478 126.884 375.382 127.226 375.354 127.577C375.327 127.928 375.368 128.281 375.476 128.615C375.584 128.95 375.757 129.26 375.984 129.528C376.211 129.795 376.489 130.015 376.8 130.175C377.112 130.335 377.452 130.431 377.801 130.459ZM379.618 90.6746C380.514 90.5978 381.387 90.3442 382.186 89.9282C382.985 89.5122 383.695 88.942 384.275 88.2501C384.855 87.5581 385.293 86.7581 385.565 85.8957C385.838 85.0333 385.938 84.1253 385.862 83.2238C385.765 82.3487 385.486 81.504 385.043 80.7444C384.6 79.9849 384.003 79.3274 383.292 78.8148C382.58 78.3022 381.769 77.9459 380.911 77.769C380.053 77.5921 379.168 77.5986 378.313 77.788C376.586 78.0809 375.022 78.9914 373.909 80.3517C372.796 81.7121 372.209 83.4309 372.256 85.1919C372.532 86.8898 373.455 88.4126 374.83 89.4365C376.205 90.4603 377.923 90.9045 379.618 90.6746ZM333.022 1.63989C334.606 0.84326 334.746 -0.375109 332.742 0.374656C330.739 1.12442 331.251 2.53023 333.022 1.63989ZM367.27 83.1301C369.227 82.802 368.901 80.1778 366.944 80.5527C364.987 80.9276 365.313 83.5049 367.27 83.1301ZM338.986 24.6952C340.275 23.7456 341.181 22.3621 341.54 20.7966C341.9 19.2312 341.688 17.588 340.943 16.1666C340.622 15.5165 340.163 14.9452 339.598 14.4928C339.033 14.0404 338.377 13.718 337.675 13.5483C336.973 13.3785 336.243 13.3655 335.536 13.5103C334.828 13.655 334.161 13.9539 333.581 14.3859C332.27 15.2362 331.319 16.5463 330.915 18.0618C330.51 19.5772 330.68 21.1898 331.391 22.5865C331.713 23.2642 332.176 23.8645 332.749 24.3468C333.321 24.829 333.99 25.1821 334.71 25.382C335.43 25.5819 336.185 25.624 336.922 25.5055C337.66 25.387 338.364 25.1107 338.986 24.6952ZM357.625 39.8311C356.739 40.4871 355.481 42.1741 356.18 43.3925C356.879 44.6108 358.743 43.7205 359.535 43.3925C360.327 43.0644 361.772 41.3306 361.073 40.1122C360.374 38.8939 358.51 39.4093 357.625 40.1122V39.8311ZM373.421 92.4084C370.829 92.7465 368.446 94.0131 366.709 95.9756C364.971 97.9382 363.996 100.465 363.962 103.093C363.962 103.327 363.962 104.358 363.962 104.545C364.687 106.807 366.147 108.757 368.108 110.083C370.069 111.409 372.416 112.033 374.772 111.855C377.26 111.925 379.686 111.07 381.586 109.453C383.486 107.837 384.727 105.572 385.07 103.093C385.117 102.547 385.117 101.998 385.07 101.452C384.949 100.094 384.548 98.7748 383.893 97.58C383.238 96.3852 382.343 95.3404 381.265 94.512C380.187 93.6835 378.95 93.0895 377.631 92.7678C376.313 92.446 374.943 92.4034 373.607 92.6427L373.421 92.4084ZM362.936 137.394C361.979 137.33 361.03 137.617 360.267 138.204C359.504 138.79 358.979 139.634 358.789 140.581C358.789 142.877 361.026 144.283 362.75 144.47C363.262 144.586 363.792 144.596 364.308 144.499C364.824 144.402 365.314 144.2 365.75 143.907C366.186 143.613 366.558 143.233 366.843 142.79C367.129 142.347 367.321 141.851 367.41 141.331C367.392 140.791 367.267 140.26 367.044 139.77C366.82 139.279 366.502 138.837 366.108 138.471C365.713 138.105 365.25 137.821 364.746 137.636C364.242 137.451 363.706 137.369 363.169 137.394H362.936Z" fill="#CCE0FF"/>
</g>
<defs>
<clipPath id="clip0_1_1105">
<rect width="410" height="350" fill="white"/>
</clipPath>
</defs>
</svg>
