<svg width="479" height="389" viewBox="0 0 479 389" fill="none" xmlns="http://www.w3.org/2000/svg">
<g clip-path="url(#clip0_1_1386)">
<path fill-rule="evenodd" clip-rule="evenodd" d="M277.723 9.68936C298.25 4.41853 288.572 6.88035 308.497 1.86202L309.952 1.35703C316.725 -0.873773 324.109 -0.328058 330.48 2.87412C336.85 6.0763 341.685 11.6726 343.92 18.432C346.155 25.1914 345.609 32.5601 342.4 38.9171C339.191 45.2741 333.583 50.0986 326.809 52.3294C318.017 55.4856 299.293 59.5887 289.9 61.9874C282.95 63.5987 275.644 62.3891 269.588 58.6246C263.532 54.8602 259.223 48.8492 257.608 41.914C255.994 34.9789 257.206 27.6877 260.978 21.6444C264.75 15.6011 270.774 11.3007 277.723 9.68936Z" fill="#EAF2FF"/>
<path fill-rule="evenodd" clip-rule="evenodd" d="M53.7671 124.417C83.9082 55.9274 249.352 -21.4623 248.878 56.8111C248.353 62.9507 246.531 68.9098 243.533 74.2964C270.195 68.5206 291.891 71.1402 288.918 96.2003C287.59 106.079 256.184 147.52 226.454 184.195C266.115 155.789 277.975 138.651 338.036 127.731C369.411 122.018 388.419 149.824 349.865 182.301L345.279 186.215C371.435 173.18 398.065 162.701 423.905 158.125C469.132 150.076 470.904 189.434 446.993 201.491L445.19 202.406C459.201 200.418 471.821 204.458 472.77 225.036C473.56 242.3 447.467 270.737 421.122 295.198C439.845 289.801 452.749 282.1 463.851 286.361C472.485 289.738 475.964 295.135 478.557 304.035C479.789 309.735 478.766 315.69 475.701 320.654C472.636 325.618 467.767 329.208 462.111 330.673C459.617 331.223 457.039 331.287 454.52 330.863C450.947 332.094 447.689 333.577 443.957 335.25C432.128 340.615 331.869 363.34 340.882 314.103C341.299 312.417 342.006 310.815 342.97 309.369C304.353 334.997 257.164 366.37 243.343 372.177C224.145 380.194 204.188 368.516 207.351 346.738C209.059 335.061 233.728 310.032 266.273 281.91C250.459 291.379 235.31 300.406 221.267 307.791C205.833 315.808 138.624 347.496 145.487 300.342C146.594 292.894 159.751 278.786 178.696 261.805C172.371 264.962 165.444 268.402 157.348 272.536C143.431 279.638 134.133 293.746 118.572 287.213C86.0905 273.294 120.818 236.272 132.836 224.089C161.574 194.922 188.188 163.744 212.474 130.792C207.699 132.623 202.48 134.895 196.313 137.799C161.048 175.642 117.75 208.024 98.9946 192.843C61.6424 162.607 140.079 116.779 156.399 108.099C157.094 107.752 161.301 105.574 167.816 102.45C178.506 91.3714 188.437 80.3563 195.807 70.8877C161.301 80.2932 104.877 118.609 94.1872 138.272C93.465 141.014 92.1896 143.58 90.439 145.813C88.6885 148.046 86.4997 149.898 84.0066 151.257C81.5135 152.617 78.7687 153.454 75.9402 153.717C73.1116 153.981 70.2589 153.666 67.5567 152.791C62.0503 150.729 57.5485 146.634 54.982 141.353C52.4155 136.072 51.9805 130.009 53.7671 124.417Z" fill="#EAF2FF"/>
<path fill-rule="evenodd" clip-rule="evenodd" d="M279.842 37.8741C286.221 32.8085 293.828 29.5157 301.893 28.3296C309.958 27.1434 318.194 28.106 325.766 31.1198H327.031C334.59 31.1198 343.73 32.5085 347.146 40.2412C348.253 42.7346 349.265 45.3858 352.206 45.6067C354.527 45.6853 356.851 45.622 359.164 45.4173C363.082 45.1808 367.013 45.3394 370.898 45.8908C379.912 47.3111 390.919 50.4988 391.741 61.3877C392.152 67.0372 389.147 71.9293 387.851 77.1686C387.471 78.652 386.459 82.5341 386.08 85.0591C387.882 85.5956 390.318 86.069 391.425 86.3215C393.963 86.7792 396.327 87.921 398.262 89.6234C400.196 91.3257 401.627 93.5238 402.399 95.9795C403.286 99.4911 403.286 103.167 402.399 106.679C401.194 110.79 400.472 115.026 400.249 119.304C400.818 122.807 402.684 123.028 405.847 124.417C408.299 125.466 410.64 126.756 412.837 128.267C413.349 128.013 413.891 127.822 414.449 127.699C423.885 126.125 433.528 126.264 442.914 128.109C444.085 122.87 446.077 117.221 452.877 117.031C458.602 116.842 465.085 116.242 469.829 120.187C474.574 124.133 475.016 131.045 475.459 136.978C475.49 139.812 475.267 142.643 474.795 145.437C474.226 150.266 473.562 155.063 472.897 159.892C471 173.527 468.976 187.13 466.92 200.765C464.864 214.4 462.871 227.308 460.784 240.564L458.001 261.395C459.013 266.382 459.392 273.42 456.799 277.934C454.933 281.09 450.315 283.394 447.026 285.13C442.06 287.749 436.968 290.211 431.908 292.673C417.233 299.711 402.431 306.497 387.629 313.157C372.828 319.816 358.405 326.223 343.604 332.346C338.701 334.398 333.736 336.418 328.739 338.217C327.137 338.837 325.5 339.364 323.836 339.795C321.551 340.432 319.126 340.366 316.878 339.606C314.204 340.772 311.244 341.123 308.371 340.616C305.398 340.3 302.393 339.826 299.452 339.353C289.584 337.743 279.748 335.85 269.943 333.956C240.719 328.243 247.329 331.589 218.232 325.403C189.134 319.217 160.132 312.967 131.161 306.466C121.673 304.319 111.932 302.142 102.38 299.838C99.6284 299.175 96.8452 298.512 94.1252 297.786C93.0535 297.519 91.9976 297.192 90.9624 296.808C89.3973 300.285 86.685 303.121 83.2778 304.845C79.8705 306.568 75.9743 307.073 72.2389 306.276C68.1662 305.674 64.3046 304.081 60.9951 301.637C57.6856 299.193 55.0298 295.973 53.2623 292.263C51.9596 289.498 50.9013 286.626 50.0996 283.678C44.5807 284.093 39.0307 283.711 33.6216 282.542C29.3519 281.784 25.0821 280.837 20.9705 279.764C17.9291 279.088 14.9383 278.203 12.0199 277.113C9.63607 276.39 7.43202 275.172 5.55178 273.541C3.67155 271.909 2.15744 269.9 1.10841 267.644C0.149566 264.196 -0.224583 260.611 0.0014462 257.04C-0.31483 248.644 7.6237 245.299 14.4553 243.689C16.6376 243.184 18.8199 242.805 21.0338 242.395C22.1408 242.206 23.5324 242.016 24.5761 241.732C25.0927 241.541 25.6209 241.383 26.1575 241.259C24.8976 237.104 24.2581 232.786 24.2598 228.445C24.2598 210.581 34.9499 195.778 49.2772 185.899C65.9606 175.058 85.5105 169.442 105.416 169.771C109.473 169.775 113.526 169.986 117.561 170.402C116.707 166.741 115.853 163.08 115.031 159.387C113.954 156.453 113.377 153.359 113.323 150.234C113.567 147.997 114.556 145.906 116.134 144.298C117.711 142.689 119.784 141.657 122.021 141.365C124.211 141.097 126.429 141.161 128.599 141.555L227.878 155.568C232.812 156.231 237.904 156.768 242.775 157.683C247.067 158.218 251.094 160.046 254.319 162.922C257.184 166.047 259.065 169.943 259.727 174.127C260.771 178.798 261.498 183.595 262.416 188.329C263.333 193.064 264.25 197.609 265.199 202.248C266.732 200.954 268.521 199.997 270.449 199.439C271.05 198.854 271.695 198.316 272.378 197.83C275.763 193.506 284.555 172.833 287.085 165.163C286.293 162.912 284.879 160.932 283.005 159.45C278.551 156.216 275.036 151.859 272.821 146.826C272.378 145.816 271.967 144.743 271.524 143.669C271.082 142.596 270.259 141.965 269.69 141.113C268.348 139.682 266.911 138.343 265.389 137.105C264.345 136.126 263.27 135.148 262.226 133.948C261.158 132.941 260.316 131.719 259.754 130.364C259.192 129.009 258.923 127.551 258.965 126.085C259.007 124.619 259.358 123.179 259.997 121.858C260.635 120.537 261.545 119.365 262.669 118.42C261.529 112.402 261.976 106.192 263.965 100.398C261.087 97.3263 259.443 93.3038 259.348 89.099C259.264 86.6403 259.401 84.1791 259.759 81.7451C259.759 80.6404 260.17 79.1885 260.202 78.0839C260.202 70.3197 263.807 64.1335 267.508 57.5687C269.595 53.8759 270.67 49.6151 272.505 45.8592C274.142 42.5565 276.687 39.7868 279.842 37.8741ZM430.137 221.817C428.098 224.915 425.327 227.466 422.067 229.244C418.807 231.022 415.159 231.972 411.445 232.011C408.934 231.93 406.436 231.624 403.981 231.096C403.98 235.39 403.275 239.654 401.893 243.721L413.279 245.583L425.93 247.666C426.31 246.025 426.626 244.194 426.879 242.963C427.86 237.692 428.682 232.358 429.473 227.182L430.137 221.817Z" fill="white"/>
<path fill-rule="evenodd" clip-rule="evenodd" d="M281.485 94.9065C289.297 93.1075 297.678 100.461 300.208 111.35C302.739 122.239 298.469 132.56 290.72 134.359C282.971 136.158 274.558 128.804 271.997 117.915C269.435 107.026 273.515 96.7056 281.485 94.9065Z" fill="#F9A7B6"/>
<path fill-rule="evenodd" clip-rule="evenodd" d="M280.632 87.71C266.305 96.1371 283.225 112.139 284.649 123.091C286.768 141.334 296.794 152.128 313.651 159.071C329.465 165.384 342.527 134.169 346.228 124.164C347.777 119.966 350.877 87.6785 346.828 82.7233C337.815 71.8029 300.968 75.4956 288.729 82.2814C283.13 85.4376 284.68 81.0505 278.797 88.1519L280.632 87.71Z" fill="#FCD2D3"/>
<path fill-rule="evenodd" clip-rule="evenodd" d="M313.492 160.176C289.961 151.118 286.957 139.787 282.877 124.795C281.96 121.387 276.077 111.224 277.848 123.123C277.848 123.912 279.524 129.435 279.493 130.54C278.196 129.624 276.963 128.614 275.666 127.699C272.503 125.584 268.613 123.407 268.012 126.437C267.727 127.794 275.128 133.159 277.026 135.905C278.865 138.03 280.244 140.513 281.074 143.196C285.407 153.39 292.397 151.023 296.413 164.879C296.793 166.141 282.75 202.059 277.816 204.962C272.883 207.866 280.252 210.486 275.413 218.408C273.958 220.807 275.413 225.541 277.089 227.529C280.045 230.33 283.784 232.168 287.811 232.8C294.136 234.315 294.136 233.305 296.192 227.908C297.9 222.984 317.636 160.965 313.492 160.176Z" fill="#FCD2D3"/>
<path fill-rule="evenodd" clip-rule="evenodd" d="M345.787 257.418C353.978 256.408 358.438 264.488 366.503 247.129C377.541 223.268 394.43 186.625 394.968 161.66C394.968 155.6 386.555 148.183 379.154 151.371C368.748 155.821 346.135 231.317 342.498 233.431C342.245 233.431 299.104 236.588 294.55 236.588C284.809 236.588 273.644 238.26 270.703 225.478C269.944 222.322 277.851 207.993 274.909 207.866C265.706 207.866 264.694 225.162 266.56 231.19C266.742 233.02 267.102 234.828 267.635 236.588C268.046 237.44 268.394 241.29 270.26 241.795C280.95 244.51 344.585 249.623 344.585 252.779C344.743 253.031 345.724 256.566 345.787 257.418Z" fill="#FCD2D3"/>
<path fill-rule="evenodd" clip-rule="evenodd" d="M344.741 154.969C338.59 160.933 332.073 166.509 325.227 171.665C322.147 169.822 319.236 167.709 316.53 165.353L317.257 161.818C329.212 161.818 339.396 147.646 342.18 137.389C343.603 132.371 345.089 139.156 345.659 140.545C346.829 143.228 348.473 144.175 349.264 145.911C350.055 147.646 349.264 147.994 348.505 149.635C347.385 151.504 346.127 153.287 344.741 154.969ZM340.788 163.112C338.95 164.202 337.233 165.482 335.664 166.931C323.013 178.766 324.215 176.967 315.802 169.045C313.557 180.124 312.038 187.351 310.141 195.21C309.097 199.566 298.47 231.538 298.723 231.633C302.139 232.548 331.679 229.486 337.024 229.613C343.097 229.613 354.989 185.237 356.886 182.27C359.511 177.977 352.68 179.114 350.94 177.756C346.196 174.158 340.883 168.919 340.914 163.112H340.788Z" fill="#FCD2D3"/>
<path fill-rule="evenodd" clip-rule="evenodd" d="M349.928 202.911C345.658 215.536 340.44 229.549 337.056 229.486C331.711 229.486 302.265 232.421 298.755 231.506C298.565 231.506 304.163 214.431 307.61 203.542C313.976 207.482 321.345 209.507 328.834 209.372C336.323 209.238 343.614 206.951 349.833 202.785L349.928 202.911Z" fill="#4B4680"/>
<path fill-rule="evenodd" clip-rule="evenodd" d="M374.031 243.405C379.36 245.319 384.972 246.333 390.636 246.403C394.02 241.354 396.487 231.191 393.798 224.31C392.059 219.765 388.264 205.373 388.264 205.373C387.093 208.024 373.209 242.427 374.031 243.405Z" fill="#4B4680"/>
<path fill-rule="evenodd" clip-rule="evenodd" d="M127.332 150.392L226.643 164.406C252.546 168.067 248.782 165.195 253.621 190.034C258.84 216.672 264.217 241.448 269.435 267.518C270.194 271.274 271.744 281.5 269.909 282.1L269.024 282.352C265.85 282.985 262.561 282.712 259.536 281.563C226.516 272.41 189.765 265.119 155.323 257.671C147.827 256.03 149.313 257.387 147.384 249.907C139.541 219.102 130.653 188.519 123.79 157.462C122.43 151.15 119.837 149.351 127.332 150.392ZM190.05 206.698C185.59 201.238 171.073 201.554 182.111 215.473C184.987 218.603 188.3 221.303 191.947 223.489C195.11 225.415 200.677 216.609 201.436 214.589C205.105 204.016 201.72 197.23 190.113 206.698H190.05ZM190.904 210.802C187.741 206.825 179.423 207.645 184.926 215.536C186.964 217.881 189.393 219.856 192.106 221.375C197.071 224.562 207.73 197.072 190.904 210.802Z" fill="#7872B8"/>
<path fill-rule="evenodd" clip-rule="evenodd" d="M268.269 248.139C269.818 254.231 270.862 259.943 271.874 265.751C275.037 284.435 274.721 279.386 292.147 273.389C301.478 270.233 309.606 266.603 321.403 262.121C330.29 258.776 341.486 255.588 330.891 253.82C318.873 251.832 307.487 250.443 296.449 248.644C288.39 246.896 280.222 245.694 272.001 245.046C269.312 244.951 267.604 245.456 268.269 248.139Z" fill="#4B4680"/>
<path fill-rule="evenodd" clip-rule="evenodd" d="M274.909 285.508C274.909 286.108 274.909 286.708 274.909 287.339C275.415 292.105 278.388 289.043 284.871 287.15C300.685 282.605 313.811 274.714 329.435 267.992C332.851 266.54 336.741 266.003 336.772 262.594V260.543C336.772 256.25 332.882 259.028 328.454 260.732L280.823 279.322C275.352 281.468 274.593 280.143 274.909 285.508Z" fill="#4B4680"/>
<path fill-rule="evenodd" clip-rule="evenodd" d="M272.474 286.171C272.917 292.484 270.419 291.095 261.405 288.949L157.635 264.331C155.705 263.857 149.443 262.311 149.443 261.174V260.038C148.779 257.261 154.567 258.965 158.931 260.038L267.572 284.499L270.324 283.489C273.202 282.352 272.253 282.542 272.474 286.171Z" fill="#7872B8"/>
<path fill-rule="evenodd" clip-rule="evenodd" d="M105.416 178.703C110.209 178.704 114.995 179.031 119.743 179.682C127.334 180.755 125.816 182.238 127.84 189.876L139.827 235.767C131.952 239.744 118.605 247.54 108.674 249.118C114.715 235.009 110.761 219.67 98.7109 213.263C96.9384 212.333 95.0584 211.623 93.1129 211.149V210.928C92.4803 208.087 81.9799 193.001 78.1846 194.232C74.3893 195.462 73.2507 207.803 73.5037 213.674C67.033 216.856 61.6273 221.845 57.943 228.034C57.2155 229.265 56.5514 230.528 55.9504 231.79C51.4735 233.639 47.1842 235.911 43.1412 238.576C37.7646 242.142 36.9739 245.646 34.8864 238.955C33.8255 235.551 33.2818 232.009 33.2734 228.445C33.2734 200.986 65.5968 178.703 105.479 178.703H105.416ZM53.7681 253.82C54.3037 255.775 55.0904 257.653 56.1086 259.407C54.1477 262.563 54.0528 263.825 52.0919 262.563C49.8762 261.086 47.8293 259.372 45.9877 257.45C40.7375 252.021 40.4529 251.138 46.2408 252.463C48.771 253.063 51.3644 253.505 53.7681 253.82Z" fill="#F9C45A"/>
<path fill-rule="evenodd" clip-rule="evenodd" d="M105.415 178.703C110.208 178.704 114.995 179.031 119.743 179.682C127.333 180.755 125.815 182.238 127.839 189.876L135.999 220.933C128.952 227.457 120.613 232.435 111.519 235.546C111.61 231.066 110.481 226.645 108.253 222.755C106.025 218.864 102.782 215.649 98.8683 213.453C97.0957 212.523 95.2157 211.812 93.2702 211.338V211.117C92.6377 208.277 82.1373 193.19 78.342 194.421C74.5467 195.652 73.4081 207.993 73.6611 213.863C67.1904 217.046 61.7847 222.034 58.1003 228.224C57.3729 229.455 56.7087 230.717 56.1078 231.98C53.546 233.084 50.6995 234.41 47.7897 236.019C42.7891 234.332 37.9771 232.132 33.4308 229.455V228.634C33.2094 200.986 65.5328 178.703 105.415 178.703Z" fill="#FFCE70"/>
<path fill-rule="evenodd" clip-rule="evenodd" d="M141.787 240.596C132.299 245.646 116.991 254.042 107.914 252.842C50.731 245.236 54.9059 274.935 61.4211 288.602C66.355 299.112 81.5679 300.785 82.9595 292.168C84.3511 283.552 79.7968 270.075 93.0487 270.075C99.9119 270.075 130.433 279.544 145.361 270.359C147.054 260.301 145.813 249.97 141.787 240.596Z" fill="#FFCE70"/>
<path fill-rule="evenodd" clip-rule="evenodd" d="M104.118 249.56H102.537C77.2345 245.993 65.4057 251.011 60.4718 258.586C59.0766 256.15 58.1136 253.491 57.6254 250.727C51.2998 250.317 41.0841 248.55 40.1353 245.614C39.1865 242.679 54.7789 234.347 57.6254 233.968C58.2573 233.928 58.8911 233.928 59.523 233.968C59.9785 232.464 60.6611 231.038 61.5472 229.739C65.4655 224.472 70.5253 220.156 76.3489 217.114C76.0959 211.37 75.5898 198.871 78.7842 197.64C81.9786 196.409 90.5497 210.896 91.0873 214.621C106.933 217.777 112.088 236.714 104.118 249.56Z" fill="#FFCE70"/>
<path fill-rule="evenodd" clip-rule="evenodd" d="M34.9801 249.338C34.9801 252.495 42.6973 263.068 46.6191 264.93C50.5409 266.792 55.4748 268.086 52.9446 273.294C50.4144 278.502 20.6212 271.053 15.4975 268.875C7.90689 265.719 9.172 264.204 8.98223 256.692C8.79247 252.558 23.9737 251.358 27.3895 250.38C29.85 249.641 32.411 249.29 34.9801 249.338Z" fill="#F0E5F6"/>
<path fill-rule="evenodd" clip-rule="evenodd" d="M347.4 264.52C349.392 263.289 363.973 267.676 367.23 262.91C374.726 251.8 370.108 250.538 382.538 252.053C396.771 253.757 381.653 246.466 404.488 250.222C422.674 253.378 437.001 253.378 437.001 256.093C437.001 265.246 318.682 312.399 304.481 313.314C285.505 314.545 125.089 283.331 115.633 278.154C124.678 276.261 135.242 279.354 143.845 276.292C151.024 273.767 154.946 271.116 160.765 272.063C186.542 276.261 255.648 297.312 275.415 297.312C277.598 297.186 333.895 272.978 347.4 264.52Z" fill="#F0E5F6"/>
<path fill-rule="evenodd" clip-rule="evenodd" d="M91.2484 284.404C90.5842 278.502 90.1098 273.547 93.3991 274.935C109.909 281.974 201.218 299.68 221.617 303.783C263.176 312.21 301.477 315.871 308.783 319.564C309.985 320.132 310.681 327.991 308.372 331.052C305.684 334.556 91.4698 286.234 91.2484 284.404Z" fill="#F0E5F6"/>
<path fill-rule="evenodd" clip-rule="evenodd" d="M316.054 317.386C317.098 323.951 315.864 322.72 317.003 329.348C317.541 332.504 443.766 275.504 445.98 271.59C446.965 268.239 447.031 264.686 446.17 261.301C445.759 259.249 439.022 264.457 437.409 265.057C419.508 273.01 326.175 314.482 318.11 314.924C317.809 314.939 317.513 315.016 317.243 315.151C316.973 315.285 316.734 315.474 316.541 315.705C316.348 315.937 316.205 316.205 316.121 316.495C316.037 316.784 316.014 317.088 316.054 317.386Z" fill="#F0E5F6"/>
<path fill-rule="evenodd" clip-rule="evenodd" d="M417.485 137.294C424.158 148.53 416.789 146.51 414.48 157.241C412.772 165.258 414.891 165.952 419.983 171.917C426.973 180.092 424.095 187.099 418.908 194.737C416.789 197.893 410.305 200.039 423.462 200.039C439.276 200.039 436.524 203.385 439.276 184.258C440.32 176.904 443.166 155.537 445.032 150.108C445.443 148.909 447.056 138.367 445.665 137.862C436.276 135.409 426.489 134.862 416.884 136.252L417.485 137.294Z" fill="#FFCE70"/>
<path fill-rule="evenodd" clip-rule="evenodd" d="M453.226 125.869C465.434 125.49 465.718 125.269 466.636 137.547C467.047 143.133 449.272 250.349 449.24 250.38C445.071 249.347 440.848 248.546 436.589 247.982C433.079 247.982 432.668 248.518 433.174 247.445C438.867 235.325 449.652 125.995 453.226 125.869Z" fill="#F9C45A"/>
<path fill-rule="evenodd" clip-rule="evenodd" d="M89.9795 232.674C93.1423 232.895 94.2493 231.98 93.8065 228.792C93.7423 228.622 93.7149 228.44 93.7261 228.258C93.7373 228.076 93.7867 227.899 93.8713 227.737C93.9558 227.576 94.0735 227.434 94.2167 227.321C94.3599 227.209 94.5253 227.127 94.7022 227.083C94.879 227.038 95.0634 227.031 95.2431 227.062C95.4228 227.093 95.5939 227.162 95.7452 227.264C95.8965 227.366 96.0246 227.498 96.121 227.653C96.2175 227.807 96.2802 227.98 96.3051 228.161C97.0325 233.4 94.7237 235.546 89.5684 235.199C89.4001 235.172 89.2388 235.112 89.0937 235.023C88.9486 234.934 88.8225 234.818 88.7227 234.68C88.6228 234.542 88.5511 234.386 88.5117 234.22C88.4723 234.055 88.466 233.884 88.493 233.716C88.5197 233.549 88.5797 233.389 88.6694 233.245C88.7591 233.102 88.8768 232.978 89.0154 232.881C89.1541 232.784 89.3108 232.715 89.4765 232.68C89.6421 232.644 89.8131 232.642 89.9795 232.674Z" fill="white"/>
<path fill-rule="evenodd" clip-rule="evenodd" d="M68.6335 246.182C71.7963 246.435 72.9349 245.52 72.4605 242.332C72.3831 241.997 72.4388 241.646 72.6158 241.352C72.7927 241.057 73.0772 240.843 73.4093 240.754C73.5735 240.712 73.7444 240.703 73.912 240.728C74.0797 240.753 74.2405 240.811 74.3851 240.9C74.5297 240.988 74.6549 241.104 74.7535 241.242C74.8521 241.38 74.922 241.535 74.9591 241.701C75.7181 246.94 73.3777 249.086 68.2224 248.739C68.0551 248.712 67.8949 248.652 67.7512 248.563C67.6075 248.473 67.4833 248.356 67.386 248.218C67.2886 248.079 67.2201 247.923 67.1845 247.757C67.1489 247.592 67.1469 247.421 67.1787 247.255C67.2333 246.923 67.4159 246.624 67.6876 246.424C67.9593 246.223 68.2987 246.137 68.6335 246.182Z" fill="white"/>
<path fill-rule="evenodd" clip-rule="evenodd" d="M84.4149 243.31H85.5851V243.121C85.6286 242.748 85.8012 242.402 86.0732 242.143C86.3452 241.884 86.6994 241.727 87.0746 241.701C87.4498 241.675 87.8224 241.78 88.1279 241.999C88.4334 242.218 88.6527 242.537 88.7478 242.9C88.5581 245.804 87.4511 247.066 84.6362 246.372C84.2941 246.351 83.967 246.225 83.7005 246.01C83.4339 245.795 83.2414 245.502 83.1498 245.172C83.0833 244.759 83.1772 244.337 83.4123 243.991C83.6474 243.645 84.006 243.401 84.4149 243.31Z" fill="white"/>
<path fill-rule="evenodd" clip-rule="evenodd" d="M205.58 108.794C206.334 109.827 206.838 111.02 207.052 112.28C207.266 113.54 207.184 114.833 206.813 116.056C206.442 117.279 205.793 118.4 204.915 119.33C204.037 120.261 202.955 120.976 201.753 121.418C195.428 123.565 188.628 119.051 185.75 115.643C182.334 111.603 181.385 105.29 188.438 103.018C191.541 102.063 194.867 102.107 197.944 103.143C201.021 104.18 203.692 106.157 205.58 108.794ZM230.06 91.5293C228.985 89.5093 230.313 87.1738 233.223 86.4478C234.518 86.0321 235.912 86.044 237.2 86.4818C238.488 86.9196 239.599 87.7599 240.371 88.8781C241.383 90.8665 240.023 93.1705 237.208 93.8964C235.917 94.2889 234.537 94.2719 233.256 93.8479C231.976 93.4239 230.859 92.6137 230.06 91.5293ZM224.557 113.623C224.932 114.275 225.148 115.007 225.185 115.758C225.223 116.51 225.082 117.26 224.773 117.946C224.465 118.633 223.998 119.237 223.41 119.709C222.823 120.18 222.132 120.507 221.394 120.661C219.621 121.136 217.743 121.03 216.035 120.36C214.327 119.689 212.879 118.489 211.906 116.937C211.458 116.298 211.183 115.554 211.108 114.778C211.034 114.002 211.162 113.22 211.48 112.508C211.799 111.796 212.297 111.178 212.926 110.715C213.555 110.253 214.293 109.96 215.069 109.867C216.844 109.379 218.731 109.482 220.443 110.16C222.155 110.837 223.599 112.053 224.557 113.623Z" fill="#CCE0FF"/>
<path fill-rule="evenodd" clip-rule="evenodd" d="M257.037 377.732C256.467 373.566 253.02 367.916 248.149 368.264C243.279 368.611 241.602 375.049 241.824 378.995C241.824 383.666 244.67 389.41 250.11 388.937C255.55 388.463 257.859 382.372 257.195 377.669L257.037 377.732ZM280.568 383.54C280.655 384.047 280.843 384.532 281.12 384.966C281.398 385.401 281.759 385.776 282.182 386.07C282.606 386.363 283.085 386.57 283.589 386.677C284.094 386.785 284.615 386.791 285.122 386.696C286.132 386.469 287.012 385.856 287.574 384.988C288.136 384.121 288.334 383.068 288.127 382.056C287.919 381.04 287.326 380.144 286.471 379.556C285.616 378.967 284.566 378.732 283.541 378.9C282.539 379.127 281.667 379.736 281.111 380.598C280.555 381.46 280.36 382.504 280.568 383.508V383.54ZM339.079 370.157C339.804 372.335 341.298 374.176 343.282 375.337C345.266 376.498 347.605 376.901 349.864 376.47C350.442 376.359 351.012 376.212 351.572 376.028C353.199 375.299 354.582 374.116 355.552 372.622C356.523 371.128 357.041 369.386 357.043 367.605C357.046 365.825 356.533 364.081 355.567 362.584C354.601 361.087 353.222 359.9 351.597 359.166C349.971 358.432 348.168 358.182 346.403 358.446C344.638 358.71 342.988 359.476 341.649 360.654C340.31 361.831 339.341 363.369 338.857 365.083C338.373 366.797 338.395 368.614 338.921 370.315L339.079 370.157ZM468.088 299.017C468.163 299.289 468.3 299.54 468.487 299.752C468.674 299.963 468.907 300.13 469.168 300.238C469.429 300.347 469.711 300.395 469.994 300.379C470.276 300.362 470.551 300.282 470.798 300.144C471.044 300.007 471.257 299.814 471.418 299.583C471.579 299.351 471.686 299.086 471.73 298.807C471.773 298.528 471.753 298.243 471.67 297.973C471.587 297.703 471.443 297.456 471.25 297.249C471.175 296.977 471.038 296.726 470.851 296.515C470.664 296.303 470.431 296.137 470.17 296.028C469.909 295.919 469.627 295.871 469.344 295.888C469.062 295.904 468.787 295.984 468.54 296.122C468.294 296.26 468.082 296.452 467.92 296.684C467.759 296.915 467.652 297.181 467.608 297.46C467.565 297.738 467.585 298.024 467.668 298.293C467.751 298.563 467.895 298.811 468.088 299.017ZM348.377 350.684C349.231 353.24 353.279 351.788 352.426 349.295C352.203 348.81 351.809 348.425 351.318 348.215C350.827 348.005 350.275 347.984 349.77 348.158C349.265 348.331 348.843 348.686 348.585 349.152C348.328 349.619 348.254 350.165 348.377 350.684ZM438.548 306.497C439.718 309.243 443.165 312.809 446.454 311.452C447.195 311.152 447.809 310.605 448.194 309.906C448.855 308.764 449.202 307.468 449.202 306.15C449.202 304.831 448.855 303.536 448.194 302.394C447.567 301.156 446.676 300.071 445.583 299.215C444.49 298.358 443.222 297.752 441.868 297.439C441.23 297.346 440.578 297.411 439.971 297.628C436.65 298.954 437.124 303.941 438.294 306.497H438.548ZM419.824 327.612C419.649 327.153 419.384 326.733 419.046 326.376C418.707 326.02 418.302 325.734 417.852 325.534C417.402 325.335 416.917 325.226 416.425 325.214C415.933 325.202 415.444 325.288 414.985 325.466C414.184 325.976 413.593 326.755 413.317 327.663C413.042 328.57 413.1 329.546 413.481 330.414C413.863 331.282 414.543 331.986 415.398 332.398C416.254 332.81 417.229 332.904 418.148 332.662C418.583 332.433 418.968 332.12 419.282 331.742C419.595 331.364 419.831 330.928 419.975 330.458C420.119 329.989 420.168 329.496 420.121 329.008C420.073 328.519 419.929 328.045 419.697 327.612H419.824ZM335.094 362.74C333.606 359.129 330.781 356.228 327.206 354.641C323.63 353.054 319.58 352.903 315.896 354.219C312.197 355.372 309.095 357.921 307.252 361.322C305.409 364.724 304.969 368.71 306.028 372.43C306.651 374.286 307.642 375.998 308.942 377.464C310.243 378.93 311.825 380.12 313.596 380.962C315.367 381.805 317.29 382.283 319.25 382.368C321.21 382.452 323.167 382.143 325.004 381.457C326.919 380.889 328.701 379.944 330.244 378.678C331.787 377.412 333.061 375.85 333.989 374.085C334.918 372.32 335.483 370.388 335.651 368.401C335.819 366.415 335.586 364.415 334.967 362.519L335.094 362.74ZM265.671 366.875C266.051 368.227 265.878 369.674 265.19 370.898C264.502 372.123 263.356 373.026 262.002 373.408C258.839 373.945 256.91 371.136 256.531 368.453C256.151 365.77 257.195 362.551 260.041 362.141C262.888 361.73 265.26 364.35 265.671 366.875Z" fill="#CCE0FF"/>
<path fill-rule="evenodd" clip-rule="evenodd" d="M275.162 61.9557C272.221 67.195 269.09 72.4342 268.837 78.2101C268.837 83.039 264.725 95.0641 274.688 95.9163C297.871 97.9678 292.589 97.3681 315.804 94.1488C329.783 92.192 352.46 94.9063 345.502 114.127C342.909 121.197 345.502 136.947 350.879 143.164C357.204 150.171 338.228 156.736 346.008 169.14C346.008 169.14 359.545 181.575 362.518 174C365.238 167.183 369.855 156.357 375.833 151.276C380.387 147.394 383.202 148.12 388.199 150.36C396.138 153.959 397.466 161.249 396.865 168.509C395.031 190.854 381.842 221.943 411.572 223.079C424.223 223.552 432.604 198.587 421.313 205.31C407.587 213.547 391.109 202.469 412.078 193.537C420.776 189.813 423.243 190.728 414.64 179.461C399.68 159.892 416.411 153.927 414.45 146.037C409.991 128.204 393.892 136.284 391.394 120.598C389.812 110.75 399.459 97.2734 389.401 95.0641C375.833 92.0657 375.011 91.2767 379.059 75.0223C381.716 64.2597 389.338 57.8211 369.381 54.6649C354.864 52.3925 346.04 60.062 338.86 43.7761C336.235 37.8109 318.619 40.2096 313.558 42.2295C306.568 45.0701 297.744 43.208 290.217 43.9023C278.799 44.9439 280.254 53.0868 275.162 61.9557Z" fill="#7872B8"/>
<path fill-rule="evenodd" clip-rule="evenodd" d="M303.627 37.1167C326.241 33.9605 347.906 52.2348 355.117 78.9677C356.664 79.4657 358.133 80.1775 359.481 81.0824C358.342 80.4162 357.063 80.0237 355.746 79.9361C354.428 79.8484 353.109 80.068 351.891 80.5774C345.565 83.3864 343.288 93.9596 346.577 104.249C349.867 114.538 357.584 120.629 363.814 117.852C364.457 117.556 365.062 117.186 365.617 116.747C363.687 119.109 361.049 120.791 358.09 121.545C348.886 123.849 339.113 116.084 335.951 104.249C333.294 93.6124 337.121 83.3232 344.585 79.6621C335.982 55.9907 315.867 40.4938 294.835 43.3659C290.401 43.9648 286.114 45.366 282.184 47.5005C288.055 41.8695 295.561 38.2351 303.627 37.1167ZM356.951 83.8914C351.954 85.722 349.55 93.8018 351.543 101.913C353.535 110.025 359.197 115.201 364.194 113.37C369.191 111.54 371.595 103.491 369.602 95.3483C367.61 87.2054 361.948 82.0608 356.983 83.8914H356.951Z" fill="#F9A7B6"/>
</g>
<defs>
<clipPath id="clip0_1_1386">
<rect width="479" height="389" fill="white"/>
</clipPath>
</defs>
</svg>
