<svg width="479" height="376" viewBox="0 0 479 376" fill="none" xmlns="http://www.w3.org/2000/svg">
<g clip-path="url(#clip0_1_1150)">
<path fill-rule="evenodd" clip-rule="evenodd" d="M226.735 271.302C173.706 230.853 147.087 216.816 83.6785 195.864C73.7003 194.16 63.4524 196.481 55.1892 202.317C46.926 208.152 41.3243 217.024 39.6166 226.98C37.9089 236.936 40.2349 247.162 46.083 255.407C51.9311 263.652 60.8223 269.242 70.8005 270.946C107.007 283.579 141.097 301.587 171.921 324.363C179.006 331.47 188.611 335.504 198.656 335.594C208.701 335.683 218.377 331.819 225.587 324.839C232.796 317.86 236.96 308.327 237.175 298.306C237.39 288.285 233.639 278.583 226.735 271.302Z" fill="#EAF2FF"/>
<path fill-rule="evenodd" clip-rule="evenodd" d="M452.233 56.3851C421.48 30.2699 342.814 2.55215 303.02 -2.51234e-05C271.078 -1.95867 261.561 25.0765 282.528 47.7196C285.185 50.5686 288.219 53.5362 291.629 56.6226C262.453 44.752 230.867 36.3832 212.755 45.7907C195.475 54.6936 200.293 78.0192 210.732 90.9581C217.33 98.817 224.826 105.879 233.068 111.999L226.198 109.803C221.135 108.651 215.822 109.48 211.354 112.12C206.886 114.76 203.603 119.01 202.181 123.993C200.759 128.976 201.306 134.314 203.711 138.907C206.115 143.499 210.193 146.997 215.104 148.679C257.367 163.012 296.804 195.864 341.862 208.655C365.447 215.391 411.814 214.857 404.855 181.234C399.68 156.187 346.651 135.265 298.797 106.093C334.249 120.575 353.67 134.048 377.879 148.857C396.319 160.164 444.351 196.339 464.992 188.208C490.48 178.207 475.966 150.964 463.921 137.253C442.269 112.77 390.43 79.7405 352.45 52.913C380.853 62.3204 410.595 74.6658 422.224 83.5984C423.99 85.6527 426.151 87.3327 428.579 88.539C431.008 89.7452 433.654 90.4532 436.361 90.6211C439.068 90.7889 441.782 90.4132 444.341 89.5162C446.901 88.6191 449.254 87.219 451.261 85.3986C453.268 83.5782 454.89 81.3745 456.028 78.918C457.167 76.4614 457.801 73.8019 457.891 71.0968C457.982 68.3916 457.528 65.6958 456.556 63.1689C455.584 60.642 454.114 58.3352 452.233 56.3851Z" fill="#EAF2FF"/>
<path fill-rule="evenodd" clip-rule="evenodd" d="M319.051 117.993C320.636 116.505 321.927 114.734 322.858 112.77C323.08 112.356 323.278 111.93 323.453 111.494C325.971 110.738 328.411 109.745 330.739 108.527C336.45 104.906 337.55 98.6741 338.145 92.5014C338.145 91.5815 338.353 90.6022 338.413 89.5338C339.598 88.4592 340.506 87.1155 341.06 85.6165C341.268 85.1714 341.417 84.6966 341.595 84.1921C347.781 83.2721 352.272 77.4258 354.414 71.8763C355.739 68.7504 356.332 65.3636 356.147 61.9743C355.961 58.585 355.002 55.2828 353.343 52.3196C353.343 50.8358 353.521 48.7584 353.343 47.3933C353.399 45.0325 352.889 42.6924 351.856 40.5677C350.698 38.3631 348.804 36.6312 346.502 35.6711C344.204 32.798 341.317 30.4484 338.034 28.7798C334.751 27.1113 331.148 26.1623 327.468 25.9966C319.676 25.5515 309.474 28.1927 306.5 35.9976C303.172 34.1708 299.689 32.6415 296.091 31.4274C288.685 28.8752 276.521 26.0263 270.364 32.2583C268.659 32.5125 266.97 32.8693 265.308 33.3267C263.063 33.9309 261 35.0744 259.299 36.6573C257.599 38.2403 256.313 40.2145 255.553 42.4077C251.535 42.1211 247.547 43.2791 244.311 45.6721C242.318 47.334 241.337 49.1145 239.076 50.8061C236.694 52.8617 235.028 55.6187 234.317 58.6801C233.606 61.7414 233.887 64.9489 235.121 67.8404C236.039 69.9726 237.612 71.7596 239.612 72.9447C239.612 73.5085 239.612 74.0427 239.403 74.6066H238.809C236.483 74.981 234.326 76.0533 232.626 77.6808C230.926 79.3083 229.763 81.4139 229.291 83.7172L228.221 84.103C224.986 83.7535 221.722 84.4173 218.882 86.0023C217.873 86.1143 216.877 86.323 215.908 86.6255C210.65 88.7971 206.186 92.5261 203.119 97.309C201.552 99.8224 200.313 102.525 199.431 105.351C198.129 108.852 197.962 112.672 198.955 116.272C197.765 118.38 196.922 120.664 196.457 123.038V123.276C195.357 124.975 194.627 126.886 194.315 128.885C193.746 131.435 193.746 134.08 194.315 136.63C194.315 136.779 194.315 136.868 194.315 137.016C194.315 137.016 194.315 137.164 194.315 137.253C194.048 138.47 193.929 139.628 193.78 140.844C193.631 142.061 193.423 144.049 193.215 145.741C191.705 146.506 190.41 147.634 189.444 149.022C188.479 150.41 187.874 152.015 187.683 153.694C187.564 155.384 187.564 157.079 187.683 158.769C187.659 160 187.738 161.231 187.921 162.449C186.461 164.12 185.529 166.185 185.244 168.384C184.92 170.815 185.227 173.288 186.137 175.566C185.163 175.332 184.164 175.223 183.162 175.239C173.377 175.239 163.563 175.032 153.778 174.913L113.835 174.557C109.85 163.665 105.567 152.774 101.284 141.913C98.9644 135.977 96.6149 130.22 94.1463 124.433C92.1834 119.804 90.2204 113.483 84.867 111.702C79.5135 109.921 72.554 111.376 67.4088 112.296C63.2034 113.24 58.9417 113.914 54.6497 114.314C52.8885 114.511 51.187 115.068 49.6517 115.952C48.1164 116.835 46.7804 118.025 45.7273 119.448C44.1068 121.281 43.0157 123.52 42.5704 125.924C42.1252 128.328 42.3425 130.808 43.1992 133.099C45.8759 140.013 48.3742 147.076 50.9618 154.05C53.5493 161.024 56.107 167.998 58.6945 174.972H56.5532C51.2592 175.299 45.2811 175.595 42.4557 181.115C37.6971 190.404 45.1027 199.396 51.0807 205.925C54.343 209.304 57.3924 212.882 60.2113 216.638C58.5768 218.915 57.8956 221.738 58.312 224.508C58.7284 227.278 60.2098 229.778 62.442 231.476C64.4245 233.009 66.6182 234.248 68.9553 235.156C71.9295 236.373 74.9036 237.263 77.8777 238.124C81.5867 239.369 85.221 240.826 88.7631 242.486V242.783C88.7631 255.336 106.608 258.808 116.006 260.589C121.062 261.568 126.148 262.369 131.234 263.081C134.208 263.497 137.39 263.853 140.424 264.328C145.48 265.188 151.577 265.367 156.722 265.723L163.087 266.108C163.087 268.186 163.087 270.293 163.087 271.658C163.087 275.635 162.79 279.611 162.79 283.528C162.79 292.906 161.273 302.284 161.421 311.602C161.421 320.505 159.637 329.23 160.47 338.044C161.897 353.209 172.604 359.411 186.999 354.455C188.389 354.003 189.652 353.23 190.686 352.199C191.72 351.167 192.494 349.907 192.947 348.52C193.737 346.127 194.285 343.662 194.583 341.16C194.922 341.912 195.32 342.637 195.773 343.326C196.98 345.63 198.631 347.674 200.632 349.339C202.632 351.005 204.943 352.259 207.431 353.031C211.356 353.732 215.355 353.921 219.328 353.594C223.228 353.644 227.112 353.083 230.838 351.933C233.812 351.161 237.827 349.766 240.831 349.321C243.814 349.164 246.805 349.323 249.753 349.796C258.289 350.716 266.647 351.398 274.29 346.502C275.877 345.508 277.302 344.277 278.513 342.852C284.788 345.184 291.644 345.454 298.083 343.623C303.466 342.021 315.452 343.356 320.984 344.484C326.516 345.612 332.673 347.006 338.056 343.594C341.119 341.731 343.585 339.033 345.164 335.818C348.882 336.916 352.718 337.272 356.495 338.103C361.832 338.712 367.22 338.712 372.556 338.103C378.504 337.688 387.694 337.54 391.263 331.901C391.85 330.973 392.32 329.976 392.661 328.933C395.402 328.382 397.992 327.249 400.256 325.611C402.519 323.972 404.402 321.866 405.777 319.437C407.066 319.307 408.329 318.987 409.524 318.487C412.089 317.337 414.264 315.469 415.785 313.108C417.306 310.748 418.106 307.998 418.09 305.192C418.536 298.545 416.603 292.224 416.097 285.725C414.343 263.289 406.996 243.287 396.527 223.404C387.099 205.598 375.708 189.068 365.745 171.559C361.724 164.393 357.055 157.609 351.796 151.29C347.424 146.038 342.874 141.082 338.978 135.532C333.915 128.032 327.055 121.911 319.021 117.726L319.051 117.993ZM215.789 289.82C214.718 294.127 214.718 298.63 215.789 302.937C216.503 307.092 216.711 310.237 220.309 313.294C222.613 315.211 225.518 316.261 228.518 316.262C227.452 316.826 226.337 317.293 225.187 317.656C220.28 319.2 214.956 319.852 210.554 322.672C208.799 323.325 204.963 323.532 202.911 324.066C199.853 324.741 197.134 326.476 195.237 328.963C195.237 327.093 195.237 325.313 195.237 323.621C194.863 316.314 195.102 308.988 195.951 301.72C196.814 297.007 197.321 292.235 197.468 287.446C197.478 284.302 197.667 281.161 198.033 278.038C198.806 272.964 198.301 267.83 198.598 262.725C198.598 261.835 199.015 257.977 199.788 257.384C205.171 253.377 209.543 248.243 214.659 244.178L215.372 243.614C215.372 244.86 215.372 246.077 215.581 247.294C215.669 248.232 215.818 249.164 216.027 250.083C212.868 252.744 210.095 255.83 207.788 259.253C201.84 268.156 206.777 278.394 212.487 285.962C213.499 287.09 214.599 288.455 215.789 289.82Z" fill="white"/>
<path fill-rule="evenodd" clip-rule="evenodd" d="M392.751 235.749C377.404 201.711 352.629 170.461 331.364 141.2C324.018 131.14 317.267 127.935 302.307 129.33C293.057 130.279 295.704 134.79 291.57 140.785C288.091 145.8 283.838 163.962 282.648 170.461C280.877 178.972 276.415 186.69 269.919 192.481C266.379 196.013 263.97 198.416 268.461 203.788C270.454 206.221 281.399 205.509 280.358 210.94C276.253 212.335 264.476 201.651 270.811 214.59C277.681 228.627 267.331 223.493 265.547 217.914C264 212.958 259.836 224.68 258.974 215.302C258.974 214.175 263.822 206.399 260.193 205.806C257.219 205.39 257.397 208.388 250.557 208.091C240.266 207.646 239.493 230.051 248.891 239.37C255.672 246.136 291.719 241.536 297.994 238.183C300.552 236.788 299.928 234.8 300.166 230.615C300.463 224.472 304.21 223.76 308.91 225.57C324.345 231.476 333.268 248.095 340.733 265.485C347.365 280.679 381.27 349.736 405.688 313.145C414.581 299.732 399.651 251.3 392.751 235.749Z" fill="#7872B8"/>
<path fill-rule="evenodd" clip-rule="evenodd" d="M249.722 309.852C240.8 314.511 245.291 320.951 227.981 326.381C223.709 327.296 219.543 328.649 215.549 330.417C210.583 333.741 198.894 330.684 203.653 338.311C208.174 345.434 210.047 344.247 219.029 344.247C222.129 344.37 225.226 343.917 228.16 342.911C240.056 339.943 238.153 339.202 250.436 340.537C256.384 341.19 263.493 342.08 268.757 338.697C277.917 332.762 262.392 330.655 263.612 320.891C264.742 311.751 252.637 320.209 249.366 310.712L249.722 309.852Z" fill="#F0E5F6"/>
<path fill-rule="evenodd" clip-rule="evenodd" d="M328.686 318.695C312.656 315.964 312.091 320.475 297.993 311.216C291.996 307.503 284.858 306.07 277.888 307.18C252.37 314.065 272.891 341.1 295.108 334.542C302.246 332.465 315.451 333.77 322.619 335.224C325.355 335.788 330.352 337.094 332.672 335.64C334.335 334.643 335.637 333.145 336.392 331.361C337.146 329.578 337.314 327.602 336.871 325.717C336.428 323.833 335.396 322.137 333.926 320.875C332.455 319.613 330.62 318.85 328.686 318.695Z" fill="#F0E5F6"/>
<path fill-rule="evenodd" clip-rule="evenodd" d="M269.649 301.097C267.657 308.011 271.404 310 263.701 312.255C261.679 312.878 259.478 314.688 256.563 312.255C250.258 307.269 250.436 305.785 251.061 297.803C251.358 294.034 253.649 296.675 255.76 297.803C256.982 298.721 258.253 299.573 259.567 300.355C262.541 301.957 267.002 299.613 268.489 300.355C268.936 300.622 269.739 300.74 269.649 301.097Z" fill="#FFCE70"/>
<path fill-rule="evenodd" clip-rule="evenodd" d="M286.126 243.94C286.304 246.225 278.958 265.188 277.917 269.64C275.845 276.884 274.217 284.248 273.039 291.689C272.534 296.081 270.839 295.191 266.883 296.764C265.8 297.253 264.595 297.407 263.423 297.206C262.252 297.005 261.167 296.458 260.31 295.636C254.362 289.701 251.209 294.509 251.209 281.599C251.209 272.696 250.912 264.061 250.912 255.187C250.694 251.605 250.793 248.01 251.209 244.444C253.597 245.302 256.107 245.773 258.645 245.839C267.805 245.839 274.586 247.234 283.39 243.97C284.163 243.703 286.126 243.613 286.126 243.94Z" fill="#FFCE70"/>
<path fill-rule="evenodd" clip-rule="evenodd" d="M291.985 246.314C291.598 246.552 281.664 271.42 280.624 278.958C277.649 299.732 268.37 303.471 281.546 302.343C289.159 301.69 301.532 302.165 310.246 310.148C315.986 315.401 334.039 313.116 340.136 319.556C346.56 326.559 347.542 326.797 355.721 328.458C359.438 329.26 379.514 328.102 380.376 326.589C381.893 324.185 363.543 319.882 354.769 305.815C349.594 297.536 343.467 286.496 337.281 275.842C326.782 258.185 314.053 231.832 291.985 246.314Z" fill="#FFCE70"/>
<path fill-rule="evenodd" clip-rule="evenodd" d="M246.361 256.731C237.201 255.128 221.467 255.632 215.757 264.15C210.433 272.162 226.91 288.098 233.126 292.58C240.502 297.951 246.242 308.397 245.855 289.612C245.855 285.16 248.621 272.726 245.647 270.738C242.673 268.749 235.624 262.458 244.101 264.802C245.082 265.099 247.372 263.764 247.372 261.301C247.372 257.235 247.729 256.968 246.361 256.731Z" fill="#FFCE70"/>
<path fill-rule="evenodd" clip-rule="evenodd" d="M225.84 231.772C213.348 227.38 203.504 242.189 193.927 249.341C186.641 254.772 189.674 268.037 188.455 276.257C187.384 283.38 188.455 289.226 186.432 299.583C184.202 311.454 187.176 335.699 183.785 345.522C163.769 352.407 171.145 327.954 170.907 311.572C170.907 303.856 172.305 293.292 172.305 283.647C172.305 279.344 173.554 258.155 170.937 257.116C170.937 257.116 146.192 255.692 141.939 254.979C135.783 253.97 98.3086 250.201 98.3086 242.782C98.3086 233.879 90.8733 233.078 81.1776 229.161C80.2556 228.775 64.8495 224.502 68.1508 221.861C79.4823 212.958 46.3801 194.529 51.0495 185.477C52.1796 183.222 182.388 187.109 159.606 195.953C153.419 198.357 152.973 196.606 152.973 199.217C152.973 208.951 167.249 215.213 175.577 217.231C185.392 219.605 199.37 219.843 209.512 223.404C216.352 225.837 220.962 222.424 225.453 229.992C225.663 230.565 225.793 231.164 225.84 231.772Z" fill="url(#paint0_linear_1_1150)"/>
<path fill-rule="evenodd" clip-rule="evenodd" d="M225.277 237.411C224.89 241.061 224.117 251.448 228.578 251.864C238.75 252.843 238.898 254.831 238.898 245.186C238.898 241.833 225.485 235.72 225.277 237.411Z" fill="#F3D3E3"/>
<path fill-rule="evenodd" clip-rule="evenodd" d="M225.127 301.008C225.99 305.904 225.127 306.943 233.247 305.964C235.091 305.756 237.113 305.192 237.113 304.153C237.143 300.711 221.291 278.958 225.127 301.008Z" fill="#F3D3E3"/>
<path fill-rule="evenodd" clip-rule="evenodd" d="M279.138 360.598C279.138 367.423 287.525 370.925 293.384 370.807C299.243 370.688 305.548 366.8 305.459 360.093C305.37 353.386 299.154 349.677 292.967 349.796C286.781 349.914 278.989 353.802 279.138 360.598ZM316.701 369.026C316.744 368.778 316.733 368.524 316.67 368.28C316.607 368.036 316.492 367.809 316.335 367.612C316.177 367.416 315.979 367.255 315.755 367.141C315.53 367.026 315.284 366.96 315.032 366.947C314.78 366.935 314.528 366.976 314.293 367.067C314.058 367.159 313.846 367.299 313.669 367.478C313.492 367.658 313.356 367.873 313.268 368.109C313.181 368.345 313.144 368.597 313.162 368.848C313.119 369.096 313.13 369.35 313.193 369.594C313.256 369.838 313.37 370.065 313.528 370.261C313.686 370.458 313.884 370.619 314.108 370.733C314.333 370.848 314.579 370.914 314.831 370.926C315.083 370.939 315.335 370.898 315.569 370.807C315.804 370.715 316.017 370.575 316.194 370.396C316.371 370.216 316.507 370.001 316.595 369.765C316.682 369.529 316.718 369.277 316.701 369.026ZM240.057 351.042C240.057 348.074 235.894 346.947 233.603 346.917C231.313 346.887 226.852 347.926 226.674 350.805C226.495 353.683 230.897 354.93 233.157 354.93C235.418 354.93 239.849 353.95 240.057 351.042ZM147.234 345.285C148.008 339.172 140.959 335.254 135.784 334.661C133.664 334.311 131.489 334.515 129.472 335.253C127.455 335.992 125.664 337.24 124.274 338.875C123.149 339.777 122.363 341.032 122.043 342.436C121.908 343.281 121.957 344.146 122.188 344.971C122.419 345.796 122.826 346.561 123.382 347.214C124.374 348.983 125.795 350.475 127.515 351.553C129.235 352.632 131.199 353.262 133.226 353.387C138.58 353.98 146.521 351.547 147.234 345.285ZM126.326 358.847C126.624 356.829 123.917 356.176 122.371 356.651C121.597 356.888 120.616 357.126 120.437 358.075C120.259 359.025 121.151 359.648 122.014 360.064C123.53 360.895 125.821 360.865 126.326 358.847ZM17.2048 260.648C21.0414 256.879 19.4355 252.042 15.7178 248.777C12.0001 245.513 4.98111 243.287 1.62033 247.412C-1.74045 251.537 2.27463 257.561 5.48669 260.262C8.69876 262.962 13.6358 264.09 17.2048 260.529V260.648ZM54.917 294.716C53.9061 295.139 53.0928 295.928 52.6405 296.924C52.1881 297.92 52.1301 299.051 52.4781 300.088C52.7582 301.141 53.4421 302.043 54.3824 302.598C55.3227 303.153 56.444 303.318 57.5045 303.055C58.0336 302.898 58.5248 302.635 58.9481 302.282C59.3714 301.928 59.7177 301.492 59.9656 301C60.2136 300.508 60.358 299.97 60.3899 299.42C60.4219 298.871 60.3407 298.32 60.1515 297.803C60.007 297.262 59.7563 296.756 59.4139 296.314C59.0716 295.871 58.6443 295.501 58.1572 295.225C57.67 294.949 57.1326 294.772 56.5763 294.705C56.02 294.638 55.456 294.682 54.917 294.835V294.716ZM148.543 353.802C149.108 343.653 162.105 339.824 170.552 340.062C178.165 340.299 187.593 343.297 191.371 350.419C192.184 351.849 192.615 353.464 192.62 355.108C192.583 356.745 192.111 358.342 191.252 359.737C186.612 367.156 177.898 369.204 169.63 369.234C161.362 369.263 147.889 364.248 148.454 353.802H148.543ZM260.192 370.361C260.192 374.427 265.932 376.089 269.115 376C272.297 375.911 277.621 374.071 277.532 370.065C277.442 366.058 272.267 364.337 268.877 364.396C265.486 364.456 260.103 366.236 260.192 370.361Z" fill="#CCE0FF"/>
<path fill-rule="evenodd" clip-rule="evenodd" d="M245.589 172.509C207.491 143.456 188.367 133.366 142.922 118.379C139.372 117.771 135.736 117.867 132.223 118.661C128.71 119.455 125.388 120.932 122.447 123.007C119.505 125.082 117.002 127.715 115.081 130.755C113.159 133.795 111.857 137.183 111.247 140.726C110.638 144.268 110.734 147.896 111.53 151.401C112.326 154.907 113.805 158.222 115.885 161.156C117.965 164.091 120.603 166.589 123.65 168.506C126.697 170.423 130.092 171.723 133.643 172.331C159.649 181.403 184.134 194.339 206.271 210.703C211.406 215.631 218.26 218.375 225.384 218.353C232.509 218.332 239.346 215.548 244.451 210.589C249.556 205.63 252.529 198.885 252.742 191.779C252.954 184.673 250.389 177.763 245.589 172.509Z" fill="#EAF2FF"/>
<path fill-rule="evenodd" clip-rule="evenodd" d="M289.426 99.9204C290.377 102.117 294.303 99.6534 295.82 96.3593C298.526 90.424 298.08 80.9276 291.894 81.5211C289.901 81.7288 288.771 89.6821 288.028 91.2846C286.243 95.1722 277.618 94.8161 277.261 102.947C277.261 106.538 285.708 107.072 287.314 110.812C289.872 116.747 278.064 120.664 279.432 118.498C280.384 116.984 284.132 116.094 281.961 112.028C279.789 107.963 274.109 111.85 271.789 108.497C268.309 103.482 277.261 94.1039 278.54 86.6551C280.146 77.1587 273.514 76.9509 270.807 74.191C268.101 71.4311 266.049 64.7242 264.71 60.9553C263.78 64.9518 263.719 69.1008 264.532 73.1227C261.626 70.6069 259.337 67.4597 257.84 63.923C256.68 65.7036 258.048 75.7935 254.033 61.905C253.29 59.3231 253.022 61.1928 251.565 64.1307C248.412 70.6299 249.661 75.3484 247.579 80.8979C246.33 84.192 238.954 82.7081 238.657 85.29C238.721 86.3171 239.022 87.3153 239.539 88.2062C240.055 89.0971 240.771 89.8563 241.631 90.424C244.605 92.5014 243.535 91.3737 243.535 96.1812C243.535 98.1102 242.851 112.028 244.07 112.741C243.445 120.575 256.948 113.898 258.941 114.492C260.517 114.968 261.981 115.754 263.248 116.804C264.515 117.854 265.558 119.146 266.317 120.605C266.971 121.673 271.521 127.609 271.64 127.609C273.276 127.609 279.67 124.463 282.496 123.751C285.109 123.008 287.595 121.877 289.872 120.397C292.073 119.032 293.054 119.388 292.489 115.975C291.983 113.008 283.864 101.968 288.325 100.188C288.979 99.8314 289.277 99.6237 289.426 99.9204Z" fill="#FCD2D3"/>
<path fill-rule="evenodd" clip-rule="evenodd" d="M340.526 44.5147C337.552 32.6441 315.662 33.2673 315.305 40.1523C314.889 47.6901 309.654 39.9445 309.863 51.2809C306.888 42.7638 279.05 33.8015 276.85 39.4104C275.66 42.378 264.328 40.0336 264.596 46.4437C264.596 49.0552 261.622 51.637 258.321 51.637C247.733 51.637 252.372 52.2899 244.997 58.0768C242.409 60.0355 243.391 70.3925 249.369 59.9167C253.056 53.5066 256.209 61.2225 258.767 59.0561C262.124 57.9279 265.676 57.4937 269.206 57.78C271.675 58.6407 270.307 62.0238 272.18 65.3475C275.452 70.897 275.63 70.4815 283.482 66.8017C289.43 64.1011 290.947 57.3349 297.55 62.9437C298.382 63.656 295.527 71.0157 298.739 72.1137C298.739 72.6182 316.584 56.0885 315.157 69.6209C314.919 71.9357 304.955 83.8359 307.9 89.5041C308.762 89.5041 315.87 80.9573 315.543 92.264C315.543 97.22 301.267 100.395 302.487 107.725C302.695 108.972 288.479 109.862 302.487 112.147C316.495 114.432 312.896 105.796 317.655 103.244C332.169 95.5878 330.622 87.5752 333.15 78.1974C334.756 72.2621 331.098 74.2801 339.634 74.5769C343.232 74.5769 349.686 63.5966 344.571 56.3259C342.281 53.0912 345.671 43.0012 341.864 44.4553C341.507 44.4553 341.686 44.6631 341.24 44.6334L340.526 44.5147Z" fill="#4B4680"/>
<path fill-rule="evenodd" clip-rule="evenodd" d="M236.368 109.595C238.807 108.497 240.443 107.636 240.621 110.604C240.621 111.791 240.621 111.761 238.926 112.206C236.854 112.869 234.704 113.258 232.531 113.364C231.253 113.364 230.628 113.542 230.539 111.583C230.539 110.426 235.862 109.892 236.249 109.625L236.368 109.595Z" fill="#FCD2D3"/>
<path fill-rule="evenodd" clip-rule="evenodd" d="M233.723 114.759C232.89 114.996 227.15 116.005 226.912 112.859C226.514 110.927 225.988 109.024 225.335 107.162C224.8 106.123 223.075 107.874 222.361 109.269C220.963 112.533 221.945 116.332 219.387 118.172C215.699 120.931 213.231 113.245 208.234 119.359C206.888 120.973 205.949 122.886 205.498 124.938C205.405 125.358 205.405 125.794 205.498 126.214C203.416 133.366 203.773 145.622 203.357 152.151C203.357 154.555 217.781 154.555 218.227 152.774C219.833 144.138 218.019 136.69 219.476 128.558C220.071 127.965 220.22 125.591 223.224 124.582C226.228 123.573 229.707 122.504 232.622 121.436C238.154 119.388 237.173 117.964 238.422 116.005C240.652 112.444 242.229 112.296 233.723 114.759Z" fill="#FCD2D3"/>
<path fill-rule="evenodd" clip-rule="evenodd" d="M236.996 93.5701C239.197 95.7068 242.944 103.423 239.702 105.708C238.512 106.568 238.245 101.316 236.728 106.42C236.63 106.635 236.477 106.821 236.284 106.957C236.091 107.094 235.865 107.177 235.629 107.198C235.393 107.22 235.156 107.178 234.941 107.078C234.727 106.977 234.543 106.822 234.408 106.628C233.546 105.619 234.408 109.595 231.761 107.488C230.75 106.687 230.185 109.566 229.263 108.883C226.854 107.162 228.281 112.207 226.527 105.352C225.872 102.888 221.5 102.592 220.578 107.251C220.132 109.299 219.418 113.186 216.682 113.186C215.968 113.186 208.83 113.483 208.622 113.186C206.808 111.613 210.08 104.105 211.24 102.384C213.142 99.4447 215.789 97.0593 218.913 95.4694C222.125 94.4901 221.262 96.6861 223.642 94.134C224.442 93.671 225.337 93.3957 226.259 93.3288C227.181 93.262 228.107 93.4054 228.965 93.7482C230.482 94.8759 231.761 90.7805 234.111 93.4514C234.646 94.312 236.698 93.2733 236.996 93.5701Z" fill="#FCD2D3"/>
<path fill-rule="evenodd" clip-rule="evenodd" d="M303.108 123.662C300.313 120.1 295.346 114.759 293.145 120.991C292.402 123.098 291.45 121.703 288.803 123.276C286.851 124.499 284.766 125.494 282.587 126.244C279.6 126.775 276.657 127.529 273.783 128.499C273.278 128.827 272.703 129.033 272.104 129.1C271.505 129.167 270.899 129.093 270.333 128.885C267.924 127.638 272.118 138.648 272.861 139.776C273.357 140.732 274.173 141.485 275.168 141.902C276.163 142.32 277.272 142.376 278.304 142.061C288.297 140.785 284.074 132.476 294.454 128.38C296.948 127.297 299.55 126.481 302.216 125.947C304.952 125.561 304.804 125.858 303.108 123.662Z" fill="#7872B8"/>
<path fill-rule="evenodd" clip-rule="evenodd" d="M221.854 160.015C220.069 155.415 223.846 154.673 216.262 156.038C208.678 157.403 205.912 155.682 199.399 153.991C196.425 153.219 197.406 155.356 197.347 158.739C197.347 160.49 196.068 172.064 198.447 172.271C203.295 172.746 202.908 174.2 207.369 172.568C208.916 172.004 218.166 172.568 220.456 169.6C222.124 166.698 222.624 163.271 221.854 160.015Z" fill="#7872B8"/>
<path fill-rule="evenodd" clip-rule="evenodd" d="M268.7 138.411C272.656 150.281 266.083 156.216 264.953 166.396C264.001 174.794 266.886 175.892 260.759 182.065C256.219 186.528 251.958 191.265 248 196.25C247.239 197.875 246.236 199.376 245.026 200.701C240.565 205.361 236.312 200.998 232.743 204.352C228.222 208.566 215.344 202.897 210.615 199.781C205.41 196.369 197.588 192.422 197.053 188.267C196.518 184.112 199.373 177.643 195.685 172.924C194.703 171.648 193.276 166.692 198.51 168.414C199.896 168.865 201.364 169.011 202.812 168.842C204.26 168.673 205.654 168.193 206.897 167.434C208.979 165.713 214.214 168.681 218.794 164.645C219.347 164.303 219.977 164.105 220.626 164.066C221.275 164.028 221.924 164.151 222.514 164.424C223.104 164.698 223.616 165.114 224.005 165.634C224.394 166.154 224.647 166.762 224.742 167.405C227.716 181.976 220.787 180.017 212.846 188.445C209.872 191.413 211.031 196.22 220.073 187.703C223.047 185.032 222.155 178.355 225.099 181.768C226.348 183.163 223.82 194.232 227.27 190.671C230.72 187.11 227.925 171.47 229.59 171.619C231.256 171.767 233.159 177.999 233.427 179.364C233.605 179.364 235.211 181.471 235.033 177.405C234.884 174.26 242.825 185.21 244.639 179.631C247.613 170.046 232.416 172.36 234.795 169.185C236.252 167.197 240.743 167.642 242.795 165.208C245.561 161.914 247.078 154.109 247.316 150.934C247.554 147.759 255.435 143.871 256.238 140.31C257.963 133.692 266.172 130.962 268.7 138.411Z" fill="#7872B8"/>
<path fill-rule="evenodd" clip-rule="evenodd" d="M284.313 143.278C276.818 152.863 261.56 137.164 261.441 143.99C261.441 148.946 258.051 169.898 256.058 174.349C255.344 175.922 267.152 176.248 271.167 176.308C273.104 176.382 275.028 175.963 276.758 175.091C279.316 174.29 279.138 158.413 282.022 153.783C283.599 151.261 286.811 145.919 284.58 143.218C284.61 143.218 284.64 142.862 284.313 143.278Z" fill="#7872B8"/>
<path fill-rule="evenodd" clip-rule="evenodd" d="M241.07 210.702C240.565 207.408 236.907 203.55 234.2 207.972C233.397 209.278 231.969 207.972 230.75 213.67C229.893 216.448 229.364 219.316 229.174 222.217C229.352 229.191 227.36 232.337 234.141 237.055C235.323 238.067 236.808 238.662 238.364 238.747C238.81 237.5 239.464 238.42 238.364 235.542C236.252 229.102 234.349 218.003 239.226 212.186C239.435 211.949 240.148 210.762 240.416 210.702H241.07Z" fill="#7872B8"/>
<path fill-rule="evenodd" clip-rule="evenodd" d="M276.756 181.827C275.953 178.058 274.347 178.207 270.599 178.207C269.112 178.207 262.569 180.522 261.439 182.629C260.315 184.772 259.398 187.018 258.703 189.335C257.751 192.036 256.799 194.796 256.115 197.526C255.431 200.256 252.576 206.251 258.346 203.758C259.572 203.192 260.754 202.537 261.885 201.8C264.562 199.366 263.402 198.238 264.294 194.588C265.543 189.484 270.421 187.169 274.347 184.439C275.269 183.994 276.964 182.599 276.756 181.827Z" fill="#E5E5E5"/>
<path fill-rule="evenodd" clip-rule="evenodd" d="M182.062 212.216C173.139 211.058 171.712 212.038 165.05 206.28C162.254 203.877 136.201 204.767 129.836 204.708C123.471 204.648 117.761 203.491 116.304 204.708C112.675 207.675 108.482 210.643 104.407 213.403C101.65 215.53 98.7146 217.416 95.6333 219.041C92.2726 220.644 87.4841 224.057 95.1277 223.878C112.616 223.493 132.661 224.086 150.477 224.086C153.272 224.086 178.999 225.125 180.515 223.493C182.984 220.881 193.007 214.59 186.672 212.75C185.159 212.407 183.613 212.227 182.062 212.216Z" fill="#7872B8"/>
<path fill-rule="evenodd" clip-rule="evenodd" d="M86.9793 130.992C82.4289 129.478 66.428 133.96 60.0633 133.96C60.0633 133.96 55.8995 136.512 57.0892 139.895C60.3905 148.382 86.4142 220.496 87.9608 219.428C88.6449 218.953 96.4074 214.442 103.337 209.931C107.009 207.239 110.821 204.743 114.758 202.453C114.758 198.654 88.3772 131.467 86.9793 130.992Z" fill="#7872B8"/>
<path fill-rule="evenodd" clip-rule="evenodd" d="M62.6191 137.58C59.645 138.084 66.2178 149.45 66.9316 152.151C70.679 165.564 76.0622 175.002 80.1071 187.169C80.7911 189.217 91.498 213.64 91.5873 213.581C92.658 212.869 111.663 201.71 111.811 201.71C111.96 201.71 96.7622 159.006 93.9665 152.982C86.2635 136.096 86.6501 134.018 85.0441 134.375C83.4381 134.731 78.9471 134.731 62.6191 137.58Z" fill="white"/>
<path fill-rule="evenodd" clip-rule="evenodd" d="M97.1181 178.059C89.1771 182.006 95.631 174.735 90.8427 166.366C89.2961 163.666 88.7608 160.579 85.162 164.081C83.4965 165.684 84.0021 176.99 89.0879 178.444C92.062 179.275 88.2254 183.935 88.5228 185.418C89.5638 191.057 98.8134 191.354 98.0401 179.483C98.0103 178.801 97.3858 178.059 97.1181 178.059Z" fill="#FCD2D3"/>
<path fill-rule="evenodd" clip-rule="evenodd" d="M93.1037 167.286C94.68 164.318 94.1744 169.511 94.4123 171.351C94.5908 172.687 93.4011 176.663 96.0778 174.972C97.208 174.289 94.7692 167.137 93.877 165.565C92.5386 163.131 88.6425 155.593 86.1442 157.344C80.7908 161.024 82.4563 162.33 81.1179 168.977C79.7795 175.625 83.7351 178.919 84.5976 182.302C85.5494 182.48 89.1184 181.976 86.2929 178.978C85.5791 178.266 81.7722 174.319 82.486 173.221C83.5864 171.5 84.2407 175.298 83.5269 168.235C82.9024 161.796 83.3485 162.3 87.5421 161.647C90.7244 161.202 92.5683 168.265 93.1037 167.286Z" fill="#7872B8"/>
<path fill-rule="evenodd" clip-rule="evenodd" d="M99.0212 179.483C99.0212 185.418 96.8501 192.956 89.4445 190.137C88.1953 189.662 87.9574 184.558 84.8048 190.137C83.2285 192.837 84.5966 194.588 86.2621 197.111C87.5251 198.845 88.5271 200.755 89.2363 202.779C89.2363 203.165 90.7233 206.755 92.2104 206.785C95.5414 206.785 106.427 201.384 107.081 197.111C107.155 195.629 106.902 194.15 106.338 192.778C105.412 188.63 104.19 184.554 102.679 180.581C100.003 176.842 99.0212 179.602 99.0212 179.483Z" fill="#FFCE70"/>
<path fill-rule="evenodd" clip-rule="evenodd" d="M76.9238 162.419C76.3587 154.555 75.8829 156.81 83.6454 155.148C90.3075 153.694 87.0954 150.934 86.4411 145.919C85.757 140.369 75.288 140.607 74.2471 141.378C71.273 143.723 71.273 145.414 70.7674 149.332C70.113 154.139 73.5928 158.828 76.4777 162.3L76.9238 162.419Z" fill="#E5E5E5"/>
<path fill-rule="evenodd" clip-rule="evenodd" d="M227.923 212.097C226.644 216.548 226.972 223.7 226.109 223.671C222.57 223.671 221.202 221.297 218.346 218.804C211.119 212.453 211.744 213.551 203.476 215.361C196.159 216.934 188.784 202.482 177.63 202.482C176.738 202.482 175.221 202.126 173.467 202.126C171.712 202.126 161.986 203.105 162.671 199.811C162.908 198.654 166.24 199.306 167.161 196.665C168.143 196.339 169.838 195.864 170.136 194.974C171.325 192.6 179.385 193.193 182.032 191.264C184.313 190.623 186.699 190.441 189.051 190.73C189.438 190.908 192.025 191.502 193.512 192.095C201.334 195.241 207.372 201.473 214.837 205.123C218.563 206.769 222.437 208.061 226.406 208.981C230.897 209.96 228.964 208.536 227.923 212.097Z" fill="#FCD2D3"/>
<path fill-rule="evenodd" clip-rule="evenodd" d="M163.414 76.654C159.131 72.1135 153.48 76.1198 158.863 84.2215C160.975 87.3969 163.89 90.4535 165.615 90.4535C167.31 90.3183 168.945 89.7648 170.373 88.8427C171.8 87.9207 172.976 86.659 173.794 85.1711C177.838 79.0281 177.868 70.0955 169.66 73.3006C168.969 73.7943 168.432 74.4735 168.113 75.2592C166.269 78.6423 167.518 80.9868 163.414 76.654Z" fill="#CCE0FF"/>
<path fill-rule="evenodd" clip-rule="evenodd" d="M147.173 186.754C149.76 178.771 155.352 161.707 150.147 161.054C147.441 160.698 126.354 159.155 125.789 161.677C125.158 164.611 125.158 167.646 125.789 170.58C125.789 170.58 121.387 169.126 119.275 171.411C113 178.207 119.692 181.264 126.086 180.314C129.06 179.958 124.004 191.739 134.444 191.324C141.463 191.057 144.913 193.965 147.232 186.754H147.173ZM123.766 173.518C124.837 173.874 125.938 176.486 124.569 176.812C123.201 177.139 120.049 177.702 120.049 175.655C120.049 173.607 121.447 172.835 123.35 173.399L123.766 173.518Z" fill="#7872B8"/>
<path fill-rule="evenodd" clip-rule="evenodd" d="M132.751 171.915C132.309 171.915 131.885 172.09 131.573 172.402C131.261 172.714 131.085 173.136 131.085 173.577C131.053 173.816 131.073 174.059 131.143 174.29C131.213 174.52 131.331 174.734 131.49 174.915C131.649 175.096 131.845 175.242 132.065 175.341C132.285 175.441 132.524 175.492 132.766 175.492C133.007 175.492 133.246 175.441 133.466 175.341C133.686 175.242 133.882 175.096 134.041 174.915C134.2 174.734 134.319 174.52 134.389 174.29C134.458 174.059 134.478 173.816 134.446 173.577C134.446 173.356 134.402 173.138 134.317 172.934C134.231 172.731 134.106 172.546 133.948 172.391C133.79 172.237 133.603 172.115 133.397 172.033C133.192 171.951 132.972 171.911 132.751 171.915Z" fill="white"/>
<path fill-rule="evenodd" clip-rule="evenodd" d="M134.209 175.981H131.235C131.381 177.758 132.031 179.456 133.109 180.878C133.411 181.316 133.808 181.681 134.272 181.943C134.736 182.205 135.254 182.358 135.786 182.391H136.053C136.593 182.284 137.071 181.976 137.392 181.531C137.802 180.96 138.068 180.298 138.165 179.602C138.492 178.177 139.949 178.147 140.396 179.364C140.445 179.689 140.445 180.019 140.396 180.344V182.421H143.37V180.136C143.409 179.551 143.323 178.966 143.117 178.417C142.912 177.869 142.592 177.37 142.178 176.954C141.764 176.539 141.267 176.216 140.719 176.007C140.17 175.799 139.584 175.709 138.998 175.744C138.238 175.809 137.512 176.085 136.902 176.542C136.292 176.998 135.823 177.616 135.548 178.326C135.31 178.86 135.31 179.453 134.893 179.869C134.794 179.974 134.674 180.057 134.541 180.113C134.408 180.169 134.265 180.197 134.12 180.195L134.209 175.981Z" fill="white"/>
<path fill-rule="evenodd" clip-rule="evenodd" d="M139.384 171.915C139.145 171.883 138.901 171.903 138.67 171.973C138.439 172.042 138.225 172.16 138.043 172.319C137.862 172.478 137.716 172.674 137.616 172.893C137.517 173.113 137.465 173.351 137.465 173.592C137.465 173.833 137.517 174.071 137.616 174.291C137.716 174.51 137.862 174.706 138.043 174.865C138.225 175.023 138.439 175.142 138.67 175.211C138.901 175.281 139.145 175.301 139.384 175.269C139.791 175.214 140.165 175.015 140.436 174.706C140.706 174.398 140.855 174.002 140.855 173.592C140.855 173.182 140.706 172.786 140.436 172.478C140.165 172.169 139.791 171.969 139.384 171.915Z" fill="white"/>
</g>
<defs>
<linearGradient id="paint0_linear_1_1150" x1="225.84" y1="265.782" x2="50.5736" y2="265.782" gradientUnits="userSpaceOnUse">
<stop stop-color="#E8DBEE"/>
<stop offset="1" stop-color="#FA9CAD"/>
</linearGradient>
<clipPath id="clip0_1_1150">
<rect width="479" height="376" fill="white" transform="matrix(-1 0 0 1 479 0)"/>
</clipPath>
</defs>
</svg>
