<svg width="400" height="444" viewBox="0 0 400 444" fill="none" xmlns="http://www.w3.org/2000/svg">
<g clip-path="url(#clip0_1_578)">
<path d="M386.303 35.5215H137.565C132.897 35.5215 129.113 39.2897 129.113 43.9379V390.523C129.113 395.171 132.897 398.939 137.565 398.939H386.303C390.97 398.939 394.754 395.171 394.754 390.523V43.9379C394.754 39.2897 390.97 35.5215 386.303 35.5215Z" fill="#FFCE70"/>
<path d="M368.188 54.9873H155.597C151.6 54.9873 148.359 58.2144 148.359 62.1952V370.626C148.359 374.607 151.6 377.834 155.597 377.834H368.188C372.186 377.834 375.426 374.607 375.426 370.626V62.1952C375.426 58.2144 372.186 54.9873 368.188 54.9873Z" fill="#F0E5F6"/>
<path d="M237.815 389.056C279.848 389.056 313.923 341.982 313.923 283.915C313.923 225.847 279.848 178.774 237.815 178.774C195.782 178.774 161.707 225.847 161.707 283.915C161.707 341.982 195.782 389.056 237.815 389.056Z" fill="white"/>
<path fill-rule="evenodd" clip-rule="evenodd" d="M297.668 174.113C309.264 176.284 320.085 181.448 329.048 189.09C343.35 202.513 352.496 226.208 334.812 228.41C324.974 229.618 299.662 230.697 290.647 226.208C276.648 219.173 278.121 182.141 294.331 176.573C294.721 176.4 297.192 173.767 297.668 174.113Z" fill="white"/>
<path fill-rule="evenodd" clip-rule="evenodd" d="M118.408 67.5904C124.953 66.7272 123.002 62.7563 140.643 62.7563C156.766 62.7563 186.238 84.5528 191.309 101.817C193.129 108.033 196.813 112.305 199.717 123.139C207.519 152.489 221.041 161.25 222.038 196.513C222.471 211.62 205.828 260.91 197.723 270.664C181.514 290.259 174.362 294.403 148.271 302.517C120.619 311.149 65.9215 312.056 36.0591 310.114C30.9395 309.43 26.1648 307.162 22.4088 303.631C18.6528 300.099 16.1051 295.483 15.1251 290.432C13.2181 274.074 -4.33528 276.664 0.995743 242.782C3.5529 226.597 10.791 240.581 3.33619 208.555C-4.33528 175.623 54.0892 125.168 61.6307 99.7887C72.8995 62.4111 96.8674 70.4391 118.408 67.5904Z" fill="#4B4680"/>
<path fill-rule="evenodd" clip-rule="evenodd" d="M88.8924 117.312C87.9389 116.708 89.5426 120.29 91.4929 123.571C98.3843 135.181 87.9389 156.503 109.436 174.889C121.233 168.064 132.466 160.314 143.026 151.712C153.168 143.08 161.75 132.98 171.025 123.916C171.116 123.737 171.188 123.549 171.242 123.355C173.539 118.176 178.176 108.81 171.242 104.752C161.533 98.9256 162.877 112.608 163.007 115.37C163.007 116.137 162.701 116.873 162.156 117.415C161.612 117.957 160.873 118.262 160.103 118.262C159.333 118.262 158.594 117.957 158.049 117.415C157.505 116.873 157.199 116.137 157.199 115.37C150.568 90.5524 130.327 104.105 116.068 92.2788C112.037 102.249 90.1927 118.176 88.8924 117.312Z" fill="#FCD2D3"/>
<path fill-rule="evenodd" clip-rule="evenodd" d="M96.956 249.99C86.554 261.687 83.9535 272.391 65.3166 289.828C45.6395 308.431 39.0082 342.485 35.3242 371.187C26.3958 443.525 151.913 454.359 191.744 435.929C220.35 422.981 245.271 358.929 265.425 352.585C321.509 335.061 232.962 284.692 209.081 283.527C181.646 282.232 142.421 255.644 98.6897 251.846L96.956 249.99Z" fill="#EBF5FF"/>
<path fill-rule="evenodd" clip-rule="evenodd" d="M78.0149 252.148C78.795 265.485 88.9803 312.142 105.97 312.142C151.609 312.142 117.542 343.046 170.376 341.233C179.868 340.974 196.641 332.342 195.687 322.501C194.604 310.977 234.262 321.422 239.766 312.617C257.103 285.037 224.293 276.448 277.343 242.437C304.518 225.172 281.027 207.217 300.921 184.471C316.914 166.128 295.46 171.091 307.552 141.31C320.121 110.579 295.373 114.118 281.981 95.0412C273.702 83.215 239.896 77.7767 227.847 82.9129C210.814 90.5092 198.591 102.379 184.505 112.478C169.422 123.182 157.98 139.152 143.244 151.323C100.032 187.881 73.6807 176.314 78.0149 252.148Z" fill="#7872B8"/>
<path fill-rule="evenodd" clip-rule="evenodd" d="M335.204 227.158C326.535 223.705 310.152 218.309 299.88 224.395C293.292 246.666 257.969 294.791 237.989 301.611C226.59 305.495 217.315 307.179 206.002 302.56C200.671 300.359 189.966 305.107 182.988 306.056C178.654 306.661 164.438 306.056 164.438 307.265C164.048 316.76 175.533 314.343 183.205 315.897C190.876 317.451 194.083 321.033 186.152 326.04C182.078 328.63 175.62 330.356 170.809 332.73C167.948 334.241 156.896 337.046 150.005 339.506C141.727 342.398 143.72 345.722 150.568 346.542C161.187 347.836 179.737 336.701 180.561 343.434C181.384 350.167 144.371 353.793 157.59 361.691C161.924 364.195 194.387 349.649 191.526 351.678C186.932 354.958 165.218 361.432 168.122 369.719C172.803 374.035 195.124 357.289 199.891 356.771C206.392 356.08 189.836 368.856 188.232 372.266C186.629 375.675 186.629 379.085 198.764 372.525C215.494 363.418 217.575 347.707 237.252 340.715C256.194 333.866 273.389 322.947 287.615 308.732C310.412 284.864 323.111 253.918 335.204 227.158Z" fill="#FCD2D3"/>
<path fill-rule="evenodd" clip-rule="evenodd" d="M84.0402 282.275C84.3436 316.2 91.1916 350.599 119.624 349.218C125.388 348.916 133.883 356.987 140.124 360.224C143.982 362.21 157.461 366.569 157.201 367.562C154.384 376.582 144.198 370.497 136.657 369.331C129.115 368.166 124.651 370.583 130.459 377.964C133.45 381.762 139.127 385.387 142.638 389.401C144.848 391.775 154.297 398.034 159.975 402.738C166.779 408.22 163.789 410.68 157.071 409.169C146.626 406.838 132.93 390.135 129.852 396.221C126.775 402.307 160.451 418.104 145.369 421.125C140.601 422.074 114.726 397.472 116.763 400.364C119.97 404.939 138.434 418.276 132.713 425.139C126.862 427.642 111.475 404.421 107.141 402.393C101.247 399.587 112.559 417.111 112.949 420.866C113.339 424.621 112.126 427.858 102.894 417.586C90.1947 403.472 94.5722 384.438 79.576 370.108C43.5591 335.32 28.6062 246.408 80.4428 208.469C77.3723 222.817 76.5536 237.551 78.0157 252.148C78.9759 262.371 80.9948 272.466 84.0402 282.275Z" fill="#FCD2D3"/>
<path fill-rule="evenodd" clip-rule="evenodd" d="M335.421 235.1C333.688 275.11 319.341 318.099 283.411 340.154C283.411 340.154 280.031 332.256 277.387 326.084C281.111 323.1 284.643 319.885 287.962 316.459C310.76 292.59 323.416 261.644 335.638 234.884L335.421 235.1Z" fill="#FCD2D3"/>
<path fill-rule="evenodd" clip-rule="evenodd" d="M196.596 16.9622C196.007 20.6677 193.986 23.997 190.965 26.239C187.945 28.4809 184.163 29.4579 180.429 28.9611C176.56 28.3627 173.064 26.3221 170.65 23.2526C168.236 20.1831 167.083 16.3143 167.427 12.4303C168.147 8.54244 170.361 5.08729 173.598 2.79855C176.835 0.509818 180.84 -0.432222 184.763 0.172485C186.671 0.442697 188.501 1.10198 190.141 2.10909C191.78 3.11619 193.194 4.44944 194.292 6.02541C195.39 7.60138 196.15 9.38614 196.524 11.268C196.898 13.1499 196.878 15.0884 196.466 16.9622H196.596ZM231.789 11.6534C231.965 10.9126 232.294 10.2165 232.755 9.60931C233.216 9.00211 233.799 8.49716 234.466 8.12663C235.134 7.75609 235.872 7.52809 236.633 7.45715C237.394 7.38621 238.161 7.47388 238.886 7.71458C239.612 7.95529 240.278 8.34374 240.844 8.8552C241.411 9.36667 241.863 9.98993 242.174 10.6853C242.485 11.3807 242.647 12.1329 242.65 12.894C242.653 13.6552 242.497 14.4086 242.191 15.1063C241.69 16.4694 240.681 17.5882 239.374 18.231C238.067 18.8738 236.561 18.9913 235.17 18.5592C233.823 18.0609 232.721 17.0657 232.092 15.78C231.462 14.4942 231.354 13.0166 231.789 11.6534ZM315.048 51.7934C315.983 50.2804 317.21 48.9671 318.658 47.9297C320.105 46.8923 321.746 46.1514 323.483 45.7499C325.221 45.3484 327.021 45.2944 328.78 45.5909C330.539 45.8874 332.221 46.5286 333.729 47.4772C335.238 48.3621 336.552 49.5416 337.593 50.9449C338.633 52.3481 339.378 53.9462 339.783 55.6432C340.188 57.3403 340.244 59.1013 339.948 60.8205C339.653 62.5398 339.011 64.1818 338.063 65.6481C336.2 68.4996 333.314 70.5346 329.995 71.3369C326.676 72.1392 323.174 71.6482 320.206 69.9643C317.167 68.1755 314.935 65.2902 313.975 61.9069C313.015 58.5236 313.399 54.902 315.048 51.7934ZM386.129 210.152C387.547 209.727 389.039 209.601 390.509 209.784C391.979 209.967 393.394 210.455 394.663 211.215C395.933 211.975 397.029 212.991 397.88 214.198C398.732 215.405 399.32 216.776 399.608 218.223C400.033 219.593 400.146 221.039 399.94 222.458C399.735 223.876 399.215 225.232 398.418 226.426C397.622 227.62 396.569 228.622 395.335 229.361C394.102 230.1 392.719 230.556 391.286 230.697C388.687 231.212 385.987 230.752 383.707 229.405C381.428 228.059 379.727 225.921 378.934 223.403C378.299 220.7 378.681 217.859 380.006 215.418C381.332 212.976 383.51 211.103 386.129 210.152ZM382.575 160.43C381.957 160.589 381.314 160.625 380.683 160.536C380.051 160.448 379.443 160.236 378.894 159.913C378.345 159.591 377.864 159.163 377.481 158.656C377.097 158.149 376.818 157.571 376.659 156.956C376.499 156.341 376.463 155.701 376.552 155.072C376.641 154.443 376.854 153.838 377.178 153.29C377.502 152.743 377.931 152.265 378.44 151.883C378.95 151.501 379.53 151.223 380.148 151.064C381.425 150.692 382.795 150.809 383.99 151.392C385.185 151.975 386.118 152.982 386.605 154.215C386.731 155.519 386.397 156.826 385.662 157.912C384.927 158.999 383.835 159.797 382.575 160.171V160.43ZM307.074 60.4256C313.531 48.9016 308.807 38.845 299.315 31.0328C299.315 31.0328 298.102 30.1696 297.842 29.9969C287.743 23.1343 272.487 21.6236 265.509 33.5362C259.138 44.4991 265.509 56.8864 274.957 63.4469L276.344 64.3101C287.396 70.5254 298.839 71.4749 307.074 60.4256ZM209.078 33.1045C209.409 32.1645 209.546 31.1679 209.481 30.174C209.417 29.1801 209.153 28.2093 208.704 27.3193C208.255 26.4293 207.631 25.6383 206.869 24.9935C206.106 24.3487 205.222 23.8632 204.267 23.5659C203.273 23.4134 202.258 23.4593 201.282 23.701C200.306 23.9428 199.387 24.3755 198.581 24.974C197.774 25.5724 197.095 26.3248 196.583 27.1871C196.071 28.0494 195.736 29.0046 195.599 29.9969C195.11 31.9069 195.36 33.9302 196.299 35.6652C197.239 37.4001 198.799 38.72 200.67 39.3629C202.604 39.5585 204.541 39.0239 206.098 37.8649C207.655 36.706 208.719 35.0071 209.078 33.1045Z" fill="#7872B8"/>
</g>
<defs>
<clipPath id="clip0_1_578">
<rect width="400" height="444" fill="white"/>
</clipPath>
</defs>
</svg>
