<svg width="420" height="401" viewBox="0 0 420 401" fill="none" xmlns="http://www.w3.org/2000/svg">
<g clip-path="url(#clip0_1_1197)">
<path fill-rule="evenodd" clip-rule="evenodd" d="M18.8809 113.519C107.019 83.8403 204.495 77.1847 298.665 80.4446C324.091 81.3275 342.598 89.3414 336.803 113.451C329.408 144.42 260.288 155.796 201.632 165.949C226.137 162.349 249.348 159.157 266.389 158.003C292.667 156.339 398.732 145.099 372.556 196.069C362.911 214.813 328.249 225.747 291.337 233.218C323.273 231.69 388.37 228.328 404.048 241.13C431.008 263.202 403.708 287.108 375.419 297.363C330.6 313.594 251.12 326.498 201.666 332.78C175.422 336.176 147.645 344.937 121.776 352.917C191.543 351.762 308.038 328.332 331.896 323.34C349.55 319.639 367.103 315.836 384.792 312.236C400.299 309.248 415.739 317.398 419.283 330.403C422.828 343.409 413.148 356.38 397.641 359.369C313.593 376.347 207.085 401.815 121.572 400.864C11.7235 399.778 -18.3373 334.886 47.7148 320.352C84.115 312.338 71.0954 316.956 109.063 304.664C112.029 303.713 115.062 302.762 118.095 301.879C102.367 303.928 86.543 305.175 70.6865 305.614C23.5161 306.429 3.40738 280.724 33.775 249.313C43.6249 239.126 61.6886 231.52 82.2405 225.543C66.9374 224.457 54.6335 221.537 47.3399 215.798C14.4161 189.753 58.2804 162.994 81.4906 150.6C87.1484 147.544 92.8288 144.782 98.5319 142.315C79.1449 146.445 60.015 151.695 41.2391 158.037C26.5836 163.232 9.71267 157.493 3.50963 145.201C-2.6934 132.908 4.25945 118.85 18.8809 113.519Z" fill="#EAF2FF"/>
<path fill-rule="evenodd" clip-rule="evenodd" d="M248.804 355.905C248.149 359.186 246.495 362.186 244.067 364.496C239.636 368.877 232.411 371.763 226.821 374.683C217.016 379.61 206.74 383.546 196.147 386.433C190.274 388.319 184.035 388.784 177.947 387.791C176.248 387.433 174.642 386.731 173.226 385.729C171.811 384.727 170.618 383.446 169.72 381.966C168.822 380.485 168.239 378.837 168.007 377.123C167.774 375.409 167.898 373.665 168.369 372.001C165.438 372.001 162.439 371.559 159.406 371.118C144.59 368.579 130.026 364.75 115.882 359.674C113.921 358.985 112.163 357.818 110.77 356.279C105.657 357.399 100.545 358.554 95.1599 359.267C85.3741 361.204 75.2242 360.016 66.1556 355.871C55.9309 350.472 42.2978 342.662 38.7191 330.743C36.0948 322.05 39.1622 313.459 40.9004 304.935C40.9004 304.562 41.0708 304.154 41.139 303.747C42.754 296.2 46.2731 289.188 51.3638 283.373C53.3376 280.984 55.4546 278.716 57.7031 276.581C61.4522 273.186 65.4058 269.79 69.1208 266.19C70.3819 264.968 71.5748 263.745 72.5291 262.523H71.8815C67.7234 261.674 61.6567 261.199 59.4073 256.886C51.9091 242.522 53.8518 206.358 55.1129 190.398C56.2189 175.889 58.096 161.448 60.7365 147.137C62.9262 134.339 66.2101 121.752 70.5523 109.512C72.6335 99.2021 78.5971 90.0771 87.2187 84.0102L87.5936 83.7725L87.9003 83.6027L88.2412 83.399L88.582 83.1952L88.9228 83.0254H89.0932L89.4 82.8557C88.9015 82.0935 88.5008 81.2721 88.2071 80.4107C87.3209 77.7281 88.2071 77.015 86.2303 74.9776C78.3572 66.1487 78.1527 59.1196 83.1288 48.7627C83.9127 47.1327 83.6741 46.6573 82.7539 45.1632C79.8909 40.6129 77.2666 37.421 77.846 31.5803C78.285 26.4403 79.8435 21.4574 82.413 16.9788C84.251 13.7986 87.036 11.2667 90.3824 9.73349C93.7288 8.20032 97.4708 7.74184 101.09 8.42157C102.591 8.6736 104.123 8.6736 105.623 8.42157C111.69 2.68281 119.29 -2.17307 127.743 0.984947C129.81 1.87279 131.795 2.94094 133.673 4.17692C134.342 4.62803 135.096 4.93988 135.889 5.09376C138.217 5.03799 140.517 5.61551 142.54 6.76424C144.564 7.91297 146.235 9.58947 147.375 11.6135C148.214 13.3667 148.534 15.3225 148.295 17.2504C149.981 19.4337 150.914 22.102 150.953 24.8568C152.106 28.051 152.817 31.3868 153.066 34.7723C153.322 37.7082 153.882 40.61 154.736 43.4314C155.968 44.6091 156.852 46.1007 157.293 47.744C158.152 46.5615 158.851 45.2713 159.372 43.9068C160.073 41.8263 161.212 39.9194 162.714 38.3141C164.216 36.7088 166.046 35.4423 168.079 34.5996C170.113 33.7568 172.305 33.3575 174.506 33.4283C176.708 33.4991 178.869 34.0384 180.844 35.01L181.559 35.3156C186.108 34.4706 190.808 35.0396 195.022 36.9456C198.463 38.4281 201.463 40.7693 203.732 43.7433C206 46.7173 207.461 50.2237 207.973 53.9242C208.153 55.7015 208.602 57.4415 209.303 59.0856C210.121 59.9346 211.45 60.6477 212.438 61.6664C214.432 63.81 215.81 66.4493 216.426 69.3067L216.869 69.103H217.073C216.511 67.7719 216.099 66.3824 215.846 64.9602C215.859 60.3075 217.131 55.7442 219.527 51.7509C219.232 48.9699 219.946 46.1756 221.538 43.8728C222.948 41.7895 224.633 39.9049 226.548 38.2699C252.349 15.4847 291.305 39.6282 282.205 71.7517C280.374 76.5953 277.645 81.0531 274.162 84.8931C272.486 86.84 270.534 88.533 268.368 89.9187C268.377 91.3624 268.685 92.7887 269.271 94.1089C269.857 95.4291 270.71 96.6151 271.776 97.5931C272.264 97.9077 272.791 98.1588 273.344 98.3401C276.002 99.3249 280.569 99.8342 283.194 100.479C290.102 102.019 296.49 105.319 301.735 110.055C307.392 115.081 311.38 125.064 314.209 135.761C322.032 138.937 328.7 144.409 333.329 151.449C340.418 161.908 340.146 173.216 339.669 185.406C339.626 187.482 339.045 189.511 337.982 191.296C336.919 193.081 335.41 194.562 333.602 195.593L332.545 196.171C332.545 205.815 330.262 216.036 330.739 225.476L333.261 226.291C336.669 227.411 340.282 228.532 343.759 229.686L346.11 230.535L347.474 231.011L349.007 231.588H349.45L350.541 232.029L352.109 232.641L353.165 233.082H353.608L354.597 233.524L355.653 233.965L356.608 234.406L357.392 234.78L358.312 235.187L359.096 235.595L360.05 236.07L360.8 236.512L361.72 237.021L362.368 237.429L363.117 237.904L363.97 238.447L364.685 238.957C364.982 239.129 365.267 239.322 365.537 239.534L366.253 240.077C366.529 240.274 366.791 240.489 367.037 240.722L367.685 241.266C368.141 241.67 368.574 242.101 368.98 242.556L369.627 243.269C369.862 243.526 370.078 243.798 370.275 244.084L370.82 244.865L371.297 245.68C373.84 250.826 375.806 256.235 377.159 261.81C379.222 269.393 380.826 277.093 381.965 284.867C383.669 296.888 385.987 319.571 374.535 327.687C352.484 343.443 318.606 355.667 291.339 356.415C281.684 356.887 272.034 355.384 262.983 352C262.131 352.204 261.21 352.374 260.29 352.509C257.495 354.411 253.167 355.124 248.804 355.905Z" fill="white"/>
<path fill-rule="evenodd" clip-rule="evenodd" d="M22.9374 106.456C24.854 109.076 25.7666 112.293 25.5104 115.525C25.2541 118.757 23.8458 121.792 21.54 124.08C19.0041 126.047 15.8428 127.04 12.633 126.878C9.42322 126.716 6.3789 125.409 4.05565 123.197C2.75605 122.034 1.72277 120.607 1.02602 119.012C0.329268 117.416 -0.0146228 115.69 0.017711 113.951C0.0500449 112.211 0.457846 110.499 1.21341 108.93C1.96896 107.361 3.05458 105.973 4.39648 104.86C5.67508 103.659 7.1938 102.741 8.85318 102.166C10.5126 101.591 12.2752 101.372 14.0256 101.522C15.776 101.673 17.4747 102.19 19.0104 103.041C20.5462 103.891 21.8844 105.055 22.9374 106.456ZM4.66914 140.175C1.90845 138.375 4.08973 134.64 6.98675 136.61C9.88378 138.579 7.46391 141.941 4.66914 140.175ZM44.7162 78.7128C44.4152 78.0882 44.2436 77.4097 44.2114 76.7176C44.1792 76.0256 44.2872 75.3342 44.5289 74.6846C44.7706 74.035 45.1411 73.4405 45.6183 72.9366C46.0955 72.4327 46.6696 72.0297 47.3065 71.7515C47.8815 71.3699 48.5304 71.1127 49.2114 70.9964C49.8923 70.8802 50.5902 70.9074 51.2599 71.0765C51.9297 71.2456 52.5564 71.5527 53.0996 71.978C53.6429 72.4033 54.0906 72.9373 54.4138 73.5457C54.7371 74.154 54.9287 74.8232 54.9764 75.5099C55.024 76.1966 54.9266 76.8856 54.6905 77.5325C54.4543 78.1794 54.0846 78.7698 53.6053 79.2655C53.126 79.7612 52.5476 80.1513 51.9076 80.4106C50.7158 81.0868 49.3109 81.2877 47.9764 80.9726C46.6418 80.6575 45.4767 79.8499 44.7162 78.7128ZM118.164 46.9968C117.756 45.4847 117.655 43.9066 117.868 42.3551C118.08 40.8037 118.602 39.3102 119.402 37.9625C120.202 36.6148 121.265 35.4401 122.527 34.5074C123.79 33.5746 125.226 32.9027 126.753 32.531C128.238 32.0635 129.802 31.8991 131.352 32.0474C132.903 32.1957 134.407 32.6539 135.775 33.3944C137.144 34.135 138.348 35.1428 139.317 36.3576C140.286 37.5724 140.999 38.9692 141.414 40.4648C141.829 41.9603 141.937 43.5238 141.731 45.0618C141.526 46.5999 141.012 48.0809 140.219 49.4165C139.427 50.752 138.372 51.9147 137.118 52.835C135.864 53.7554 134.437 54.4145 132.922 54.773C129.917 55.6346 126.693 55.3068 123.925 53.858C121.156 52.4092 119.056 49.9512 118.062 46.9968H118.164ZM140.522 60.8173C140.59 61.1477 140.724 61.4609 140.918 61.7377C141.111 62.0145 141.359 62.2491 141.646 62.4272C141.933 62.6054 142.254 62.7232 142.589 62.7736C142.923 62.824 143.265 62.8058 143.592 62.7202C143.919 62.6347 144.226 62.4835 144.492 62.2759C144.759 62.0683 144.98 61.8087 145.143 61.513C145.305 61.2173 145.405 60.8917 145.437 60.556C145.469 60.2204 145.432 59.8818 145.328 59.5609C145.133 58.958 144.713 58.4525 144.155 58.1483C143.597 57.844 142.944 57.764 142.329 57.9249C141.714 58.0857 141.184 58.475 140.848 59.0129C140.512 59.5509 140.395 60.1965 140.522 60.8173ZM287.691 58.4064C287.867 55.7643 289.068 53.294 291.04 51.5192C293.012 49.7443 295.601 48.8043 298.257 48.8984C299.518 48.8371 300.778 49.036 301.958 49.4827C303.139 49.9293 304.214 50.614 305.116 51.4939C306.018 52.3738 306.729 53.4299 307.202 54.596C307.676 55.7621 307.902 57.0131 307.868 58.2706C307.882 59.5067 307.648 60.7331 307.18 61.8782C306.713 63.0233 306.021 64.0642 305.145 64.9399C304.27 65.8156 303.227 66.5086 302.08 66.9785C300.932 67.4484 299.702 67.6858 298.461 67.6767C295.823 67.7698 293.248 66.8662 291.25 65.147C289.253 63.4278 287.982 61.0201 287.691 58.4064ZM234.829 44.8235C234.829 48.2192 231.08 49.8492 228.251 49.9171C225.422 49.985 221.435 48.4569 221.435 45.1631C221.435 41.8692 225.218 40.1714 228.012 40.1035C230.807 40.0356 234.829 41.5636 234.829 44.8235ZM119.289 57.4216C116.631 46.9628 105.656 42.4465 95.4311 45.3668C85.2063 48.2871 78.3898 58.2366 81.7981 68.4917C83.6231 73.0107 87.0994 76.6725 91.5266 78.7394C95.9538 80.8062 101.003 81.1243 105.656 79.6296C110.368 78.4006 114.42 75.4015 116.962 71.2613C119.503 67.121 120.337 62.1611 119.289 57.4216ZM42.2963 107.407C43.2527 108.962 43.5839 110.82 43.2236 112.608C42.8634 114.396 41.8383 115.983 40.3536 117.05C38.7886 117.962 36.9338 118.244 35.1671 117.84C33.4003 117.436 31.8545 116.377 30.8446 114.877C30.3054 114.144 29.9194 113.31 29.7095 112.426C29.4995 111.541 29.47 110.624 29.6226 109.727C29.7751 108.831 30.1067 107.975 30.5976 107.209C31.0885 106.442 31.7288 105.782 32.4805 105.267C33.2532 104.725 34.1304 104.35 35.0566 104.164C35.9827 103.977 36.9376 103.985 37.8606 104.186C38.7836 104.388 39.6545 104.778 40.4181 105.332C41.1817 105.886 41.8213 106.593 42.2963 107.407Z" fill="#CCE0FF"/>
<path fill-rule="evenodd" clip-rule="evenodd" d="M44.7174 78.7127C44.4164 78.0882 44.2448 77.4097 44.2126 76.7176C44.1804 76.0256 44.2884 75.3341 44.5301 74.6846C44.7718 74.035 45.1423 73.4405 45.6195 72.9366C46.0967 72.4327 46.6708 72.0297 47.3077 71.7515C47.8827 71.3699 48.5316 71.1127 49.2126 70.9964C49.8936 70.8801 50.5914 70.9074 51.2612 71.0765C51.9309 71.2455 52.5576 71.5526 53.1008 71.9779C53.6441 72.4032 54.0918 72.9373 54.415 73.5457C54.7383 74.154 54.9299 74.8231 54.9776 75.5099C55.0252 76.1966 54.9278 76.8856 54.6917 77.5325C54.4555 78.1794 54.0858 78.7697 53.6065 79.2655C53.1272 79.7612 52.5488 80.1513 51.9088 80.4106C50.717 81.0868 49.3121 81.2876 47.9776 80.9726C46.643 80.6575 45.4779 79.8499 44.7174 78.7127Z" fill="#CCE0FF"/>
<path fill-rule="evenodd" clip-rule="evenodd" d="M156.301 91.4806C156.301 90.8015 156.301 90.1563 156.301 89.5111C156.472 87.568 156.472 85.6137 156.301 83.6705C155.452 84.8615 154.877 86.2248 154.617 87.6631C154.358 89.1013 154.421 90.5789 154.802 91.99L155.927 91.5146L156.301 91.4806ZM152.007 93.0427C150.269 83.5007 154.222 83.2291 156.37 78.2034C156.551 76.7591 156.917 75.3439 157.46 73.9927C157.769 71.353 157.769 68.6865 157.46 66.0467C156.233 53.6524 161.38 59.0176 166.526 46.7251C166.828 45.5813 167.388 44.5215 168.164 43.627C168.941 42.7325 169.912 42.027 171.005 41.5648C172.097 41.1025 173.281 40.8957 174.467 40.9603C175.652 41.0248 176.806 41.359 177.842 41.9372C178.779 42.322 179.542 43.0344 179.989 43.9406C186.124 40.0695 198.802 43.9406 200.438 54.739C202.483 69.2727 207.664 62.2096 209.334 72.3967C211.174 83.4668 205.551 85.6061 214.753 95.8951C219.457 101.158 216.696 112.195 216.73 112.262C218.059 115.658 221.536 131.992 220.513 134.504C216.116 145.201 202.756 142.145 192.736 142.382C181.966 142.62 160.187 134.267 145.531 133.723C144.134 133.723 141.748 131.618 141.782 131.652C140.432 121.755 141.329 111.683 144.407 102.177C146.656 95.5555 145.906 95.182 152.007 93.0427ZM160.766 68.3219C162.998 65.5722 164.52 62.3192 165.197 58.8478C165.47 57.0141 165.742 55.4521 166.049 54.0938C162.368 59.0176 159.778 57.7612 160.562 65.4695C160.562 66.4882 160.63 67.439 160.766 68.3219ZM169.969 46.7591C172.048 45.8083 174.536 46.9289 177.365 46.012C177.365 45.5366 177.058 45.0612 176.581 44.8575C172.832 43.2615 171.196 44.3142 169.969 46.7591ZM184.045 45.7743C196.894 46.9628 193.997 53.8901 198.496 60.8853C197.96 59.0033 197.562 57.0855 197.303 55.1465C196.769 52.1635 195.08 49.5089 192.6 47.7556C190.12 46.0023 187.047 45.2907 184.045 45.7743Z" fill="#7872B8"/>
<path fill-rule="evenodd" clip-rule="evenodd" d="M112.03 17.7936C122.926 17.1688 133.719 20.1799 142.705 26.3508C145.908 28.3543 144.613 44.8914 149.146 48.7625C150.578 49.985 148.499 50.3585 146.931 51.7168C146.469 52.0926 146.102 52.571 145.86 53.1135C145.617 53.656 145.505 54.2476 145.533 54.8409C145.533 57.6253 144.784 67.3031 140.523 67.0994C136.945 67.0994 130.81 67.3031 130.98 71.9213C131.423 85.9117 133.434 78.2373 146.215 82.9234C168.335 91.0392 171.573 120.888 173.481 136.372C175.015 148.257 171.061 183.912 164.654 191.111C142.773 215.594 88.002 189.583 87.3885 188.428C75.4596 165.473 66.939 106.048 91.4444 90.4959C98.8403 85.9796 105.043 88.2887 106.679 85.1306C107.804 82.8555 106.475 77.6261 105.589 70.6988C104.055 58.4743 101.192 37.3529 105.998 26.2829C106.53 24.555 107.465 22.9771 108.727 21.6786C109.988 20.3801 111.541 19.3979 113.257 18.8123L112.03 17.7936Z" fill="#958FD3"/>
<path fill-rule="evenodd" clip-rule="evenodd" d="M140.286 42.0051C141.207 42.0051 142.672 42.1748 142.911 42.0051C143.113 41.814 143.382 41.7075 143.661 41.7075C143.939 41.7075 144.208 41.814 144.41 42.0051C144.509 42.1029 144.588 42.2193 144.641 42.3475C144.695 42.4757 144.723 42.6132 144.723 42.7521C144.723 42.891 144.695 43.0285 144.641 43.1567C144.588 43.2849 144.509 43.4013 144.41 43.4992C143.286 45.1291 141.684 44.2123 140.661 44.3481C140.525 44.3892 140.381 44.4023 140.24 44.3867C140.098 44.3711 139.961 44.3271 139.837 44.2573C139.712 44.1875 139.604 44.0933 139.517 43.9806C139.43 43.8678 139.367 43.7387 139.332 43.601C139.233 43.4377 139.18 43.2507 139.18 43.0599C139.179 42.8691 139.231 42.6817 139.329 42.5178C139.427 42.3539 139.567 42.2196 139.736 42.1293C139.905 42.0389 140.095 41.996 140.286 42.0051Z" fill="#7872B8"/>
<path fill-rule="evenodd" clip-rule="evenodd" d="M137.863 38.2358C138.752 36.8196 140.063 35.7155 141.612 35.0778C141.776 34.954 141.96 34.8618 142.158 34.8061C142.424 34.7681 142.695 34.8234 142.924 34.9624C143.154 35.1014 143.328 35.3156 143.416 35.5683C143.505 35.8211 143.503 36.0966 143.41 36.3478C143.317 36.599 143.139 36.8102 142.908 36.9454C141.676 37.5971 140.588 38.4859 139.704 39.5601C139.617 39.6805 139.506 39.7826 139.379 39.8606C139.253 39.9386 139.111 39.9908 138.964 40.0145C138.817 40.0381 138.667 40.0327 138.522 39.9984C138.377 39.9642 138.24 39.9018 138.119 39.8148C137.998 39.7279 137.896 39.618 137.817 39.4916C137.739 39.3652 137.687 39.2247 137.663 39.0781C137.639 38.9314 137.645 38.7816 137.679 38.6371C137.713 38.4926 137.776 38.3562 137.863 38.2358ZM142.942 36.9115C143.057 36.8541 143.16 36.773 143.242 36.6735C143.324 36.574 143.384 36.4584 143.419 36.3342C143.309 36.5623 143.145 36.7604 142.942 36.9115Z" fill="#7872B8"/>
<path fill-rule="evenodd" clip-rule="evenodd" d="M126.104 79.0863C128.081 79.0863 130.058 79.0863 132.001 79.2901C133.466 82.6858 137.079 79.5278 146.315 82.9235C168.435 91.0392 171.673 120.888 173.581 136.372C175.081 148.257 255.721 252.709 249.313 259.908C227.466 284.357 67.0051 254.441 66.4257 253.117C54.4627 230.162 66.9029 105.879 91.5105 90.3261C98.8383 85.9796 105.041 88.2887 106.677 85.1307C107.139 83.7887 107.257 82.3527 107.018 80.954C113.303 79.7083 119.696 79.0827 126.104 79.0863Z" fill="#4B4680"/>
<path fill-rule="evenodd" clip-rule="evenodd" d="M134.08 31.6482C140.897 31.2746 146.18 25.5359 141.34 20.8837C138.477 18.1332 144.373 13.4132 135.205 12.6322C126.037 11.8511 124.98 0.781111 110.597 13.9565C107.527 15.9487 103.792 16.6562 100.202 15.926C88.2391 14.5677 87.2166 24.4832 86.569 31.9538C85.8874 38.7452 95.7713 41.9711 91.1361 51.6829C87.4893 59.2553 87.2848 62.9567 93.0447 69.4425C100.611 77.9318 89.1934 79.1542 111.279 82.6858C117.243 83.6705 118.095 82.2104 122.628 78.0676C125.048 75.9283 127.809 70.2914 125.696 67.3371C120.14 59.6628 128.082 62.8887 121.265 56.2331C118.402 53.4147 117.857 44.0765 123.106 44.0765C129.922 44.0765 124.639 50.4604 129.275 49.5096C133.91 48.5588 128.286 33.4479 132.921 31.6821C133.301 31.5912 133.696 31.5797 134.08 31.6482Z" fill="#91B0DF"/>
<path fill-rule="evenodd" clip-rule="evenodd" d="M228.353 51.7509C227.024 53.5846 223.138 61.157 223.479 63.4661C223.82 65.7752 226.887 70.0198 225.32 72.4987C223.547 77.6262 218.503 74.2984 219.798 77.2187C220.941 78.4313 222.291 79.4317 223.786 80.173C226.683 84.6893 221.196 91.4468 229.001 93.0088C230.977 93.4163 232.784 92.7711 239.532 91.5826C243.758 103.841 230.568 105.165 221.707 110.021C201.496 121.261 202.621 132.263 202.961 161.195C203.302 190.839 285.339 211.078 301.801 170.737C308.992 153.249 309.401 126.83 293.451 114.062C282.885 105.607 274.33 108.493 267.412 103.875C262.606 100.819 260.016 94.4011 260.595 83.5008C255.926 59.6968 244.576 50.3926 228.353 51.7509Z" fill="#7872B8"/>
<path fill-rule="evenodd" clip-rule="evenodd" d="M231.76 105.471C228.175 106.79 224.523 107.924 220.82 108.867C193.554 117.797 200.029 204.999 201.188 234.169C202.347 263.338 294.166 264.73 310.73 224.219C317.887 206.765 311.548 129.139 296.347 115.556C285.577 105.946 275.693 107.882 269.081 104.792C266.966 107.764 264.175 110.195 260.937 111.887C257.699 113.579 254.105 114.483 250.448 114.526C246.792 114.569 243.177 113.75 239.9 112.134C236.622 110.519 233.775 108.155 231.59 105.233L231.76 105.471Z" fill="#91B0DF"/>
<path fill-rule="evenodd" clip-rule="evenodd" d="M228.353 51.6828C249.075 58.4743 239.668 66.4542 246.621 72.0571C251.836 65.2657 256.096 73.4494 252.961 76.4036L259.164 83.3649C263.969 88.2886 273.546 73.721 274.705 69.5783C281.692 45.197 252.211 25.8754 231.761 43.8727C229.887 45.4347 224.74 50.4943 228.353 51.6828Z" fill="#4B4680"/>
<path fill-rule="evenodd" clip-rule="evenodd" d="M247.85 76.4717C248.915 76.4717 249.956 76.7863 250.842 77.3759C251.727 77.9654 252.417 78.8034 252.825 79.7837C253.233 80.7641 253.339 81.8429 253.131 82.8836C252.924 83.9244 252.411 84.8804 251.658 85.6307C250.905 86.381 249.945 86.892 248.9 87.099C247.856 87.3061 246.773 87.1998 245.789 86.7937C244.805 86.3877 243.964 85.7 243.372 84.8177C242.781 83.9354 242.465 82.8981 242.465 81.8369C242.474 80.4167 243.044 79.0572 244.052 78.053C245.06 77.0487 246.424 76.4806 247.85 76.4717ZM247.85 77.5583C246.773 77.6538 245.77 78.1477 245.04 78.9427C244.31 79.7378 243.905 80.7763 243.905 81.8539C243.905 82.9315 244.31 83.97 245.04 84.765C245.77 85.56 246.773 86.0539 247.85 86.1495C248.448 86.2025 249.051 86.1309 249.62 85.9391C250.189 85.7474 250.712 85.4397 251.156 85.0356C251.599 84.6316 251.953 84.14 252.195 83.5922C252.437 83.0445 252.562 82.4524 252.562 81.8539C252.562 81.2553 252.437 80.6633 252.195 80.1155C251.953 79.5678 251.599 79.0762 251.156 78.6722C250.712 78.2681 250.189 77.9604 249.62 77.7686C249.051 77.5769 248.448 77.5052 247.85 77.5583Z" fill="#4B4680"/>
<path fill-rule="evenodd" clip-rule="evenodd" d="M247.916 78.4412C248.59 78.4412 249.249 78.6403 249.81 79.0134C250.37 79.3866 250.807 79.9169 251.065 80.5374C251.323 81.1579 251.39 81.8406 251.259 82.4993C251.127 83.158 250.803 83.7631 250.326 84.238C249.849 84.7129 249.242 85.0363 248.581 85.1673C247.92 85.2984 247.235 85.2311 246.612 84.9741C245.989 84.7171 245.457 84.2819 245.082 83.7234C244.708 83.165 244.508 82.5085 244.508 81.8369C244.508 80.9363 244.867 80.0726 245.506 79.4357C246.145 78.7989 247.012 78.4412 247.916 78.4412ZM247.916 79.324C247.424 79.324 246.943 79.4694 246.534 79.7418C246.125 80.0142 245.806 80.4013 245.617 80.8543C245.429 81.3072 245.38 81.8057 245.476 82.2865C245.572 82.7674 245.809 83.2091 246.157 83.5557C246.505 83.9024 246.948 84.1385 247.431 84.2342C247.913 84.3298 248.414 84.2807 248.868 84.0931C249.323 83.9055 249.711 83.5878 249.985 83.1801C250.258 82.7725 250.404 82.2932 250.404 81.8029C250.404 81.1455 250.142 80.515 249.675 80.0501C249.209 79.5852 248.576 79.324 247.916 79.324Z" fill="#4B4680"/>
<path fill-rule="evenodd" clip-rule="evenodd" d="M230.126 68.1181C230.126 68.7972 230.126 69.4085 230.126 69.8839C230.126 70.1811 230.007 70.4661 229.796 70.6762C229.585 70.8864 229.299 71.0045 229.001 71.0045C228.703 71.0045 228.417 70.8864 228.206 70.6762C227.995 70.4661 227.876 70.1811 227.876 69.8839C227.863 69.9967 227.863 70.1106 227.876 70.2234C227.781 69.5476 227.781 68.8618 227.876 68.186C227.876 67.8888 227.995 67.6038 228.206 67.3936C228.417 67.1835 228.703 67.0654 229.001 67.0654C229.299 67.0654 229.585 67.1835 229.796 67.3936C230.007 67.6038 230.126 67.8888 230.126 68.186V68.1181Z" fill="#4B4680"/>
<path fill-rule="evenodd" clip-rule="evenodd" d="M229.581 67.6767C230.466 67.3503 231.378 67.1003 232.307 66.9297C232.636 66.9641 232.938 67.1256 233.148 67.3797C233.359 67.6337 233.46 67.9599 233.432 68.288C233.419 68.4519 233.373 68.6115 233.297 68.7574C233.221 68.9033 233.117 69.0324 232.989 69.1371C232.862 69.2417 232.715 69.3196 232.557 69.3663C232.399 69.4129 232.232 69.4273 232.069 69.4086C231.526 69.6492 230.968 69.8534 230.398 70.0198C230.087 70.1176 229.749 70.0908 229.456 69.945C229.164 69.7993 228.939 69.5461 228.831 69.2388C228.772 69.0875 228.745 68.9259 228.751 68.7638C228.757 68.6017 228.796 68.4426 228.867 68.2963C228.937 68.15 229.037 68.0195 229.159 67.913C229.282 67.8064 229.425 67.726 229.581 67.6767Z" fill="#4B4680"/>
<path fill-rule="evenodd" clip-rule="evenodd" d="M231.933 59.6288C231.316 60.2778 230.57 60.7912 229.743 61.1362C228.915 61.4812 228.024 61.6502 227.127 61.6323C226.99 61.6366 226.855 61.6683 226.73 61.7257C226.606 61.7832 226.494 61.865 226.402 61.9664C226.309 62.0679 226.239 62.1868 226.193 62.3161C226.148 62.4454 226.13 62.5824 226.139 62.7189C226.148 62.8528 226.183 62.9837 226.242 63.104C226.302 63.2243 226.385 63.3318 226.486 63.4201C226.587 63.5084 226.705 63.576 226.833 63.6188C226.96 63.6617 227.095 63.679 227.23 63.6697C228.397 63.7138 229.56 63.5094 230.641 63.0702C231.722 62.6311 232.697 61.9672 233.501 61.123C233.682 60.9158 233.772 60.6456 233.753 60.3718C233.734 60.0979 233.607 59.8429 233.399 59.6628C233.191 59.4827 232.92 59.3922 232.645 59.4113C232.37 59.4304 232.114 59.5575 231.933 59.7647V59.6288Z" fill="#4B4680"/>
<path fill-rule="evenodd" clip-rule="evenodd" d="M163.595 131.278C162.593 134.396 162.087 137.649 162.095 140.922C162.095 142.247 162.3 154.301 162.095 154.709C154.87 155.999 159.164 166.764 163.527 169.412C164.447 169.956 164.72 169.412 165.095 169.786C166.117 170.839 168.06 179.158 173.172 185.236C184.897 199.193 204.153 181.841 209.947 170.94C208.993 177.29 227.773 162.994 220.717 152.807C218.945 150.227 215.401 153.588 213.901 154.132C209.777 135.014 213.901 121.295 190.759 118.409C178.421 116.949 166.526 117.73 163.595 131.278Z" fill="white"/>
<path fill-rule="evenodd" clip-rule="evenodd" d="M175.016 174.268C181.403 175.122 187.9 174.601 194.068 172.74C190.285 182.486 180.435 185.882 175.016 174.268Z" fill="#CCE0FF"/>
<path fill-rule="evenodd" clip-rule="evenodd" d="M160.527 122.653L160.834 123.502C164.788 133.044 176.478 131.992 186.771 129.275C188.066 128.935 189.293 128.562 190.52 128.188H185.339C175.115 128.494 166.049 128.562 160.527 122.518V122.653ZM220.956 150.43C220.683 154.234 218.434 153.215 214.139 155.422C213.833 156.339 213.458 157.324 213.049 158.308C212.548 158.767 211.911 159.051 211.234 159.117C210.557 159.184 209.876 159.029 209.295 158.676C208.714 158.324 208.264 157.792 208.013 157.162C207.762 156.532 207.723 155.838 207.902 155.184C208.243 154.301 208.55 153.452 208.822 152.638C208.807 152.491 208.807 152.343 208.822 152.196C208.822 151.789 209.061 151.381 209.163 151.008C209.94 148.015 209.977 144.878 209.271 141.868C208.564 138.858 207.136 136.063 205.107 133.723C204.289 132.671 203.403 131.618 202.415 130.565C200.097 131.143 196.893 132.297 193.213 133.452C180.023 137.628 160.664 142.179 154.461 123.978C154.277 123.172 154.421 122.326 154.862 121.626C155.303 120.926 156.004 120.428 156.812 120.242C157.563 120.066 158.353 120.175 159.028 120.548C158.801 119.972 158.751 119.341 158.885 118.737C159.018 118.132 159.329 117.581 159.777 117.152C160.363 116.615 161.129 116.317 161.925 116.317C162.72 116.317 163.487 116.615 164.072 117.152C164.133 116.926 164.225 116.709 164.345 116.507C164.741 115.785 165.407 115.249 166.198 115.013C166.99 114.778 167.842 114.863 168.571 115.251L169.355 115.59C175.967 103.603 200.847 103.603 206.539 116.405C218.843 109.885 225.966 129.105 221.501 147.816C221.194 148.766 221.228 149.615 220.956 150.43Z" fill="#FFCE70"/>
<path fill-rule="evenodd" clip-rule="evenodd" d="M172.082 179.973C186.159 188.021 197.883 184.727 206.915 169.786L209.982 197.563C222.247 198.077 234.179 201.687 244.659 208.055C255.14 214.422 263.825 223.338 269.9 233.965C286.566 262.727 267.071 271.318 234.045 276.31C208.312 280.147 166.118 276.31 141.681 272.201C127.536 269.722 115.948 272.914 114.074 254.917C108.825 229.347 134.285 203.981 174.366 197.767L172.082 179.973Z" fill="white"/>
<path fill-rule="evenodd" clip-rule="evenodd" d="M222.354 199.396C232.311 201.463 241.714 205.614 249.939 211.573C258.165 217.533 265.027 225.165 270.07 233.965C286.736 262.727 293.928 341.066 260.833 346.023C180.944 357.942 192.668 376.585 118.504 352.204C104.871 347.721 116.119 272.914 114.244 254.916C109.711 232.844 128.048 210.942 158.926 201.366C161.448 211.18 174.638 218.684 190.521 218.684C207.29 218.684 221.161 210.161 222.354 199.396Z" fill="#F9C45A"/>
<path fill-rule="evenodd" clip-rule="evenodd" d="M112.747 347.925C94.956 351.864 81.4934 354.954 69.769 348.842C38.8219 332.78 44.7864 324.461 48.5014 306.293C54.943 274.747 92.0249 276.038 93.32 229.313C93.4904 222.963 103.545 205.305 111.656 205.305C152.556 205.305 118.166 181.908 147.375 204.863C158.827 222.589 146.625 234.712 145.773 236.953C143.217 243.744 144.308 246.359 149.693 250.536C150.647 251.283 147.92 254.984 142.603 254.78C141.854 254.78 139.843 265.205 136.673 269.382C132.345 275.087 121.643 264.56 120.416 265.986C119.229 268.691 118.382 271.531 117.894 274.442C117.114 276.639 117.114 279.036 117.894 281.233C134.764 325.989 163.053 336.821 112.747 347.925Z" fill="#958FD3"/>
<path fill-rule="evenodd" clip-rule="evenodd" d="M138.376 190.33C126.106 182.893 110.019 174.676 98.8403 188.87C83.7417 187.749 74.0622 211.587 82.0034 233.422C82.7222 235.755 83.101 238.18 83.1282 240.62C83.1511 241.361 83.4167 242.074 83.8844 242.651C84.3521 243.227 84.9962 243.635 85.7184 243.812C85.6315 244.615 85.4834 245.409 85.2754 246.189C85.0705 246.997 85.1869 247.852 85.6003 248.576C86.0137 249.3 86.6921 249.836 87.4934 250.073C88.2948 250.31 89.157 250.229 89.8998 249.847C90.6425 249.465 91.2082 248.811 91.4784 248.023C91.7852 247.106 92.0578 246.155 92.2964 245.239C92.7165 245.723 93.2757 246.066 93.8983 246.223C94.7274 246.397 95.5918 246.257 96.3227 245.83C97.0537 245.403 97.5988 244.72 97.8519 243.914V244.186C98.1245 243.167 98.4653 241.605 98.7721 239.975C99.0788 238.345 99.5219 236.07 99.6242 234.95C100.442 225.985 103.748 222.352 107.088 223.268C110.428 224.185 112.712 232.878 115.847 232.878C116.303 232.908 116.759 232.841 117.187 232.681C117.614 232.521 118.002 232.272 118.324 231.95C118.647 231.629 118.897 231.242 119.058 230.817C119.218 230.391 119.286 229.936 119.256 229.483L119.903 227.581C124.334 222.385 131.014 215.288 138.853 218.107C177.98 232.131 172.936 199.804 155.281 191.654C154.509 191.487 153.704 191.592 153.001 191.952C152.299 192.311 151.743 192.902 151.43 193.624C150.203 192.605 148.839 191.62 147.442 190.602C146.989 190.369 146.486 190.248 145.977 190.248C145.467 190.248 144.964 190.369 144.511 190.602L143.557 190.16C143.294 189.828 142.968 189.551 142.598 189.345C142.227 189.139 141.819 189.008 141.397 188.961C140.975 188.914 140.548 188.95 140.141 189.069C139.733 189.187 139.354 189.385 139.024 189.651C138.774 189.842 138.555 190.071 138.376 190.33ZM134.968 211.893C137.456 211.553 139.978 211.553 142.466 211.893C156.338 213.658 161.484 211.01 160.837 206.392C167.653 220.789 144.511 213.726 134.968 211.927V211.893Z" fill="#7872B8"/>
<path fill-rule="evenodd" clip-rule="evenodd" d="M140.487 236.749C138.749 236.172 133.057 234.78 133.33 238.006C133.382 238.525 133.635 239.004 134.036 239.34C134.437 239.677 134.954 239.843 135.477 239.806C136.337 240.191 137.226 240.509 138.135 240.756C138.382 240.842 138.642 240.878 138.902 240.863C139.163 240.848 139.417 240.782 139.652 240.668C139.886 240.554 140.096 240.396 140.268 240.201C140.441 240.006 140.573 239.78 140.658 239.534C140.998 238.481 141.51 237.123 140.487 236.749Z" fill="#7872B8"/>
<path fill-rule="evenodd" clip-rule="evenodd" d="M137.591 227.038C138.183 228.289 139.037 229.4 140.095 230.296C141.153 231.192 142.391 231.852 143.726 232.233C143.925 232.301 144.108 232.409 144.265 232.549C144.422 232.689 144.548 232.86 144.637 233.05C144.726 233.24 144.776 233.446 144.783 233.656C144.791 233.866 144.756 234.075 144.68 234.271C144.527 234.668 144.224 234.99 143.835 235.168C143.447 235.346 143.004 235.365 142.601 235.221C140.87 234.714 139.268 233.846 137.899 232.675C136.53 231.504 135.426 230.057 134.66 228.43C134.57 228.239 134.52 228.032 134.513 227.821C134.505 227.61 134.541 227.4 134.617 227.203C134.694 227.006 134.81 226.827 134.957 226.676C135.105 226.525 135.282 226.406 135.478 226.325C135.855 226.155 136.283 226.134 136.675 226.267C137.068 226.399 137.395 226.674 137.591 227.038Z" fill="#7872B8"/>
<path fill-rule="evenodd" clip-rule="evenodd" d="M112.747 347.925C94.956 351.864 81.4934 354.954 69.769 348.876C38.8219 332.78 44.7864 324.461 48.5014 306.294C52.8981 284.731 71.5753 278.449 83.4361 261.844H83.7087C87.6389 266.274 92.7599 269.491 98.4665 271.114C104.98 273.345 112.073 273.225 118.507 270.774L118.78 270.944C118.541 271.929 118.234 273.084 117.894 274.34C117.114 276.537 117.114 278.934 117.894 281.131C134.764 325.989 163.053 336.821 112.747 347.925Z" fill="#7872B8"/>
<path fill-rule="evenodd" clip-rule="evenodd" d="M73.9609 272.438C77.465 269.229 80.639 265.68 83.4359 261.844H83.7086C87.6387 266.274 92.7597 269.491 98.4663 271.114C104.98 273.345 112.073 273.225 118.507 270.774L118.78 270.944C118.541 271.929 118.234 273.084 117.893 274.34C117.114 276.537 117.114 278.934 117.893 281.131C118.371 282.388 118.848 283.644 119.325 284.833C114.361 287.373 108.853 288.678 103.272 288.636C97.3997 288.681 91.6153 287.213 86.4799 284.375C81.3444 281.537 77.0321 277.425 73.9609 272.438Z" fill="#4B4680"/>
<path fill-rule="evenodd" clip-rule="evenodd" d="M366.08 250.536C359.98 239.67 323.75 232.437 323.443 230.162C321.705 217.971 325.249 204.524 324.772 192.809C323.307 156.203 293.484 130.158 269.252 162.417C264.378 168.869 269.252 181.162 266.082 191.485C265.15 194.138 263.779 196.617 262.026 198.819C260.765 200.653 266.15 201.672 267.582 204.218C269.865 208.259 265.366 218.107 267.582 221.944C271.706 229.381 287.384 226.223 285.066 230.603C284.078 232.437 272.762 238.855 267.684 242.692C256.471 251.181 263.083 287.719 262.401 307.211C262.128 315.428 258.175 311.557 266.457 314.919C271.569 316.99 281.999 322.831 284.521 325.955C287.656 329.86 281.453 321.744 291.951 321.303C297.608 321.099 348.119 312.168 352.141 309.316C364.683 300.215 371.977 261.063 366.08 250.536Z" fill="#958FD3"/>
<path fill-rule="evenodd" clip-rule="evenodd" d="M366.079 250.536C362.671 244.594 350.333 239.704 339.733 236.138C335.095 241.3 329.385 245.395 322.999 248.139C316.614 250.883 309.706 252.211 302.754 252.03C290.914 252.213 279.393 248.206 270.239 240.722C269.217 241.402 268.228 242.081 267.444 242.692C256.231 251.283 245.393 285.716 244.575 305.207C242.155 373.529 332.849 350.166 371.498 322.593C384.348 313.459 371.976 261.063 366.079 250.536Z" fill="#4B4680"/>
<path fill-rule="evenodd" clip-rule="evenodd" d="M279.751 167.273C274.31 166.6 268.795 166.818 263.425 167.918C260.801 152.23 272.457 146.899 280.194 143.741C300.643 135.285 318.434 143.096 326.921 155.592C332.442 163.742 332.544 172.57 331.965 184.829C331.556 193.148 315.81 186.187 314.924 204.796C314.617 211.587 308.653 233.048 301.904 234.169C293.52 235.561 261.721 242.794 261.005 230.264C260.732 225 271.571 215.764 265.743 209.142C264.243 207.41 265.743 198.174 277.569 203.03C286.635 206.765 292.566 208.701 296.69 204.219C301.904 198.548 307.494 187.24 296.69 185.95C291.884 185.338 290.384 178.819 289.634 175.559C288.714 171.62 292.736 169.752 279.819 167.273H279.751ZM273.582 207.818C272.228 208.206 271.033 209.015 270.173 210.127C274.801 209.924 279.383 211.107 283.329 213.523C282.554 211.641 281.181 210.064 279.42 209.034C277.66 208.004 275.609 207.576 273.582 207.818Z" fill="#7872B8"/>
<path fill-rule="evenodd" clip-rule="evenodd" d="M282.137 176.985C278.999 178.121 275.644 178.539 272.321 178.207C271.875 178.207 271.447 178.381 271.128 178.693C270.81 179.004 270.626 179.427 270.617 179.871C270.626 180.319 270.808 180.746 271.126 181.062C271.444 181.379 271.872 181.56 272.321 181.569C276.364 182.01 280.45 181.353 284.148 179.667C284.326 179.537 284.476 179.372 284.59 179.183C284.703 178.994 284.778 178.785 284.81 178.567C284.841 178.349 284.829 178.127 284.774 177.914C284.719 177.7 284.622 177.5 284.489 177.324C284.361 177.143 284.197 176.99 284.007 176.874C283.818 176.758 283.606 176.682 283.386 176.65C283.166 176.619 282.942 176.632 282.727 176.689C282.512 176.747 282.312 176.847 282.137 176.985Z" fill="#7872B8"/>
<path fill-rule="evenodd" clip-rule="evenodd" d="M284.931 182.01C281.595 182.609 278.313 183.472 275.115 184.591C274.831 184.687 274.568 184.837 274.342 185.034C274.116 185.231 273.932 185.47 273.799 185.739C273.666 186.007 273.587 186.298 273.567 186.597C273.548 186.895 273.587 187.194 273.684 187.477C273.776 187.759 273.924 188.02 274.118 188.245C274.312 188.47 274.55 188.654 274.816 188.786C275.082 188.919 275.372 188.998 275.669 189.018C275.967 189.038 276.265 188.999 276.546 188.904C282.341 187.104 279.58 187.885 284.794 186.527C285.394 186.536 285.974 186.309 286.407 185.896C286.841 185.483 287.094 184.917 287.112 184.319C287.121 184.025 287.072 183.732 286.967 183.456C286.863 183.181 286.704 182.929 286.502 182.714C286.299 182.5 286.056 182.327 285.787 182.207C285.517 182.086 285.226 182.019 284.931 182.01Z" fill="#7872B8"/>
<path fill-rule="evenodd" clip-rule="evenodd" d="M178.047 186.221C190.794 191.892 196.213 189.277 202.927 176.849C203.074 176.562 203.325 176.343 203.63 176.235C203.934 176.128 204.268 176.141 204.563 176.272C204.851 176.417 205.07 176.67 205.172 176.975C205.274 177.28 205.251 177.613 205.109 177.902C197.644 191.484 190.998 194.609 176.854 188.326C176.717 188.249 176.597 188.145 176.5 188.021C176.404 187.897 176.333 187.755 176.291 187.604C176.25 187.452 176.24 187.294 176.26 187.138C176.281 186.982 176.332 186.832 176.411 186.696C176.569 186.422 176.827 186.218 177.133 186.13C177.438 186.041 177.766 186.074 178.047 186.221Z" fill="#CCE0FF"/>
<path fill-rule="evenodd" clip-rule="evenodd" d="M346.585 238.583C344.301 237.7 341.983 236.919 339.768 236.138C335.129 241.3 329.419 245.395 323.034 248.139C316.648 250.883 309.74 252.211 302.788 252.03C290.949 252.213 279.427 248.206 270.274 240.722C269.251 241.402 268.263 242.081 267.479 242.692C266.668 243.326 265.905 244.018 265.195 244.763C276.005 252.819 289.188 257.082 302.686 256.886C310.88 257.056 319.019 255.516 326.58 252.363C334.14 249.211 340.954 244.517 346.585 238.583Z" fill="#91B0DF"/>
<path fill-rule="evenodd" clip-rule="evenodd" d="M169.766 304.766C169.714 306.18 170.106 307.575 170.889 308.756C171.671 309.937 172.804 310.845 174.129 311.353C179.275 338.519 192.738 325.649 199.384 326.6C205.485 327.483 187.455 355.396 192.056 355.158C196.658 354.92 221.845 345.616 221.845 341.575C221.845 316.922 221.845 326.498 231.49 302.287C234.217 295.495 237.045 281.165 226.616 280.316C221.776 279.943 203.133 269.28 194.204 268.771C192.159 268.771 182.888 265.07 181.15 265.987C164.279 284.357 182.888 304.019 169.766 304.766Z" fill="#90B2E5"/>
<path fill-rule="evenodd" clip-rule="evenodd" d="M239.428 261.47C224.943 247.412 195.972 247.887 180.635 264.866C178.999 266.7 182.953 278.449 200.028 289.077C199.766 291.204 200.12 293.361 201.051 295.293C201.981 297.225 203.448 298.851 205.277 299.978C206.504 300.385 207.186 292.269 212.946 292.405C218.706 292.541 224.67 300.113 217.649 308.942C214.241 313.119 216.933 308.739 219.524 316.209C219.954 318.292 221.175 320.129 222.932 321.337C245.086 326.125 257.287 295.869 251.016 276.717C251.323 277.668 266.967 281.131 268.057 263.134C269.25 248.329 241.132 243.914 239.428 261.47Z" fill="#7872B8"/>
<path fill-rule="evenodd" clip-rule="evenodd" d="M235.955 338.213C232.547 333.561 228.321 328.026 222.015 332.475C218.266 335.225 196.317 346.533 192.057 347.28C185.82 348.333 180.469 358.554 176.379 371.831C170.38 391.424 214.483 371.831 223.413 367.519C236.705 360.727 245.43 358.588 239.602 345.141C238.619 342.717 237.397 340.397 235.955 338.213Z" fill="#7872B8"/>
<path fill-rule="evenodd" clip-rule="evenodd" d="M103.681 370.133C103.885 376.075 97.7844 379.641 92.4334 379.777C87.0825 379.913 80.9476 376.585 80.8794 370.642C80.8112 364.7 86.7075 361.236 92.0244 361.134C97.3413 361.032 103.51 364.292 103.681 370.133ZM68.3711 378.724C68.3711 376.381 72.5973 376.075 72.7678 378.724C72.9382 381.373 68.5074 381.305 68.3711 378.724ZM131.049 359.946C130.81 357.705 133.026 356.177 135.071 355.973C137.116 355.769 139.74 356.55 139.74 358.927C139.74 361.304 137.797 362.73 135.752 362.9C134.698 363.095 133.608 362.88 132.708 362.299C131.807 361.718 131.165 360.815 130.913 359.776L131.049 359.946ZM194.92 350.234C193.966 345.073 198.737 341.1 203.406 340.319C205.79 339.72 208.314 340.05 210.462 341.243C212.609 342.436 214.218 344.401 214.96 346.736C216.017 351.966 211.314 355.939 206.576 356.924C201.839 357.908 195.84 355.565 194.92 350.37V350.234ZM361.277 307.21C359.573 305.478 362.402 302.796 364.106 304.392C365.81 305.988 363.049 308.976 361.277 307.21ZM212.575 361.304C212.097 358.961 216.528 358.18 217.005 360.489C217.483 362.798 213.018 363.885 212.575 361.304ZM331.625 334.138C329.512 330.301 332.954 325.819 336.26 323.951C339.566 322.084 344.951 321.608 347.405 325.242C349.859 328.875 346.792 333.697 343.316 335.666C339.839 337.636 333.841 338.247 331.625 334.138ZM293.759 337.67C294.174 338.458 294.333 339.354 294.216 340.236C294.099 341.118 293.712 341.942 293.106 342.596C292.501 343.25 291.707 343.701 290.834 343.888C289.961 344.074 289.051 343.988 288.23 343.639C287.408 343.291 286.715 342.698 286.245 341.941C285.775 341.185 285.551 340.302 285.604 339.414C285.658 338.527 285.985 337.677 286.542 336.981C287.099 336.286 287.858 335.779 288.715 335.531C289.671 335.177 290.727 335.202 291.665 335.6C292.603 335.998 293.353 336.738 293.759 337.67ZM194.477 357.671C193.488 349.521 184.252 345.82 177.061 346.567C169.869 347.314 161.553 352.883 162.269 361.032C162.984 369.182 172.493 373.121 179.787 372.34C187.081 371.559 195.499 365.956 194.477 357.671ZM118.234 378.045C118.404 381.441 114.826 383.376 111.929 383.512C109.032 383.648 105.351 381.882 105.112 378.554C104.874 375.226 108.52 373.257 111.383 373.155C114.246 373.053 118.098 374.615 118.234 377.909V378.045Z" fill="#CCE0FF"/>
<path fill-rule="evenodd" clip-rule="evenodd" d="M306.301 44.348C306.309 43.8576 306.417 43.3738 306.616 42.9253C306.816 42.4769 307.104 42.0729 307.463 41.7373C307.822 41.4016 308.245 41.1412 308.707 40.9714C309.169 40.8016 309.66 40.7258 310.152 40.7486C311.056 40.7486 311.923 41.1063 312.562 41.7432C313.201 42.38 313.56 43.2437 313.56 44.1443C313.56 45.0449 313.201 45.9086 312.562 46.5454C311.923 47.1823 311.056 47.54 310.152 47.54C309.23 47.5674 308.329 47.258 307.62 46.6702C306.911 46.0823 306.442 45.2565 306.301 44.348Z" fill="#CCE0FF"/>
</g>
<defs>
<clipPath id="clip0_1_1197">
<rect width="420" height="401" fill="white"/>
</clipPath>
</defs>
</svg>
