<svg width="154" height="38" viewBox="0 0 154 38" fill="none" xmlns="http://www.w3.org/2000/svg">
<g clip-path="url(#clip0_1_1137)">
<path d="M66.2322 0.513514L64.0752 14.4616L57.1666 17.7645L59.8366 0.513514H53.0239L47.5238 36.0538H54.3385L56.9984 18.8603H63.3939L60.7341 36.0538H67.5468L73.047 0.513514H66.2322ZM35.5638 0.512487H28.749L23.0714 37.1435L38.2257 16.2619L35.2038 36.0528H42.0185L47.5197 0L32.4369 20.6443L35.5638 0.512487ZM25.9424 0.513514H17.5723L15.2593 15.845H9.94167L12.3129 0.513514H5.50014L0 36.0538H6.81475L9.76421 16.9788L14.166 36.0538H21.0388L16.3832 15.8707L25.9424 0.513514ZM129.771 0.513514H124.749H122.956H111.419L110.224 8.66092L122.786 1.61449L120.282 17.8117L109.628 12.957L106.1 37.1414L118.219 31.8892L124.269 36.0507L129.771 0.513514ZM115.605 18.925H120.11L118.284 30.7287H113.812L115.605 18.925ZM150.214 0.513514H147.047H132.402L138.93 6.32135L132.498 27.6014L128.875 22.7743L128.637 36.0538H135.629L140.212 6.41687H146.132L141.546 36.0538H148.361L153.858 0.513514H150.214ZM109.15 0.513514H100.962L98.6467 15.845H93.3281L95.7023 0.513514H88.8876L86.5143 15.845H81.1498L83.6281 0.513514H75.4396L80.1075 15.845H80.1004L70.3576 36.0538H77.2335L86.3797 16.7262L83.3884 36.0538H90.2032L93.2016 16.683L97.5544 36.0538H104.43L99.7716 15.8624L109.15 0.513514Z" fill="#CDE1FF"/>
</g>
<defs>
<clipPath id="clip0_1_1137">
<rect width="154" height="38" fill="white"/>
</clipPath>
</defs>
</svg>
