<svg width="200" height="200" viewBox="0 0 200 200" fill="none" xmlns="http://www.w3.org/2000/svg">
<path fill-rule="evenodd" clip-rule="evenodd" d="M107.262 2.77783C157.509 2.77783 191.946 64.6978 191.946 114.928C191.946 165.158 139.765 197.07 89.5748 197.07C39.3846 197.07 8.33203 149.287 8.33203 99.0282C8.33203 48.7698 57.0436 2.77783 107.262 2.77783Z" fill="#CDE1FF"/>
<path fill-rule="evenodd" clip-rule="evenodd" d="M105.075 26.5842C143.578 26.5842 170.024 74.0268 170.024 112.51C170.024 150.993 130.042 175.454 91.5676 175.454C53.0932 175.454 29.3203 138.848 29.3203 100.336C29.3203 61.8248 66.6005 26.5842 105.075 26.5842Z" fill="#7872B9"/>
<path fill-rule="evenodd" clip-rule="evenodd" d="M93.3298 57.53C92.5905 61.4836 88.8653 60.3743 82.4387 64.0719C68.5617 72.1496 68.5618 85.3471 66.7987 87.3949C66.4095 87.8116 65.9382 88.1429 65.4145 88.3681C64.8907 88.5933 64.326 88.7075 63.756 88.7033C55.5379 88.5326 62.846 74.0553 64.4953 71.211C66.5479 67.6095 69.1915 64.3788 72.3153 61.6542C75.432 58.8073 79.0215 56.5261 82.9221 54.9133C85.0375 53.9512 87.2774 53.2905 89.5762 52.9507C90.1355 52.9718 90.6839 53.1114 91.1852 53.3604C91.6865 53.6093 92.1292 53.9619 92.4841 54.3948C92.8389 54.8278 93.0978 55.3311 93.2436 55.8716C93.3894 56.4121 93.4188 56.9773 93.3298 57.53ZM59.0002 111.5C59.0002 111.159 58.9884 111.216 59.5002 111.5C60.0121 111.785 60.3818 112.012 60.8652 112.24C68.4949 116.085 77.1421 118.204 85.6805 118.5C85.8511 118.273 85.6805 118.312 85.6805 117.772C84.928 113.497 83.8538 109.285 82.4671 105.172L76.5524 86.9967C75.614 84.38 77.1211 81.9339 79.8226 82.9294C80.7451 83.3416 81.6382 83.8168 82.4956 84.3516C83.4056 84.8351 84.1449 85.2617 85.0549 85.8021L87.6994 87.2243C88.546 87.7689 89.4297 88.2536 90.344 88.6749C92.9033 86.8545 96.0313 82.7303 98.0787 82.7303C100.126 82.7303 103.226 86.8545 105.785 88.6749L115.169 83.413C117.16 82.3037 119.491 82.5597 119.833 84.9204C118.388 90.6998 116.632 96.3967 114.572 101.986C113.233 105.782 112.131 109.658 111.273 113.591C118.223 110.691 124.49 106.37 129.672 100.905L132.515 98.061C135.907 94.114 138.774 89.745 141.046 85.0626C141.359 84.4369 141.871 82.8157 142.439 82.6166C141.911 79.3208 140.955 76.1081 139.596 73.0598C137.573 68.2237 134.681 63.7991 131.065 60.0045C130.643 59.4037 130.146 58.8589 129.586 58.3833C128.392 57.4731 127.539 56.4492 126.316 55.539C125.093 54.6289 123.956 53.7756 122.733 52.9507C114.979 47.9472 105.888 45.42 96.6648 45.7045C87.4419 45.989 78.5233 49.0716 71.0926 54.5435C68.4764 56.5345 68.5049 56.7905 66.9409 58.0989C66.5428 58.4402 66.4574 58.4118 66.0593 58.7815C65.6612 59.1513 65.2631 59.8339 64.6375 60.4312C62.6248 62.5844 60.8514 64.9495 59.3483 67.485C56.243 72.6697 54.2144 78.4273 53.3838 84.4138C52.5532 90.4003 52.9376 96.4929 54.5142 102.327C54.9699 103.862 55.5304 105.364 56.1919 106.821C56.5331 107.618 56.8175 108.187 57.1872 108.926C58.0972 110.86 58.1187 111.216 59.0002 111.5Z" fill="#FFCF70"/>
<path fill-rule="evenodd" clip-rule="evenodd" d="M73.9634 172.894C73.9634 172.894 73.7359 172.894 74.2762 173.69L77.1198 176.819C77.9186 177.582 78.7639 178.294 79.6507 178.952C80.8307 179.806 82.0985 180.53 83.4327 181.114C84.1092 181.441 84.8134 181.708 85.537 181.91L86.7882 182.195C87.4706 182.451 87.4991 182.621 87.556 182.678L87.8119 182.906V182.252H108.315V182.906L108.713 182.564C108.818 182.455 108.943 182.368 109.082 182.308C111.308 181.821 113.434 180.955 115.367 179.749L119.518 176.279C120.002 175.738 120.116 175.511 120.684 174.942C121.095 174.514 121.475 174.058 121.822 173.577C122.447 172.865 122.277 172.837 123.272 172.524C123.924 172.357 124.531 172.049 125.05 171.621C125.569 171.192 125.987 170.655 126.275 170.047C126.563 169.438 126.713 168.774 126.715 168.101C126.717 167.428 126.571 166.763 126.286 166.153C125.673 165.057 124.65 164.25 123.443 163.906V161.204C124.308 160.941 125.091 160.462 125.718 159.81C126.076 159.433 126.352 158.985 126.528 158.496C126.705 158.006 126.777 157.485 126.741 156.966C126.741 154.122 125.263 153.468 123.443 152.5V150.111C125.319 149.116 126.77 148.462 126.741 145.475C126.74 144.438 126.424 143.426 125.835 142.573C125.246 141.72 124.412 141.065 123.443 140.697C118.372 140.305 113.281 140.229 108.201 140.469H98.1059V149.884H72.8828V152.728H98.1059V161.261H72.9681V164.105H98.1059V172.638L73.9634 172.894Z" fill="#D7C3E6"/>
<path fill-rule="evenodd" clip-rule="evenodd" d="M111.36 113.506C110.193 117.696 109.385 121.978 108.943 126.305C108.369 131.024 108.084 135.773 108.09 140.527C113.17 140.286 118.261 140.362 123.332 140.754C123.151 137.812 123.557 134.863 124.526 132.079C125.364 129.78 126.482 127.592 127.853 125.566C128.223 124.968 128.422 124.769 128.82 124.2L131.976 119.877C134.962 116.094 137.536 112.004 139.654 107.675C142.882 100.374 143.977 92.3069 142.811 84.409C142.811 83.8401 142.811 82.7593 142.441 82.4749C141.872 82.674 141.36 84.2952 141.048 84.9209C138.776 89.6033 135.909 93.9723 132.517 97.9193L129.673 100.764C124.521 106.239 118.284 110.579 111.36 113.506Z" fill="#FFCF70"/>
<path fill-rule="evenodd" clip-rule="evenodd" d="M85.6788 117.886C86.5194 121.384 87.0991 124.939 87.4134 128.523C87.8035 132.493 87.9934 136.48 87.9822 140.469H93.3851C93.1007 136.573 93.1861 132.761 92.8164 128.865C92.5496 125.316 92.0365 121.79 91.2808 118.312C89.8739 111.35 87.9734 104.497 85.5935 97.8051C84.7485 95.6097 84.027 93.3687 83.4323 91.0926C85.3091 91.8037 89.3471 95.16 91.5082 94.5058C92.4182 94.2498 94.0107 92.4863 94.7216 91.889C95.4325 91.2917 95.6315 90.9789 96.2002 90.4953C96.769 90.0118 97.2524 89.5567 97.9349 89.0732C98.5889 89.5567 98.9871 89.9265 99.5558 90.41C104.134 94.2498 103.565 96.0986 108.542 93.2543C109.788 92.4765 111.079 91.7736 112.409 91.1495C111.872 93.1739 111.227 95.1678 110.475 97.1225L106.722 109.552C106.295 111.003 105.556 114.928 105.101 115.895C104.873 117.8 104.361 119.791 104.049 121.754C103.736 123.717 103.48 125.708 103.281 127.755C102.825 131.987 102.597 136.241 102.598 140.498H107.944C107.939 135.744 108.224 130.995 108.798 126.276C109.239 121.949 110.048 117.667 111.215 113.477C112.073 109.544 113.174 105.669 114.513 101.872C116.574 96.2831 118.33 90.5862 119.774 84.8068C119.433 82.446 117.101 82.1901 115.11 83.2993L105.641 88.5328C103.082 86.7125 99.9539 82.5883 97.9349 82.5883C95.9159 82.5883 92.7595 86.7125 90.2002 88.5328C89.2859 88.1115 88.4023 87.6268 87.5556 87.0822L84.911 85.6601C84.001 85.1197 83.2617 84.693 82.3517 84.2095C81.4944 83.6747 80.6012 83.1995 79.6787 82.7874C76.9772 81.7919 75.4701 84.2379 76.4085 86.8547L82.4655 105.172C83.8578 109.322 84.932 113.572 85.6788 117.886Z" fill="white"/>
<path fill-rule="evenodd" clip-rule="evenodd" d="M91.2805 118.341C93.745 118.237 96.1978 118.174 98.617 117.692C100.949 117.237 103.025 116.554 105.243 116.099C105.698 115.132 106.437 110.974 106.864 109.524L110.617 97.0942C111.369 95.1395 112.014 93.1456 112.551 91.1212C111.221 91.7454 109.93 92.4482 108.684 93.226C103.707 96.0703 104.276 94.2784 99.6976 90.3817C99.1289 89.8982 98.7307 89.5284 98.0767 89.0449C97.3942 89.5284 96.9109 89.9835 96.3421 90.4671C95.7734 90.9506 95.4605 91.4057 94.8634 91.8608C94.2662 92.3158 92.5601 94.2215 91.6501 94.4775C89.489 95.1317 85.451 91.7754 83.5742 91.0644C84.1689 93.3404 84.8903 95.5814 85.7353 97.7769C88.0696 104.491 89.9227 111.363 91.2805 118.341Z" fill="#FFCF70"/>
<path fill-rule="evenodd" clip-rule="evenodd" d="M72.7975 140.668C77.8514 140.316 82.9212 140.249 87.9825 140.469C87.9937 136.48 87.8039 132.493 87.4138 128.523C87.0995 124.939 86.5198 121.384 85.6792 117.886C85.6792 118.369 85.6791 118.199 85.537 118.426C77.0469 118.11 68.725 115.966 61.1386 112.14C60.6552 111.913 60.2571 111.685 59.7736 111.401C59.2902 111.116 58.7784 110.633 58.6646 110.974C58.4371 111.941 59.8874 113.562 60.4561 114.387C63.7263 119.336 69.3282 125.764 71.4041 131.026C72.5893 134.094 73.0657 137.39 72.7975 140.668Z" fill="#FFCF70"/>
<path fill-rule="evenodd" clip-rule="evenodd" d="M93.3314 57.53C93.4203 56.9773 93.3909 56.412 93.2451 55.8715C93.0993 55.331 92.8404 54.8277 92.4856 54.3948C92.1307 53.9619 91.688 53.6093 91.1867 53.3603C90.6855 53.1114 90.137 52.9718 89.5777 52.9507C87.2789 53.2905 85.039 53.9511 82.9236 54.9132C79.023 56.5261 75.4335 58.8073 72.3168 61.6542C69.193 64.3788 66.5494 67.6094 64.4968 71.2109C62.8475 74.0552 55.5394 88.5326 63.7575 88.7033C64.3275 88.7074 64.8923 88.5933 65.416 88.3681C65.9397 88.1429 66.411 87.8115 66.8002 87.3949C68.5633 85.347 68.5632 72.1496 82.4402 64.0718C88.8668 60.3174 92.592 61.4835 93.3314 57.53Z" fill="white"/>
<path fill-rule="evenodd" clip-rule="evenodd" d="M91.2812 118.341C92.0369 121.819 92.55 125.345 92.8168 128.893C93.1865 132.79 93.1012 136.601 93.3855 140.498H102.741C102.739 136.241 102.967 131.988 103.424 127.756C103.623 125.708 103.907 123.717 104.191 121.754C104.476 119.792 105.016 117.801 105.244 115.895C103.025 116.35 100.95 117.033 98.6178 117.488C96.1979 117.961 93.7451 118.246 91.2812 118.341Z" fill="#FFCF70"/>
<path fill-rule="evenodd" clip-rule="evenodd" d="M87.1216 182.72C86.3643 184.161 89.3327 187.136 90.8169 188.044C95.8753 191.176 104.023 190.612 107.658 185.883C108.143 185.226 109.354 183.816 108.9 182.752V182H87.0609L87.1216 182.72Z" fill="#D7C3E6"/>
<path fill-rule="evenodd" clip-rule="evenodd" d="M73.5931 137.255C82.1241 136.914 89.7166 136.857 98.1338 136.857C99.9664 136.861 101.722 137.593 103.016 138.892C104.309 140.19 105.033 141.95 105.03 143.783C105.026 145.616 104.294 147.373 102.996 148.666C101.697 149.96 99.938 150.684 98.1053 150.68C90.2569 150.68 82.9487 150.68 75.015 150.993C74.104 151.122 73.1764 151.067 72.2874 150.83C71.3983 150.593 70.5661 150.179 69.8403 149.614C69.1145 149.048 68.5101 148.342 68.0629 147.538C67.6158 146.733 67.3352 145.847 67.2377 144.932C67.1403 144.017 67.2281 143.092 67.4959 142.211C67.7637 141.331 68.2061 140.513 68.7965 139.808C69.3869 139.102 70.1134 138.522 70.9326 138.103C71.7518 137.684 72.6469 137.435 73.5647 137.369L73.5931 137.255Z" fill="#F1E6F7"/>
<path fill-rule="evenodd" clip-rule="evenodd" d="M73.2243 150.509H96.8549C98.6725 150.509 100.416 151.231 101.701 152.517C102.986 153.802 103.708 155.546 103.708 157.364C103.708 159.182 102.986 160.925 101.701 162.211C100.416 163.497 98.6725 164.219 96.8549 164.219H73.2243C71.4067 164.219 69.6636 163.497 68.3783 162.211C67.0931 160.925 66.3711 159.182 66.3711 157.364C66.3711 155.546 67.0931 153.802 68.3783 152.517C69.6636 151.231 71.4067 150.509 73.2243 150.509Z" fill="#F1E6F7"/>
<path fill-rule="evenodd" clip-rule="evenodd" d="M73.2243 163.821H96.8549C98.6725 163.821 100.416 164.543 101.701 165.829C102.986 167.114 103.708 168.858 103.708 170.676C103.708 172.494 102.986 174.237 101.701 175.523C100.416 176.808 98.6725 177.53 96.8549 177.53H73.2243C71.4067 177.53 69.6636 176.808 68.3783 175.523C67.0931 174.237 66.3711 172.494 66.3711 170.676C66.3711 168.858 67.0931 167.114 68.3783 165.829C69.6636 164.543 71.4067 163.821 73.2243 163.821Z" fill="#F1E6F7"/>
</svg>
