<svg width="170" height="44" viewBox="0 0 170 44" fill="none" xmlns="http://www.w3.org/2000/svg">
<path fill-rule="evenodd" clip-rule="evenodd" d="M166.678 17.4556C167.335 17.4556 167.977 17.6535 168.523 18.0244C169.07 18.3952 169.495 18.9223 169.747 19.5391C169.998 20.1558 170.064 20.8344 169.936 21.4891C169.808 22.1438 169.491 22.7452 169.027 23.2172C168.562 23.6892 167.97 24.0107 167.326 24.1409C166.681 24.2711 166.013 24.2043 165.406 23.9488C164.799 23.6934 164.28 23.2608 163.915 22.7058C163.55 22.1507 163.355 21.4982 163.355 20.8307C163.355 19.9355 163.705 19.0771 164.328 18.4441C164.952 17.8112 165.796 17.4556 166.678 17.4556Z" fill="#7872B9"/>
<path fill-rule="evenodd" clip-rule="evenodd" d="M163.499 25.2912H169.863C169.671 28.1247 168.903 30.8871 167.609 33.4046C166.629 35.4742 165.147 37.2571 163.303 38.5864C162.365 39.2357 161.266 39.6048 160.131 39.6519C159.356 39.6643 158.591 39.4654 157.916 39.0761C155.884 37.8055 154.659 34.9731 154.659 32.6568C154.659 32.584 154.659 32.5046 154.659 32.4252V29.2288C154.627 27.7993 154.777 26.3103 154.054 25.0265C153.813 24.5617 153.455 24.17 153.017 23.891C152.579 23.6121 152.076 23.4559 151.559 23.4382H151.285C149.846 23.6367 148.921 25 148.68 26.3567C148.597 26.8171 148.567 27.2856 148.589 27.753V38.5136H143.267V28.2692C143.299 27.6322 143.267 26.9934 143.169 26.3633C142.863 24.8941 141.782 23.4448 140.186 23.4448H140.016C139.397 23.5522 138.822 23.8393 138.359 24.2714C137.897 24.7035 137.568 25.2622 137.411 25.8802C137.17 26.8212 137.077 27.7951 137.137 28.7655V38.6129H131.776V18.4881H137.085V23.1536L137.736 21.7904C138.726 19.6859 140.635 18.0182 143.019 18.0182C145.677 18.0182 147.709 20.0697 148.589 22.4852L148.908 23.3455L149.22 22.4852C150.106 20.0697 152.139 18.0182 154.79 18.0182C155.557 18.0465 156.311 18.229 157.009 18.555C157.707 18.8809 158.334 19.344 158.854 19.9175C160.043 21.1589 160.715 22.8181 160.73 24.55V30.7509C160.73 31.3297 160.816 31.9053 160.985 32.4583C161.323 33.5899 162.046 34.7083 163.531 34.6951V25.2912H163.499ZM70.8841 29.7714C70.1356 28.9685 69.5785 28.0018 69.2556 26.9456C68.8472 25.6956 68.6491 24.3846 68.6694 23.0676V18.5542H74.4603V22.7433C74.5124 27.7398 79.3392 27.7662 79.4369 22.7433V18.541H84.7653V23.0544C84.7653 25.7875 84.0357 28.0376 82.6743 29.6192C79.9254 32.8157 73.5548 32.5774 70.8841 29.7582V29.7714ZM118.012 39.6982C116.874 39.7502 115.737 39.571 114.668 39.171C113.598 38.771 112.618 38.1583 111.785 37.3687C110.997 36.5717 110.398 35.6032 110.033 34.5363C109.586 33.2967 109.365 31.9848 109.381 30.6649V18.5476H115.14V30.3406C115.14 31.8825 115.42 32.9281 116.071 33.5965C116.326 33.8534 116.633 34.0519 116.97 34.1786C117.307 34.3053 117.667 34.3573 118.025 34.3311C118.438 34.3559 118.85 34.2806 119.229 34.1115C119.607 33.9423 119.94 33.6842 120.201 33.3583C120.796 32.4737 121.077 31.4091 120.996 30.3406V18.5476H126.728V30.6715C126.728 33.4046 125.959 35.6613 124.481 37.2297C123.734 38.0448 122.804 38.6646 121.771 39.0364C120.576 39.5004 119.304 39.7251 118.025 39.6982H118.012ZM96.7704 38.7915C95.3928 38.8031 94.026 38.5447 92.7448 38.0305C91.5674 37.5555 90.5003 36.8366 89.6116 35.9194C88.7113 34.9737 88.0167 33.8464 87.5728 32.6105C86.5737 29.8895 86.5737 26.8938 87.5728 24.1728C88.0157 22.9532 88.7045 21.841 89.5952 20.9077C90.4859 19.9743 91.5586 19.2403 92.7448 18.7528C95.3356 17.738 98.2052 17.738 100.796 18.7528C101.982 19.2403 103.055 19.9743 103.946 20.9077C104.836 21.841 105.525 22.9532 105.968 24.1728C106.967 26.8938 106.967 29.8895 105.968 32.6105C105.522 33.8297 104.827 34.9393 103.929 35.8665C103.042 36.7915 101.975 37.5194 100.796 38.004C99.5153 38.52 98.1481 38.7785 96.7704 38.7651V38.7915ZM96.6271 23.9147C96.0676 23.9064 95.5128 24.0203 95.0004 24.2486C94.4879 24.477 94.0297 24.8145 93.6567 25.2382C92.8996 26.1539 92.4845 27.3115 92.4845 28.5074C92.4845 29.7034 92.8996 30.861 93.6567 31.7766C94.0316 32.1981 94.4902 32.534 95.0022 32.7621C95.5142 32.9903 96.068 33.1055 96.6271 33.1002C97.1913 33.115 97.7519 33.0042 98.2695 32.7755C98.7872 32.5469 99.2493 32.2059 99.6235 31.7766C100.38 30.8647 100.796 29.7102 100.796 28.5174C100.796 27.3245 100.38 26.17 99.6235 25.2581C99.2517 24.8319 98.794 24.4919 98.2815 24.2613C97.769 24.0306 97.2136 23.9147 96.6531 23.9213L96.6271 23.9147Z" fill="#7872B9"/>
<path d="M79.5666 28.104H74.2578V38.6065H79.5666V28.104Z" fill="#7872B9"/>
<path fill-rule="evenodd" clip-rule="evenodd" d="M44.1561 -0.0351531C45.5297 -0.0364623 46.8729 0.376171 48.0156 1.15054C49.1584 1.92492 50.0494 3.02624 50.576 4.31519C51.1025 5.60413 51.241 7.02279 50.9738 8.39168C50.7066 9.76058 50.0458 11.0182 49.0749 12.0055C48.1041 12.9927 46.8668 13.6653 45.5197 13.938C44.1725 14.2108 42.776 14.0714 41.5068 13.5377C40.2376 13.0039 39.1527 12.0997 38.3894 10.9395C37.6262 9.7792 37.2188 8.415 37.2188 7.01945C37.2187 5.1496 37.9494 3.35624 39.2502 2.03343C40.5511 0.710628 42.3156 -0.0333991 44.1561 -0.0351531Z" fill="#7872B9"/>
<path fill-rule="evenodd" clip-rule="evenodd" d="M38.191 17.0189H50.1571C49.7402 23.3984 47.1412 31.9487 42.4707 37.6334C39.4157 41.346 35.7288 44.1122 31.397 43.9799C31.0496 43.9674 30.7035 43.9298 30.3613 43.8674C28.1229 43.4502 26.1336 42.1606 24.818 40.2739C22.5837 37.3025 22.2124 34.9333 21.561 32.1538C20.2583 26.1316 14.1873 25.9993 12.4416 31.1678C12.1099 32.4987 11.9868 33.8745 12.0768 35.2444V43.9931H0V34.5693C0.0651391 24.0536 7.45843 15.3776 18.0435 16.0394C24.4467 16.4431 29.8663 20.9101 32.322 26.9059C33.234 29.1295 33.2991 31.7237 34.9732 33.4311C35.388 33.8688 35.889 34.2129 36.4434 34.441C36.9978 34.669 37.5933 34.7759 38.191 34.7546V17.0189Z" fill="#7872B9"/>
<path fill-rule="evenodd" clip-rule="evenodd" d="M16.8579 -0.00878596C18.2315 -0.00878534 19.5743 0.405124 20.7164 1.18059C21.8584 1.95605 22.7484 3.05822 23.2738 4.34766C23.7991 5.63711 23.9363 7.05589 23.6678 8.42453C23.3994 9.79317 22.7374 11.0502 21.7656 12.0365C20.7938 13.0229 19.556 13.6942 18.2086 13.9657C16.8612 14.2371 15.4648 14.0965 14.1961 13.5615C12.9274 13.0266 11.8434 12.1213 11.0811 10.9603C10.3189 9.79934 9.91278 8.43475 9.91407 7.0392C9.91407 6.11308 10.0937 5.19606 10.4428 4.34052C10.7918 3.48499 11.3034 2.70773 11.9483 2.05318C12.5931 1.39862 13.3587 0.879607 14.2011 0.525802C15.0435 0.171997 15.9463 -0.00965554 16.8579 -0.00878596Z" fill="#7872B9"/>
</svg>
