<svg width="30" height="22" viewBox="0 0 30 22" fill="none" xmlns="http://www.w3.org/2000/svg">
<g id="menu">
<path id="Vector 7" d="M1.84909 0.883033C1.32262 1.00209 0.928281 1.1624 0.710343 1.37211C-0.487965 2.5252 2.43122 3.75974 4.09293 3.69436C7.65763 3.55411 13.0677 3.55411 13.9217 3.55411C15.3014 3.55411 24.2084 2.6852 25.0766 2.6852C25.7711 2.6852 28.5146 2.42608 29.4731 1.37317C30.0663 1.37151 30.5209 -0.340465 28.7404 0.0615832C20.0072 2.03354 10.5816 -1.09175 1.84909 0.883033Z" fill="#7872B9"/>
<path id="Vector 8" d="M27.8143 9.82881C28.5116 9.91717 29.029 10.0772 29.289 10.331C30.4867 11.5004 27.5444 12.7545 25.8718 12.6883C22.3033 12.5471 16.9169 12.5471 16.0645 12.5471C14.6835 12.5471 5.84432 11.9844 4.97531 11.9844C4.2801 11.9844 1.47185 11.9844 0.470865 10.9687C-0.0296288 10.461 -0.530123 9.00009 1.23123 9C10.1174 8.99956 18.9987 8.71164 27.8143 9.82881Z" fill="#7872B9"/>
<path id="Vector 9" d="M14.5859 18.1402C10 18.1402 2.08364 17.582 0.690735 19.1021C-0.456163 20.3536 2.5562 21.6476 4.24637 21.489C7.69817 21.1651 12.6914 20.8971 13.5 20.8971H23.3375H23.3379C24.0141 20.8971 27.7135 20.8971 29.1719 20.3457C29.7486 20.3439 31.1167 18.6916 28.1995 18.1402C26.5302 17.8247 19 18.1401 14.5859 18.1402Z" fill="#7872B9"/>
</g>
</svg>
