<svg width="220" height="220" viewBox="0 0 220 220" fill="none" xmlns="http://www.w3.org/2000/svg">
<path d="M130.669 199.249C174.788 189.919 197.497 169.71 204.417 133.147C207.856 114.975 205.97 95.7345 197.344 79.3752C176.959 40.7159 132.748 18.5935 87.87 28.0834C33.6727 39.5441 0.324236 67.6702 11.7849 121.867C23.2456 176.065 76.4719 210.709 130.669 199.249Z" fill="#CDE1FF"/>
<path d="M128.836 181.3C173.435 170.806 201.083 126.145 190.589 81.546C180.096 36.947 135.435 9.29893 90.8357 19.7924C46.2367 30.2859 18.5887 74.9471 29.0821 119.546C39.5756 164.145 84.2369 191.793 128.836 181.3Z" fill="#7872B9"/>
<path fill-rule="evenodd" clip-rule="evenodd" d="M110.089 17C125.083 17.0004 139.798 21.0535 152.677 28.7304C165.556 36.4073 176.121 47.4224 183.252 60.6104C183.748 64.3487 183.998 68.1157 184 71.8869C184.001 90.3844 177.831 108.354 166.465 122.949C155.1 137.544 139.19 147.931 121.254 152.465C103.319 156.999 84.3829 155.42 67.4459 147.979C50.5089 140.538 36.5388 127.659 27.748 111.384C27.2507 107.645 27.0008 103.878 27 100.107C27 78.0707 35.7531 56.9364 51.3344 41.3517C66.9158 25.7669 88.0497 17.0076 110.089 17Z" fill="#9690D4"/>
<path fill-rule="evenodd" clip-rule="evenodd" d="M159.528 33C168.44 39.6536 175.936 48.0564 181.565 57.7062C187.195 67.3561 190.843 78.0549 192.292 89.1632C193.741 100.271 192.961 111.561 189.999 122.358C187.036 133.154 181.952 143.236 175.051 152C172.938 150.3 171.024 148.364 169.344 146.228C169.416 141.969 169.062 137.714 168.288 133.528C164.264 127.611 168.659 120.655 167.232 118.577C159.499 107.205 171.056 98.7776 148.399 99.2971C142.949 99.2971 129.68 88.2139 131.107 82.9032C131.107 82.4703 145.374 71.3582 145.545 66.8557C138.012 63.9694 144.661 55.8013 147.685 55.9168C154.677 56.1477 151.709 49.2784 149.455 48.6723C141.179 46.4211 142.749 41.5144 145.289 40.5331C153.364 37.3582 150.996 41.9185 152.85 46.3056C153.963 49.1919 168.088 44.2564 161.753 40.9949C155.418 37.7334 156.36 34.7029 159.528 33Z" fill="#FFCF70"/>
<path fill-rule="evenodd" clip-rule="evenodd" d="M73.3357 26.4177C73.764 27.308 74.1922 27.509 78.5885 24.8957C81.2719 23.2875 81.7287 27.7675 79.2736 28.3992C78.7883 29.5767 83.0989 29.2608 82.6993 25.8721C82.4138 23.6034 88.4088 23.2875 87.3811 25.5275C84.8689 31.07 119.754 16.9122 107.707 32.1325C105.309 35.0043 100.97 33.4822 99.3139 34.0853C98.4574 38.1919 105.48 34.0853 104.881 46.7498C104.709 50.6266 111.618 52.8666 97.8294 51.6892C92.7194 51.2297 99.2853 56.7435 89.9789 57.4327C81.4146 57.9783 66.7698 75.1514 66.5415 75.1514C60.6607 75.1514 63.858 65.129 51.3257 83.9964C46.6154 91.0609 65.3139 80.6078 65.5994 91.061C65.942 107.487 80.4726 87.2702 85.3542 96.2876C89.8076 104.529 96.0309 95.8568 99.6279 104.529C102.968 112.657 101.569 107.832 109.106 110.417C118.412 113.604 114.358 116.591 116.242 117.251C116.985 114.38 120.467 119.003 118.298 122.995C110.933 136.148 116.442 134.769 113.816 139.709C111.873 140.779 109.871 141.737 107.821 142.58C107.821 154.067 106.536 149.243 98.4003 156.939C96.0594 159.179 89.8361 155.417 98.4003 169.661C100.598 173.279 97.1442 180.66 87.1527 167.421C80.3584 158.432 86.2677 153.062 79.7304 142.149C72.9361 130.892 83.8697 124.402 72.7933 119.893C64.5717 116.505 71.7085 106.31 71.6515 105.736C71.1661 101.686 58.4055 104.214 51.2972 92.9563C48.2426 88.1318 42.2477 93.1286 39.1931 82.6754C37.6801 77.535 37.9085 77.9083 31 74.6345C34.5259 64.1751 40.0847 54.5257 47.3529 46.2479C54.621 37.97 63.4534 31.2292 73.3357 26.4177Z" fill="#FFCF70"/>
<path fill-rule="evenodd" clip-rule="evenodd" d="M158.853 33C168.525 40.3498 176.514 49.7801 182.263 60.6307C182.752 64.4105 182.998 68.2191 183 72.032C183.039 90.0221 177.423 107.545 166.987 122C167.336 121.064 167.336 120.028 166.987 119.091C159.306 107.632 170.784 99.1392 148.281 99.6627C142.868 99.6627 129.689 88.4941 131.106 83.1425C131.106 82.7062 145.277 71.5085 145.447 66.9712C137.965 64.0627 144.568 55.8317 147.573 55.948C154.516 56.1807 151.569 49.2585 149.33 48.6477C141.111 46.3791 142.669 41.4346 145.192 40.4457C153.213 37.2464 150.86 41.8418 152.702 46.2627C153.808 49.1712 167.837 44.1977 161.545 40.9111C155.253 37.6245 155.99 34.7451 158.853 33Z" fill="#FFDB94"/>
<path fill-rule="evenodd" clip-rule="evenodd" d="M98.2523 155C93.1095 154.878 87.989 154.285 82.9559 153.228C82.9687 148.691 81.7145 144.239 79.3331 140.368C72.49 129.194 83.5022 122.735 72.3462 118.219C64.0655 114.876 71.2536 104.702 71.1961 104.13C70.7073 100.101 57.8549 102.644 50.6955 91.4127C47.619 86.6115 41.5809 91.5841 38.5044 81.2101C37.038 76.266 37.1818 76.4375 31 73.5225C34.6105 63.1925 40.242 53.6748 47.5701 45.518C54.8982 37.3612 63.7779 30.7265 73.6976 25.9963C74.2726 25.9963 75.3652 25.5962 77.8379 24.1673L79.3618 23.5671C81.087 23.5671 81.1157 26.9394 78.988 27.3967C78.4992 28.5398 82.8409 28.2254 82.4383 24.8532C82.1508 22.624 88.1889 22.2811 87.1538 24.5102C84.6235 30.0259 119.759 15.9366 107.626 31.0833C105.21 34.1126 100.84 32.4551 99.1723 33.0266C98.3098 37.1134 105.383 33.0266 104.779 45.6298C104.607 49.4879 111.565 51.7456 97.6772 50.5453C92.5305 50.0881 99.1436 55.5751 89.7703 56.261C81.1445 56.8326 66.3944 73.894 66.1644 73.894C60.2414 73.894 63.4617 63.9201 50.8393 82.6962C46.0951 89.7265 64.928 79.3239 65.2156 89.7551C65.5606 106.073 80.1956 85.9542 85.1123 94.9278C89.5977 103.13 95.8658 94.4992 99.4886 103.13C102.853 111.218 101.444 106.416 109.034 108.846C118.408 112.046 114.325 115.019 116.223 115.676C116.97 112.818 120.478 117.391 118.293 121.249C110.875 134.366 116.424 132.995 113.779 137.881C111.822 138.946 109.806 139.901 107.741 140.739C107.626 151.999 106.36 147.284 98.2523 155Z" fill="#FFDB94"/>
</svg>
