<svg width="40" height="40" viewBox="0 0 40 40" fill="none" xmlns="http://www.w3.org/2000/svg">
<path d="M2.45693 18.1405C1.75923 18.3387 1.23653 18.6051 0.947124 18.9532C-0.598604 20.8125 3.7787 22.8923 6.1944 22.79C10.9227 22.5899 17.4811 22.5899 18.5623 22.5899C20.4019 22.5899 32.2779 21.1417 33.4355 21.1417C34.3615 21.1417 38.0194 20.7099 39.2975 18.955C40.0884 18.9522 40.6946 16.0989 38.3205 16.769C26.8364 20.0104 13.9356 14.88 2.45693 18.1405Z" fill="#FACD6E"/>
<path d="M21.8579 2.45692C21.6597 1.75923 21.3933 1.23653 21.0452 0.947124C19.1859 -0.598605 17.1062 3.7787 17.2084 6.1944C17.4085 10.9227 17.4085 17.4811 17.4085 18.5623C17.4085 20.4019 18.8567 32.2779 18.8567 33.4355C18.8567 34.3615 19.2886 38.0194 21.0434 39.2975C21.0462 40.0884 23.8995 40.6946 23.2294 38.3205C19.988 26.8364 25.1184 13.9356 21.8579 2.45692Z" fill="#FACD6E"/>
</svg>
