<svg width="320" height="320" viewBox="0 0 320 320" fill="none" xmlns="http://www.w3.org/2000/svg">
<path fill-rule="evenodd" clip-rule="evenodd" d="M27.4686 177.101C35.8812 188.662 49.6646 200.889 54.6551 213.021C72.4784 257.458 99.8076 293.901 144.96 296.137C182.983 298.04 213.164 267.258 242.109 241.71C258.412 227.437 306.131 153.313 299.524 116.156C294.391 87.3244 271.482 68.2938 248.003 55.7812C203.421 31.993 186.215 18.7192 163.544 23.2865C151.614 25.6653 109.931 54.6869 77.3739 80.3782C56.9365 96.2211 -0.71608 138.279 27.4686 177.101Z" fill="#CDE1FF"/>
<path fill-rule="evenodd" clip-rule="evenodd" d="M101.089 198.559C87.6863 207.598 78.9885 212.118 71.8591 230.815C67.4865 242.186 62.6861 271.16 65.015 284.862L149.426 318.832L240.397 284.957C241.823 277.678 239.731 254.841 238.448 247.229C235.216 227.818 228.942 221.252 228.134 216.923C222.336 221.443 212.212 233.527 213.876 243.994C214.837 247.331 216.227 250.53 218.011 253.509C206.604 251.654 189.778 241.901 186.404 233.813C181.651 222.299 194.341 208.692 200.663 199.082C200.663 195.989 201.47 196.608 197.811 195.371C196.908 195.038 194.911 194.562 193.818 194.229C191.062 193.468 187.925 192.754 185.216 192.088C185.216 197.702 176.946 205.79 173.809 208.454C150.282 228.103 121.527 204.601 121.527 192.136C118.2 192.992 114.302 193.801 111.213 194.8C108.124 195.799 104.464 197.559 101.089 198.559Z" fill="#FFCF70"/>
<path fill-rule="evenodd" clip-rule="evenodd" d="M208.6 270.78C220.245 261.645 231.367 251.274 242.298 241.663L242.869 241.092C241.871 239.189 240.873 237.239 239.827 235.335C228.42 214.497 264.97 195.514 277.042 179.719C284.837 169.537 271.576 157.072 264.352 153.694C219.96 133.094 288.639 97.2687 253.04 76.3826C215.017 54.212 234.028 57.352 214.446 37.4175C204.095 31.1597 192.887 26.4476 181.176 23.43C179.86 23.8722 178.463 24.0204 177.084 23.8642C175.704 23.7081 174.376 23.2513 173.191 22.5261C169.999 22.4772 166.811 22.7804 163.686 23.43C161.481 23.9624 159.344 24.7446 157.317 25.7613C144.912 63.537 128.181 85.1843 119.294 130.429C112.497 165.731 90.5386 230.768 133.552 250.607C157.368 261.196 182.689 268.002 208.6 270.78Z" fill="#B0C8EB"/>
<path fill-rule="evenodd" clip-rule="evenodd" d="M101.089 198.559C87.6863 207.598 78.9885 212.118 71.8591 230.815C67.4865 242.186 62.6861 271.16 65.015 284.862L149.426 318.832L240.397 284.957C241.823 277.678 239.731 254.841 238.448 247.229C235.216 227.818 228.942 221.252 228.134 216.923C222.336 221.443 212.212 233.527 213.876 243.994C214.837 247.331 216.227 250.53 218.011 253.509C206.604 251.654 189.778 241.901 186.404 233.813C181.651 222.299 194.341 208.692 200.663 199.082C200.663 195.989 201.47 196.608 197.811 195.371C196.908 195.038 194.911 194.562 193.818 194.229C191.062 193.468 187.925 192.754 185.216 192.088C185.216 197.702 176.946 205.79 173.809 208.454C150.282 228.103 121.527 204.601 121.527 192.136C118.2 192.992 114.302 193.801 111.213 194.8C108.124 195.799 104.464 197.559 101.089 198.559Z" fill="#FFCF70"/>
<path fill-rule="evenodd" clip-rule="evenodd" d="M88.6875 69.2938C88.6875 80.7597 89.0202 89.2283 89.448 100.361C96.102 102.074 94.5811 105.119 98.5735 105.928C96.2921 98.2678 100.522 79.9509 102.946 73.0999C114.876 39.7964 154.61 32.0415 173.622 51.2623C181.416 59.16 199.43 90.9886 200.285 99.4572C201.379 110.305 187.262 122.056 184.031 139.659C182.7 146.796 184.458 151.03 184.031 156.977C185.882 160.404 187.471 163.966 188.783 167.634C190.387 170.917 192.197 174.095 194.202 177.149C196.215 180.181 197.994 183.362 199.525 186.665C200.929 189.637 201.628 192.893 201.569 196.18L200.856 199.035C200.856 199.035 200.856 199.463 200.571 199.701C194.439 209.216 181.559 222.918 186.312 234.432C189.686 242.52 206.512 252.273 217.919 254.128C216.135 251.149 214.746 247.95 213.784 244.613C212.12 234.146 222.244 222.062 228.042 217.542C243.109 200.843 277.615 180.29 253.946 162.353C247.271 158.227 241.275 153.091 236.17 147.129C226.664 133.474 241.588 113.112 244.535 98.0775C248.67 76.7633 227.377 78.3333 219.059 59.16C211.312 41.3665 210.884 28.9965 197.719 15.913C181.464 -0.215376 149.572 -9.06459 129.8 14.0576C128.754 15.2945 123.811 23.5728 123.384 23.5728C120.912 24.8574 91.7294 26.3798 88.6875 69.2938Z" fill="#6B66A6"/>
<path fill-rule="evenodd" clip-rule="evenodd" d="M140.493 169.632C159.124 176.721 169.961 167.11 183.934 156.976C184.457 151.029 182.699 146.795 183.934 139.659C187.166 122.055 201.282 110.304 200.189 99.4564C199.334 90.9878 181.178 59.1592 173.525 51.2615C154.514 32.231 114.78 39.7956 102.85 73.0991C98.9688 82.2241 96.8868 92.0142 96.7188 101.93C98.3347 127.955 111.5 162.828 140.493 169.632Z" fill="#FDD3D4"/>
<path fill-rule="evenodd" clip-rule="evenodd" d="M129.654 163.305C129.891 169.538 129.891 176.246 129.654 182.336C129.416 188.426 127.182 190.947 121.051 192.089C121.336 204.554 149.948 228.057 173.333 208.408C176.47 205.743 184.692 197.655 184.74 192.041C177.943 190.566 176.802 187.902 176.802 180.813C176.802 174.676 176.802 167.92 176.802 161.783L176.232 162.116C164.73 169.443 155.699 175.437 140.062 169.49C136.212 168.152 132.671 166.048 129.654 163.305Z" fill="#E8B7B8"/>
<path fill-rule="evenodd" clip-rule="evenodd" d="M92.7721 156.501C94.7208 163.209 97.525 163.685 100.472 167.872C107.839 177.863 104.274 187.235 101.09 198.558C104.512 197.559 107.459 196.037 110.881 194.895C114.303 193.753 117.867 193.087 121.194 192.231C127.326 191.089 129.702 189.138 129.797 182.478C129.892 175.817 129.797 169.537 129.797 163.447C125.044 162.781 107.031 142.418 106.033 135.615L95.3387 134.854C92.0523 141.568 91.1471 149.203 92.7721 156.501Z" fill="#4B4680"/>
<path fill-rule="evenodd" clip-rule="evenodd" d="M106.034 135.472C98.1914 124.006 97.8111 107.973 97.1933 104.405C87.0696 86.5636 77.4688 108.068 85.7863 127.241C90.5867 138.279 94.1039 134.616 106.034 135.472Z" fill="#E8B7B8"/>
<path fill-rule="evenodd" clip-rule="evenodd" d="M176.805 161.924C176.805 168.062 177.09 174.818 177.09 180.955C177.09 188.044 178.231 190.708 185.027 192.183C187.736 192.849 190.873 193.563 193.63 194.324C194.723 194.657 196.719 195.133 197.622 195.466C201.282 196.703 200.331 196.084 200.474 199.177C200.474 199.177 200.474 198.368 200.759 198.511L201.472 195.656C201.531 192.369 200.832 189.113 199.428 186.141C197.898 182.838 196.118 179.657 194.105 176.625C192.1 173.571 190.29 170.393 188.687 167.11C187.375 163.442 185.786 159.88 183.934 156.453L180.464 158.975C179.324 160.45 177.898 160.973 176.805 161.924Z" fill="#4B4680"/>
</svg>
