<svg width="40" height="40" viewBox="0 0 40 40" fill="none" xmlns="http://www.w3.org/2000/svg">
<path d="M4.00158 16.5883C4.2311 12.2731 5.49829 7.33926 9.83728 4.06241C11.982 2.44258 14.5638 3.1916 16.008 5.58488C18.6796 10.0122 17.5886 14.1186 15.6803 18.2742C15.147 19.4351 14.5817 20.5797 13.9795 21.6943C12.4729 24.4804 12.2235 27.5524 12.3721 30.7291C12.408 31.5012 12.6983 32.1556 13.0171 32.8003C13.2641 33.2988 13.6289 33.747 13.776 34.2782C13.9805 35.0176 14.6171 35.9471 13.9101 36.5518C13.2358 37.1284 12.2567 36.6033 11.8595 35.971C10.4818 33.7772 8.3027 32.435 7.23209 29.9283C5.59249 26.0896 4.02324 22.2399 4.00158 16.5883ZM5.79151 17.4856C5.79791 18.062 5.75732 18.6447 5.81808 19.2135C6.11968 22.0385 7.04122 24.5983 8.36739 26.9804C8.70589 27.5886 9.21021 27.9418 9.79098 27.9058C10.4183 27.8669 10.4525 27.127 10.5573 26.6C11.207 23.3336 12.6845 20.5424 14.163 17.7155C15.7404 14.6998 16.84 11.5055 15.3017 7.94465C14.4909 6.06765 12.0956 4.58514 10.9128 5.56723C9.73493 6.545 8.3524 7.32704 7.60007 8.96588C6.37076 11.6458 5.7182 14.4608 5.79151 17.4856Z" fill="#FACD6E"/>
<path d="M5.79151 17.4856C5.79791 18.062 5.75732 18.6447 5.81808 19.2135C6.11968 22.0385 7.04122 24.5983 8.36739 26.9804C8.70589 27.5886 9.21021 27.9418 9.79098 27.9058C10.4183 27.8669 10.4525 27.127 10.5573 26.6C11.207 23.3336 12.6845 20.5424 14.163 17.7155C15.7404 14.6998 16.84 11.5055 15.3017 7.94465C14.4909 6.06765 12.0956 4.58514 10.9128 5.56723C9.73493 6.545 8.3524 7.32704 7.60007 8.96588C6.37076 11.6458 5.7182 14.4608 5.79151 17.4856Z" fill="#FACD6E"/>
<path d="M21.6161 17.7809C21.5896 13.0894 22.908 9.12288 26.0437 5.89614C29.6681 2.16623 33.4914 4.58007 35.0281 7.6449C36.2166 10.0161 36.3282 12.2924 35.2905 14.8357C34.2737 17.3282 32.6875 19.2336 31.1233 21.197C29.8694 22.7714 28.7896 24.4903 28.0837 26.4505C27.2835 28.6722 26.6813 30.9666 28.6029 32.9461C28.9626 33.3166 28.9704 33.8163 28.9648 34.2951C28.955 35.1385 28.5169 35.4252 27.8558 35.0161C27.295 34.669 26.8263 34.2029 26.3821 33.6467C23.9837 30.647 22.9279 26.9582 22.199 23.1139C21.868 21.3698 21.5203 19.6073 21.6161 17.7809ZM25.7369 28.3158C26.5339 27.3319 26.5885 26.3078 26.9012 25.4189C27.3534 24.1336 27.7898 22.8532 28.5885 21.7804C29.6933 20.2957 30.7638 18.778 31.8837 17.309C32.9247 15.9434 33.7259 14.4392 34.1736 12.6907C34.8037 10.23 34.1429 8.29384 32.0794 6.60918C30.7865 5.55359 28.8911 5.69956 27.3015 6.97643C24.6825 9.08056 22.7599 14.5159 23.6302 18.0343C24.0467 19.7173 24.2347 21.3713 24.2494 23.0766C24.2655 24.937 24.9386 26.5164 25.7369 28.3158Z" fill="#FACD6E"/>
<path d="M25.7369 28.3158C26.5339 27.3319 26.5885 26.3078 26.9012 25.4189C27.3534 24.1336 27.7898 22.8532 28.5885 21.7804C29.6933 20.2957 30.7638 18.778 31.8837 17.309C32.9247 15.9434 33.7259 14.4392 34.1736 12.6907C34.8037 10.23 34.1429 8.29384 32.0794 6.60918C30.7865 5.55359 28.8911 5.69956 27.3015 6.97643C24.6825 9.08056 22.7599 14.5159 23.6302 18.0343C24.0467 19.7173 24.2347 21.3713 24.2494 23.0766C24.2655 24.937 24.9386 26.5164 25.7369 28.3158Z" fill="#FACD6E"/>
</svg>
