<svg width="40" height="40" viewBox="0 0 40 40" fill="none" xmlns="http://www.w3.org/2000/svg">
<path d="M36.3244 23.3803C36.0773 27.6417 34.7131 32.5139 30.0421 35.7498C27.7333 37.3494 24.9539 36.6097 23.3991 34.2463C20.523 29.8743 21.6975 25.8192 23.7518 21.7155C24.326 20.5691 24.9346 19.4388 25.5829 18.3381C27.2047 15.5868 27.4733 12.5532 27.3133 9.41611C27.2746 8.65367 26.9621 8.0075 26.6189 7.37082C26.353 6.8785 25.9603 6.43597 25.8019 5.91136C25.5818 5.18119 24.8965 4.2633 25.6575 3.66614C26.3834 3.09676 27.4375 3.6153 27.8651 4.23976C29.3482 6.40607 31.6941 7.73156 32.8466 10.2069C34.6117 13.9977 36.3011 17.7993 36.3244 23.3803ZM34.3975 22.4942C34.3906 21.9251 34.4343 21.3496 34.3689 20.7879C34.0442 17.9982 33.0521 15.4703 31.6245 13.1181C31.26 12.5174 30.7171 12.1687 30.0919 12.2042C29.4166 12.2426 29.3798 12.9733 29.267 13.4937C28.5676 16.7193 26.977 19.4756 25.3853 22.2672C23.6872 25.2453 22.5034 28.3996 24.1594 31.916C25.0323 33.7696 27.611 35.2336 28.8843 34.2638C30.1523 33.2982 31.6406 32.5259 32.4505 30.9076C33.7739 28.2611 34.4764 25.4813 34.3975 22.4942Z" fill="#FACD6E"/>
<path d="M34.3975 22.4942C34.3906 21.9251 34.4343 21.3496 34.3689 20.7879C34.0442 17.9982 33.0521 15.4703 31.6245 13.1181C31.26 12.5174 30.7171 12.1687 30.0919 12.2042C29.4166 12.2426 29.3798 12.9733 29.267 13.4937C28.5676 16.7193 26.977 19.4756 25.3853 22.2672C23.6872 25.2453 22.5034 28.3996 24.1594 31.916C25.0323 33.7696 27.611 35.2336 28.8843 34.2638C30.1523 33.2982 31.6406 32.5259 32.4505 30.9076C33.7739 28.2611 34.4764 25.4813 34.3975 22.4942Z" fill="#FACD6E"/>
<path d="M19.5436 22.04C19.5722 26.7291 18.1471 30.6936 14.7578 33.9187C10.8402 37.6467 6.70764 35.2341 5.04662 32.1708C3.76194 29.8008 3.6414 27.5257 4.76298 24.9837C5.86204 22.4924 7.57654 20.588 9.26726 18.6256C10.6226 17.052 11.7898 15.3341 12.5527 13.3749C13.4177 11.1543 14.0686 8.8611 11.9916 6.88253C11.6028 6.5123 11.5943 6.01283 11.6004 5.53426C11.611 4.69127 12.0845 4.40477 12.7991 4.81365C13.4053 5.16058 13.9119 5.62639 14.392 6.18233C16.9844 9.18049 18.1256 12.8674 18.9134 16.7098C19.2712 18.4529 19.6471 20.2145 19.5436 22.04ZM15.0894 11.5105C14.2279 12.4939 14.1689 13.5174 13.831 14.4059C13.3421 15.6906 12.8704 16.9703 12.0071 18.0426C10.813 19.5265 9.65591 21.0434 8.4454 22.5116C7.32011 23.8766 6.45414 25.38 5.97028 27.1276C5.28913 29.5871 6.00338 31.5222 8.2338 33.206C9.6313 34.261 11.68 34.1151 13.3983 32.8389C16.2291 30.7359 18.3072 25.3033 17.3665 21.7867C16.9163 20.1046 16.7131 18.4515 16.6973 16.747C16.6798 14.8876 15.9522 13.309 15.0894 11.5105Z" fill="#FACD6E"/>
<path d="M15.0894 11.5105C14.2279 12.4939 14.1689 13.5174 13.831 14.4059C13.3421 15.6906 12.8704 16.9703 12.0071 18.0426C10.813 19.5265 9.65591 21.0434 8.4454 22.5116C7.32011 23.8766 6.45414 25.38 5.97028 27.1276C5.28913 29.5871 6.00338 31.5222 8.2338 33.206C9.6313 34.261 11.68 34.1151 13.3983 32.8389C16.2291 30.7359 18.3072 25.3033 17.3665 21.7867C16.9163 20.1046 16.7131 18.4515 16.6973 16.747C16.6798 14.8876 15.9522 13.309 15.0894 11.5105Z" fill="#FACD6E"/>
</svg>
