<svg width="200" height="200" viewBox="0 0 200 200" fill="none" xmlns="http://www.w3.org/2000/svg">
<path fill-rule="evenodd" clip-rule="evenodd" d="M102.416 1.33325C152.619 1.33325 187.043 63.2338 187.043 113.448C187.043 163.662 134.874 195.554 84.6716 195.554C34.4689 195.554 3.64844 147.798 3.64844 97.6382C3.64844 47.4788 52.2951 1.33325 102.416 1.33325Z" fill="#CDE1FF"/>
<path fill-rule="evenodd" clip-rule="evenodd" d="M65.1553 172.782C63.9679 174.163 62.3543 175.108 60.5696 175.469C58.7848 175.83 56.9307 175.586 55.3003 174.775C53.8315 174.045 52.6216 172.883 51.8334 171.444C50.8671 169.797 50.583 167.837 51.0417 165.983C51.2409 164.72 51.7331 163.521 52.4787 162.482C53.2243 161.444 54.2026 160.594 55.3354 160.001C56.4682 159.409 57.7239 159.09 59.0022 159.069C60.2804 159.049 61.5456 159.329 62.6965 159.885C63.8474 160.442 64.8521 161.26 65.63 162.275C66.408 163.29 66.9376 164.472 67.1766 165.729C67.4156 166.985 67.3572 168.279 67.0062 169.509C66.6552 170.738 66.0213 171.869 65.1553 172.809V172.782ZM11.5948 145.805C12.714 144.685 12.8778 143.511 14.8434 142.037C16.9607 140.281 19.5711 139.227 22.3135 139.02C25.0559 138.814 27.7947 139.465 30.1511 140.883C32.5075 142.301 34.365 144.417 35.4666 146.937C36.5682 149.458 36.8596 152.258 36.3003 154.952C35.9345 156.625 35.2283 158.205 34.2255 159.594C33.2537 161.095 31.9801 162.378 30.4855 163.361C28.9909 164.343 27.3082 165.004 25.5445 165.3C25.3807 165.519 25.1077 164.973 25.5445 165.71C25.5445 166.283 25.3261 165.519 25.5445 166.038L37.0101 176.96C50.7574 188.417 67.3343 195.962 85.0015 198.804C85.3291 198.312 85.2473 198.312 85.22 197.52C84.4584 187.003 81.6778 176.731 77.0303 167.266C74.3373 161.883 71.05 156.818 67.2299 152.167L66.0561 150.747C64.773 149.081 61.4699 146.05 60.1323 144.521L54.6725 139.934C52.707 138.405 51.0144 137.204 48.8851 135.756C35.1806 126.769 19.0488 122.203 2.66797 122.677C4.13554 128.775 6.18325 134.718 8.78299 140.426C9.57225 142.292 10.5126 144.091 11.5948 145.805Z" fill="#FAA8B7"/>
<path fill-rule="evenodd" clip-rule="evenodd" d="M12.1133 146.36C14.7443 151.484 18.1007 156.76 21.6964 161.259L25.6548 165.71C25.218 164.973 25.491 165.519 25.6548 165.3C27.4185 165.004 29.1012 164.343 30.5957 163.361C32.0903 162.378 33.364 161.095 34.3358 159.594C34.861 156.573 34.5105 153.465 33.3258 150.638C32.5304 148.844 31.3014 147.277 29.7496 146.078C28.3354 144.905 26.6916 144.042 24.9237 143.544C23.1559 143.045 21.0837 142.495 19.2656 142.756C16.5465 143.126 14.0292 144.395 12.1133 146.36Z" fill="#E698A6"/>
<path fill-rule="evenodd" clip-rule="evenodd" d="M51.0424 165.901C50.5837 167.755 50.8678 169.715 51.8341 171.362C52.6223 172.801 53.8322 173.964 55.301 174.694C56.9314 175.504 58.7855 175.749 60.5703 175.388C62.355 175.027 63.9686 174.081 65.156 172.7C65.1051 170.969 64.754 169.26 64.1186 167.649C63.7518 166.923 63.2728 166.259 62.6991 165.683C61.7349 164.749 60.5558 164.066 59.2658 163.694C57.9757 163.323 56.6142 163.274 55.301 163.553C53.6664 163.859 52.1734 164.682 51.0424 165.901Z" fill="#E698A6"/>
<path fill-rule="evenodd" clip-rule="evenodd" d="M11.5938 145.805C11.6188 145.999 11.7048 146.181 11.8394 146.323C12.1397 146.788 12.0305 146.597 12.2216 146.788C14.1375 144.823 16.6548 143.554 19.3739 143.183C21.192 142.923 23.0446 143.045 24.8124 143.544C26.5802 144.042 28.2241 144.905 29.6383 146.078C31.1901 147.277 32.4191 148.844 33.2145 150.638C34.3992 153.465 34.7496 156.573 34.2245 159.594C35.2273 158.205 35.9335 156.625 36.2992 154.952C36.8585 152.259 36.5672 149.458 35.4656 146.937C34.3639 144.417 32.5065 142.301 30.1501 140.883C27.7937 139.465 25.0549 138.814 22.3125 139.02C19.5701 139.227 16.9596 140.281 14.8423 142.037C12.8768 143.511 12.713 144.685 11.5938 145.805Z" fill="#DB8897"/>
<path fill-rule="evenodd" clip-rule="evenodd" d="M51.043 165.901C52.1778 164.692 53.6704 163.879 55.3016 163.58C56.6148 163.302 57.9763 163.35 59.2664 163.722C60.5564 164.093 61.7355 164.776 62.6997 165.71C63.2733 166.287 63.7524 166.95 64.1192 167.676C64.7546 169.287 65.1056 170.996 65.1566 172.728C66.0226 171.787 66.6565 170.657 67.0075 169.427C67.3585 168.198 67.4169 166.903 67.1779 165.647C66.9389 164.391 66.4093 163.208 65.6313 162.193C64.8534 161.179 63.8487 160.36 62.6978 159.803C61.5469 159.247 60.2817 158.967 59.0035 158.988C57.7252 159.008 56.4695 159.327 55.3367 159.92C54.2039 160.512 53.2256 161.362 52.48 162.401C51.7344 163.439 51.2422 164.638 51.043 165.901Z" fill="#DB8897"/>
<path fill-rule="evenodd" clip-rule="evenodd" d="M143.611 39.8067C147.213 39.0648 150.962 39.7842 154.034 41.8068C157.106 43.8294 159.248 46.9896 159.991 50.5921C160.474 52.8776 160.379 55.2475 159.715 57.4871C159.051 59.7266 157.838 61.7649 156.187 63.4171C154.536 65.0694 152.499 66.2834 150.261 66.9489C148.022 67.6145 145.653 67.7107 143.367 67.2287C141.082 66.7467 138.953 65.7018 137.174 64.1888C135.395 62.6757 134.021 60.7424 133.178 58.564C132.334 56.3857 132.048 54.0312 132.344 51.7142C132.641 49.3971 133.511 47.1906 134.876 45.295C136.948 42.4396 140.035 40.4856 143.502 39.8339L143.611 39.8067ZM152.567 12.1995C151.292 12.7512 150.174 13.6332 148.88 14.1399C140.926 18.2157 133.43 23.1313 126.522 28.8028L117.459 36.6939C113.965 40.5166 111.999 41.9364 108.996 45.3769L103.536 51.3021C102.71 52.3335 101.796 53.2927 100.807 54.1691C99.9828 55.3646 99.0703 56.4965 98.0767 57.555C97.1758 58.538 96.1931 59.7121 95.3468 60.777C93.5006 62.908 91.8126 65.1713 90.2965 67.5486C88.4402 71.699 78.1484 82.3753 86.2562 94.0345C87.665 96.1716 89.2347 98.1981 90.9516 100.096C91.5249 100.752 91.1155 100.697 91.989 100.506C92.3166 100.342 94.8827 97.4204 95.3468 96.9016C100.042 91.4406 119.643 73.037 124.557 77.788C129.47 82.5391 113.501 98.8676 108.969 103.564C107.768 104.82 106.512 105.803 105.338 107.032C104.164 108.26 102.772 109.271 101.598 110.554C104.809 113.741 108.895 115.898 113.337 116.752C116 117.056 118.697 116.795 121.253 115.988C123.432 115.157 125.556 114.19 127.614 113.093C130.098 112.493 143.366 100.779 145.741 99.1679L151.528 93.8707C152.538 93.0242 153.466 91.9866 154.449 91.1402C155.505 90.3221 156.483 89.408 157.37 88.4097C158.263 87.3935 159.22 86.4359 160.236 85.5427C161.274 84.5597 161.984 83.6313 163.103 82.8122L173.667 70.4976C176.997 66.1419 180.052 61.5822 182.813 56.845C183.468 55.7528 186.443 49.9368 186.88 49.5819C187.481 47.9709 188.081 46.8514 188.791 45.1858C189.516 43.6772 190.101 42.1051 190.538 40.4893C179.926 36.9379 170.989 29.6112 165.423 19.9013C163.449 16.508 162.03 12.8208 161.219 8.97925C159.791 9.15776 155.221 11.0515 152.567 12.1995Z" fill="#FFCF70"/>
<path fill-rule="evenodd" clip-rule="evenodd" d="M161.246 8.70618C162.057 12.5477 163.476 16.2349 165.45 19.6282C171.016 29.3381 179.953 36.6649 190.565 40.2163L193.104 32.9804C193.88 30.2897 194.491 27.5541 194.933 24.7889C195.861 19.3279 196.271 11.464 193.759 7.36826C190.647 2.28952 175.223 4.8016 168.972 6.35799C166.345 6.96141 163.764 7.74599 161.246 8.70618Z" fill="#CDE1FF"/>
<path fill-rule="evenodd" clip-rule="evenodd" d="M127.642 113.093C127.069 114.103 125.213 114.95 124.148 115.632L120.463 117.899C117.874 119.443 115.054 120.558 112.109 121.202C112.71 125.08 113.42 128.93 113.966 132.916C114.29 136.742 115.023 140.523 116.15 144.193C118.17 149.217 121.418 146.924 124.339 144.603C126.772 142.474 129.096 140.223 131.301 137.859C136.186 133.529 140.183 128.289 143.066 122.431C146.325 115.136 147.277 107.019 145.796 99.1672C143.367 100.778 130.127 112.492 127.642 113.093Z" fill="white"/>
<path fill-rule="evenodd" clip-rule="evenodd" d="M78.749 87.8634C79.2676 83.0577 85.2734 74.0197 88.4128 69.8147C89.068 68.9409 89.3956 68.0126 90.3238 67.5484C91.8399 65.1711 93.5278 62.9078 95.3741 60.7767C96.193 59.7118 97.1758 58.5377 98.104 57.5548C99.0975 56.4962 100.01 55.3644 100.834 54.1689C93.0354 52.7607 84.9942 53.7115 77.7389 56.8994C71.8584 59.7581 66.5988 63.7479 62.2605 68.6406C60.0765 70.825 57.5377 73.1186 55.6268 75.4669C53.7158 77.8151 50.5219 81.6378 55.6268 83.7949C59.2864 84.9722 63.0695 85.7235 66.9012 86.0339C70.8869 86.4981 74.8452 87.3173 78.749 87.8634Z" fill="white"/>
<path fill-rule="evenodd" clip-rule="evenodd" d="M101.68 119.483C99.4857 118.326 97.4791 116.844 95.7286 115.087C93.8723 116.288 87.1841 121.039 84.2358 118.309C81.2875 115.578 85.9829 108.943 86.9657 106.868C86.5016 105.967 86.3652 106.103 85.6281 105.366C84.891 104.629 84.8637 104.41 84.3724 103.892C83.3896 102.827 82.789 101.898 81.8608 100.915C70.6137 102.636 59.2573 129.504 66.9283 135.975C72.3881 140.453 83.0073 136.248 88.1395 133.709C91.0854 132.235 93.8364 130.401 96.3292 128.248C98.9912 125.963 100.864 122.895 101.68 119.483Z" fill="#9690D4"/>
<path fill-rule="evenodd" clip-rule="evenodd" d="M92.0159 100.506C91.1424 101.707 90.3507 102.526 89.4225 103.755C88.4943 104.984 87.8119 106.021 87.0475 106.84C85.9829 108.916 81.0963 115.332 84.3176 118.281C87.5389 121.23 93.9541 116.261 95.8104 115.059C96.7535 114.254 97.7376 113.497 98.7588 112.793C99.6981 111.957 100.682 111.173 101.707 110.445C102.881 109.161 104.109 108.315 105.447 106.922C106.785 105.53 107.877 104.711 109.078 103.455C113.609 98.7582 129.443 82.184 124.665 77.6787C119.888 73.1733 100.096 91.5223 95.4556 96.7922C94.9097 97.4202 92.3435 100.369 92.0159 100.506Z" fill="white"/>
<path fill-rule="evenodd" clip-rule="evenodd" d="M28.5193 35.6832C30.2359 37.1857 31.5973 39.051 32.505 41.1442C33.433 43.573 34.1543 46.0757 34.6616 48.6258C36.1357 37.8676 41.8139 32.2428 52.5151 30.7683C50.0216 30.2746 47.5742 29.5712 45.199 28.6658C43.1024 27.7396 41.2376 26.3594 39.7392 24.6247L38.7837 23.5871C38.4614 23.1718 38.1694 22.7337 37.9101 22.2764C36.164 19.2738 35.084 15.9307 34.7435 12.4739C34.7435 12.4739 34.7435 12.4738 34.7435 12.6104L32.8598 19.6825C32.0138 21.7336 30.76 23.5915 29.1745 25.1435C26.7 27.5543 23.597 29.2197 20.2205 29.9491L16.4805 30.7683C20.8185 31.0633 24.9539 32.7159 28.301 35.492L28.5193 35.6832Z" fill="#9690D4"/>
<path fill-rule="evenodd" clip-rule="evenodd" d="M144.923 43.0285C142.861 43.3175 140.93 44.2113 139.375 45.5971C137.82 46.9828 136.711 48.7983 136.187 50.8143C135.663 52.8304 135.748 54.9565 136.431 56.9242C137.114 58.892 138.365 60.6131 140.026 61.8703C141.686 63.1274 143.682 63.8642 145.761 63.9876C147.84 64.1109 149.909 63.6153 151.706 62.5634C153.504 61.5115 154.949 59.9505 155.861 58.0773C156.772 56.2042 157.107 54.103 156.825 52.0391C156.638 50.6648 156.18 49.3411 155.48 48.1438C154.78 46.9466 153.85 45.8994 152.744 45.0623C151.639 44.2252 150.379 43.6146 149.036 43.2656C147.694 42.9166 146.296 42.836 144.923 43.0285Z" fill="#9690D4"/>
<path fill-rule="evenodd" clip-rule="evenodd" d="M144.921 43.0279C146.98 42.7388 149.079 43.0655 150.953 43.9669C152.827 44.8682 154.392 46.304 155.452 48.0933C156.512 49.8826 157.019 51.9455 156.909 54.0224C156.799 56.0992 156.077 58.0972 154.834 59.7646C153.592 61.432 151.884 62.6944 149.925 63.3929C147.966 64.0914 145.845 64.1947 143.828 63.6898C141.811 63.1849 139.988 62.0944 138.589 60.5556C137.191 59.0168 136.278 57.0985 135.967 55.0421C135.755 53.6637 135.819 52.2569 136.156 50.9035C136.493 49.5502 137.095 48.2773 137.928 47.1592C138.762 46.041 139.809 45.0999 141.01 44.3907C142.21 43.6814 143.54 43.2181 144.921 43.0279ZM143.611 39.7513C140.144 40.403 137.057 42.3569 134.984 45.2123C133.62 47.108 132.75 49.3144 132.453 51.6315C132.157 53.9486 132.443 56.303 133.287 58.4813C134.13 60.6597 135.504 62.5931 137.283 64.1061C139.062 65.6191 141.191 66.664 143.476 67.146C145.761 67.628 148.131 67.5319 150.369 66.8663C152.608 66.2007 154.645 64.9867 156.296 63.3345C157.947 61.6822 159.16 59.6439 159.824 57.4044C160.488 55.1649 160.583 52.7949 160.1 50.5095C159.723 48.7218 158.998 47.026 157.965 45.5195C156.931 44.0131 155.611 42.7256 154.079 41.7311C152.547 40.7365 150.833 40.0544 149.037 39.724C147.24 39.3937 145.397 39.4215 143.611 39.8059V39.7513Z" fill="#6B66A6"/>
<path fill-rule="evenodd" clip-rule="evenodd" d="M132.719 161.396C136.131 162.324 139.38 162.57 142.437 165.683C144.796 168.424 146.279 171.81 146.696 175.403C148.061 166.884 152.019 162.734 160.591 161.45C157.861 160.303 151.528 160.604 148.17 152.986C147.434 151.242 146.947 149.404 146.723 147.525C146.253 151.052 144.796 154.375 142.519 157.109C139.773 159.515 136.35 161.013 132.719 161.396Z" fill="#FFCF70"/>
<path fill-rule="evenodd" clip-rule="evenodd" d="M78.7482 87.8631C78.23 90.3117 78.3618 92.8534 79.1305 95.2354C79.4635 96.2308 79.8743 97.1986 80.3589 98.1297C80.9353 99.0108 81.4638 99.9223 81.9422 100.86C82.8704 101.843 83.471 102.772 84.4538 103.836C84.9452 104.355 85.2181 104.847 85.7095 105.311C86.2009 105.775 86.583 105.912 87.0471 106.813C87.8115 105.994 88.7123 104.683 89.4221 103.727C90.1319 102.772 91.142 101.679 92.0156 100.478C91.142 100.669 91.5515 100.724 90.9782 100.068C89.2612 98.1702 87.6915 96.1438 86.2828 94.0067C78.0931 82.3474 88.4667 71.6711 90.323 67.5208C89.3949 67.9849 89.0672 68.9133 88.4121 69.787C85.2727 74.0193 79.2669 83.0574 78.7482 87.8631Z" fill="#9690D4"/>
<path fill-rule="evenodd" clip-rule="evenodd" d="M95.7305 115.059C97.481 116.816 99.4875 118.299 101.682 119.455C103.108 120.266 104.657 120.838 106.268 121.148C108.199 121.503 110.179 121.503 112.11 121.148C115.054 120.504 117.875 119.388 120.463 117.844L124.149 115.578C125.213 114.895 127.07 114.049 127.643 113.038C125.585 114.135 123.461 115.102 121.282 115.933C118.726 116.74 116.029 117.001 113.366 116.697C108.911 115.813 104.823 113.616 101.627 110.39C100.602 111.118 99.6182 111.902 98.6788 112.738C97.6563 113.46 96.6722 114.235 95.7305 115.059Z" fill="#9690D4"/>
<path fill-rule="evenodd" clip-rule="evenodd" d="M85.7656 151.238C92.099 152.221 94.4194 155.033 95.7025 161.095C95.8342 158.524 96.9148 156.092 98.7352 154.271C100.556 152.451 102.986 151.37 105.557 151.238C101.517 150.337 98.6507 149.217 96.849 145.367C96.2848 144.102 95.9166 142.757 95.757 141.381C95.3177 143.868 94.246 146.2 92.645 148.153C90.7182 149.856 88.3187 150.932 85.7656 151.238Z" fill="white"/>
<path fill-rule="evenodd" clip-rule="evenodd" d="M158.789 122.513C159.936 123.114 161.519 123.305 162.802 123.851C164.68 124.783 166.281 126.191 167.445 127.935C168.609 129.679 169.296 131.698 169.436 133.79C170.555 131.06 170.118 126.691 176.37 123.769C177.789 123.114 179.7 122.977 180.71 122.513C177.9 122.061 175.256 120.885 173.039 119.1C171.056 116.89 169.823 114.108 169.518 111.154C169.171 113.929 168.033 116.544 166.242 118.69C163.566 121.749 160.618 121.585 158.789 122.513Z" fill="#9690D4"/>
<path fill-rule="evenodd" clip-rule="evenodd" d="M30.7578 92.1776C35.6989 92.8602 37.5825 95.2903 38.5653 99.9868C38.8495 98.048 39.6618 96.2248 40.913 94.7169C42.8785 92.6145 44.8168 92.7783 46.3728 91.9864C44.3833 91.8572 42.5093 91.0066 41.1021 89.5941C39.6949 88.1815 38.8512 86.3041 38.7291 84.3137C37.3369 86.9896 38.265 90.2935 30.7578 92.1776Z" fill="#9690D4"/>
</svg>
