<svg width="240" height="240" viewBox="0 0 240 240" fill="none" xmlns="http://www.w3.org/2000/svg">
<path fill-rule="evenodd" clip-rule="evenodd" d="M109.753 10.2644C50.2075 10.2644 13.1998 74.4489 9.24304 143.171C7.80774 169.737 16.4584 189.981 31.083 204.951C54.1643 228.686 92.1029 238.924 128.645 238.924C145.83 238.924 165.498 232.448 181.208 225.001C198.859 216.663 212.242 207.084 220.776 191.145C255.805 125.719 199.712 10.2644 109.753 10.2644Z" fill="#CDE1FF"/>
<path fill-rule="evenodd" clip-rule="evenodd" d="M164.488 58.5866L145.635 105.513L142.571 137.896C142.571 137.896 145.325 153.409 145.984 154.495C146.644 155.581 113.787 159.963 113.787 159.963L96.6409 155.077L99.2012 138.943L98.0374 118.389L72.3183 122.849L57.2669 61.5341L71.3097 39.9712L97.6883 44.7414L123.02 39.9712L131.243 46.4866L164.488 58.5866Z" fill="#FDD3D4"/>
<path fill-rule="evenodd" clip-rule="evenodd" d="M118.095 214.608C116.504 219.689 118.522 221.705 123.603 220.115C125.233 214.88 123.293 212.979 118.095 214.608ZM118.095 201.926L123.603 202.314C126.319 193.239 115.379 193.317 118.095 201.926ZM123.991 178.347L118.095 177.998L117.746 183.931L123.642 184.281L123.991 178.347ZM210.691 204.99C203.67 212.747 185.399 223.722 172.404 228.996C139.152 242.613 101.864 242.53 68.6737 228.764C56.1826 223.644 37.6401 212.475 31.0066 204.99C33.2565 184.281 37.4849 176.175 50.1699 167.488C61.6698 159.789 74.0895 153.561 87.1387 148.95C85.2379 159.266 89.7378 168.341 99.9789 168.651C112.004 169.039 117.319 159.033 120.849 155.776C123.372 158.92 126.162 161.839 129.189 164.502C146.529 176.136 159.37 160.429 154.055 148.989C163.559 150.695 184.895 162.795 192.071 167.759C204.562 176.408 208.364 184.668 210.691 204.99Z" fill="#9690D4"/>
<path fill-rule="evenodd" clip-rule="evenodd" d="M190.595 108.035L142.803 113.813V93.0259C161.928 91.1643 159.755 70.1444 152.462 64.87C145.169 59.5956 140.631 66.4601 134.152 64.87C127.674 63.2799 126.122 57.6953 127.053 50.0552C116.929 54.554 112.778 56.8809 99.2396 54.4764C89.8519 52.77 79.2228 48.0386 69.7188 49.2796C62.3483 53.1578 64.2103 91.94 70.3395 107.879C73.2877 115.636 75.9643 116.761 79.0288 121.608C71.2704 122.306 69.2144 126.223 63.512 125.254C57.1113 108.345 48.7711 59.3242 56.2967 34.9302C74.2187 -5.8299 120.886 -7.10972 148.195 11.6609C152.858 14.8595 156.819 18.9771 159.833 23.7609C167.591 35.6283 160.221 32.3318 170.501 37.5674C192.379 48.9305 196.259 77.513 190.595 108.035Z" fill="#FAA8B7"/>
<path fill-rule="evenodd" clip-rule="evenodd" d="M154.056 149.066C159.37 160.39 146.53 176.213 129.19 164.579C126.163 161.916 123.373 158.997 120.85 155.853C117.32 159.11 112.005 169.116 99.9798 168.728C89.7386 168.379 85.2388 159.343 87.1396 149.027C89.6999 145.343 92.5704 138.595 99.165 136.733C99.5142 144.916 99.1651 146.08 105.605 149.027C110.376 151.287 115.59 152.46 120.869 152.46C126.149 152.46 131.363 151.287 136.134 149.027C142.535 145.963 142.069 144.877 142.573 136.694C145.512 137.637 148.077 139.483 149.905 141.969C151.966 143.867 153.412 146.339 154.056 149.066Z" fill="#FFCF70"/>
<path fill-rule="evenodd" clip-rule="evenodd" d="M118.094 214.607C123.292 212.978 125.232 214.878 123.602 220.114C118.521 221.704 116.426 219.687 118.094 214.607Z" fill="#FFCF70"/>
<path fill-rule="evenodd" clip-rule="evenodd" d="M118.094 201.926C115.378 193.316 126.318 193.239 123.602 202.314L118.094 201.926Z" fill="#FFCF70"/>
<path d="M118.064 177.751L123.988 178.112L123.627 184.034L117.703 183.673L118.064 177.751Z" fill="#FFCF70"/>
<path fill-rule="evenodd" clip-rule="evenodd" d="M57.8889 35.3573C60.4801 32.5085 63.4727 30.0523 66.7724 28.0662C80.1168 19.4566 103.12 18.9137 120.771 27.4069C128.264 30.8138 134.893 35.8641 140.167 42.183C145.433 48.2817 148.446 56.0031 148.701 64.0561C147.619 74.4538 145.004 84.6344 140.943 94.2674C138.927 97.9739 136.305 101.317 133.184 104.157C127.858 109.234 121.076 112.516 113.788 113.542C113.316 112.406 112.717 111.326 112.004 110.323C108.784 106.251 104.866 106.174 99.2413 104.777C96.0191 103.749 92.685 103.111 89.3105 102.877C86.6651 103.119 84.204 104.335 82.4056 106.29C80.4479 108.399 79.36 111.169 79.36 114.046C79.36 116.923 80.4479 119.694 82.4056 121.803C84.7854 123.884 87.7549 125.172 90.901 125.487C94.2759 126.34 97.7672 127.271 101.181 128.008C109.44 129.149 117.853 128.271 125.698 125.448C131.959 123.143 137.697 119.609 142.572 115.055C143.227 114.312 143.955 113.636 144.744 113.038C148.535 109.098 151.678 104.582 154.055 99.6581C154.675 98.4559 155.839 98.4947 158.438 97.3312C159.924 96.5866 161.295 95.6333 162.511 94.5001C163.982 93.1013 164.928 91.2389 165.188 89.2257C166.313 84.6882 167.748 79.7629 168.64 75.2642C168.765 73.5209 168.522 71.771 167.927 70.1276C167.332 68.4842 166.399 66.9839 165.188 65.7237C161.852 61.3801 163.365 65.7237 162.589 58.6654C161.901 53.518 160.423 48.5078 158.205 43.8118L154.598 37.2964C149.902 30.2667 143.88 24.2202 136.87 19.4954C114.021 4.33155 66.3456 3.74982 58.6647 31.9057C58.238 33.1079 58.2381 34.2326 57.8889 35.3573Z" fill="#645F9E"/>
</svg>
