<svg width="80" height="80" viewBox="0 0 80 80" fill="none" xmlns="http://www.w3.org/2000/svg">
<path fill-rule="evenodd" clip-rule="evenodd" d="M48.4982 7.31348C66.6289 7.31348 79.0898 29.6574 79.0898 47.7922C79.0898 65.927 60.2535 77.4329 42.1355 77.4329C24.0174 77.4329 12.8164 60.1803 12.8164 42.0581C12.8164 23.936 30.3801 7.31348 48.4982 7.31348Z" fill="#CDE1FF"/>
<path fill-rule="evenodd" clip-rule="evenodd" d="M52.2759 7.65381C61.2594 9.2417 68.5797 16.3368 73.2919 25.2971C72.7648 29.0196 70.9504 32.4398 68.1639 34.9631C71.7421 44.251 69.8774 55.6057 63.6659 62.6882C53.0823 74.8495 27.1273 70.5143 25.9429 70.0606L24.683 70.8671C17.1233 64.2005 12.7891 53.3121 12.7891 42.0708C12.9323 35.1687 15.2665 28.4911 19.4542 23.0035C25.9429 19.626 34.0192 18.3532 41.8183 18.8069C42.5051 16.2287 43.8197 13.8608 45.6445 11.9146C47.4693 9.96841 49.7476 8.50457 52.2759 7.65381Z" fill="#B0C8EB"/>
<path fill-rule="evenodd" clip-rule="evenodd" d="M11.4312 60.8862C10.8769 63.8604 8.50816 69.7079 12.3384 69.7079C15.0977 69.7079 17.1892 67.7545 20.4525 65.7255C21.5864 66.1666 47.6044 70.5018 58.1754 58.3532C68.7464 46.2045 66.6927 21.4913 46.2941 16.0597C27.1932 11.0188 0.25548 16.9419 0.620865 41.0628C0.734261 49.0148 4.03533 55.9083 8.53335 59.3109C9.41959 59.9711 10.3954 60.5015 11.4312 60.8862Z" fill="#FFCF70"/>
<path d="M33.3135 30.2749H15.082C14.3723 30.2749 13.7969 30.8504 13.7969 31.5603V34.2698C13.7969 34.9798 14.3723 35.5553 15.082 35.5553H33.3135C34.0233 35.5553 34.5987 34.9798 34.5987 34.2698V31.5603C34.5987 30.8504 34.0233 30.2749 33.3135 30.2749Z" fill="white"/>
<path d="M50.0205 39.3611H15.082C14.3723 39.3611 13.7969 39.9366 13.7969 40.6465V43.356C13.7969 44.066 14.3723 44.6415 15.082 44.6415H50.0205C50.7302 44.6415 51.3056 44.066 51.3056 43.356V40.6465C51.3056 39.9366 50.7302 39.3611 50.0205 39.3611Z" fill="white"/>
<path d="M50.0205 48.4475H15.082C14.3723 48.4475 13.7969 49.023 13.7969 49.7329V52.4425C13.7969 53.1524 14.3723 53.7279 15.082 53.7279H50.0205C50.7302 53.7279 51.3056 53.1524 51.3056 52.4425V49.7329C51.3056 49.023 50.7302 48.4475 50.0205 48.4475Z" fill="white"/>
<path fill-rule="evenodd" clip-rule="evenodd" d="M51.85 34.6982C55.0367 34.6957 58.1511 33.7483 60.7995 31.9756C63.4479 30.203 65.5114 27.6848 66.7291 24.7393C67.9469 21.7939 68.2642 18.5534 67.641 15.4276C67.0178 12.3017 65.482 9.43088 63.2278 7.17795C60.9736 4.92501 58.1022 3.39113 54.9766 2.77022C51.851 2.14931 48.6115 2.46924 45.6677 3.68958C42.7238 4.90991 40.2078 6.97585 38.4376 9.62623C36.6675 12.2766 35.7227 15.3924 35.7227 18.5798C35.7327 22.8538 37.4354 26.9497 40.4581 29.9707C43.4807 32.9916 47.577 34.6916 51.85 34.6982Z" fill="#FAA8B7"/>
<path fill-rule="evenodd" clip-rule="evenodd" d="M53.4743 12.3798C53.2363 14.3656 53.1563 16.3673 53.2349 18.3659C53.2657 20.3025 53.5108 22.2298 53.9657 24.1125C53.9657 24.289 54.0539 24.478 54.1043 24.667C54.1489 24.8497 54.1826 25.0349 54.2051 25.2215C54.2142 25.3706 54.1798 25.5191 54.106 25.6489C54.0321 25.7787 53.9221 25.8842 53.7893 25.9525C53.4937 26.0953 53.1722 26.1767 52.8443 26.1919C52.4809 26.2069 52.117 26.1773 51.7608 26.1037C51.4949 26.0692 51.2382 25.9836 51.0048 25.8517C50.7256 25.6564 50.5141 25.3788 50.4 25.0577C50.266 24.7216 50.1565 24.3763 50.0724 24.0243C49.8891 23.1947 49.7712 22.3519 49.7197 21.5038C49.6315 20.5083 49.5811 19.4749 49.5685 18.4163C49.5301 17.7699 49.5301 17.1219 49.5685 16.4755C48.7573 16.5361 47.9424 16.4288 47.1745 16.1605C45.9146 15.5429 46.9604 14.4087 47.5903 13.8668C48.6991 12.9091 50.7276 11.2077 50.8032 11.1699C51.0515 11.0498 51.3215 10.9812 51.597 10.9683C51.8736 10.9425 52.152 10.9425 52.4285 10.9683C52.733 10.9888 53.0235 11.1033 53.2601 11.296C53.3758 11.4485 53.4552 11.6253 53.4923 11.8131C53.5294 12.0009 53.5232 12.1947 53.4743 12.3798Z" fill="white"/>
</svg>
