<svg width="40" height="40" viewBox="0 0 40 40" fill="none" xmlns="http://www.w3.org/2000/svg">
<circle cx="20" cy="20" r="20" fill="#D7C3E6"/>
<path d="M8.40227 19.7761C15.7336 16.5508 25.2209 12.6186 26.5305 12.0743C29.9658 10.6498 31.0199 10.9228 30.4943 14.0775C30.1169 16.3449 29.0278 23.8518 28.1598 28.5243C27.6447 31.2951 26.4891 31.6236 24.672 30.4248C23.7982 29.8479 19.3876 26.9312 18.4304 26.2464C17.5565 25.6222 16.3514 24.8715 17.8628 23.3927C18.4006 22.866 21.9263 19.4996 24.6732 16.8792C25.0331 16.5351 24.581 15.9698 24.1657 16.2457C20.4633 18.701 15.3299 22.1088 14.6766 22.5527C13.6896 23.223 12.7417 23.5304 11.0401 23.0416C9.75444 22.6723 8.49852 22.2319 8.00969 22.0639C6.12727 21.4176 6.5741 20.5805 8.40227 19.7761Z" fill="white"/>
</svg>
