<svg width="40" height="40" viewBox="0 0 40 40" fill="none" xmlns="http://www.w3.org/2000/svg">
<circle cx="20" cy="20" r="20" fill="#D7C3E6"/>
<path fill-rule="evenodd" clip-rule="evenodd" d="M19.2103 28.9329H20.8241C20.8241 28.9329 21.3115 28.8771 21.5607 28.5986C21.7897 28.3426 21.7824 27.8623 21.7824 27.8623C21.7824 27.8623 21.7508 25.6129 22.7557 25.2817C23.7467 24.9552 25.0189 27.4556 26.3673 28.4171C27.3869 29.1444 28.1618 28.9852 28.1618 28.9852L31.7676 28.9329C31.7676 28.9329 33.6537 28.812 32.7593 27.2716C32.6861 27.1458 32.2383 26.1321 30.0783 24.0495C27.8172 21.8697 28.1203 22.2224 30.8437 18.4519C32.5023 16.1556 33.1653 14.7538 32.9581 14.1535C32.7607 13.5815 31.5407 13.7326 31.5407 13.7326L27.481 13.7586C27.481 13.7586 27.1798 13.7161 26.9567 13.8547C26.7385 13.9903 26.5985 14.3072 26.5985 14.3072C26.5985 14.3072 25.9557 16.0839 25.099 17.5952C23.2913 20.7837 22.5683 20.9525 22.2728 20.7542C21.5853 20.2927 21.7571 18.9006 21.7571 17.9113C21.7571 14.8212 22.2084 13.5328 20.8784 13.1993C20.4372 13.0887 20.1121 13.0155 18.9835 13.0035C17.5348 12.9882 16.309 13.0082 15.6147 13.3614C15.1529 13.5964 14.7965 14.1198 15.0137 14.1499C15.2821 14.1871 15.8896 14.3203 16.2117 14.7756C16.6279 15.3637 16.6133 16.6839 16.6133 16.6839C16.6133 16.6839 16.8524 20.3214 16.055 20.7732C15.5079 21.0831 14.7572 20.4504 13.1454 17.5576C12.3198 16.0758 11.6962 14.4377 11.6962 14.4377C11.6962 14.4377 11.5761 14.1317 11.3616 13.9678C11.1015 13.7693 10.738 13.7064 10.738 13.7064L6.88003 13.7326C6.88003 13.7326 6.30102 13.7494 6.08824 14.011C5.89894 14.2438 6.07312 14.7249 6.07312 14.7249C6.07312 14.7249 9.0933 22.0648 12.5134 25.7637C15.6496 29.1555 19.2103 28.9329 19.2103 28.9329Z" fill="white"/>
</svg>
