<svg width="141" height="38" viewBox="0 0 141 38" fill="none" xmlns="http://www.w3.org/2000/svg">
<g clip-path="url(#clip0_1_1128)">
<path fill-rule="evenodd" clip-rule="evenodd" d="M30.8961 31.9151C33.4468 35.0476 37.3863 37.341 41.5049 37.341C45.9034 37.341 49.8693 34.8554 52.4951 31.4595C55.1729 27.9739 56.4866 23.575 56.4866 19.2158C56.4866 14.6643 55.0458 10.0507 52.1513 6.48877C49.639 3.39659 45.7251 1.07634 41.6449 1.07634C37.2072 1.07634 33.2165 3.523 30.5643 6.94504C27.8745 10.4307 26.5736 14.8296 26.5736 19.2023C26.5736 23.753 27.9896 28.3547 30.8961 31.9151ZM41.5304 1.59561C48.3772 1.59561 50.1874 14.17 50.1874 19.2025C50.1874 24.2349 48.3772 36.8205 41.5304 36.8213C34.6708 36.8213 32.8726 24.2469 32.8726 19.2025C32.8726 14.1573 34.658 1.59561 41.5304 1.59561Z" fill="#CDE1FF"/>
<path d="M12.5234 1.82432H0.117188V2.17812H3.38183L16.1959 37.0104L27.2117 2.17812H30.1701V1.82432H23.476V2.17812H26.5488L18.7329 27.377L9.47622 2.17812H12.5234V1.82432Z" fill="#CDE1FF"/>
<path d="M83.645 13.3209V1.21546H83.3667C82.5127 1.849 81.518 2.57156 80.4082 2.57156C79.5166 2.57156 78.6115 2.28059 77.7824 1.97616L77.0548 1.69717C76.0602 1.30373 75.0023 0.974609 73.9309 0.974609C71.1899 0.974609 68.6144 2.17812 66.4852 3.81396C61.7421 7.45142 59.5105 13.6754 59.5105 19.494C59.5105 27.4533 64.3303 37.0485 73.3824 37.0485C75.3582 37.0485 77.0676 36.4793 78.853 35.6932L79.6438 35.2623C80.5218 34.7806 81.5037 34.4253 82.5119 34.4253C83.9008 34.4253 84.985 35.1733 85.6742 36.314H85.915V22.3199H88.644V21.9534H76.9773V22.3199H80.1645V31.6757C80.1645 32.2965 80.1389 32.9039 79.8071 33.4492C78.5197 35.5413 75.9435 36.7583 73.5216 36.7583C70.4736 36.7583 68.8289 35.3266 67.6943 32.411C66.0751 28.2537 65.7185 23.6782 65.7185 19.2412C65.7185 14.285 66.3813 1.29251 73.6743 1.29251C76.8494 1.29251 79.2849 4.05482 80.8145 6.5142C82.1019 8.61828 82.8415 10.9378 83.3644 13.3209H83.645Z" fill="#CDE1FF"/>
<path d="M99.5702 1.82432H87.1271V2.17812H90.5302V27.8079C90.5302 34.1718 96.7028 36.8712 102.3 36.8712C107.246 36.8712 112.525 34.4246 112.525 28.8992V2.17812H118.697V35.9587H115.777V36.314H140.882V23.195H140.601C140.538 24.4629 140.435 25.7427 140.219 26.9978C139.824 29.2418 138.688 31.3204 137.057 32.9174C135.143 34.7926 132.454 35.9587 129.75 35.9587H124.536V18.8216C125.161 18.7707 125.772 18.7326 126.397 18.7326C130.363 18.7326 131.854 22.3326 132.402 25.6911H132.721V11.6342H132.402C132.211 15.336 131.077 18.3271 126.704 18.3271C125.976 18.3271 125.249 18.2763 124.536 18.2007V2.17812H128.016C131.242 2.17812 134.379 2.43168 136.686 5.03019C138.968 7.60326 139.606 10.9879 139.976 14.2835H140.218V1.82358H108.1V2.17812H112.001V28.7982C112.001 32.969 108.546 35.8076 104.44 35.8076C100.628 35.8076 96.268 33.2465 96.268 29.0391V2.17887H99.5702V1.82432Z" fill="#CDE1FF"/>
</g>
<defs>
<clipPath id="clip0_1_1128">
<rect width="141" height="38" fill="white"/>
</clipPath>
</defs>
</svg>
