<svg width="150" height="150" viewBox="0 0 150 150" fill="none" xmlns="http://www.w3.org/2000/svg">
<path fill-rule="evenodd" clip-rule="evenodd" d="M40.3191 25.8256C25.1724 46.4847 -12.9985 96.9999 15.0891 122.501C34.362 140 47.0485 148.46 81.3665 147.725C103.421 147.293 117.691 141.421 128.4 127.753C139.389 113.729 147.729 96.767 149.56 79.0445C150.779 67.2504 149.259 54.4242 143.965 44.9488C141.482 40.3115 137.73 36.4772 133.146 33.8945C117.307 25.2415 114.538 21.0665 109.344 19.1412C104.151 17.2159 97.1406 17.4538 73.7931 17.4538C60.9618 17.4538 42.9589 15.6367 37.8307 30.4334L40.3191 25.8256Z" fill="#FACD6E"/>
<path fill-rule="evenodd" clip-rule="evenodd" d="M62.8626 2.41931C98.9765 2.41931 136.021 28.3783 136.021 64.4614C136.021 100.544 111.916 136.108 75.8022 136.108C39.6883 136.108 0.804688 108.678 0.804688 72.5953C0.804688 36.5122 26.7703 2.41931 62.8626 2.41931Z" fill="#9690D4"/>
<path fill-rule="evenodd" clip-rule="evenodd" d="M62.6483 16.1558C91.7515 16.1558 121.612 37.0744 121.612 66.1702C121.612 95.266 102.138 123.929 73.0778 123.929C44.0179 123.929 12.6211 101.821 12.6211 72.7249C12.6211 43.6291 33.5451 16.1558 62.6483 16.1558Z" fill="#CDE1FF"/>
<path fill-rule="evenodd" clip-rule="evenodd" d="M109.819 36.6419C117.297 44.6688 121.504 55.2012 121.611 66.1703C121.611 95.2661 102.137 123.929 73.0772 123.929C59.0631 123.74 45.4536 119.205 34.1288 110.95C26.3856 102.847 21.975 92.1282 21.7734 80.9237C21.7734 51.8279 42.6974 24.3546 71.8006 24.3546C85.4383 24.4275 98.719 28.7198 109.819 36.6419Z" fill="white"/>
<path d="M38.4737 101.624L64.0746 76.994C64.3517 76.7275 64.7233 76.5819 65.1077 76.5893C65.4921 76.5967 65.8579 76.7564 66.1245 77.0334L66.3496 77.2672C66.6202 77.5483 66.768 77.9254 66.7605 78.3155C66.753 78.7055 66.5908 79.0766 66.3096 79.3471L40.7243 103.962C40.4472 104.229 40.0756 104.374 39.6912 104.367C39.3068 104.36 38.941 104.2 38.6744 103.923L38.4193 103.658C38.1527 103.381 38.0071 103.009 38.0145 102.625C38.0218 102.241 38.1816 101.875 38.4587 101.609L38.4737 101.624Z" fill="#CDE1FF"/>
<path fill-rule="evenodd" clip-rule="evenodd" d="M87.3571 92.9082L85.0202 95.331C84.6516 95.6956 84.1539 95.9001 83.6354 95.9001C83.1168 95.9001 82.6192 95.6956 82.2505 95.331L67.6016 81.3131C69.2104 79.3385 70.416 77.0674 71.1502 74.6287L87.2922 90.0743C87.4869 90.2535 87.6435 90.4701 87.7526 90.7112C87.8616 90.9523 87.921 91.2129 87.927 91.4775C87.9331 91.742 87.8857 92.005 87.7878 92.2508C87.6899 92.4967 87.5434 92.7202 87.3571 92.9082Z" fill="#CDE1FF"/>
<path d="M71.4753 39.2594H68.1214C67.0339 39.2594 66.1523 40.1408 66.1523 41.228V74.6286C66.1523 75.7158 67.0339 76.5971 68.1214 76.5971H71.4753C72.5628 76.5971 73.4444 75.7158 73.4444 74.6286V41.228C73.4444 40.1408 72.5628 39.2594 71.4753 39.2594Z" fill="#CDE1FF"/>
<path fill-rule="evenodd" clip-rule="evenodd" d="M70.1581 67.6411C71.7278 67.6454 73.261 68.1147 74.5641 68.9896C75.8672 69.8646 76.8816 71.106 77.4794 72.5571C78.0771 74.0081 78.2313 75.6037 77.9224 77.1423C77.6136 78.681 76.8555 80.0936 75.7441 81.2017C74.6326 82.3099 73.2176 83.0639 71.6778 83.3684C70.1379 83.673 68.5424 83.5145 67.0926 82.913C65.6428 82.3115 64.4038 81.2939 63.5322 79.9888C62.6605 78.6837 62.1953 77.1496 62.1953 75.5803C62.1953 74.5359 62.4014 73.5017 62.8019 72.5371C63.2023 71.5725 63.7892 70.6963 64.5289 69.9588C65.2686 69.2213 66.1466 68.637 67.1125 68.2393C68.0785 67.8416 69.1135 67.6383 70.1581 67.6411Z" fill="#CDE1FF"/>
<path d="M68.1238 37.4855H64.7699C63.6824 37.4855 62.8008 38.3668 62.8008 39.454V72.8547C62.8008 73.9419 63.6824 74.8232 64.7699 74.8232H68.1238C69.2112 74.8232 70.0928 73.9419 70.0928 72.8547V39.454C70.0928 38.3668 69.2112 37.4855 68.1238 37.4855Z" fill="#FAA8B7"/>
<path fill-rule="evenodd" clip-rule="evenodd" d="M86.3415 89.1657L84.0262 91.5886C83.8451 91.7717 83.6295 91.9171 83.3917 92.0163C83.154 92.1156 82.899 92.1667 82.6414 92.1667C82.3838 92.1667 82.1287 92.1156 81.891 92.0163C81.6533 91.9171 81.4376 91.7717 81.2565 91.5886L66.5859 77.5923C68.1898 75.6063 69.3948 73.3292 70.1346 70.8862L86.2766 86.3319C86.4768 86.5077 86.6384 86.7231 86.7511 86.9645C86.8638 87.206 86.9251 87.4682 86.9312 87.7346C86.9373 88.0009 86.8881 88.2657 86.7866 88.512C86.685 88.7584 86.5335 88.9809 86.3415 89.1657Z" fill="#FAA8B7"/>
<path d="M63.7549 74.9288L38.1384 99.5738C37.5615 100.129 37.5438 101.046 38.099 101.623L38.3391 101.873C38.8943 102.449 39.812 102.467 40.389 101.912L66.0055 77.2669C66.5824 76.7118 66.6 75.7943 66.0449 75.2175L65.8048 74.9681C65.2496 74.3914 64.3318 74.3737 63.7549 74.9288Z" fill="#FFCF70"/>
<path fill-rule="evenodd" clip-rule="evenodd" d="M66.6503 80.7508C68.2261 80.7508 69.7665 80.2833 71.0765 79.4076C72.3864 78.5319 73.407 77.2873 74.0091 75.8314C74.6111 74.3755 74.7675 72.7738 74.4585 71.229C74.1495 69.6841 73.389 68.2657 72.2732 67.1532C71.1574 66.0407 69.7366 65.2843 68.1905 64.9796C66.6444 64.6748 65.0427 64.8356 63.5881 65.4414C62.1335 66.0473 60.8913 67.071 60.019 68.383C59.1466 69.695 58.6832 71.2362 58.6875 72.8116C58.6933 74.9192 59.5347 76.9385 61.0274 78.4268C62.5201 79.915 64.5422 80.7508 66.6503 80.7508Z" fill="#6B66A6"/>
<path fill-rule="evenodd" clip-rule="evenodd" d="M67.8848 31.8827C68.8648 31.8827 69.8229 31.5921 70.6377 31.0478C71.4526 30.5035 72.0877 29.7298 72.4627 28.8246C72.8377 27.9194 72.9359 26.9233 72.7447 25.9624C72.5535 25.0014 72.0816 24.1187 71.3886 23.4259C70.6956 22.7331 69.8127 22.2613 68.8515 22.0702C67.8903 21.879 66.894 21.9771 65.9886 22.3521C65.0831 22.727 64.3092 23.362 63.7648 24.1766C63.2203 24.9913 62.9297 25.9491 62.9297 26.9288C62.9297 28.2427 63.4517 29.5027 64.381 30.4317C65.3102 31.3607 66.5706 31.8827 67.8848 31.8827Z" fill="#CDE1FF"/>
<path fill-rule="evenodd" clip-rule="evenodd" d="M23.1817 72.7035C24.1617 72.7035 25.1197 72.413 25.9346 71.8686C26.7495 71.3243 27.3845 70.5506 27.7596 69.6454C28.1346 68.7402 28.2328 67.7441 28.0416 66.7832C27.8504 65.8222 27.3784 64.9395 26.6855 64.2467C25.9925 63.5539 25.1096 63.0821 24.1484 62.891C23.1872 62.6998 22.1909 62.7979 21.2854 63.1729C20.38 63.5478 19.6061 64.1828 19.0616 64.9974C18.5172 65.8121 18.2266 66.7699 18.2266 67.7496C18.2323 69.0617 18.7561 70.3184 19.6842 71.2462C20.6122 72.174 21.8692 72.6978 23.1817 72.7035Z" fill="#CDE1FF"/>
<path fill-rule="evenodd" clip-rule="evenodd" d="M113.539 74.499C114.52 74.5032 115.48 74.2164 116.298 73.6746C117.115 73.1329 117.754 72.3607 118.132 71.4559C118.511 70.5511 118.612 69.5544 118.423 68.592C118.234 67.6296 117.764 66.7449 117.072 66.0499C116.38 65.355 115.497 64.881 114.535 64.6881C113.573 64.4952 112.576 64.592 111.669 64.9663C110.763 65.3406 109.988 65.9755 109.442 66.7906C108.897 67.6058 108.606 68.5644 108.606 69.5451C108.603 70.1946 108.728 70.8383 108.975 71.4392C109.221 72.0401 109.584 72.5864 110.043 73.0467C110.501 73.507 111.046 73.8722 111.646 74.1215C112.246 74.3707 112.889 74.499 113.539 74.499Z" fill="#CDE1FF"/>
<path fill-rule="evenodd" clip-rule="evenodd" d="M67.8848 117.115C68.8648 117.115 69.8229 116.824 70.6377 116.28C71.4526 115.735 72.0877 114.962 72.4627 114.057C72.8377 113.151 72.9359 112.155 72.7447 111.194C72.5535 110.233 72.0816 109.351 71.3886 108.658C70.6956 107.965 69.8127 107.493 68.8515 107.302C67.8903 107.111 66.894 107.209 65.9886 107.584C65.0831 107.959 64.3092 108.594 63.7648 109.409C63.2203 110.223 62.9297 111.181 62.9297 112.161C62.9354 113.473 63.4593 114.73 64.3873 115.657C65.3153 116.585 66.5724 117.109 67.8848 117.115Z" fill="#CDE1FF"/>
<path fill-rule="evenodd" clip-rule="evenodd" d="M99.9101 103.075C100.891 103.08 101.851 102.793 102.669 102.251C103.487 101.709 104.125 100.937 104.503 100.032C104.882 99.1274 104.983 98.1307 104.794 97.1683C104.605 96.2059 104.135 95.3212 103.443 94.6262C102.751 93.9312 101.868 93.4573 100.906 93.2644C99.9446 93.0715 98.9472 93.1683 98.0405 93.5426C97.1338 93.9169 96.3587 94.5519 95.8132 95.367C95.2678 96.1821 94.9766 97.1407 94.9766 98.1214C94.9738 98.7709 95.0993 99.4146 95.3459 100.016C95.5926 100.616 95.9555 101.163 96.4139 101.623C96.8723 102.083 97.4171 102.449 98.0171 102.698C98.6171 102.947 99.2604 103.075 99.9101 103.075Z" fill="#CDE1FF"/>
<path fill-rule="evenodd" clip-rule="evenodd" d="M32.5918 99.0733C33.5719 99.0733 34.5299 98.7828 35.3447 98.2385C36.1596 97.6942 36.7947 96.9205 37.1698 96.0153C37.5448 95.1101 37.6429 94.114 37.4517 93.1531C37.2605 92.1921 36.7886 91.3094 36.0956 90.6166C35.4026 89.9238 34.5197 89.452 33.5585 89.2608C32.5973 89.0697 31.601 89.1678 30.6956 89.5427C29.7902 89.9177 29.0163 90.5526 28.4718 91.3673C27.9273 92.1819 27.6367 93.1397 27.6367 94.1195C27.6424 95.4316 28.1663 96.6883 29.0943 97.6161C30.0224 98.5439 31.2794 99.0677 32.5918 99.0733Z" fill="#CDE1FF"/>
<path fill-rule="evenodd" clip-rule="evenodd" d="M99.2168 45.6409C100.197 45.6409 101.155 45.3503 101.97 44.806C102.785 44.2616 103.42 43.488 103.795 42.5828C104.17 41.6776 104.268 40.6815 104.077 39.7206C103.886 38.7596 103.414 37.8769 102.721 37.1841C102.028 36.4913 101.145 36.0195 100.184 35.8283C99.2223 35.6372 98.226 35.7353 97.3206 36.1102C96.4152 36.4852 95.6413 37.1201 95.0968 37.9348C94.5523 38.7494 94.2617 39.7072 94.2617 40.687C94.2674 41.9991 94.7913 43.2558 95.7193 44.1836C96.6474 45.1114 97.9044 45.6352 99.2168 45.6409Z" fill="#CDE1FF"/>
<path fill-rule="evenodd" clip-rule="evenodd" d="M36.9629 45.3597C37.943 45.3597 38.901 45.0692 39.7158 44.5249C40.5307 43.9805 41.1658 43.2068 41.5409 42.3016C41.9159 41.3964 42.014 40.4004 41.8228 39.4394C41.6316 38.4785 41.1597 37.5958 40.4667 36.903C39.7737 36.2102 38.8908 35.7384 37.9296 35.5472C36.9684 35.3561 35.9721 35.4542 35.0667 35.8291C34.1613 36.2041 33.3874 36.839 32.8429 37.6537C32.2984 38.4683 32.0078 39.4261 32.0078 40.4059C32.0135 41.718 32.5374 42.9747 33.4654 43.9025C34.3935 44.8303 35.6505 45.354 36.9629 45.3597Z" fill="#CDE1FF"/>
</svg>
