<svg width="488" height="210" viewBox="0 0 488 210" fill="none" xmlns="http://www.w3.org/2000/svg">
<rect x="8" y="10" width="480" height="200" rx="20" fill="#CDE1FF"/>
<rect width="480" height="200" rx="20" fill="white"/>
<path d="M47.35 31.346C46.8647 31.542 46.398 31.6913 45.95 31.794C45.502 31.8873 45.0727 31.934 44.662 31.934C43.346 31.934 42.338 31.6213 41.638 30.996C40.938 30.3613 40.588 29.4513 40.588 28.266V25.2H42.828V28.014C42.828 28.686 43.01 29.1947 43.374 29.54C43.738 29.876 44.256 30.044 44.928 30.044C45.3573 30.044 45.7727 29.9973 46.174 29.904C46.5753 29.8013 46.9487 29.6567 47.294 29.47L47.35 31.346ZM47.028 35V25.2H49.268V35H47.028ZM53.2863 35V28.756L53.7763 29.26H50.7383V27.468H58.0043V29.26H54.9663L55.4563 28.756V35H53.2863ZM62.5221 35.112C61.7194 35.112 61.0054 34.944 60.3801 34.608C59.7641 34.272 59.2741 33.8147 58.9101 33.236C58.5554 32.648 58.3781 31.9807 58.3781 31.234C58.3781 30.478 58.5554 29.8107 58.9101 29.232C59.2741 28.644 59.7641 28.1867 60.3801 27.86C61.0054 27.524 61.7194 27.356 62.5221 27.356C63.3154 27.356 64.0247 27.524 64.6501 27.86C65.2754 28.1867 65.7654 28.6393 66.1201 29.218C66.4747 29.7967 66.6521 30.4687 66.6521 31.234C66.6521 31.9807 66.4747 32.648 66.1201 33.236C65.7654 33.8147 65.2754 34.272 64.6501 34.608C64.0247 34.944 63.3154 35.112 62.5221 35.112ZM62.5221 33.32C62.8861 33.32 63.2127 33.236 63.5021 33.068C63.7914 32.9 64.0201 32.662 64.1881 32.354C64.3561 32.0367 64.4401 31.6633 64.4401 31.234C64.4401 30.7953 64.3561 30.422 64.1881 30.114C64.0201 29.806 63.7914 29.568 63.5021 29.4C63.2127 29.232 62.8861 29.148 62.5221 29.148C62.1581 29.148 61.8314 29.232 61.5421 29.4C61.2527 29.568 61.0194 29.806 60.8421 30.114C60.6741 30.422 60.5901 30.7953 60.5901 31.234C60.5901 31.6633 60.6741 32.0367 60.8421 32.354C61.0194 32.662 61.2527 32.9 61.5421 33.068C61.8314 33.236 62.1581 33.32 62.5221 33.32ZM72.3991 35V27.468H76.2491C77.1917 27.468 77.9291 27.6407 78.4611 27.986C78.9931 28.322 79.2591 28.798 79.2591 29.414C79.2591 30.03 79.0071 30.5153 78.5031 30.87C78.0084 31.2153 77.3504 31.388 76.5291 31.388L76.7531 30.884C77.6677 30.884 78.3491 31.052 78.7971 31.388C79.2544 31.724 79.4831 32.214 79.4831 32.858C79.4831 33.5207 79.2311 34.0433 78.7271 34.426C78.2231 34.8087 77.4531 35 76.4171 35H72.3991ZM74.4011 33.516H76.2351C76.6364 33.516 76.9351 33.4507 77.1311 33.32C77.3364 33.18 77.4391 32.97 77.4391 32.69C77.4391 32.4007 77.3457 32.1907 77.1591 32.06C76.9724 31.92 76.6784 31.85 76.2771 31.85H74.4011V33.516ZM74.4011 30.562H76.0531C76.4357 30.562 76.7204 30.492 76.9071 30.352C77.1031 30.212 77.2011 30.0113 77.2011 29.75C77.2011 29.4793 77.1031 29.2787 76.9071 29.148C76.7204 29.0173 76.4357 28.952 76.0531 28.952H74.4011V30.562ZM85.756 35V33.53L85.616 33.208V30.576C85.616 30.1093 85.4714 29.7453 85.182 29.484C84.902 29.2227 84.468 29.092 83.88 29.092C83.4787 29.092 83.082 29.1573 82.69 29.288C82.3074 29.4093 81.9807 29.5773 81.71 29.792L80.926 28.266C81.3367 27.9767 81.8314 27.7527 82.41 27.594C82.9887 27.4353 83.5767 27.356 84.174 27.356C85.322 27.356 86.2134 27.6267 86.848 28.168C87.4827 28.7093 87.8 29.554 87.8 30.702V35H85.756ZM83.46 35.112C82.872 35.112 82.368 35.014 81.948 34.818C81.528 34.6127 81.206 34.3373 80.982 33.992C80.758 33.6467 80.646 33.2593 80.646 32.83C80.646 32.382 80.7534 31.99 80.968 31.654C81.192 31.318 81.542 31.0567 82.018 30.87C82.494 30.674 83.1147 30.576 83.88 30.576H85.882V31.85H84.118C83.6047 31.85 83.25 31.934 83.054 32.102C82.8674 32.27 82.774 32.48 82.774 32.732C82.774 33.012 82.8814 33.236 83.096 33.404C83.32 33.5627 83.6234 33.642 84.006 33.642C84.37 33.642 84.6967 33.558 84.986 33.39C85.2754 33.2127 85.4854 32.956 85.616 32.62L85.952 33.628C85.7934 34.1133 85.504 34.482 85.084 34.734C84.664 34.986 84.1227 35.112 83.46 35.112ZM93.4213 35.112C92.6093 35.112 91.8859 34.9487 91.2513 34.622C90.6166 34.286 90.1173 33.824 89.7533 33.236C89.3986 32.648 89.2213 31.9807 89.2213 31.234C89.2213 30.478 89.3986 29.8107 89.7533 29.232C90.1173 28.644 90.6166 28.1867 91.2513 27.86C91.8859 27.524 92.6093 27.356 93.4213 27.356C94.2146 27.356 94.9053 27.524 95.4933 27.86C96.0813 28.1867 96.5153 28.658 96.7953 29.274L95.1013 30.184C94.9053 29.8293 94.6579 29.568 94.3593 29.4C94.0699 29.232 93.7526 29.148 93.4073 29.148C93.0339 29.148 92.6979 29.232 92.3993 29.4C92.1006 29.568 91.8626 29.806 91.6853 30.114C91.5173 30.422 91.4333 30.7953 91.4333 31.234C91.4333 31.6727 91.5173 32.046 91.6853 32.354C91.8626 32.662 92.1006 32.9 92.3993 33.068C92.6979 33.236 93.0339 33.32 93.4073 33.32C93.7526 33.32 94.0699 33.2407 94.3593 33.082C94.6579 32.914 94.9053 32.648 95.1013 32.284L96.7953 33.208C96.5153 33.8147 96.0813 34.286 95.4933 34.622C94.9053 34.9487 94.2146 35.112 93.4213 35.112ZM106.105 35.168C105.489 35.168 104.929 35.0793 104.425 34.902C103.921 34.7153 103.483 34.4307 103.109 34.048C102.745 33.656 102.461 33.1567 102.255 32.55C102.059 31.9433 101.961 31.22 101.961 30.38C101.961 29.7827 102.013 29.2367 102.115 28.742C102.218 28.2473 102.372 27.7993 102.577 27.398C102.783 26.9873 103.044 26.628 103.361 26.32C103.688 26.0027 104.066 25.7413 104.495 25.536C104.934 25.3213 105.429 25.158 105.979 25.046L109.563 24.332L109.857 26.208L106.693 26.838C106.507 26.8753 106.292 26.9267 106.049 26.992C105.816 27.048 105.578 27.1367 105.335 27.258C105.102 27.3793 104.883 27.552 104.677 27.776C104.481 27.9907 104.323 28.2753 104.201 28.63C104.08 28.9753 104.019 29.4047 104.019 29.918C104.019 30.0767 104.024 30.198 104.033 30.282C104.052 30.366 104.066 30.4547 104.075 30.548C104.094 30.6413 104.103 30.786 104.103 30.982L103.403 30.296C103.609 29.8573 103.87 29.484 104.187 29.176C104.514 28.868 104.887 28.6347 105.307 28.476C105.737 28.308 106.213 28.224 106.735 28.224C107.445 28.224 108.065 28.3687 108.597 28.658C109.139 28.938 109.559 29.3347 109.857 29.848C110.156 30.3613 110.305 30.9447 110.305 31.598C110.305 32.3073 110.128 32.9327 109.773 33.474C109.419 34.006 108.924 34.4213 108.289 34.72C107.664 35.0187 106.936 35.168 106.105 35.168ZM106.217 33.474C106.581 33.474 106.903 33.3947 107.183 33.236C107.463 33.068 107.678 32.8487 107.827 32.578C107.986 32.298 108.065 31.9853 108.065 31.64C108.065 31.304 107.986 31.0053 107.827 30.744C107.678 30.4827 107.463 30.2773 107.183 30.128C106.903 29.9787 106.577 29.904 106.203 29.904C105.839 29.904 105.513 29.9787 105.223 30.128C104.934 30.268 104.71 30.464 104.551 30.716C104.393 30.968 104.313 31.262 104.313 31.598C104.313 31.9433 104.393 32.2607 104.551 32.55C104.719 32.83 104.943 33.054 105.223 33.222C105.513 33.39 105.844 33.474 106.217 33.474ZM115.609 35.112C114.751 35.112 113.995 34.944 113.341 34.608C112.697 34.272 112.198 33.8147 111.843 33.236C111.489 32.648 111.311 31.9807 111.311 31.234C111.311 30.478 111.484 29.8107 111.829 29.232C112.184 28.644 112.665 28.1867 113.271 27.86C113.878 27.524 114.564 27.356 115.329 27.356C116.067 27.356 116.729 27.5147 117.317 27.832C117.915 28.14 118.386 28.588 118.731 29.176C119.077 29.7547 119.249 30.45 119.249 31.262C119.249 31.346 119.245 31.444 119.235 31.556C119.226 31.6587 119.217 31.7567 119.207 31.85H113.089V30.576H118.059L117.219 30.954C117.219 30.562 117.14 30.2213 116.981 29.932C116.823 29.6427 116.603 29.4187 116.323 29.26C116.043 29.092 115.717 29.008 115.343 29.008C114.97 29.008 114.639 29.092 114.349 29.26C114.069 29.4187 113.85 29.6473 113.691 29.946C113.533 30.2353 113.453 30.5807 113.453 30.982V31.318C113.453 31.7287 113.542 32.0927 113.719 32.41C113.906 32.718 114.163 32.956 114.489 33.124C114.825 33.2827 115.217 33.362 115.665 33.362C116.067 33.362 116.417 33.3013 116.715 33.18C117.023 33.0587 117.303 32.8767 117.555 32.634L118.717 33.894C118.372 34.286 117.938 34.5893 117.415 34.804C116.893 35.0093 116.291 35.112 115.609 35.112ZM124.647 35.112C123.835 35.112 123.112 34.9487 122.477 34.622C121.843 34.286 121.343 33.824 120.979 33.236C120.625 32.648 120.447 31.9807 120.447 31.234C120.447 30.478 120.625 29.8107 120.979 29.232C121.343 28.644 121.843 28.1867 122.477 27.86C123.112 27.524 123.835 27.356 124.647 27.356C125.441 27.356 126.131 27.524 126.719 27.86C127.307 28.1867 127.741 28.658 128.021 29.274L126.327 30.184C126.131 29.8293 125.884 29.568 125.585 29.4C125.296 29.232 124.979 29.148 124.633 29.148C124.26 29.148 123.924 29.232 123.625 29.4C123.327 29.568 123.089 29.806 122.911 30.114C122.743 30.422 122.659 30.7953 122.659 31.234C122.659 31.6727 122.743 32.046 122.911 32.354C123.089 32.662 123.327 32.9 123.625 33.068C123.924 33.236 124.26 33.32 124.633 33.32C124.979 33.32 125.296 33.2407 125.585 33.082C125.884 32.914 126.131 32.648 126.327 32.284L128.021 33.208C127.741 33.8147 127.307 34.286 126.719 34.622C126.131 34.9487 125.441 35.112 124.647 35.112ZM129.488 35V27.468H136.978V35H134.794V28.77L135.284 29.26H131.168L131.658 28.77V35H129.488ZM142.74 35.112C141.938 35.112 141.224 34.944 140.598 34.608C139.982 34.272 139.492 33.8147 139.128 33.236C138.774 32.648 138.596 31.9807 138.596 31.234C138.596 30.478 138.774 29.8107 139.128 29.232C139.492 28.644 139.982 28.1867 140.598 27.86C141.224 27.524 141.938 27.356 142.74 27.356C143.534 27.356 144.243 27.524 144.868 27.86C145.494 28.1867 145.984 28.6393 146.338 29.218C146.693 29.7967 146.87 30.4687 146.87 31.234C146.87 31.9807 146.693 32.648 146.338 33.236C145.984 33.8147 145.494 34.272 144.868 34.608C144.243 34.944 143.534 35.112 142.74 35.112ZM142.74 33.32C143.104 33.32 143.431 33.236 143.72 33.068C144.01 32.9 144.238 32.662 144.406 32.354C144.574 32.0367 144.658 31.6633 144.658 31.234C144.658 30.7953 144.574 30.422 144.406 30.114C144.238 29.806 144.01 29.568 143.72 29.4C143.431 29.232 143.104 29.148 142.74 29.148C142.376 29.148 142.05 29.232 141.76 29.4C141.471 29.568 141.238 29.806 141.06 30.114C140.892 30.422 140.808 30.7953 140.808 31.234C140.808 31.6633 140.892 32.0367 141.06 32.354C141.238 32.662 141.471 32.9 141.76 33.068C142.05 33.236 142.376 33.32 142.74 33.32ZM153.847 35L151.327 31.43L153.105 30.38L156.423 35H153.847ZM148.513 35V27.468H150.697V35H148.513ZM150.053 32.144V30.394H152.685V32.144H150.053ZM153.315 31.486L151.271 31.262L153.917 27.468H156.241L153.315 31.486ZM160.931 35.112C160.128 35.112 159.414 34.944 158.789 34.608C158.173 34.272 157.683 33.8147 157.319 33.236C156.964 32.648 156.787 31.9807 156.787 31.234C156.787 30.478 156.964 29.8107 157.319 29.232C157.683 28.644 158.173 28.1867 158.789 27.86C159.414 27.524 160.128 27.356 160.931 27.356C161.724 27.356 162.433 27.524 163.059 27.86C163.684 28.1867 164.174 28.6393 164.529 29.218C164.883 29.7967 165.061 30.4687 165.061 31.234C165.061 31.9807 164.883 32.648 164.529 33.236C164.174 33.8147 163.684 34.272 163.059 34.608C162.433 34.944 161.724 35.112 160.931 35.112ZM160.931 33.32C161.295 33.32 161.621 33.236 161.911 33.068C162.2 32.9 162.429 32.662 162.597 32.354C162.765 32.0367 162.849 31.6633 162.849 31.234C162.849 30.7953 162.765 30.422 162.597 30.114C162.429 29.806 162.2 29.568 161.911 29.4C161.621 29.232 161.295 29.148 160.931 29.148C160.567 29.148 160.24 29.232 159.951 29.4C159.661 29.568 159.428 29.806 159.251 30.114C159.083 30.422 158.999 30.7953 158.999 31.234C158.999 31.6633 159.083 32.0367 159.251 32.354C159.428 32.662 159.661 32.9 159.951 33.068C160.24 33.236 160.567 33.32 160.931 33.32ZM166.703 35V27.468H168.873V31.948L172.541 27.468H174.543V35H172.373V30.52L168.719 35H166.703ZM178.392 35V28.756L178.882 29.26H175.844V27.468H183.11V29.26H180.072L180.562 28.756V35H178.392ZM186.402 31.598C186.402 31.2713 186.454 30.982 186.556 30.73C186.668 30.478 186.804 30.254 186.962 30.058C187.13 29.862 187.308 29.68 187.494 29.512C187.681 29.344 187.854 29.1853 188.012 29.036C188.18 28.8773 188.316 28.714 188.418 28.546C188.53 28.378 188.586 28.1913 188.586 27.986C188.586 27.65 188.446 27.3793 188.166 27.174C187.896 26.9687 187.532 26.866 187.074 26.866C186.636 26.866 186.244 26.9593 185.898 27.146C185.553 27.3233 185.268 27.5753 185.044 27.902L183.35 26.908C183.724 26.3387 184.242 25.886 184.904 25.55C185.567 25.2047 186.37 25.032 187.312 25.032C188.012 25.032 188.628 25.1347 189.16 25.34C189.692 25.536 190.108 25.8253 190.406 26.208C190.714 26.5907 190.868 27.062 190.868 27.622C190.868 27.986 190.812 28.308 190.7 28.588C190.588 28.868 190.444 29.1107 190.266 29.316C190.089 29.5213 189.898 29.7127 189.692 29.89C189.496 30.0673 189.31 30.24 189.132 30.408C188.955 30.576 188.806 30.7533 188.684 30.94C188.572 31.1267 188.516 31.346 188.516 31.598H186.402ZM187.466 35.112C187.074 35.112 186.752 34.986 186.5 34.734C186.248 34.482 186.122 34.1833 186.122 33.838C186.122 33.4833 186.248 33.1893 186.5 32.956C186.752 32.7133 187.074 32.592 187.466 32.592C187.868 32.592 188.19 32.7133 188.432 32.956C188.684 33.1893 188.81 33.4833 188.81 33.838C188.81 34.1833 188.684 34.482 188.432 34.734C188.19 34.986 187.868 35.112 187.466 35.112Z" fill="#7872B9"/>
<rect x="40" y="60" width="200" height="30" rx="15" stroke="#7872B9"/>
<rect x="250" y="60" width="170" height="30" rx="15" fill="#EBF5FF"/>
<rect x="40" y="100" width="90" height="30" rx="15" fill="#EBF5FF"/>
<rect x="140" y="100" width="210" height="30" rx="15" stroke="#7872B9"/>
<rect x="40" y="140" width="120" height="30" rx="15" fill="#EBF5FF"/>
<rect x="170" y="140" width="90" height="30" rx="15" stroke="#7872B9"/>
<rect x="270" y="140" width="150" height="30" rx="15" stroke="#7872B9"/>
</svg>
