<svg width="488" height="210" viewBox="0 0 488 210" fill="none" xmlns="http://www.w3.org/2000/svg">
<rect x="8" y="10" width="480" height="200" rx="20" fill="#CDE1FF"/>
<rect width="480" height="200" rx="20" fill="white"/>
<path fill-rule="evenodd" clip-rule="evenodd" d="M94.2678 32.2769C119.079 32.2769 134.498 59.0204 136.147 87.6546C136.745 98.7237 133.141 107.159 127.047 113.396C117.43 123.286 101.622 127.552 86.3963 127.552C79.2359 127.552 71.0411 124.853 64.4949 121.751C57.1406 118.276 51.5642 114.285 48.0083 107.644C33.4128 80.3829 56.785 32.2769 94.2678 32.2769Z" fill="#CDE1FF"/>
<path fill-rule="evenodd" clip-rule="evenodd" d="M71.4609 52.4112L73.6347 62.7727L79.3164 71.9639L80.5933 85.4569C80.5933 85.4569 79.4457 91.9206 79.1709 92.373C78.8961 92.8255 92.5865 94.6515 92.5865 94.6515L99.7307 92.6154L98.6639 85.8932L99.1488 77.3288L109.865 79.1871L116.136 53.6393L110.285 44.6548L99.2942 46.6424L88.7396 44.6548L85.313 47.3695L71.4609 52.4112Z" fill="#FDD3D4"/>
<path fill-rule="evenodd" clip-rule="evenodd" d="M90.7929 117.42C91.4556 119.537 90.6151 120.377 88.4977 119.715C87.8188 117.533 88.627 116.741 90.7929 117.42ZM90.7929 112.136L88.4977 112.297C87.3662 108.516 91.9243 108.548 90.7929 112.136ZM88.336 102.311L90.7929 102.166L90.9383 104.638L88.4815 104.783L88.336 102.311ZM52.2109 113.412C55.1365 116.644 62.7494 121.217 68.1642 123.415C82.0189 129.089 97.5559 129.054 111.385 123.318C116.59 121.185 124.316 116.531 127.08 113.412C126.142 104.783 124.38 101.406 119.095 97.7864C114.303 94.5785 109.128 91.9835 103.691 90.0623C104.483 94.3607 102.608 98.1419 98.3411 98.2712C93.3305 98.4328 91.1161 94.2637 89.6452 92.9063C88.594 94.2163 87.4313 95.4328 86.1701 96.5422C78.9451 101.39 73.595 94.8455 75.8094 90.0785C71.8494 90.7895 62.9596 95.8312 59.9693 97.8996C54.7647 101.503 53.1807 104.945 52.2109 113.412Z" fill="#9690D4"/>
<path fill-rule="evenodd" clip-rule="evenodd" d="M60.5861 73.0144L80.4994 75.4221V66.7608C72.5309 65.9851 73.436 57.2268 76.4747 55.0292C79.5134 52.8315 81.4045 55.6917 84.1038 55.0292C86.8031 54.3666 87.4496 52.0397 87.0617 48.8563C91.2804 50.7308 93.0098 51.7004 98.6508 50.6985C102.562 49.9875 106.991 48.0161 110.951 48.5332C114.022 50.1491 113.246 66.3083 110.693 72.9498C109.464 76.1816 108.349 76.6502 107.072 78.6701C110.305 78.961 111.161 80.5931 113.537 80.1891C116.204 73.1437 119.679 52.7184 116.544 42.5542C109.076 25.5709 89.6317 25.0376 78.2527 32.8587C76.3097 34.1915 74.6596 35.9071 73.4037 37.9004C70.171 42.8451 73.242 41.4716 68.9587 43.6531C59.8426 48.3877 58.2263 60.2971 60.5861 73.0144Z" fill="#FAA8B7"/>
<path fill-rule="evenodd" clip-rule="evenodd" d="M75.8104 90.1107C73.596 94.8292 78.9461 101.422 86.1711 96.5744C87.4323 95.4651 88.595 94.2486 89.6462 92.9386C91.1171 94.296 93.3314 98.4651 98.3421 98.3035C102.609 98.158 104.484 94.3929 103.692 90.0946C102.625 88.5594 101.429 85.7477 98.6816 84.9721C98.5361 88.3817 98.6815 88.8665 95.9984 90.0946C94.0104 91.0363 91.838 91.5248 89.6382 91.5248C87.4383 91.5248 85.2659 91.0363 83.2779 90.0946C80.6109 88.818 80.8049 88.3655 80.5947 84.9559C79.3705 85.3489 78.3015 86.1179 77.5398 87.1536C76.6811 87.9447 76.0788 88.9746 75.8104 90.1107Z" fill="#FFCF70"/>
<path fill-rule="evenodd" clip-rule="evenodd" d="M90.7948 117.42C88.6289 116.741 87.8208 117.533 88.4996 119.714C90.617 120.377 91.4899 119.537 90.7948 117.42Z" fill="#FFCF70"/>
<path fill-rule="evenodd" clip-rule="evenodd" d="M90.7937 112.136C91.9251 108.548 87.367 108.516 88.4984 112.297L90.7937 112.136Z" fill="#FFCF70"/>
<path d="M90.8083 102.063L88.3398 102.213L88.4904 104.681L90.9588 104.531L90.8083 102.063Z" fill="#FFCF70"/>
<path fill-rule="evenodd" clip-rule="evenodd" d="M411.412 42.6518C436.641 50.0585 443.449 82.0208 434.866 103.841C426.283 125.66 394.673 131.866 369.457 124.406C344.241 116.946 336.805 91.6829 345.429 69.8765C354.052 48.07 386.196 35.245 411.412 42.6518Z" fill="#CDE1FF"/>
<path fill-rule="evenodd" clip-rule="evenodd" d="M354.121 105.922L352.039 114.103C355.456 119.802 363.012 123.578 371.862 125.687C387.707 129.464 406.743 128.943 420.812 119.922L427.927 114.744L428.127 114.53L428.488 114.103C427.634 112.542 427.153 108.498 426.392 106.403C425.599 104.194 424.151 102.281 422.241 100.918C418.575 98.0551 414.532 95.7109 410.227 93.9516L404.553 91.4693C405.328 95.7932 403.592 99.7568 399.094 99.917C394.088 100.104 391.952 96.1135 390.23 94.4854C389.402 95.2594 389.402 95.5397 388.495 96.4738C381.74 103.373 374.398 99.1429 375.907 91.4827C371.647 93.1406 367.504 95.0846 363.506 97.3013C361.571 98.3871 359.739 99.6468 358.033 101.065C356.521 102.505 355.206 104.139 354.121 105.922Z" fill="#FAA8B7"/>
<path fill-rule="evenodd" clip-rule="evenodd" d="M367.055 52.7942C368.614 52.5974 370.102 52.0261 371.393 51.129C372.683 50.2319 373.736 49.0357 374.464 47.6428C374.984 48.6304 374.797 50.392 376.372 51.6464C379.536 54.1154 386.157 51.7399 389.04 48.2567C388.827 52.4072 389.04 55.3965 391.924 56.9179C396.129 59.1866 397.53 55.7435 401.054 55.7435C407.262 55.7435 408.036 67.9012 399.519 68.5818V86.3313C401.895 87.3322 403.217 89.2673 404.538 91.5093L410.212 93.9916C410.839 92.1766 414.337 85.5973 416.419 79.7653C422.359 63.1102 422.68 44.6935 409.291 33.6968C401.508 27.3044 387.399 26.2101 377.133 30.8276C369.818 34.0839 356.362 46.3216 367.055 52.7942Z" fill="#645F9E"/>
<path fill-rule="evenodd" clip-rule="evenodd" d="M367.054 52.7942C367.054 55.7435 366.667 58.8397 366.72 62.0025C366.773 65.1654 367.334 67.8345 367.574 70.8239C369.003 74.3338 368.909 76.5624 371.405 79.3116C373.902 82.0607 376.131 83.075 381.003 82.4344C383.477 82.0103 385.901 81.3351 388.238 80.4192C389.853 79.792 393.271 77.8436 394.219 77.6167C393.164 78.5376 391.122 84.9967 381.003 85.4238V86.3179C381.297 89.7611 381.15 90.3216 383.82 91.576C385.845 92.5449 388.062 93.0478 390.307 93.0478C392.553 93.0478 394.769 92.5449 396.795 91.576C399.531 90.2415 399.264 89.7344 399.598 86.2379V68.4884C408.115 67.8078 407.34 55.6367 401.133 55.6501C397.609 55.6501 396.208 59.0932 392.003 56.8245C389.186 55.3031 388.906 52.3138 389.119 48.1633C386.236 51.6465 379.615 54.022 376.451 51.5531C374.876 50.3386 375.116 48.577 374.542 47.5494C373.819 48.9701 372.758 50.1913 371.452 51.1058C370.147 52.0204 368.636 52.6002 367.054 52.7942Z" fill="#FDD3D4"/>
<path fill-rule="evenodd" clip-rule="evenodd" d="M354.121 105.922C355.234 104.133 356.581 102.499 358.125 101.065C359.832 99.6468 361.664 98.3872 363.598 97.3013C367.596 95.0847 371.739 93.1407 375.999 91.4827C377.134 89.561 378.896 87.012 381.032 86.318V85.4239V82.4345C376.16 83.0751 373.797 81.9674 371.434 79.3117C369.071 76.6559 369.031 74.3338 367.603 70.824C366.775 72.5856 362.037 75.6951 359.821 77.3632C353.894 81.8473 349.368 87.3189 350.063 95.82C350.316 99.2097 352.025 104.161 354.121 105.922Z" fill="#645F9E"/>
<path fill-rule="evenodd" clip-rule="evenodd" d="M375.945 91.4827C374.437 99.1697 381.779 103.373 388.533 96.4739C389.441 95.5397 389.441 95.2594 390.268 94.4854C391.99 96.1135 394.126 100.104 399.132 99.917C403.631 99.7569 405.366 95.7932 404.592 91.4693C403.257 89.2273 401.922 87.2922 399.573 86.2913C399.239 89.7611 399.506 90.295 396.769 91.6295C394.744 92.5984 392.527 93.1013 390.282 93.1013C388.037 93.1013 385.82 92.5984 383.794 91.6295C381.125 90.4017 381.271 89.8145 380.978 86.3714C378.815 86.9853 377.08 89.5609 375.945 91.4827Z" fill="#6B66A6"/>
<path fill-rule="evenodd" clip-rule="evenodd" d="M381.004 82.4343V85.4237C391.122 84.9966 393.165 78.5375 394.219 77.6166C393.272 77.8435 389.854 79.7919 388.239 80.4191C385.902 81.335 383.478 82.0102 381.004 82.4343Z" fill="#E8B7B8"/>
<path d="M261.962 37.5477C275.298 43.708 281.543 57.4405 284.882 71.055C288.182 84.5106 288.42 98.9794 279.764 110.135C270.788 121.704 255.934 128.288 240.707 127.99C226.003 127.703 213.205 119.558 204.157 108.656C195.362 98.0596 191.008 84.7345 193.879 71.5668C196.794 58.1931 206.169 47.0242 218.989 40.6181C232.336 33.9493 248.396 31.2816 261.962 37.5477Z" fill="#CDE1FF"/>
<path fill-rule="evenodd" clip-rule="evenodd" d="M254.501 118C258.365 114.946 262.056 111.478 265.683 108.265L265.872 108.075C265.541 107.438 265.21 106.786 264.863 106.15C261.078 99.183 273.205 92.8365 277.211 87.5556C279.798 84.1517 275.398 79.9843 273 78.855C258.271 71.9676 281.059 59.9903 269.247 53.0075C256.63 45.5952 262.939 46.645 256.441 39.9803C253.006 37.8882 249.287 36.3128 245.402 35.3039C244.965 35.4517 244.501 35.5013 244.044 35.4491C243.586 35.3969 243.145 35.2442 242.752 35.0017C241.693 34.9854 240.635 35.0867 239.598 35.3039C238.866 35.4819 238.157 35.7434 237.485 36.0833C233.368 48.7128 227.817 55.9501 224.868 71.0769C222.613 82.8792 215.327 104.623 229.599 111.256C237.502 114.796 245.903 117.071 254.501 118Z" fill="#B0C8EB"/>
<path d="M257.693 125.558C252.389 127.257 246.745 128.101 241.048 127.99C228.155 127.74 216.726 121.506 208 112.688C208.485 109.509 209.195 106.491 209.875 104.741C212.044 99.103 214.652 97.3833 218.498 94.8461C218.849 94.6149 219.209 94.377 219.581 94.1286C220.196 93.9483 220.839 93.6927 221.464 93.4444C221.978 93.24 222.48 93.0406 222.943 92.8922C223.636 92.6701 224.452 92.4765 225.249 92.2875C225.631 92.1967 226.01 92.107 226.368 92.0157C226.368 96.1164 235.916 103.848 243.729 97.3842C244.771 96.5077 247.517 93.8469 247.517 92C247.772 92.0622 248.039 92.1257 248.312 92.1905C248.998 92.3538 249.718 92.525 250.374 92.7043C250.518 92.748 250.71 92.799 250.908 92.8516C251.207 92.9311 251.519 93.014 251.699 93.08C252.325 93.2893 252.557 93.3371 252.636 93.4727C252.71 93.6006 252.646 93.8068 252.646 94.3008C252.27 94.8677 251.826 95.4769 251.359 96.1169C249.222 99.0457 246.616 102.618 247.912 105.727C249.032 108.387 254.619 111.596 258.407 112.206C257.815 111.226 257.354 110.174 257.034 109.076C256.482 105.633 259.844 101.657 261.769 100.17C261.853 100.618 262.117 101.137 262.471 101.838C263.246 103.368 264.458 105.76 265.194 110.14C265.596 112.5 266.235 119.308 265.912 122.089C264.573 122.803 263.198 123.456 261.79 124.046L257.693 125.558Z" fill="#FFCF70"/>
<path fill-rule="evenodd" clip-rule="evenodd" d="M215 50.9045C215 54.6945 215.111 57.4937 215.254 61.1736C217.481 61.7397 216.972 62.7462 218.308 63.0135C217.545 60.4816 218.96 54.4271 219.772 52.1626C223.764 41.1544 237.06 38.591 243.422 44.9443C246.031 47.5549 252.059 58.0755 252.345 60.8748C252.711 64.4603 247.987 68.3446 246.905 74.1633C246.46 76.5222 247.049 77.9218 246.905 79.8875C247.525 81.0202 248.057 82.1978 248.496 83.4101C249.033 84.4953 249.638 85.5458 250.309 86.5553C250.983 87.5575 251.578 88.6089 252.091 89.7005C252.56 90.6829 252.794 91.7593 252.774 92.8457L252.536 93.7893C252.536 93.7893 252.536 93.9308 252.44 94.0095C250.389 97.1547 246.078 101.684 247.669 105.489C248.798 108.163 254.429 111.387 258.246 112C257.649 111.015 257.184 109.958 256.862 108.855C256.305 105.395 259.693 101.401 261.634 99.9067C266.675 94.3869 278.222 87.5932 270.302 81.6645C268.068 80.3005 266.062 78.603 264.353 76.6322C261.172 72.1189 266.166 65.3881 267.153 60.4187C268.536 53.3735 261.411 53.8924 258.627 47.5549C256.035 41.6733 255.892 37.5846 251.486 33.2599C246.047 27.9288 235.374 25.0038 228.758 32.6466C228.408 33.0555 226.754 35.7918 226.611 35.7918C225.784 36.2164 216.018 36.7196 215 50.9045Z" fill="#6B66A6"/>
<path fill-rule="evenodd" clip-rule="evenodd" d="M232.376 84.1988C238.494 86.5246 242.053 83.3716 246.642 80.0469C246.814 78.0957 246.236 76.7065 246.642 74.3652C247.703 68.5899 252.339 64.7345 251.98 61.1756C251.699 58.3972 245.737 47.9548 243.224 45.3637C236.98 39.1202 223.931 41.602 220.014 52.5283C218.739 55.522 218.055 58.734 218 61.9873C218.531 70.5254 222.854 81.9667 232.376 84.1988Z" fill="#FDD3D4"/>
<path fill-rule="evenodd" clip-rule="evenodd" d="M228.837 82.5059C228.915 84.5768 228.915 86.8058 228.837 88.8292C228.758 90.8527 228.022 91.6905 226 92.0699C226.094 96.2117 235.528 104.021 243.239 97.4922C244.273 96.6069 246.984 93.9195 247 92.0541C244.759 91.5641 244.383 90.6788 244.383 88.3233C244.383 86.2841 244.383 84.0393 244.383 82L244.195 82.1107C240.402 84.5452 237.425 86.537 232.269 84.5609C230.999 84.1163 229.832 83.4173 228.837 82.5059Z" fill="#E8B7B8"/>
<path fill-rule="evenodd" clip-rule="evenodd" d="M216.271 79.7961C216.94 81.9022 217.903 82.0515 218.915 83.3659C221.445 86.5026 220.22 89.4451 219.127 93C220.302 92.6863 221.314 92.2084 222.489 91.8499C223.664 91.4914 224.889 91.2823 226.031 91.0134C228.137 90.655 228.953 90.0426 228.985 87.9515C229.018 85.8604 228.985 83.8887 228.985 81.9769C227.353 81.7678 221.167 75.3749 220.824 73.239L217.152 73C216.023 75.1081 215.712 77.5049 216.271 79.7961Z" fill="#4B4680"/>
<path fill-rule="evenodd" clip-rule="evenodd" d="M221 73C218.32 69.354 218.19 64.2557 217.979 63.1211C214.519 57.4479 211.238 64.286 214.08 70.3828C215.721 73.8926 216.923 72.7277 221 73Z" fill="#E8B7B8"/>
<path fill-rule="evenodd" clip-rule="evenodd" d="M244 81.7929C244 83.804 244.104 86.0178 244.104 88.0289C244.104 90.3519 244.52 91.2249 247 91.7082C247.988 91.9265 249.132 92.1603 250.138 92.4098C250.537 92.5189 251.265 92.6748 251.594 92.784C252.929 93.1893 252.583 92.9866 252.635 94C252.635 94 252.635 93.735 252.739 93.7817L252.999 92.8463C253.02 91.7692 252.765 90.7022 252.253 89.7283C251.695 88.6461 251.046 87.6037 250.311 86.6102C249.58 85.6095 248.92 84.568 248.335 83.4922C247.856 82.2903 247.276 81.1229 246.601 80L245.335 80.8263C244.919 81.3096 244.399 81.4811 244 81.7929Z" fill="#4B4680"/>
<rect x="30" y="142" width="120" height="10" rx="5" fill="#EBF5FF"/>
<rect x="50" y="164" width="80" height="10" rx="5" fill="#EBF5FF"/>
<rect x="200" y="164" width="80" height="10" rx="5" fill="#EBF5FF"/>
<rect x="350" y="164" width="80" height="10" rx="5" fill="#EBF5FF"/>
<rect x="180" y="142" width="120" height="10" rx="5" fill="#EBF5FF"/>
<rect x="330" y="142" width="120" height="10" rx="5" fill="#EBF5FF"/>
<path d="M194.763 151L199.131 141.2H201.371L205.753 151H203.373L199.789 142.348H200.685L197.087 151H194.763ZM196.947 148.9L197.549 147.178H202.589L203.205 148.9H196.947ZM207.025 151V143.468H209.195V146.408H212.471V143.468H214.655V151H212.471V148.186H209.195V151H207.025ZM216.885 151V143.468H219.055V146.408H222.331V143.468H224.515V151H222.331V148.186H219.055V151H216.885ZM231.254 151V149.53L231.114 149.208V146.576C231.114 146.109 230.969 145.745 230.68 145.484C230.4 145.223 229.966 145.092 229.378 145.092C228.977 145.092 228.58 145.157 228.188 145.288C227.805 145.409 227.479 145.577 227.208 145.792L226.424 144.266C226.835 143.977 227.329 143.753 227.908 143.594C228.487 143.435 229.075 143.356 229.672 143.356C230.82 143.356 231.711 143.627 232.346 144.168C232.981 144.709 233.298 145.554 233.298 146.702V151H231.254ZM228.958 151.112C228.37 151.112 227.866 151.014 227.446 150.818C227.026 150.613 226.704 150.337 226.48 149.992C226.256 149.647 226.144 149.259 226.144 148.83C226.144 148.382 226.251 147.99 226.466 147.654C226.69 147.318 227.04 147.057 227.516 146.87C227.992 146.674 228.613 146.576 229.378 146.576H231.38V147.85H229.616C229.103 147.85 228.748 147.934 228.552 148.102C228.365 148.27 228.272 148.48 228.272 148.732C228.272 149.012 228.379 149.236 228.594 149.404C228.818 149.563 229.121 149.642 229.504 149.642C229.868 149.642 230.195 149.558 230.484 149.39C230.773 149.213 230.983 148.956 231.114 148.62L231.45 149.628C231.291 150.113 231.002 150.482 230.582 150.734C230.162 150.986 229.621 151.112 228.958 151.112ZM245.46 149.152L244.956 149.67V141.2H247.21V149.67L246.678 149.152H250.822L250.29 149.67V141.2H252.544V151H239.608V141.2H241.862V149.67L241.344 149.152H245.46ZM254.947 151V143.468H257.229L260.071 148.62H259.161L262.199 143.468H264.243L264.271 151H262.297V145.708L262.633 145.932L260.043 150.272H259.119L256.515 145.778L256.921 145.68V151H254.947ZM266.503 151V143.468H268.673V147.948L272.341 143.468H274.343V151H272.173V146.52L268.519 151H266.503ZM281.763 150.02V145.26H279.299L279.257 146.226C279.238 146.627 279.215 147.01 279.187 147.374C279.159 147.738 279.103 148.069 279.019 148.368C278.944 148.657 278.832 148.905 278.683 149.11C278.533 149.306 278.333 149.441 278.081 149.516L275.925 149.208C276.195 149.208 276.415 149.129 276.583 148.97C276.751 148.802 276.881 148.573 276.975 148.284C277.068 147.985 277.138 147.649 277.185 147.276C277.231 146.893 277.264 146.492 277.283 146.072L277.381 143.468H283.947V150.02H281.763ZM275.673 152.624V149.208H285.025V152.624H282.995V151H277.703V152.624H275.673Z" fill="#7872B9"/>
<path d="M33.6876 151V141.2H38.2516C39.3902 141.2 40.2769 141.419 40.9116 141.858C41.5462 142.297 41.8636 142.922 41.8636 143.734C41.8636 144.537 41.5649 145.162 40.9676 145.61C40.3702 146.049 39.5769 146.268 38.5876 146.268L38.8536 145.68C39.9549 145.68 40.8089 145.899 41.4156 146.338C42.0222 146.777 42.3256 147.411 42.3256 148.242C42.3256 149.101 41.9989 149.777 41.3456 150.272C40.7016 150.757 39.7589 151 38.5176 151H33.6876ZM35.9416 149.32H38.4336C38.9562 149.32 39.3529 149.217 39.6236 149.012C39.8942 148.807 40.0296 148.489 40.0296 148.06C40.0296 147.649 39.8942 147.346 39.6236 147.15C39.3529 146.945 38.9562 146.842 38.4336 146.842H35.9416V149.32ZM35.9416 145.26H38.0556C38.5502 145.26 38.9236 145.162 39.1756 144.966C39.4276 144.761 39.5536 144.462 39.5536 144.07C39.5536 143.678 39.4276 143.384 39.1756 143.188C38.9236 142.983 38.5502 142.88 38.0556 142.88H35.9416V145.26ZM48.5992 151V149.53L48.4592 149.208V146.576C48.4592 146.109 48.3145 145.745 48.0252 145.484C47.7452 145.223 47.3112 145.092 46.7232 145.092C46.3219 145.092 45.9252 145.157 45.5332 145.288C45.1505 145.409 44.8239 145.577 44.5532 145.792L43.7692 144.266C44.1799 143.977 44.6745 143.753 45.2532 143.594C45.8319 143.435 46.4199 143.356 47.0172 143.356C48.1652 143.356 49.0565 143.627 49.6912 144.168C50.3259 144.709 50.6432 145.554 50.6432 146.702V151H48.5992ZM46.3032 151.112C45.7152 151.112 45.2112 151.014 44.7912 150.818C44.3712 150.613 44.0492 150.337 43.8252 149.992C43.6012 149.647 43.4892 149.259 43.4892 148.83C43.4892 148.382 43.5965 147.99 43.8112 147.654C44.0352 147.318 44.3852 147.057 44.8612 146.87C45.3372 146.674 45.9579 146.576 46.7232 146.576H48.7252V147.85H46.9612C46.4479 147.85 46.0932 147.934 45.8972 148.102C45.7105 148.27 45.6172 148.48 45.6172 148.732C45.6172 149.012 45.7245 149.236 45.9392 149.404C46.1632 149.563 46.4665 149.642 46.8492 149.642C47.2132 149.642 47.5399 149.558 47.8292 149.39C48.1185 149.213 48.3285 148.956 48.4592 148.62L48.7952 149.628C48.6365 150.113 48.3472 150.482 47.9272 150.734C47.5072 150.986 46.9659 151.112 46.3032 151.112ZM51.7284 150.986L51.8404 149.194C51.8964 149.203 51.9524 149.213 52.0084 149.222C52.0644 149.222 52.1158 149.222 52.1624 149.222C52.4238 149.222 52.6291 149.147 52.7784 148.998C52.9278 148.849 53.0398 148.648 53.1144 148.396C53.1891 148.135 53.2404 147.841 53.2684 147.514C53.3058 147.187 53.3338 146.847 53.3524 146.492L53.4644 143.468H59.9044V151H57.7204V144.728L58.2104 145.26H54.9064L55.3684 144.7L55.2704 146.59C55.2424 147.262 55.1864 147.878 55.1024 148.438C55.0278 148.998 54.9018 149.483 54.7244 149.894C54.5471 150.295 54.3091 150.608 54.0104 150.832C53.7118 151.047 53.3291 151.154 52.8624 151.154C52.6944 151.154 52.5171 151.14 52.3304 151.112C52.1438 151.084 51.9431 151.042 51.7284 150.986ZM65.8266 151.112C64.968 151.112 64.212 150.944 63.5586 150.608C62.9146 150.272 62.4153 149.815 62.0606 149.236C61.706 148.648 61.5286 147.981 61.5286 147.234C61.5286 146.478 61.7013 145.811 62.0466 145.232C62.4013 144.644 62.882 144.187 63.4886 143.86C64.0953 143.524 64.7813 143.356 65.5466 143.356C66.284 143.356 66.9466 143.515 67.5346 143.832C68.132 144.14 68.6033 144.588 68.9486 145.176C69.294 145.755 69.4666 146.45 69.4666 147.262C69.4666 147.346 69.462 147.444 69.4526 147.556C69.4433 147.659 69.434 147.757 69.4246 147.85H63.3066V146.576H68.2766L67.4366 146.954C67.4366 146.562 67.3573 146.221 67.1986 145.932C67.04 145.643 66.8206 145.419 66.5406 145.26C66.2606 145.092 65.934 145.008 65.5606 145.008C65.1873 145.008 64.856 145.092 64.5666 145.26C64.2866 145.419 64.0673 145.647 63.9086 145.946C63.75 146.235 63.6706 146.581 63.6706 146.982V147.318C63.6706 147.729 63.7593 148.093 63.9366 148.41C64.1233 148.718 64.38 148.956 64.7066 149.124C65.0426 149.283 65.4346 149.362 65.8826 149.362C66.284 149.362 66.634 149.301 66.9326 149.18C67.2406 149.059 67.5206 148.877 67.7726 148.634L68.9346 149.894C68.5893 150.286 68.1553 150.589 67.6326 150.804C67.11 151.009 66.508 151.112 65.8266 151.112ZM75.7187 151.112C75.0841 151.112 74.5287 150.972 74.0527 150.692C73.5767 150.412 73.2034 149.987 72.9327 149.418C72.6714 148.839 72.5407 148.111 72.5407 147.234C72.5407 146.347 72.6667 145.619 72.9187 145.05C73.1707 144.481 73.5347 144.056 74.0107 143.776C74.4867 143.496 75.0561 143.356 75.7187 143.356C76.4281 143.356 77.0627 143.519 77.6227 143.846C78.1921 144.163 78.6401 144.611 78.9667 145.19C79.3027 145.769 79.4707 146.45 79.4707 147.234C79.4707 148.027 79.3027 148.713 78.9667 149.292C78.6401 149.871 78.1921 150.319 77.6227 150.636C77.0627 150.953 76.4281 151.112 75.7187 151.112ZM71.2667 153.716V143.468H73.3527V145.008L73.3107 147.248L73.4507 149.474V153.716H71.2667ZM75.3407 149.32C75.7047 149.32 76.0267 149.236 76.3067 149.068C76.5961 148.9 76.8247 148.662 76.9927 148.354C77.1701 148.037 77.2587 147.663 77.2587 147.234C77.2587 146.795 77.1701 146.422 76.9927 146.114C76.8247 145.806 76.5961 145.568 76.3067 145.4C76.0267 145.232 75.7047 145.148 75.3407 145.148C74.9767 145.148 74.6501 145.232 74.3607 145.4C74.0714 145.568 73.8427 145.806 73.6747 146.114C73.5067 146.422 73.4227 146.795 73.4227 147.234C73.4227 147.663 73.5067 148.037 73.6747 148.354C73.8427 148.662 74.0714 148.9 74.3607 149.068C74.6501 149.236 74.9767 149.32 75.3407 149.32ZM81.1414 151V143.468H83.3114V147.948L86.9794 143.468H88.9814V151H86.8114V146.52L83.1574 151H81.1414ZM95.9669 151V148.494L96.2749 148.844H94.1889C93.1062 148.844 92.2569 148.62 91.6409 148.172C91.0249 147.724 90.7169 147.08 90.7169 146.24C90.7169 145.344 91.0389 144.658 91.6829 144.182C92.3362 143.706 93.2136 143.468 94.3149 143.468H97.9129V151H95.9669ZM90.6049 151L92.6069 148.13H94.8329L92.9289 151H90.6049ZM95.9669 147.822V144.686L96.2749 145.246H94.3569C93.9089 145.246 93.5589 145.33 93.3069 145.498C93.0642 145.666 92.9429 145.937 92.9429 146.31C92.9429 147.029 93.4049 147.388 94.3289 147.388H96.2749L95.9669 147.822ZM106.539 151V142.53L107.057 143.048H103.417V141.2H111.915V143.048H108.275L108.779 142.53V151H106.539ZM116.073 151.112C115.271 151.112 114.557 150.944 113.931 150.608C113.315 150.272 112.825 149.815 112.461 149.236C112.107 148.648 111.929 147.981 111.929 147.234C111.929 146.478 112.107 145.811 112.461 145.232C112.825 144.644 113.315 144.187 113.931 143.86C114.557 143.524 115.271 143.356 116.073 143.356C116.867 143.356 117.576 143.524 118.201 143.86C118.827 144.187 119.317 144.639 119.671 145.218C120.026 145.797 120.203 146.469 120.203 147.234C120.203 147.981 120.026 148.648 119.671 149.236C119.317 149.815 118.827 150.272 118.201 150.608C117.576 150.944 116.867 151.112 116.073 151.112ZM116.073 149.32C116.437 149.32 116.764 149.236 117.053 149.068C117.343 148.9 117.571 148.662 117.739 148.354C117.907 148.037 117.991 147.663 117.991 147.234C117.991 146.795 117.907 146.422 117.739 146.114C117.571 145.806 117.343 145.568 117.053 145.4C116.764 145.232 116.437 145.148 116.073 145.148C115.709 145.148 115.383 145.232 115.093 145.4C114.804 145.568 114.571 145.806 114.393 146.114C114.225 146.422 114.141 146.795 114.141 147.234C114.141 147.663 114.225 148.037 114.393 148.354C114.571 148.662 114.804 148.9 115.093 149.068C115.383 149.236 115.709 149.32 116.073 149.32ZM126.591 148.116C126.283 148.284 125.943 148.419 125.569 148.522C125.196 148.625 124.785 148.676 124.337 148.676C123.348 148.676 122.587 148.452 122.055 148.004C121.523 147.547 121.257 146.823 121.257 145.834V143.468H123.441V145.694C123.441 146.161 123.563 146.497 123.805 146.702C124.048 146.898 124.389 146.996 124.827 146.996C125.145 146.996 125.448 146.959 125.737 146.884C126.036 146.809 126.321 146.702 126.591 146.562V148.116ZM126.437 151V143.468H128.621V151H126.437ZM131.88 153.828C131.488 153.828 131.101 153.767 130.718 153.646C130.336 153.525 130.023 153.357 129.78 153.142L130.578 151.588C130.746 151.737 130.938 151.854 131.152 151.938C131.376 152.022 131.596 152.064 131.81 152.064C132.118 152.064 132.361 151.989 132.538 151.84C132.725 151.7 132.893 151.462 133.042 151.126L133.434 150.202L133.602 149.964L136.304 143.468H138.404L135.002 151.462C134.76 152.069 134.48 152.545 134.162 152.89C133.854 153.235 133.509 153.478 133.126 153.618C132.753 153.758 132.338 153.828 131.88 153.828ZM133.168 151.294L129.808 143.468H132.062L134.666 149.768L133.168 151.294ZM144.932 151L142.412 147.43L144.19 146.38L147.508 151H144.932ZM139.598 151V143.468H141.782V151H139.598ZM141.138 148.144V146.394H143.77V148.144H141.138ZM144.4 147.486L142.356 147.262L145.002 143.468H147.326L144.4 147.486Z" fill="#7872B9"/>
<path d="M337.259 151V141.2H339.513V147.584L344.189 141.2H346.317V151H344.077V144.63L339.401 151H337.259ZM348.729 151V143.468H350.899V146.408H354.175V143.468H356.359V151H354.175V148.186H350.899V151H348.729ZM358.59 151V143.468H360.76V146.408H364.036V143.468H366.22V151H364.036V148.186H360.76V151H358.59ZM372.959 151V149.53L372.819 149.208V146.576C372.819 146.109 372.674 145.745 372.385 145.484C372.105 145.223 371.671 145.092 371.083 145.092C370.681 145.092 370.285 145.157 369.893 145.288C369.51 145.409 369.183 145.577 368.913 145.792L368.129 144.266C368.539 143.977 369.034 143.753 369.613 143.594C370.191 143.435 370.779 143.356 371.377 143.356C372.525 143.356 373.416 143.627 374.051 144.168C374.685 144.709 375.003 145.554 375.003 146.702V151H372.959ZM370.663 151.112C370.075 151.112 369.571 151.014 369.151 150.818C368.731 150.613 368.409 150.337 368.185 149.992C367.961 149.647 367.849 149.259 367.849 148.83C367.849 148.382 367.956 147.99 368.171 147.654C368.395 147.318 368.745 147.057 369.221 146.87C369.697 146.674 370.317 146.576 371.083 146.576H373.085V147.85H371.321C370.807 147.85 370.453 147.934 370.257 148.102C370.07 148.27 369.977 148.48 369.977 148.732C369.977 149.012 370.084 149.236 370.299 149.404C370.523 149.563 370.826 149.642 371.209 149.642C371.573 149.642 371.899 149.558 372.189 149.39C372.478 149.213 372.688 148.956 372.819 148.62L373.155 149.628C372.996 150.113 372.707 150.482 372.287 150.734C371.867 150.986 371.325 151.112 370.663 151.112ZM381.313 151V141.2H383.189L387.361 148.116H386.367L390.469 141.2H392.345L392.359 151H390.231L390.217 144.462H390.623L387.333 149.964H386.325L382.965 144.462H383.441V151H381.313ZM398.447 151.112C397.589 151.112 396.833 150.944 396.179 150.608C395.535 150.272 395.036 149.815 394.681 149.236C394.327 148.648 394.149 147.981 394.149 147.234C394.149 146.478 394.322 145.811 394.667 145.232C395.022 144.644 395.503 144.187 396.109 143.86C396.716 143.524 397.402 143.356 398.167 143.356C398.905 143.356 399.567 143.515 400.155 143.832C400.753 144.14 401.224 144.588 401.569 145.176C401.915 145.755 402.087 146.45 402.087 147.262C402.087 147.346 402.083 147.444 402.073 147.556C402.064 147.659 402.055 147.757 402.045 147.85H395.927V146.576H400.897L400.057 146.954C400.057 146.562 399.978 146.221 399.819 145.932C399.661 145.643 399.441 145.419 399.161 145.26C398.881 145.092 398.555 145.008 398.181 145.008C397.808 145.008 397.477 145.092 397.187 145.26C396.907 145.419 396.688 145.647 396.529 145.946C396.371 146.235 396.291 146.581 396.291 146.982V147.318C396.291 147.729 396.38 148.093 396.557 148.41C396.744 148.718 397.001 148.956 397.327 149.124C397.663 149.283 398.055 149.362 398.503 149.362C398.905 149.362 399.255 149.301 399.553 149.18C399.861 149.059 400.141 148.877 400.393 148.634L401.555 149.894C401.21 150.286 400.776 150.589 400.253 150.804C399.731 151.009 399.129 151.112 398.447 151.112ZM412.754 151L410.752 147.43L412.516 146.38L415.344 151H412.754ZM409.464 148.144V146.394H412.082V148.144H409.464ZM412.74 147.486L410.682 147.262L412.852 143.468H415.162L412.74 147.486ZM405.306 151H402.73L405.544 146.38L407.308 147.43L405.306 151ZM410.108 151H407.952V143.468H410.108V151ZM408.596 148.144H405.992V146.394H408.596V148.144ZM405.32 147.486L402.898 143.468H405.208L407.364 147.262L405.32 147.486ZM416.619 151V143.468H418.789V147.948L422.457 143.468H424.459V151H422.289V146.52L418.635 151H416.619ZM426.699 151V143.468H428.869V146.408H432.145V143.468H434.329V151H432.145V148.186H428.869V151H426.699ZM441.068 151V149.53L440.928 149.208V146.576C440.928 146.109 440.783 145.745 440.494 145.484C440.214 145.223 439.78 145.092 439.192 145.092C438.79 145.092 438.394 145.157 438.002 145.288C437.619 145.409 437.292 145.577 437.022 145.792L436.238 144.266C436.648 143.977 437.143 143.753 437.722 143.594C438.3 143.435 438.888 143.356 439.486 143.356C440.634 143.356 441.525 143.627 442.16 144.168C442.794 144.709 443.112 145.554 443.112 146.702V151H441.068ZM438.772 151.112C438.184 151.112 437.68 151.014 437.26 150.818C436.84 150.613 436.518 150.337 436.294 149.992C436.07 149.647 435.958 149.259 435.958 148.83C435.958 148.382 436.065 147.99 436.28 147.654C436.504 147.318 436.854 147.057 437.33 146.87C437.806 146.674 438.426 146.576 439.192 146.576H441.194V147.85H439.43C438.916 147.85 438.562 147.934 438.366 148.102C438.179 148.27 438.086 148.48 438.086 148.732C438.086 149.012 438.193 149.236 438.408 149.404C438.632 149.563 438.935 149.642 439.318 149.642C439.682 149.642 440.008 149.558 440.298 149.39C440.587 149.213 440.797 148.956 440.928 148.62L441.264 149.628C441.105 150.113 440.816 150.482 440.396 150.734C439.976 150.986 439.434 151.112 438.772 151.112Z" fill="#7872B9"/>
</svg>
