<svg width="488" height="210" viewBox="0 0 488 210" fill="none" xmlns="http://www.w3.org/2000/svg">
<rect x="8" y="10" width="480" height="200" rx="20" fill="#CDE1FF"/>
<path d="M0 40C0 21.1438 0 11.7157 5.85786 5.85786C11.7157 0 21.1438 0 40 0H440C458.856 0 468.284 0 474.142 5.85786C480 11.7157 480 21.1438 480 40V160C480 178.856 480 188.284 474.142 194.142C468.284 200 458.856 200 440 200H40C21.1438 200 11.7157 200 5.85786 194.142C0 188.284 0 178.856 0 160V40Z" fill="white"/>
<path d="M31.218 45V35.2H35.782C36.9207 35.2 37.8073 35.4193 38.442 35.858C39.0767 36.2967 39.394 36.922 39.394 37.734C39.394 38.5367 39.0953 39.162 38.498 39.61C37.9007 40.0487 37.1073 40.268 36.118 40.268L36.384 39.68C37.4853 39.68 38.3393 39.8993 38.946 40.338C39.5527 40.7767 39.856 41.4113 39.856 42.242C39.856 43.1007 39.5293 43.7773 38.876 44.272C38.232 44.7573 37.2893 45 36.048 45H31.218ZM33.472 43.32H35.964C36.4867 43.32 36.8833 43.2173 37.154 43.012C37.4247 42.8067 37.56 42.4893 37.56 42.06C37.56 41.6493 37.4247 41.346 37.154 41.15C36.8833 40.9447 36.4867 40.842 35.964 40.842H33.472V43.32ZM33.472 39.26H35.586C36.0807 39.26 36.454 39.162 36.706 38.966C36.958 38.7607 37.084 38.462 37.084 38.07C37.084 37.678 36.958 37.384 36.706 37.188C36.454 36.9827 36.0807 36.88 35.586 36.88H33.472V39.26ZM49.3776 45V37.468H51.5476V45H49.3776ZM45.5836 39.876C46.573 39.8853 47.315 40.1093 47.8096 40.548C48.3136 40.9773 48.5656 41.5887 48.5656 42.382C48.5656 43.2127 48.281 43.8613 47.7116 44.328C47.1423 44.7853 46.335 45.014 45.2896 45.014L41.6216 45V37.468H43.7916V39.876H45.5836ZM45.0936 43.46C45.5136 43.4693 45.8356 43.3807 46.0596 43.194C46.2836 43.0073 46.3956 42.7273 46.3956 42.354C46.3956 41.9807 46.2836 41.7147 46.0596 41.556C45.8356 41.388 45.5136 41.2993 45.0936 41.29L43.7916 41.276V43.46H45.0936ZM57.5309 45.168C56.9149 45.168 56.3549 45.0793 55.8509 44.902C55.3469 44.7153 54.9082 44.4307 54.5349 44.048C54.1709 43.656 53.8862 43.1567 53.6809 42.55C53.4849 41.9433 53.3869 41.22 53.3869 40.38C53.3869 39.7827 53.4382 39.2367 53.5409 38.742C53.6436 38.2473 53.7976 37.7993 54.0029 37.398C54.2082 36.9873 54.4696 36.628 54.7869 36.32C55.1136 36.0027 55.4916 35.7413 55.9209 35.536C56.3596 35.3213 56.8542 35.158 57.4049 35.046L60.9889 34.332L61.2829 36.208L58.1189 36.838C57.9322 36.8753 57.7176 36.9267 57.4749 36.992C57.2416 37.048 57.0036 37.1367 56.7609 37.258C56.5276 37.3793 56.3082 37.552 56.1029 37.776C55.9069 37.9907 55.7482 38.2753 55.6269 38.63C55.5056 38.9753 55.4449 39.4047 55.4449 39.918C55.4449 40.0767 55.4496 40.198 55.4589 40.282C55.4776 40.366 55.4916 40.4547 55.5009 40.548C55.5196 40.6413 55.5289 40.786 55.5289 40.982L54.8289 40.296C55.0342 39.8573 55.2956 39.484 55.6129 39.176C55.9396 38.868 56.3129 38.6347 56.7329 38.476C57.1622 38.308 57.6382 38.224 58.1609 38.224C58.8702 38.224 59.4909 38.3687 60.0229 38.658C60.5642 38.938 60.9842 39.3347 61.2829 39.848C61.5816 40.3613 61.7309 40.9447 61.7309 41.598C61.7309 42.3073 61.5536 42.9327 61.1989 43.474C60.8442 44.006 60.3496 44.4213 59.7149 44.72C59.0896 45.0187 58.3616 45.168 57.5309 45.168ZM57.6429 43.474C58.0069 43.474 58.3289 43.3947 58.6089 43.236C58.8889 43.068 59.1036 42.8487 59.2529 42.578C59.4116 42.298 59.4909 41.9853 59.4909 41.64C59.4909 41.304 59.4116 41.0053 59.2529 40.744C59.1036 40.4827 58.8889 40.2773 58.6089 40.128C58.3289 39.9787 58.0022 39.904 57.6289 39.904C57.2649 39.904 56.9382 39.9787 56.6489 40.128C56.3596 40.268 56.1356 40.464 55.9769 40.716C55.8182 40.968 55.7389 41.262 55.7389 41.598C55.7389 41.9433 55.8182 42.2607 55.9769 42.55C56.1449 42.83 56.3689 43.054 56.6489 43.222C56.9382 43.39 57.2696 43.474 57.6429 43.474ZM67.0348 45.112C66.1761 45.112 65.4201 44.944 64.7668 44.608C64.1228 44.272 63.6235 43.8147 63.2688 43.236C62.9141 42.648 62.7368 41.9807 62.7368 41.234C62.7368 40.478 62.9095 39.8107 63.2548 39.232C63.6095 38.644 64.0901 38.1867 64.6968 37.86C65.3035 37.524 65.9895 37.356 66.7548 37.356C67.4921 37.356 68.1548 37.5147 68.7428 37.832C69.3401 38.14 69.8115 38.588 70.1568 39.176C70.5021 39.7547 70.6748 40.45 70.6748 41.262C70.6748 41.346 70.6701 41.444 70.6608 41.556C70.6515 41.6587 70.6421 41.7567 70.6328 41.85H64.5148V40.576H69.4848L68.6448 40.954C68.6448 40.562 68.5655 40.2213 68.4068 39.932C68.2481 39.6427 68.0288 39.4187 67.7488 39.26C67.4688 39.092 67.1421 39.008 66.7688 39.008C66.3955 39.008 66.0641 39.092 65.7748 39.26C65.4948 39.4187 65.2755 39.6473 65.1168 39.946C64.9581 40.2353 64.8788 40.5807 64.8788 40.982V41.318C64.8788 41.7287 64.9675 42.0927 65.1448 42.41C65.3315 42.718 65.5881 42.956 65.9148 43.124C66.2508 43.2827 66.6428 43.362 67.0908 43.362C67.4921 43.362 67.8421 43.3013 68.1408 43.18C68.4488 43.0587 68.7288 42.8767 68.9808 42.634L70.1428 43.894C69.7975 44.286 69.3635 44.5893 68.8408 44.804C68.3181 45.0093 67.7161 45.112 67.0348 45.112ZM76.9269 45.112C76.2922 45.112 75.7369 44.972 75.2609 44.692C74.7849 44.412 74.4116 43.9873 74.1409 43.418C73.8796 42.8393 73.7489 42.1113 73.7489 41.234C73.7489 40.3473 73.8749 39.6193 74.1269 39.05C74.3789 38.4807 74.7429 38.056 75.2189 37.776C75.6949 37.496 76.2642 37.356 76.9269 37.356C77.6362 37.356 78.2709 37.5193 78.8309 37.846C79.4002 38.1633 79.8482 38.6113 80.1749 39.19C80.5109 39.7687 80.6789 40.45 80.6789 41.234C80.6789 42.0273 80.5109 42.7133 80.1749 43.292C79.8482 43.8707 79.4002 44.3187 78.8309 44.636C78.2709 44.9533 77.6362 45.112 76.9269 45.112ZM72.4749 47.716V37.468H74.5609V39.008L74.5189 41.248L74.6589 43.474V47.716H72.4749ZM76.5489 43.32C76.9129 43.32 77.2349 43.236 77.5149 43.068C77.8042 42.9 78.0329 42.662 78.2009 42.354C78.3782 42.0367 78.4669 41.6633 78.4669 41.234C78.4669 40.7953 78.3782 40.422 78.2009 40.114C78.0329 39.806 77.8042 39.568 77.5149 39.4C77.2349 39.232 76.9129 39.148 76.5489 39.148C76.1849 39.148 75.8582 39.232 75.5689 39.4C75.2796 39.568 75.0509 39.806 74.8829 40.114C74.7149 40.422 74.6309 40.7953 74.6309 41.234C74.6309 41.6633 74.7149 42.0367 74.8829 42.354C75.0509 42.662 75.2796 42.9 75.5689 43.068C75.8582 43.236 76.1849 43.32 76.5489 43.32ZM82.3496 45V37.468H84.5196V41.948L88.1876 37.468H90.1896V45H88.0196V40.52L84.3656 45H82.3496ZM94.0391 45V38.756L94.5291 39.26H91.4911V37.468H98.7571V39.26H95.7191L96.2091 38.756V45H94.0391ZM103.429 45.112C102.57 45.112 101.814 44.944 101.161 44.608C100.517 44.272 100.017 43.8147 99.6628 43.236C99.3081 42.648 99.1308 41.9807 99.1308 41.234C99.1308 40.478 99.3035 39.8107 99.6488 39.232C100.003 38.644 100.484 38.1867 101.091 37.86C101.697 37.524 102.383 37.356 103.149 37.356C103.886 37.356 104.549 37.5147 105.137 37.832C105.734 38.14 106.205 38.588 106.551 39.176C106.896 39.7547 107.069 40.45 107.069 41.262C107.069 41.346 107.064 41.444 107.055 41.556C107.045 41.6587 107.036 41.7567 107.027 41.85H100.909V40.576H105.879L105.039 40.954C105.039 40.562 104.959 40.2213 104.801 39.932C104.642 39.6427 104.423 39.4187 104.143 39.26C103.863 39.092 103.536 39.008 103.163 39.008C102.789 39.008 102.458 39.092 102.169 39.26C101.889 39.4187 101.669 39.6473 101.511 39.946C101.352 40.2353 101.273 40.5807 101.273 40.982V41.318C101.273 41.7287 101.361 42.0927 101.539 42.41C101.725 42.718 101.982 42.956 102.309 43.124C102.645 43.2827 103.037 43.362 103.485 43.362C103.886 43.362 104.236 43.3013 104.535 43.18C104.843 43.0587 105.123 42.8767 105.375 42.634L106.537 43.894C106.191 44.286 105.757 44.5893 105.235 44.804C104.712 45.0093 104.11 45.112 103.429 45.112ZM112.988 45V37.468H115.158V40.408H118.434V37.468H120.618V45H118.434V42.186H115.158V45H112.988ZM127.356 45V43.53L127.216 43.208V40.576C127.216 40.1093 127.072 39.7453 126.782 39.484C126.502 39.2227 126.068 39.092 125.48 39.092C125.079 39.092 124.682 39.1573 124.29 39.288C123.908 39.4093 123.581 39.5773 123.31 39.792L122.526 38.266C122.937 37.9767 123.432 37.7527 124.01 37.594C124.589 37.4353 125.177 37.356 125.774 37.356C126.922 37.356 127.814 37.6267 128.448 38.168C129.083 38.7093 129.4 39.554 129.4 40.702V45H127.356ZM125.06 45.112C124.472 45.112 123.968 45.014 123.548 44.818C123.128 44.6127 122.806 44.3373 122.582 43.992C122.358 43.6467 122.246 43.2593 122.246 42.83C122.246 42.382 122.354 41.99 122.568 41.654C122.792 41.318 123.142 41.0567 123.618 40.87C124.094 40.674 124.715 40.576 125.48 40.576H127.482V41.85H125.718C125.205 41.85 124.85 41.934 124.654 42.102C124.468 42.27 124.374 42.48 124.374 42.732C124.374 43.012 124.482 43.236 124.696 43.404C124.92 43.5627 125.224 43.642 125.606 43.642C125.97 43.642 126.297 43.558 126.586 43.39C126.876 43.2127 127.086 42.956 127.216 42.62L127.552 43.628C127.394 44.1133 127.104 44.482 126.684 44.734C126.264 44.986 125.723 45.112 125.06 45.112ZM131.438 45V37.468H133.608V41.948L137.276 37.468H139.278V45H137.108V40.52L133.454 45H131.438ZM145.255 45.168C144.639 45.168 144.079 45.0793 143.575 44.902C143.071 44.7153 142.632 44.4307 142.259 44.048C141.895 43.656 141.61 43.1567 141.405 42.55C141.209 41.9433 141.111 41.22 141.111 40.38C141.111 39.7827 141.162 39.2367 141.265 38.742C141.368 38.2473 141.522 37.7993 141.727 37.398C141.932 36.9873 142.194 36.628 142.511 36.32C142.838 36.0027 143.216 35.7413 143.645 35.536C144.084 35.3213 144.578 35.158 145.129 35.046L148.713 34.332L149.007 36.208L145.843 36.838C145.656 36.8753 145.442 36.9267 145.199 36.992C144.966 37.048 144.728 37.1367 144.485 37.258C144.252 37.3793 144.032 37.552 143.827 37.776C143.631 37.9907 143.472 38.2753 143.351 38.63C143.23 38.9753 143.169 39.4047 143.169 39.918C143.169 40.0767 143.174 40.198 143.183 40.282C143.202 40.366 143.216 40.4547 143.225 40.548C143.244 40.6413 143.253 40.786 143.253 40.982L142.553 40.296C142.758 39.8573 143.02 39.484 143.337 39.176C143.664 38.868 144.037 38.6347 144.457 38.476C144.886 38.308 145.362 38.224 145.885 38.224C146.594 38.224 147.215 38.3687 147.747 38.658C148.288 38.938 148.708 39.3347 149.007 39.848C149.306 40.3613 149.455 40.9447 149.455 41.598C149.455 42.3073 149.278 42.9327 148.923 43.474C148.568 44.006 148.074 44.4213 147.439 44.72C146.814 45.0187 146.086 45.168 145.255 45.168ZM145.367 43.474C145.731 43.474 146.053 43.3947 146.333 43.236C146.613 43.068 146.828 42.8487 146.977 42.578C147.136 42.298 147.215 41.9853 147.215 41.64C147.215 41.304 147.136 41.0053 146.977 40.744C146.828 40.4827 146.613 40.2773 146.333 40.128C146.053 39.9787 145.726 39.904 145.353 39.904C144.989 39.904 144.662 39.9787 144.373 40.128C144.084 40.268 143.86 40.464 143.701 40.716C143.542 40.968 143.463 41.262 143.463 41.598C143.463 41.9433 143.542 42.2607 143.701 42.55C143.869 42.83 144.093 43.054 144.373 43.222C144.662 43.39 144.994 43.474 145.367 43.474ZM154.605 45.112C153.802 45.112 153.088 44.944 152.463 44.608C151.847 44.272 151.357 43.8147 150.993 43.236C150.638 42.648 150.461 41.9807 150.461 41.234C150.461 40.478 150.638 39.8107 150.993 39.232C151.357 38.644 151.847 38.1867 152.463 37.86C153.088 37.524 153.802 37.356 154.605 37.356C155.398 37.356 156.108 37.524 156.733 37.86C157.358 38.1867 157.848 38.6393 158.203 39.218C158.558 39.7967 158.735 40.4687 158.735 41.234C158.735 41.9807 158.558 42.648 158.203 43.236C157.848 43.8147 157.358 44.272 156.733 44.608C156.108 44.944 155.398 45.112 154.605 45.112ZM154.605 43.32C154.969 43.32 155.296 43.236 155.585 43.068C155.874 42.9 156.103 42.662 156.271 42.354C156.439 42.0367 156.523 41.6633 156.523 41.234C156.523 40.7953 156.439 40.422 156.271 40.114C156.103 39.806 155.874 39.568 155.585 39.4C155.296 39.232 154.969 39.148 154.605 39.148C154.241 39.148 153.914 39.232 153.625 39.4C153.336 39.568 153.102 39.806 152.925 40.114C152.757 40.422 152.673 40.7953 152.673 41.234C152.673 41.6633 152.757 42.0367 152.925 42.354C153.102 42.662 153.336 42.9 153.625 43.068C153.914 43.236 154.241 43.32 154.605 43.32ZM159.316 44.986L159.428 43.194C159.484 43.2033 159.54 43.2127 159.596 43.222C159.652 43.222 159.703 43.222 159.75 43.222C160.011 43.222 160.216 43.1473 160.366 42.998C160.515 42.8487 160.627 42.648 160.702 42.396C160.776 42.1347 160.828 41.8407 160.856 41.514C160.893 41.1873 160.921 40.8467 160.94 40.492L161.052 37.468H167.492V45H165.308V38.728L165.798 39.26H162.494L162.956 38.7L162.858 40.59C162.83 41.262 162.774 41.878 162.69 42.438C162.615 42.998 162.489 43.4833 162.312 43.894C162.134 44.2953 161.896 44.608 161.598 44.832C161.299 45.0467 160.916 45.154 160.45 45.154C160.282 45.154 160.104 45.14 159.918 45.112C159.731 45.084 159.53 45.042 159.316 44.986ZM173.414 45.112C172.555 45.112 171.799 44.944 171.146 44.608C170.502 44.272 170.003 43.8147 169.648 43.236C169.293 42.648 169.116 41.9807 169.116 41.234C169.116 40.478 169.289 39.8107 169.634 39.232C169.989 38.644 170.469 38.1867 171.076 37.86C171.683 37.524 172.369 37.356 173.134 37.356C173.871 37.356 174.534 37.5147 175.122 37.832C175.719 38.14 176.191 38.588 176.536 39.176C176.881 39.7547 177.054 40.45 177.054 41.262C177.054 41.346 177.049 41.444 177.04 41.556C177.031 41.6587 177.021 41.7567 177.012 41.85H170.894V40.576H175.864L175.024 40.954C175.024 40.562 174.945 40.2213 174.786 39.932C174.627 39.6427 174.408 39.4187 174.128 39.26C173.848 39.092 173.521 39.008 173.148 39.008C172.775 39.008 172.443 39.092 172.154 39.26C171.874 39.4187 171.655 39.6473 171.496 39.946C171.337 40.2353 171.258 40.5807 171.258 40.982V41.318C171.258 41.7287 171.347 42.0927 171.524 42.41C171.711 42.718 171.967 42.956 172.294 43.124C172.63 43.2827 173.022 43.362 173.47 43.362C173.871 43.362 174.221 43.3013 174.52 43.18C174.828 43.0587 175.108 42.8767 175.36 42.634L176.522 43.894C176.177 44.286 175.743 44.5893 175.22 44.804C174.697 45.0093 174.095 45.112 173.414 45.112ZM182.55 45.112C181.691 45.112 180.935 44.944 180.282 44.608C179.638 44.272 179.139 43.8147 178.784 43.236C178.429 42.648 178.252 41.9807 178.252 41.234C178.252 40.478 178.425 39.8107 178.77 39.232C179.125 38.644 179.605 38.1867 180.212 37.86C180.819 37.524 181.505 37.356 182.27 37.356C183.007 37.356 183.67 37.5147 184.258 37.832C184.855 38.14 185.327 38.588 185.672 39.176C186.017 39.7547 186.19 40.45 186.19 41.262C186.19 41.346 186.185 41.444 186.176 41.556C186.167 41.6587 186.157 41.7567 186.148 41.85H180.03V40.576H185L184.16 40.954C184.16 40.562 184.081 40.2213 183.922 39.932C183.763 39.6427 183.544 39.4187 183.264 39.26C182.984 39.092 182.657 39.008 182.284 39.008C181.911 39.008 181.579 39.092 181.29 39.26C181.01 39.4187 180.791 39.6473 180.632 39.946C180.473 40.2353 180.394 40.5807 180.394 40.982V41.318C180.394 41.7287 180.483 42.0927 180.66 42.41C180.847 42.718 181.103 42.956 181.43 43.124C181.766 43.2827 182.158 43.362 182.606 43.362C183.007 43.362 183.357 43.3013 183.656 43.18C183.964 43.0587 184.244 42.8767 184.496 42.634L185.658 43.894C185.313 44.286 184.879 44.5893 184.356 44.804C183.833 45.0093 183.231 45.112 182.55 45.112ZM192.109 45V37.468H194.279V41.948L197.947 37.468H199.949V45H197.779V40.52L194.125 45H192.109ZM202.189 45V37.468H204.359V40.408H207.635V37.468H209.819V45H207.635V42.186H204.359V45H202.189ZM213.659 45V38.756L214.149 39.26H211.111V37.468H218.377V39.26H215.339L215.829 38.756V45H213.659ZM223.049 45.112C222.19 45.112 221.434 44.944 220.781 44.608C220.137 44.272 219.638 43.8147 219.283 43.236C218.928 42.648 218.751 41.9807 218.751 41.234C218.751 40.478 218.924 39.8107 219.269 39.232C219.624 38.644 220.104 38.1867 220.711 37.86C221.318 37.524 222.004 37.356 222.769 37.356C223.506 37.356 224.169 37.5147 224.757 37.832C225.354 38.14 225.826 38.588 226.171 39.176C226.516 39.7547 226.689 40.45 226.689 41.262C226.689 41.346 226.684 41.444 226.675 41.556C226.666 41.6587 226.656 41.7567 226.647 41.85H220.529V40.576H225.499L224.659 40.954C224.659 40.562 224.58 40.2213 224.421 39.932C224.262 39.6427 224.043 39.4187 223.763 39.26C223.483 39.092 223.156 39.008 222.783 39.008C222.41 39.008 222.078 39.092 221.789 39.26C221.509 39.4187 221.29 39.6473 221.131 39.946C220.972 40.2353 220.893 40.5807 220.893 40.982V41.318C220.893 41.7287 220.982 42.0927 221.159 42.41C221.346 42.718 221.602 42.956 221.929 43.124C222.265 43.2827 222.657 43.362 223.105 43.362C223.506 43.362 223.856 43.3013 224.155 43.18C224.463 43.0587 224.743 42.8767 224.995 42.634L226.157 43.894C225.812 44.286 225.378 44.5893 224.855 44.804C224.332 45.0093 223.73 45.112 223.049 45.112ZM232.941 45.112C232.306 45.112 231.751 44.972 231.275 44.692C230.799 44.412 230.426 43.9873 230.155 43.418C229.894 42.8393 229.763 42.1113 229.763 41.234C229.763 40.3473 229.889 39.6193 230.141 39.05C230.393 38.4807 230.757 38.056 231.233 37.776C231.709 37.496 232.278 37.356 232.941 37.356C233.65 37.356 234.285 37.5193 234.845 37.846C235.414 38.1633 235.862 38.6113 236.189 39.19C236.525 39.7687 236.693 40.45 236.693 41.234C236.693 42.0273 236.525 42.7133 236.189 43.292C235.862 43.8707 235.414 44.3187 234.845 44.636C234.285 44.9533 233.65 45.112 232.941 45.112ZM228.489 47.716V37.468H230.575V39.008L230.533 41.248L230.673 43.474V47.716H228.489ZM232.563 43.32C232.927 43.32 233.249 43.236 233.529 43.068C233.818 42.9 234.047 42.662 234.215 42.354C234.392 42.0367 234.481 41.6633 234.481 41.234C234.481 40.7953 234.392 40.422 234.215 40.114C234.047 39.806 233.818 39.568 233.529 39.4C233.249 39.232 232.927 39.148 232.563 39.148C232.199 39.148 231.872 39.232 231.583 39.4C231.294 39.568 231.065 39.806 230.897 40.114C230.729 40.422 230.645 40.7953 230.645 41.234C230.645 41.6633 230.729 42.0367 230.897 42.354C231.065 42.662 231.294 42.9 231.583 43.068C231.872 43.236 232.199 43.32 232.563 43.32ZM242.046 45.112C241.187 45.112 240.431 44.944 239.778 44.608C239.134 44.272 238.634 43.8147 238.28 43.236C237.925 42.648 237.748 41.9807 237.748 41.234C237.748 40.478 237.92 39.8107 238.266 39.232C238.62 38.644 239.101 38.1867 239.708 37.86C240.314 37.524 241 37.356 241.766 37.356C242.503 37.356 243.166 37.5147 243.754 37.832C244.351 38.14 244.822 38.588 245.168 39.176C245.513 39.7547 245.686 40.45 245.686 41.262C245.686 41.346 245.681 41.444 245.672 41.556C245.662 41.6587 245.653 41.7567 245.644 41.85H239.526V40.576H244.496L243.656 40.954C243.656 40.562 243.576 40.2213 243.418 39.932C243.259 39.6427 243.04 39.4187 242.76 39.26C242.48 39.092 242.153 39.008 241.78 39.008C241.406 39.008 241.075 39.092 240.786 39.26C240.506 39.4187 240.286 39.6473 240.128 39.946C239.969 40.2353 239.89 40.5807 239.89 40.982V41.318C239.89 41.7287 239.978 42.0927 240.156 42.41C240.342 42.718 240.599 42.956 240.926 43.124C241.262 43.2827 241.654 43.362 242.102 43.362C242.503 43.362 242.853 43.3013 243.152 43.18C243.46 43.0587 243.74 42.8767 243.992 42.634L245.154 43.894C244.808 44.286 244.374 44.5893 243.852 44.804C243.329 45.0093 242.727 45.112 242.046 45.112ZM251.084 45.112C250.272 45.112 249.549 44.9487 248.914 44.622C248.279 44.286 247.78 43.824 247.416 43.236C247.061 42.648 246.884 41.9807 246.884 41.234C246.884 40.478 247.061 39.8107 247.416 39.232C247.78 38.644 248.279 38.1867 248.914 37.86C249.549 37.524 250.272 37.356 251.084 37.356C251.877 37.356 252.568 37.524 253.156 37.86C253.744 38.1867 254.178 38.658 254.458 39.274L252.764 40.184C252.568 39.8293 252.321 39.568 252.022 39.4C251.733 39.232 251.415 39.148 251.07 39.148C250.697 39.148 250.361 39.232 250.062 39.4C249.763 39.568 249.525 39.806 249.348 40.114C249.18 40.422 249.096 40.7953 249.096 41.234C249.096 41.6727 249.18 42.046 249.348 42.354C249.525 42.662 249.763 42.9 250.062 43.068C250.361 43.236 250.697 43.32 251.07 43.32C251.415 43.32 251.733 43.2407 252.022 43.082C252.321 42.914 252.568 42.648 252.764 42.284L254.458 43.208C254.178 43.8147 253.744 44.286 253.156 44.622C252.568 44.9487 251.877 45.112 251.084 45.112ZM256.838 47.828C256.446 47.828 256.058 47.7673 255.676 47.646C255.293 47.5247 254.98 47.3567 254.738 47.142L255.536 45.588C255.704 45.7373 255.895 45.854 256.11 45.938C256.334 46.022 256.553 46.064 256.768 46.064C257.076 46.064 257.318 45.9893 257.496 45.84C257.682 45.7 257.85 45.462 258 45.126L258.392 44.202L258.56 43.964L261.262 37.468H263.362L259.96 45.462C259.717 46.0687 259.437 46.5447 259.12 46.89C258.812 47.2353 258.466 47.478 258.084 47.618C257.71 47.758 257.295 47.828 256.838 47.828ZM258.126 45.294L254.766 37.468H257.02L259.624 43.768L258.126 45.294ZM264.555 45V37.468H266.725V40.24H268.937V42.13H266.725V45H264.555ZM271.681 45.112C270.907 45.112 270.216 44.944 269.609 44.608C269.003 44.272 268.527 43.8147 268.181 43.236C267.836 42.648 267.663 41.9807 267.663 41.234C267.663 40.478 267.836 39.8107 268.181 39.232C268.527 38.644 269.003 38.1867 269.609 37.86C270.216 37.524 270.907 37.356 271.681 37.356C272.456 37.356 273.142 37.524 273.739 37.86C274.346 38.1867 274.822 38.644 275.167 39.232C275.513 39.8107 275.685 40.478 275.685 41.234C275.685 41.9807 275.513 42.648 275.167 43.236C274.822 43.824 274.346 44.286 273.739 44.622C273.142 44.9487 272.456 45.112 271.681 45.112ZM271.681 43.32C272.036 43.32 272.349 43.236 272.619 43.068C272.899 42.9 273.119 42.662 273.277 42.354C273.445 42.0367 273.529 41.6633 273.529 41.234C273.529 40.7953 273.445 40.422 273.277 40.114C273.119 39.806 272.899 39.568 272.619 39.4C272.349 39.232 272.036 39.148 271.681 39.148C271.336 39.148 271.019 39.232 270.729 39.4C270.449 39.568 270.225 39.806 270.057 40.114C269.899 40.422 269.819 40.7953 269.819 41.234C269.819 41.6633 269.899 42.0367 270.057 42.354C270.225 42.662 270.449 42.9 270.729 43.068C271.019 43.236 271.336 43.32 271.681 43.32ZM282.48 43.208L282.004 43.712V37.468H284.188V43.712L283.684 43.208H287.156L286.666 43.712V37.468H288.836V45H277.342V37.468H279.512V43.712L279.022 43.208H282.48ZM287.856 46.498V44.496L288.346 45H286.61V43.208H289.886V46.498H287.856ZM291.072 45V37.468H293.242V41.948L296.91 37.468H298.912V45H296.742V40.52L293.088 45H291.072ZM304.833 45.112C303.974 45.112 303.218 44.944 302.565 44.608C301.921 44.272 301.422 43.8147 301.067 43.236C300.712 42.648 300.535 41.9807 300.535 41.234C300.535 40.478 300.708 39.8107 301.053 39.232C301.408 38.644 301.888 38.1867 302.495 37.86C303.102 37.524 303.788 37.356 304.553 37.356C305.29 37.356 305.953 37.5147 306.541 37.832C307.138 38.14 307.61 38.588 307.955 39.176C308.3 39.7547 308.473 40.45 308.473 41.262C308.473 41.346 308.468 41.444 308.459 41.556C308.45 41.6587 308.44 41.7567 308.431 41.85H302.313V40.576H307.283L306.443 40.954C306.443 40.562 306.364 40.2213 306.205 39.932C306.046 39.6427 305.827 39.4187 305.547 39.26C305.267 39.092 304.94 39.008 304.567 39.008C304.194 39.008 303.862 39.092 303.573 39.26C303.293 39.4187 303.074 39.6473 302.915 39.946C302.756 40.2353 302.677 40.5807 302.677 40.982V41.318C302.677 41.7287 302.766 42.0927 302.943 42.41C303.13 42.718 303.386 42.956 303.713 43.124C304.049 43.2827 304.441 43.362 304.889 43.362C305.29 43.362 305.64 43.3013 305.939 43.18C306.247 43.0587 306.527 42.8767 306.779 42.634L307.941 43.894C307.596 44.286 307.162 44.5893 306.639 44.804C306.116 45.0093 305.514 45.112 304.833 45.112ZM316.002 45V38.756L316.492 39.26H313.454V37.468H320.72V39.26H317.682L318.172 38.756V45H316.002ZM325.392 45.112C324.533 45.112 323.777 44.944 323.124 44.608C322.48 44.272 321.98 43.8147 321.626 43.236C321.271 42.648 321.094 41.9807 321.094 41.234C321.094 40.478 321.266 39.8107 321.612 39.232C321.966 38.644 322.447 38.1867 323.054 37.86C323.66 37.524 324.346 37.356 325.112 37.356C325.849 37.356 326.512 37.5147 327.1 37.832C327.697 38.14 328.168 38.588 328.514 39.176C328.859 39.7547 329.032 40.45 329.032 41.262C329.032 41.346 329.027 41.444 329.018 41.556C329.008 41.6587 328.999 41.7567 328.99 41.85H322.872V40.576H327.842L327.002 40.954C327.002 40.562 326.922 40.2213 326.764 39.932C326.605 39.6427 326.386 39.4187 326.106 39.26C325.826 39.092 325.499 39.008 325.126 39.008C324.752 39.008 324.421 39.092 324.132 39.26C323.852 39.4187 323.632 39.6473 323.474 39.946C323.315 40.2353 323.236 40.5807 323.236 40.982V41.318C323.236 41.7287 323.324 42.0927 323.502 42.41C323.688 42.718 323.945 42.956 324.272 43.124C324.608 43.2827 325 43.362 325.448 43.362C325.849 43.362 326.199 43.3013 326.498 43.18C326.806 43.0587 327.086 42.8767 327.338 42.634L328.5 43.894C328.154 44.286 327.72 44.5893 327.198 44.804C326.675 45.0093 326.073 45.112 325.392 45.112ZM330.846 45V37.468H333.128L335.97 42.62H335.06L338.098 37.468H340.142L340.17 45H338.196V39.708L338.532 39.932L335.942 44.272H335.018L332.414 39.778L332.82 39.68V45H330.846ZM350.158 45V37.468H352.328V45H350.158ZM346.364 39.876C347.353 39.8853 348.095 40.1093 348.59 40.548C349.094 40.9773 349.346 41.5887 349.346 42.382C349.346 43.2127 349.061 43.8613 348.492 44.328C347.922 44.7853 347.115 45.014 346.07 45.014L342.402 45V37.468H344.572V39.876H346.364ZM345.874 43.46C346.294 43.4693 346.616 43.3807 346.84 43.194C347.064 43.0073 347.176 42.7273 347.176 42.354C347.176 41.9807 347.064 41.7147 346.84 41.556C346.616 41.388 346.294 41.2993 345.874 41.29L344.572 41.276V43.46H345.874Z" fill="#7872B9"/>
<rect x="30" y="70" width="20" height="20" rx="5" fill="#9691D2"/>
<rect x="70" y="75" width="150" height="10" rx="5" fill="#EBF5FF"/>
<rect x="30" y="110" width="20" height="20" rx="5" stroke="#9691D2"/>
<rect x="70" y="115" width="150" height="10" rx="5" fill="#EBF5FF"/>
<rect x="30" y="150" width="20" height="20" rx="5" fill="#9691D2"/>
<rect x="70" y="155" width="150" height="10" rx="5" fill="#EBF5FF"/>
<rect x="250" y="70" width="20" height="20" rx="5" fill="#9691D2"/>
<rect x="290" y="75" width="150" height="10" rx="5" fill="#EBF5FF"/>
<rect x="250" y="110" width="20" height="20" rx="5" stroke="#9691D2"/>
<rect x="290" y="115" width="150" height="10" rx="5" fill="#EBF5FF"/>
<rect x="250" y="150" width="20" height="20" rx="5" stroke="#9691D2"/>
<rect x="290" y="155" width="150" height="10" rx="5" fill="#EBF5FF"/>
</svg>
